<?xml version="1.0" standalone="no"?>
<!DOCTYPE svg PUBLIC "-//W3C//DTD SVG 1.1//EN" "http://www.w3.org/Graphics/SVG/1.1/DTD/svg11.dtd" >
<svg xmlns="http://www.w3.org/2000/svg" xmlns:xlink="http://www.w3.org/1999/xlink" version="1.1">
<metadata></metadata>
<defs>
<font id="clarkeregular" horiz-adv-x="913" >
<font-face units-per-em="2048" ascent="1638" descent="-410" />
<missing-glyph horiz-adv-x="645" />
<glyph horiz-adv-x="0" />
<glyph horiz-adv-x="682" />
<glyph horiz-adv-x="0" />
<glyph horiz-adv-x="0" />
<glyph unicode="&#xd;" horiz-adv-x="645" />
<glyph unicode=" "  horiz-adv-x="645" />
<glyph unicode="&#x09;" horiz-adv-x="645" />
<glyph unicode="&#xa0;" horiz-adv-x="645" />
<glyph unicode="!" horiz-adv-x="440" d="M133 27v129q0 11 7.5 17.5t19.5 6.5h123q11 0 17.5 -7t6.5 -17v-129q0 -12 -6.5 -19.5t-17.5 -7.5h-123q-12 0 -19.5 7.5t-7.5 19.5zM133 295v1153q0 12 7.5 19.5t19.5 7.5h123q11 0 17.5 -7.5t6.5 -19.5v-1153q0 -11 -7 -19t-17 -8h-123q-12 0 -19.5 8t-7.5 19z" />
<glyph unicode="&#x22;" horiz-adv-x="509" d="M61 1276v199q0 10 8 18t19 8h115q10 0 17 -7.5t7 -18.5v-199q0 -53 -24.5 -79t-57.5 -26q-34 0 -59 26t-25 79zM283 1276v199q0 11 7.5 18.5t18.5 7.5h115q10 0 17.5 -7.5t7.5 -18.5v-199q0 -53 -24.5 -79t-57.5 -26q-34 0 -59 26t-25 79z" />
<glyph unicode="#" horiz-adv-x="1316" d="M113 459v112q0 11 8 19t18 8h183l73 240h-168q-10 0 -17 7.5t-7 18.5v113q0 11 7 19t17 8h213l72 286h166l-74 -286h260l72 286h166l-74 -286h152q10 0 17 -8t7 -19v-113q0 -11 -7 -18.5t-17 -7.5h-199l-74 -240h170q11 0 19 -8t8 -19v-112q0 -11 -8 -19t-19 -8h-213 l-63 -248h-160l61 248h-262l-63 -248h-160l62 248h-140q-10 0 -18 8t-8 19zM483 598h262l74 240h-262z" />
<glyph unicode="$" horiz-adv-x="866" d="M102 207v227q0 12 8 19.5t19 7.5h123q12 0 19.5 -7.5t7.5 -19.5v-233q0 -22 15.5 -38t37.5 -16h203q22 0 37.5 16t15.5 38v411q0 22 -15.5 38t-37.5 16h-216q-89 0 -153 63t-64 152v387q0 90 63.5 152.5t153.5 62.5h41v76q0 12 7 19t18 7h86q27 0 27 -26v-76h41 q88 0 151.5 -62.5t63.5 -152.5v-135q0 -12 -7 -19.5t-18 -7.5h-125q-11 0 -17.5 7.5t-6.5 19.5v133q0 23 -16 38t-38 15h-194q-22 0 -37.5 -15t-15.5 -38v-355q0 -22 15.5 -37.5t37.5 -15.5h215q90 0 153.5 -62.5t63.5 -152.5v-436q0 -90 -63.5 -153.5t-153.5 -63.5h-49v-70 q0 -11 -7.5 -17.5t-19.5 -6.5h-86q-11 0 -18 7t-7 17v70h-41q-90 0 -153.5 63.5t-63.5 153.5z" />
<glyph unicode="%" horiz-adv-x="1716" d="M123 897v371q0 90 63.5 152.5t151.5 62.5h174q88 0 151.5 -62.5t63.5 -152.5v-371q0 -89 -63.5 -152t-151.5 -63h-174q-88 0 -151.5 63t-63.5 152zM297 893q0 -23 16 -39t39 -16h148q22 0 37.5 16t15.5 39v373q0 23 -15.5 38t-37.5 15h-148q-23 0 -39 -15t-16 -38v-373z M570.5 8q-2.5 6 2.5 19l390 1421q4 12 12 19t14 7l6 1h148q1 0 2.5 -1t4 -7t-2.5 -19l-395 -1421q-4 -12 -11.5 -19t-13.5 -8h-6h-143q-1 0 -3 1t-4.5 7zM989 207v371q0 89 63.5 152t151.5 63h174q88 0 151.5 -63t63.5 -152v-371q0 -90 -63.5 -153.5t-151.5 -63.5h-174 q-88 0 -151.5 63.5t-63.5 153.5zM1163 201q0 -22 16.5 -38t39.5 -16h147q22 0 37.5 16t15.5 38v374q0 22 -15.5 38t-37.5 16h-147q-23 0 -39.5 -16t-16.5 -38v-374z" />
<glyph unicode="&#x26;" horiz-adv-x="960" d="M92 215v213q0 36 30.5 98t63.5 111.5t95 136.5q-152 304 -152 377v117q0 90 63.5 152.5t153.5 62.5h123q90 0 152.5 -62.5t62.5 -152.5v-121q0 -25 -13 -59.5t-49 -92.5t-55 -86t-74 -107q-15 -21 -22 -32l121 -240l65 117q13 25 27 25h125q10 0 15.5 -8t0.5 -17 l-147 -276q45 -87 92 -173t72 -128l24 -43q3 -11 -1.5 -19t-16.5 -8h-129q-14 0 -29 27q-43 70 -100 174l-109 -201h-172q-89 0 -153 63t-64 152zM268 211q0 -23 16 -39t38 -16h65l113 204q-126 235 -135 252q-97 -155 -97 -206v-195zM305 1169q0 -46 88 -237 q117 170 117 233v109q0 22 -15.5 37.5t-37.5 15.5h-99q-22 0 -37.5 -15.5t-15.5 -37.5v-105z" />
<glyph unicode="'" horiz-adv-x="288" d="M61 1276v199q0 10 8 18t19 8h115q10 0 17 -7.5t7 -18.5v-199q0 -53 -24.5 -79t-57.5 -26q-34 0 -59 26t-25 79z" />
<glyph unicode="(" horiz-adv-x="591" d="M133 4v1466q0 90 63.5 153t151.5 63h137q11 0 18 -7t7 -18v-113q0 -11 -7.5 -18.5t-17.5 -7.5h-123q-23 0 -39 -15.5t-16 -38.5v-1470q0 -22 16 -37.5t39 -15.5h123q11 0 18 -7.5t7 -19.5v-104q0 -11 -7.5 -19t-17.5 -8h-137q-88 0 -151.5 63.5t-63.5 153.5z" />
<glyph unicode=")" horiz-adv-x="593" d="M82 -82q0 12 8 19.5t19 7.5h122q23 0 38.5 15.5t15.5 37.5v1470q0 23 -15.5 38.5t-38.5 15.5h-122q-11 0 -19 8t-8 18v113q0 10 8 17.5t19 7.5h137q88 0 151.5 -63t63.5 -153v-1466q0 -90 -63.5 -153.5t-151.5 -63.5h-137q-11 0 -19 8.5t-8 18.5v104z" />
<glyph unicode="*" horiz-adv-x="579" d="M84 1300l8 35q3 13 12 19t21 0l100 -43q24 -17 19 -31q-5 -21 -31 -18l-111 8q-13 0 -17 9t-1 21zM160 1133l69 84q20 20 35 8q17 -8 10 -35l-36 -103q-11 -23 -37 -10l-33 19q-27 18 -8 37zM246 1448q-3 13 5 20t21 7h37q12 0 20 -7t5 -20l-19 -109q-6 -24 -24 -24 q-21 0 -27 24zM305 1190q-7 27 10 35q16 11 35 -8l72 -84q17 -19 -10 -37l-33 -19q-26 -13 -35 10zM336 1280q-5 18 18 31l101 45q22 14 30 -19l11 -34q3 -12 -1.5 -21.5t-17.5 -9.5l-110 -10q-27 0 -31 18z" />
<glyph unicode="+" horiz-adv-x="847" d="M113 662v112q0 11 7 19t19 8h203v203q0 10 7 17t18 7h112q11 0 19 -7t8 -17v-203h205q10 0 17 -8t7 -19v-112q0 -11 -7 -19t-17 -8h-205v-203q0 -12 -8 -19t-19 -7h-112q-11 0 -18 7t-7 19v203h-203q-12 0 -19 8t-7 19z" />
<glyph unicode="," horiz-adv-x="303" d="M61 63v95q0 12 8 19t19 7h127q11 0 19 -7t8 -19v-201q0 -50 -23 -72t-51 -22q-9 0 -15 6t-6 14v107h-14q-30 0 -51 16.5t-21 56.5z" />
<glyph unicode="-" horiz-adv-x="847" d="M113 662v112q0 11 7 19t19 8h572q10 0 17 -8t7 -19v-112q0 -11 -7 -19t-17 -8h-572q-12 0 -19 8t-7 19z" />
<glyph unicode="." horiz-adv-x="303" d="M61 27v131q0 12 8 19t19 7h127q11 0 19 -7t8 -19v-131q0 -12 -8 -19.5t-19 -7.5h-127q-11 0 -19 7.5t-8 19.5z" />
<glyph unicode="/" horiz-adv-x="745" d="M83 8q-3 6 1 19l391 1421q4 12 11.5 19t13.5 7l6 1h147q2 0 3.5 -1t4.5 -7t-2 -19l-395 -1421q-4 -12 -12 -19t-14 -8h-7h-141q-1 0 -2.5 1t-4.5 7z" />
<glyph unicode="0" horiz-adv-x="884" d="M113 207v1061q0 90 63.5 152.5t151.5 62.5h229q88 0 151.5 -62.5t63.5 -152.5v-1061q0 -90 -63.5 -153.5t-151.5 -63.5h-229q-88 0 -151.5 63.5t-63.5 153.5zM287 201q0 -22 16 -38t39 -16h203q22 0 37.5 16t15.5 38v1065q0 23 -15.5 38t-37.5 15h-203q-23 0 -39 -15 t-16 -38v-1065z" />
<glyph unicode="1" horiz-adv-x="595" d="M113 1303v43l137 129h186q12 0 19.5 -7.5t7.5 -19.5v-1421q0 -12 -7.5 -19.5t-19.5 -7.5h-123q-11 0 -18.5 7.5t-7.5 19.5v1251h-148q-12 0 -19 7t-7 18z" />
<glyph unicode="2" horiz-adv-x="849" d="M92 27v137q20 34 53 92t117.5 211.5t149 277.5t117.5 242.5t53 155.5v123q0 23 -16 38t-38 15h-188q-22 0 -37.5 -15t-15.5 -38v-115q0 -12 -7.5 -19.5t-19.5 -7.5h-123q-11 0 -18.5 7.5t-7.5 19.5v117q0 90 63.5 152.5t153.5 62.5h213q90 0 152.5 -62.5t62.5 -152.5 v-125q0 -58 -120 -303t-240 -460l-120 -216h457q11 0 18 -7.5t7 -19.5v-110q0 -12 -7 -19.5t-18 -7.5h-614q-11 0 -19 7.5t-8 19.5z" />
<glyph unicode="3" horiz-adv-x="858" d="M92 1151v117q0 90 63.5 152.5t151.5 62.5h234q88 0 151.5 -62.5t63.5 -152.5v-387q0 -67 -37 -119q37 -52 37 -119v-436q0 -90 -63.5 -153.5t-151.5 -63.5h-230q-89 0 -152 63t-63 154v119q0 11 7.5 18.5t17.5 7.5h125q10 0 17 -7.5t7 -18.5v-125q0 -22 16 -38t38 -16 h202q23 0 38.5 16t15.5 38v422q0 23 -15.5 38t-38.5 15h-88q-9 1 -14.5 9t-5.5 17v113q0 10 7.5 17.5t18.5 7.5h82q23 0 38.5 15.5t15.5 37.5v373q0 23 -15.5 38t-38.5 15h-204q-24 0 -40 -15t-16 -38v-115q0 -12 -6.5 -19.5t-17.5 -7.5h-123q-12 0 -19.5 7.5t-7.5 19.5z " />
<glyph unicode="4" horiz-adv-x="802" d="M51 285v139l412 1024q4 12 10.5 19t10.5 7l5 1h123q10 1 17.5 -7t7.5 -20v-1024h88q12 0 19.5 -7.5t7.5 -19.5v-112q0 -11 -7.5 -18t-19.5 -7h-88v-233q0 -12 -7 -19.5t-18 -7.5h-125q-11 0 -17.5 7.5t-6.5 19.5v233h-385q-12 0 -19.5 7t-7.5 18zM231 424h238v608z" />
<glyph unicode="5" horiz-adv-x="864" d="M113 207v227q0 27 26 27h123q11 0 18 -7.5t7 -19.5v-233q0 -22 16 -38t39 -16h203q22 0 37.5 16t15.5 38v461q0 22 -15.5 37.5t-37.5 15.5h-402q-10 0 -17 7.5t-7 18.5v707q0 12 6.5 19.5t17.5 7.5h559q11 0 19 -7.5t8 -19.5v-113q0 -12 -8 -19t-19 -7h-409v-437h264 q88 0 151.5 -63.5t63.5 -153.5v-448q0 -90 -63.5 -153.5t-151.5 -63.5h-229q-88 0 -151.5 63.5t-63.5 153.5z" />
<glyph unicode="6" horiz-adv-x="864" d="M113 207v1061q0 90 63.5 152.5t151.5 62.5h209q90 0 152.5 -62.5t62.5 -152.5v-135q0 -12 -7 -19.5t-18 -7.5h-125q-11 0 -17.5 7.5t-6.5 19.5v133q0 23 -16 38t-38 15h-182q-23 0 -39 -15t-16 -38v-420h270q88 0 151.5 -63t63.5 -152v-424q0 -90 -63.5 -153.5 t-151.5 -63.5h-229q-88 0 -151.5 63.5t-63.5 153.5zM287 201q0 -22 16 -38t39 -16h203q22 0 37.5 16t15.5 38v428q0 22 -15.5 37.5t-37.5 15.5h-258v-481z" />
<glyph unicode="7" horiz-adv-x="765" d="M72 1335v113q0 27 26 27h572q11 0 17.5 -7.5t6.5 -19.5v-137l-264 -1284q-2 -12 -7.5 -18.5t-10.5 -7.5l-4 -1h-129q-2 0 -5 0.5t-7.5 7.5t-2.5 19l268 1284h-434q-26 0 -26 24z" />
<glyph unicode="8" horiz-adv-x="888" d="M113 207v438q0 72 71 119q-6 0 -21 9t-32.5 38.5t-17.5 71.5v385q0 90 63.5 152.5t151.5 62.5h233q88 0 151.5 -62.5t63.5 -152.5v-385q0 -27 -7 -49t-16.5 -34.5t-21 -21t-19 -11.5t-10.5 -3q4 -2 9.5 -5t18 -14t22 -23.5t17 -33t7.5 -43.5v-438q0 -90 -63.5 -153.5 t-151.5 -63.5h-233q-88 0 -151.5 63.5t-63.5 153.5zM287 201q0 -22 16 -38t39 -16h205q23 0 38 16t15 38v424q0 22 -15 37.5t-38 15.5h-205q-23 0 -39 -15.5t-16 -37.5v-424zM287 895q0 -22 16 -37.5t39 -15.5h211q20 1 33.5 16.5t13.5 36.5v371q0 23 -15 38t-38 15h-205 q-23 0 -39 -15t-16 -38v-371z" />
<glyph unicode="9" horiz-adv-x="864" d="M92 811v457q0 90 63.5 152.5t151.5 62.5h230q88 0 151.5 -62.5t63.5 -152.5v-1061q0 -90 -63.5 -153.5t-151.5 -63.5h-211q-88 0 -151.5 63.5t-63.5 153.5v135q0 27 26 27h123q11 0 18 -7.5t7 -19.5v-133q0 -23 16 -38t39 -15h184q22 0 38 15t16 38v387h-271 q-88 0 -151.5 62.5t-63.5 152.5zM266 813q0 -23 16 -38t40 -15h256v514q0 22 -16 37.5t-38 15.5h-202q-23 0 -39.5 -15.5t-16.5 -37.5v-461z" />
<glyph unicode=":" horiz-adv-x="364" d="M92 27v131q0 12 8 19t19 7h127q11 0 18.5 -7t7.5 -19v-131q0 -12 -7.5 -19.5t-18.5 -7.5h-127q-11 0 -19 7.5t-8 19.5zM92 877v133q0 10 8 18t19 8h127q10 0 18 -8t8 -18v-133q0 -10 -7.5 -17.5t-18.5 -7.5h-127q-11 0 -19 7.5t-8 17.5z" />
<glyph unicode=";" horiz-adv-x="364" d="M92 63v95q0 12 8 19t19 7h127q11 0 18.5 -7t7.5 -19v-201q0 -50 -22.5 -72t-50.5 -22q-9 0 -15 6t-6 14v107h-14q-30 0 -51 16.5t-21 56.5zM92 877v133q0 10 8 18t19 8h127q10 0 18 -8t8 -18v-133q0 -10 -7.5 -17.5t-18.5 -7.5h-127q-11 0 -19 7.5t-8 17.5z" />
<glyph unicode="&#x3c;" horiz-adv-x="577" d="M78 694q-12 24 0 51l250 424q6 12 14 18.5t13 7.5l5 1h136q2 0 4 -1t5 -7t-5 -19l-250 -448l250 -451q6 -12 5 -17.5t-5 -6.5h-4h-136q-18 -1 -32 24z" />
<glyph unicode="=" horiz-adv-x="868" d="M123 532v113q0 11 7.5 19t19.5 8h571q10 0 17 -8t7 -19v-113q0 -11 -7 -18.5t-17 -7.5h-571q-12 0 -19.5 7.5t-7.5 18.5zM123 791v112q0 11 7.5 19t19.5 8h571q10 0 17 -8t7 -19v-112q0 -11 -7 -19t-17 -8h-571q-12 0 -19.5 8t-7.5 19z" />
<glyph unicode="&#x3e;" horiz-adv-x="579" d="M73 252.5q-3 5.5 5 17.5l250 451l-250 448q-6 13 -5 19t5 7l4 1h135q19 0 35 -27l248 -424q15 -27 0 -51l-248 -424q-7 -11 -16 -17t-14 -7h-5h-135q-2 0 -4 0.5t-5 6z" />
<glyph unicode="?" horiz-adv-x="835" d="M92 1133v135q0 90 63.5 152.5t151.5 62.5h219q90 0 153.5 -62.5t63.5 -152.5v-449q0 -98 -67.5 -157.5t-149.5 -59.5q-22 0 -37.5 -15t-15.5 -38v-254q0 -11 -7 -19t-17 -8h-125q-10 0 -17.5 8t-7.5 19v285q0 91 63 154t152 63q22 0 37.5 15t15.5 38v416q0 23 -15.5 38 t-37.5 15h-192q-24 0 -40 -15t-16 -38v-133q0 -12 -6.5 -19.5t-17.5 -7.5h-123q-12 0 -19.5 7.5t-7.5 19.5zM299 27v129q0 10 7 17t18 7h125q11 0 17.5 -7t6.5 -17v-129q0 -12 -6.5 -19.5t-17.5 -7.5h-125q-11 0 -18 7.5t-7 19.5z" />
<glyph unicode="@" horiz-adv-x="1558" d="M133 215v1045q0 89 63.5 152t151.5 63h862q88 0 151.5 -63t63.5 -152v-758q0 -90 -63.5 -153.5t-151.5 -63.5h-100q-62 0 -111 30q-47 -30 -108 -30h-229q-88 0 -152 63.5t-64 153.5v368q0 89 64 152t152 63h229q88 0 151.5 -63t63.5 -152v-374q0 -23 19 -38.5t53 -15.5 q35 0 53 15.5t18 38.5v761q0 22 -15 38t-38 16h-834q-23 0 -39 -16t-16 -38v-1046q0 -23 16 -39t39 -16h1024q11 0 19 -7.5t8 -17.5v-104q0 -12 -8 -19.5t-19 -7.5h-1038q-88 0 -151.5 63t-63.5 152zM621 496q0 -22 16 -38t39 -16h203q20 0 35 13t18 32v381q0 22 -15.5 38 t-37.5 16h-203q-23 0 -39 -16t-16 -38v-372z" />
<glyph unicode="A" horiz-adv-x="903" d="M94 27l246 1421q1 12 7.5 19t12.5 7l7 1h170q3 0 7 -0.5t11 -7.5t8 -19l246 -1421q2 -12 -1.5 -18.5t-7.5 -7.5l-5 -1h-140q-2 0 -5 0.5t-8.5 7.5t-6.5 19l-35 215h-297l-35 -215q-1 -12 -6 -19t-10 -8h-4h-139q-2 0 -5 0.5t-7.5 7.5t-2.5 19zM326 406h252l-127 802z" />
<glyph unicode="B" horiz-adv-x="909" d="M133 27v1421q0 12 7.5 19.5t19.5 7.5h385q88 0 151.5 -63t63.5 -152v-398q0 -41 -21 -92q58 -65 58 -145v-410q0 -89 -63.5 -152t-151.5 -63h-422q-12 0 -19.5 7.5t-7.5 19.5zM307 156h260q23 0 38.5 16t15.5 39v405q0 21 -13.5 36t-34.5 18h-266v-514zM307 819h230 q21 1 34 16t13 37v385q0 22 -15.5 38t-38.5 16h-223v-492z" />
<glyph unicode="C" horiz-adv-x="888" d="M123 207v1061q0 90 63.5 152.5t151.5 62.5h223q90 0 152.5 -62.5t62.5 -152.5v-135q0 -12 -6.5 -19.5t-17.5 -7.5h-123q-12 0 -19.5 7.5t-7.5 19.5v133q0 23 -15.5 38t-37.5 15h-197q-23 0 -39 -15t-16 -38v-1065q0 -22 16 -38t39 -16h205q23 0 38 16t15 38v233 q0 12 8 19.5t19 7.5h123q26 0 26 -27v-227q0 -90 -63.5 -153.5t-151.5 -63.5h-233q-88 0 -151.5 63.5t-63.5 153.5z" />
<glyph unicode="D" horiz-adv-x="919" d="M133 27v1421q0 12 7.5 19.5t19.5 7.5h422q88 0 151.5 -63t63.5 -152v-1045q0 -89 -63.5 -152t-151.5 -63h-422q-12 0 -19.5 7.5t-7.5 19.5zM307 164h260q23 0 38.5 15.5t15.5 37.5v1040q0 22 -15.5 38t-38.5 16h-260v-1147z" />
<glyph unicode="E" horiz-adv-x="858" d="M133 27v1421q0 12 7.5 19.5t19.5 7.5h559q11 0 18.5 -7.5t7.5 -19.5v-113q0 -12 -7.5 -19t-18.5 -7h-412v-451h338q11 0 19 -7t8 -17v-113q0 -11 -8 -19t-19 -8h-338v-530h424q11 0 18 -7.5t7 -19.5v-110q0 -12 -7 -19.5t-18 -7.5h-571q-12 0 -19.5 7.5t-7.5 19.5z" />
<glyph unicode="F" horiz-adv-x="827" d="M133 27v1421q0 12 7.5 19.5t19.5 7.5h559q11 0 18.5 -7.5t7.5 -19.5v-113q0 -12 -7.5 -19t-18.5 -7h-412v-451h338q11 0 19 -7t8 -17v-113q0 -11 -8 -19t-19 -8h-338v-667q0 -12 -6.5 -19.5t-17.5 -7.5h-123q-12 0 -19.5 7.5t-7.5 19.5z" />
<glyph unicode="G" horiz-adv-x="899" d="M123 207v1061q0 90 63.5 152.5t151.5 62.5h221q90 0 153.5 -62.5t63.5 -152.5v-135q0 -12 -7.5 -19.5t-18.5 -7.5h-123q-12 0 -19.5 7.5t-7.5 19.5v133q0 23 -15.5 38t-37.5 15h-195q-23 0 -39 -15t-16 -38v-1065q0 -22 16 -38t39 -16h205q23 0 38 16t15 38v352h-155 q-11 0 -19 7.5t-8 19.5v110q0 12 8 19.5t19 7.5h305q26 0 26 -27v-483q0 -90 -63.5 -153.5t-151.5 -63.5h-233q-88 0 -151.5 63.5t-63.5 153.5z" />
<glyph unicode="H" horiz-adv-x="944" d="M133 27v1421q0 12 7.5 19.5t19.5 7.5h123q11 0 17.5 -7.5t6.5 -19.5v-590h330v590q0 12 7 19.5t18 7.5h124q11 0 18 -7.5t7 -19.5v-1421q0 -12 -7 -19.5t-18 -7.5h-124q-11 0 -18 7.5t-7 19.5v667h-330v-667q0 -12 -6.5 -19.5t-17.5 -7.5h-123q-12 0 -19.5 7.5t-7.5 19.5 z" />
<glyph unicode="I" horiz-adv-x="440" d="M133 27v1421q0 12 7.5 19.5t19.5 7.5h123q11 0 17.5 -7.5t6.5 -19.5v-1421q0 -12 -6.5 -19.5t-17.5 -7.5h-123q-12 0 -19.5 7.5t-7.5 19.5z" />
<glyph unicode="J" horiz-adv-x="864" d="M72 207v227q0 27 26 27h119q11 0 19 -7.5t8 -19.5v-233q0 -22 15 -38t38 -16h207q22 0 37.5 16t15.5 38v1247q0 12 7 19.5t18 7.5h125q11 0 17.5 -7.5t6.5 -19.5v-1241q0 -90 -63.5 -153.5t-151.5 -63.5h-229q-88 0 -151.5 63.5t-63.5 153.5z" />
<glyph unicode="K" horiz-adv-x="880" d="M133 27v1421q0 12 7.5 19.5t19.5 7.5h123q11 0 17.5 -7.5t6.5 -19.5v-608l322 608q4 12 11 19t12 7l5 1h138q2 0 5 -1t7.5 -7t-2.5 -19l-305 -617l305 -804q3 -13 0.5 -19t-7.5 -7l-5 -1h-142q-16 0 -26 27l-244 626l-74 -135v-491q0 -12 -6.5 -19.5t-17.5 -7.5h-123 q-12 0 -19.5 7.5t-7.5 19.5z" />
<glyph unicode="L" horiz-adv-x="837" d="M133 27v1421q0 12 7.5 19.5t19.5 7.5h123q11 0 17.5 -7.5t6.5 -19.5v-1284h424q11 0 18 -7.5t7 -19.5v-110q0 -12 -7 -19.5t-18 -7.5h-571q-12 0 -19.5 7.5t-7.5 19.5z" />
<glyph unicode="M" horiz-adv-x="1198" d="M133 27v1421q0 12 7.5 19.5t19.5 7.5h114q23 0 33 -27l293 -705l293 705q4 12 11.5 19t13.5 7l6 1h116q11 0 18 -7.5t7 -19.5v-1421q0 -12 -7 -19.5t-18 -7.5h-125q-11 0 -17.5 7.5t-6.5 19.5v942l-291 -656l-293 656v-942q0 -12 -6.5 -19.5t-17.5 -7.5h-123 q-12 0 -19.5 7.5t-7.5 19.5z" />
<glyph unicode="N" horiz-adv-x="944" d="M133 27v1421q0 12 7.5 19.5t19.5 7.5h121q2 0 5.5 -0.5t10.5 -7.5t10 -19l330 -903v903q0 12 7 19.5t18 7.5h124q11 0 18 -7.5t7 -19.5v-1421q0 -12 -7 -19.5t-18 -7.5h-112q-21 0 -29 27l-338 899v-899q0 -12 -6.5 -19.5t-17.5 -7.5h-123q-12 0 -19.5 7.5t-7.5 19.5z " />
<glyph unicode="O" d="M123 207v1061q0 90 63.5 152.5t151.5 62.5h235q90 0 154 -62.5t64 -152.5v-1061q0 -90 -64 -153.5t-154 -63.5h-235q-88 0 -151.5 63.5t-63.5 153.5zM297 201q0 -22 16 -38t39 -16h209q23 0 38 16t15 38v1065q0 23 -15 38t-38 15h-209q-23 0 -39 -15t-16 -38v-1065z" />
<glyph unicode="P" horiz-adv-x="909" d="M133 27v1421q0 12 7.5 19.5t19.5 7.5h422q88 0 151.5 -63t63.5 -152v-435q0 -89 -63.5 -152t-151.5 -63h-275v-583q0 -12 -6.5 -19.5t-17.5 -7.5h-123q-12 0 -19.5 7.5t-7.5 19.5zM307 766h260q23 0 38.5 15.5t15.5 37.5v438q0 22 -15.5 38t-38.5 16h-260v-545z" />
<glyph unicode="Q" d="M123 207v1061q0 90 63.5 152.5t151.5 62.5h235q90 0 154 -62.5t64 -152.5v-1061q0 -90 -64 -153.5t-154 -63.5h-28v-129q0 -12 -7.5 -19.5t-19.5 -7.5h-125q-11 0 -17.5 7.5t-6.5 19.5v129h-31q-88 0 -151.5 63.5t-63.5 153.5zM297 201q0 -22 16 -38t39 -16h209 q23 0 38 16t15 38v1065q0 23 -15 38t-38 15h-209q-23 0 -39 -15t-16 -38v-1065z" />
<glyph unicode="R" d="M133 27v1421q0 12 7.5 19.5t19.5 7.5h422q88 0 151.5 -63t63.5 -152v-435q0 -67 -37.5 -121t-97.5 -79l147 -598q3 -13 0.5 -19t-7.5 -7l-5 -1h-140q-2 0 -5 0.5t-9.5 7.5t-9.5 19l-144 583h-182v-583q0 -12 -6.5 -19.5t-17.5 -7.5h-123q-12 0 -19.5 7.5t-7.5 19.5z M307 766h260q23 0 38.5 15.5t15.5 37.5v438q0 22 -15.5 38t-38.5 16h-260v-545z" />
<glyph unicode="S" horiz-adv-x="868" d="M102 207v227q0 12 8 19.5t19 7.5h123q12 0 19.5 -7.5t7.5 -19.5v-233q0 -22 15.5 -38t37.5 -16h207q22 0 37.5 16t15.5 38v430q0 22 -15.5 37.5t-37.5 15.5h-220q-89 0 -153 63t-64 152v369q0 90 63.5 152.5t153.5 62.5h224q88 0 151.5 -62.5t63.5 -152.5v-135 q0 -12 -7.5 -19.5t-19.5 -7.5h-123q-11 0 -18.5 7.5t-7.5 19.5v133q0 23 -15.5 38t-38.5 15h-196q-22 0 -37.5 -15t-15.5 -38v-373q0 -22 15.5 -37.5t37.5 -15.5h219q90 0 152.5 -62.5t62.5 -152.5v-418q0 -91 -63 -154t-152 -63h-232q-90 0 -153.5 63.5t-63.5 153.5z" />
<glyph unicode="T" horiz-adv-x="864" d="M92 1335v113q0 12 8 19.5t19 7.5h626q11 0 19 -7.5t8 -19.5v-113q0 -10 -8 -17t-19 -7h-227v-1284q0 -12 -6.5 -19.5t-17.5 -7.5h-125q-11 0 -18 7.5t-7 19.5v1284h-225q-11 0 -19 7t-8 17z" />
<glyph unicode="U" horiz-adv-x="929" d="M133 207v1241q0 12 7.5 19.5t19.5 7.5h123q11 0 17.5 -7.5t6.5 -19.5v-1247q0 -22 16 -38t39 -16h205q23 0 38.5 16t15.5 38v1247q0 12 7.5 19.5t18.5 7.5h123q12 0 19.5 -7.5t7.5 -19.5v-1241q0 -90 -63.5 -153.5t-151.5 -63.5h-234q-88 0 -151.5 63.5t-63.5 153.5z" />
<glyph unicode="V" horiz-adv-x="905" d="M94 1448q-1 12 3.5 19t8.5 7l5 1h137q2 0 5 -0.5t9 -7.5t8 -19l183 -1108l182 1108q2 12 7.5 19t9.5 7l5 1h138q2 0 5 -0.5t7.5 -7.5t3.5 -19l-246 -1421q-2 -12 -9 -19t-13 -8h-6h-168q-25 0 -29 27z" />
<glyph unicode="W" horiz-adv-x="1415" d="M94 1448q-1 12 3.5 19t8.5 7l5 1h137q2 0 5 -0.5t9 -7.5t8 -19l183 -1108l163 1108q2 12 7.5 19t10.5 7l5 1h137q2 0 5.5 -0.5t9.5 -7.5t8 -19l164 -1108l182 1108q2 12 7.5 19t9.5 7l5 1h140q2 0 5 -0.5t7 -7.5t2 -19l-246 -1421q-2 -12 -8.5 -18.5t-12.5 -7.5l-5 -1 h-170q-25 0 -29 27l-143 954l-142 -954q-2 -12 -9 -19t-13 -8h-6h-168q-25 0 -29 27z" />
<glyph unicode="X" horiz-adv-x="835" d="M73.5 8q-2.5 6 2.5 19l225 743l-207 678q-3 13 -2.5 19t3.5 7l3 1h148q25 0 33 -27l139 -477l141 477q3 12 10.5 19t14.5 7l6 1h147q1 0 2.5 -1t4.5 -7t-1 -19l-211 -678l230 -743q2 -13 1 -19t-4 -7l-3 -1h-142q-24 0 -32 27l-164 546l-164 -546q-4 -12 -11.5 -18.5 t-13.5 -7.5l-6 -1h-143q-1 0 -2.5 1t-4 7z" />
<glyph unicode="Y" horiz-adv-x="854" d="M75 1467q2 6 7 7l4 1h139q2 0 5.5 -0.5t9.5 -7.5t8 -19l180 -649l178 649q3 12 9 19t11 7l5 1h137q2 0 5 -0.5t6.5 -7.5t0.5 -19l-266 -987v-434q0 -12 -7.5 -19.5t-19.5 -7.5h-120q-11 0 -19 7.5t-8 19.5v434l-264 987q-3 13 -1 19z" />
<glyph unicode="Z" horiz-adv-x="847" d="M113 27v137l450 1147h-424q-26 0 -26 24v113q0 27 26 27h572q11 0 17.5 -7.5t6.5 -19.5v-137l-448 -1147h424q11 0 17.5 -7.5t6.5 -19.5v-110q0 -12 -6.5 -19.5t-17.5 -7.5h-572q-26 0 -26 27z" />
<glyph unicode="[" horiz-adv-x="591" d="M133 -186v1847q0 11 7.5 18t19.5 7h325q11 0 18 -7t7 -18v-113q0 -11 -7.5 -18.5t-17.5 -7.5h-178v-1577h178q11 0 18 -7.5t7 -19.5v-104q0 -11 -7.5 -19t-17.5 -8h-325q-12 0 -19.5 8t-7.5 19z" />
<glyph unicode="\" horiz-adv-x="745" d="M83 1467q1 6 4 7l3 1h148q24 0 30 -27l391 -1421q3 -13 2 -19t-5 -7l-3 -1h-141q-25 0 -31 27l-397 1421q-2 13 -1 19z" />
<glyph unicode="]" horiz-adv-x="593" d="M82 -82q0 12 8 19.5t19 7.5h176v1577h-176q-11 0 -19 8t-8 18v113q0 10 8 17.5t19 7.5h325q12 0 19.5 -7t7.5 -18v-1847q0 -11 -7.5 -19t-19.5 -8h-325q-11 0 -19 8.5t-8 18.5v104z" />
<glyph unicode="^" horiz-adv-x="614" d="M104 1474q-4 6 2 19l125 248q5 12 13 18.5t13 6.5l5 1h90q17 1 29 -26l127 -248q4 -13 2.5 -19t-6.5 -7l-4 -1h-74l-121 185l-119 -185h-71q-2 0 -4.5 1t-6.5 7z" />
<glyph unicode="_" horiz-adv-x="991" d="M92 27v110q0 12 7.5 19.5t19.5 7.5h755q11 0 18 -7.5t7 -19.5v-110q0 -12 -7 -19.5t-18 -7.5h-755q-12 0 -19.5 7.5t-7.5 19.5z" />
<glyph unicode="`" horiz-adv-x="428" d="M111 1741q-16 25 0 26h110q19 1 29 -26l69 -156q5 -13 3.5 -19t-5.5 -6l-4 -1h-73z" />
<glyph unicode="a" horiz-adv-x="903" d="M94 27l246 1421q1 12 7.5 19t12.5 7l7 1h170q3 0 7 -0.5t11 -7.5t8 -19l246 -1421q2 -12 -1.5 -18.5t-7.5 -7.5l-5 -1h-140q-2 0 -5 0.5t-8.5 7.5t-6.5 19l-35 215h-297l-35 -215q-1 -12 -6 -19t-10 -8h-4h-139q-2 0 -5 0.5t-7.5 7.5t-2.5 19zM326 406h252l-127 802z" />
<glyph unicode="b" horiz-adv-x="909" d="M133 27v1421q0 12 7.5 19.5t19.5 7.5h385q88 0 151.5 -63t63.5 -152v-398q0 -41 -21 -92q58 -65 58 -145v-410q0 -89 -63.5 -152t-151.5 -63h-422q-12 0 -19.5 7.5t-7.5 19.5zM307 156h260q23 0 38.5 16t15.5 39v405q0 21 -13.5 36t-34.5 18h-266v-514zM307 819h230 q21 1 34 16t13 37v385q0 22 -15.5 38t-38.5 16h-223v-492z" />
<glyph unicode="c" horiz-adv-x="888" d="M123 207v1061q0 90 63.5 152.5t151.5 62.5h223q90 0 152.5 -62.5t62.5 -152.5v-135q0 -12 -6.5 -19.5t-17.5 -7.5h-123q-12 0 -19.5 7.5t-7.5 19.5v133q0 23 -15.5 38t-37.5 15h-197q-23 0 -39 -15t-16 -38v-1065q0 -22 16 -38t39 -16h205q23 0 38 16t15 38v233 q0 12 8 19.5t19 7.5h123q26 0 26 -27v-227q0 -90 -63.5 -153.5t-151.5 -63.5h-233q-88 0 -151.5 63.5t-63.5 153.5z" />
<glyph unicode="d" horiz-adv-x="919" d="M133 27v1421q0 12 7.5 19.5t19.5 7.5h422q88 0 151.5 -63t63.5 -152v-1045q0 -89 -63.5 -152t-151.5 -63h-422q-12 0 -19.5 7.5t-7.5 19.5zM307 164h260q23 0 38.5 15.5t15.5 37.5v1040q0 22 -15.5 38t-38.5 16h-260v-1147z" />
<glyph unicode="e" horiz-adv-x="858" d="M133 27v1421q0 12 7.5 19.5t19.5 7.5h559q11 0 18.5 -7.5t7.5 -19.5v-113q0 -12 -7.5 -19t-18.5 -7h-412v-451h338q11 0 19 -7t8 -17v-113q0 -11 -8 -19t-19 -8h-338v-530h424q11 0 18 -7.5t7 -19.5v-110q0 -12 -7 -19.5t-18 -7.5h-571q-12 0 -19.5 7.5t-7.5 19.5z" />
<glyph unicode="f" horiz-adv-x="827" d="M133 27v1421q0 12 7.5 19.5t19.5 7.5h559q11 0 18.5 -7.5t7.5 -19.5v-113q0 -12 -7.5 -19t-18.5 -7h-412v-451h338q11 0 19 -7t8 -17v-113q0 -11 -8 -19t-19 -8h-338v-667q0 -12 -6.5 -19.5t-17.5 -7.5h-123q-12 0 -19.5 7.5t-7.5 19.5z" />
<glyph unicode="g" horiz-adv-x="894" d="M123 207v1061q0 90 63.5 152.5t151.5 62.5h217q90 0 153.5 -62.5t63.5 -152.5v-135q0 -12 -8 -19.5t-19 -7.5h-122q-11 0 -19 7.5t-8 19.5v133q0 23 -15 38t-38 15h-191q-23 0 -39 -15t-16 -38v-1065q0 -22 16 -38t39 -16h203q22 0 37.5 16t15.5 38v352h-153 q-11 0 -19 7.5t-8 19.5v110q0 12 8 19.5t19 7.5h303q11 0 17.5 -7.5t6.5 -19.5v-483q0 -90 -63.5 -153.5t-151.5 -63.5h-229q-88 0 -151.5 63.5t-63.5 153.5z" />
<glyph unicode="h" horiz-adv-x="944" d="M133 27v1421q0 12 7.5 19.5t19.5 7.5h123q11 0 17.5 -7.5t6.5 -19.5v-590h330v590q0 12 7 19.5t18 7.5h124q11 0 18 -7.5t7 -19.5v-1421q0 -12 -7 -19.5t-18 -7.5h-124q-11 0 -18 7.5t-7 19.5v667h-330v-667q0 -12 -6.5 -19.5t-17.5 -7.5h-123q-12 0 -19.5 7.5t-7.5 19.5 z" />
<glyph unicode="i" horiz-adv-x="440" d="M133 27v1421q0 12 7.5 19.5t19.5 7.5h123q11 0 17.5 -7.5t6.5 -19.5v-1421q0 -12 -6.5 -19.5t-17.5 -7.5h-123q-12 0 -19.5 7.5t-7.5 19.5z" />
<glyph unicode="j" horiz-adv-x="864" d="M72 207v227q0 27 26 27h119q11 0 19 -7.5t8 -19.5v-233q0 -22 15 -38t38 -16h207q22 0 37.5 16t15.5 38v1247q0 12 7 19.5t18 7.5h125q11 0 17.5 -7.5t6.5 -19.5v-1241q0 -90 -63.5 -153.5t-151.5 -63.5h-229q-88 0 -151.5 63.5t-63.5 153.5z" />
<glyph unicode="k" horiz-adv-x="880" d="M133 27v1421q0 12 7.5 19.5t19.5 7.5h123q11 0 17.5 -7.5t6.5 -19.5v-608l322 608q4 12 11 19t12 7l5 1h138q2 0 5 -1t7.5 -7t-2.5 -19l-305 -617l305 -804q3 -13 0.5 -19t-7.5 -7l-5 -1h-142q-16 0 -26 27l-244 626l-74 -135v-491q0 -12 -6.5 -19.5t-17.5 -7.5h-123 q-12 0 -19.5 7.5t-7.5 19.5z" />
<glyph unicode="l" horiz-adv-x="837" d="M133 27v1421q0 12 7.5 19.5t19.5 7.5h123q11 0 17.5 -7.5t6.5 -19.5v-1284h424q11 0 18 -7.5t7 -19.5v-110q0 -12 -7 -19.5t-18 -7.5h-571q-12 0 -19.5 7.5t-7.5 19.5z" />
<glyph unicode="m" horiz-adv-x="1198" d="M133 27v1421q0 12 7.5 19.5t19.5 7.5h114q23 0 33 -27l293 -705l293 705q4 12 11.5 19t13.5 7l6 1h116q11 0 18 -7.5t7 -19.5v-1421q0 -12 -7 -19.5t-18 -7.5h-125q-11 0 -17.5 7.5t-6.5 19.5v942l-291 -656l-293 656v-942q0 -12 -6.5 -19.5t-17.5 -7.5h-123 q-12 0 -19.5 7.5t-7.5 19.5z" />
<glyph unicode="n" horiz-adv-x="944" d="M133 27v1421q0 12 7.5 19.5t19.5 7.5h121q2 0 5.5 -0.5t10.5 -7.5t10 -19l330 -903v903q0 12 7 19.5t18 7.5h124q11 0 18 -7.5t7 -19.5v-1421q0 -12 -7 -19.5t-18 -7.5h-112q-21 0 -29 27l-338 899v-899q0 -12 -6.5 -19.5t-17.5 -7.5h-123q-12 0 -19.5 7.5t-7.5 19.5z " />
<glyph unicode="o" d="M123 207v1061q0 90 63.5 152.5t151.5 62.5h235q90 0 154 -62.5t64 -152.5v-1061q0 -90 -64 -153.5t-154 -63.5h-235q-88 0 -151.5 63.5t-63.5 153.5zM297 201q0 -22 16 -38t39 -16h209q23 0 38 16t15 38v1065q0 23 -15 38t-38 15h-209q-23 0 -39 -15t-16 -38v-1065z" />
<glyph unicode="p" horiz-adv-x="909" d="M133 27v1421q0 12 7.5 19.5t19.5 7.5h422q88 0 151.5 -63t63.5 -152v-435q0 -89 -63.5 -152t-151.5 -63h-275v-583q0 -12 -6.5 -19.5t-17.5 -7.5h-123q-12 0 -19.5 7.5t-7.5 19.5zM307 766h260q23 0 38.5 15.5t15.5 37.5v438q0 22 -15.5 38t-38.5 16h-260v-545z" />
<glyph unicode="q" d="M123 207v1061q0 90 63.5 152.5t151.5 62.5h235q90 0 154 -62.5t64 -152.5v-1061q0 -90 -64 -153.5t-154 -63.5h-28v-129q0 -12 -7.5 -19.5t-19.5 -7.5h-125q-11 0 -17.5 7.5t-6.5 19.5v129h-31q-88 0 -151.5 63.5t-63.5 153.5zM297 201q0 -22 16 -38t39 -16h209 q23 0 38 16t15 38v1065q0 23 -15 38t-38 15h-209q-23 0 -39 -15t-16 -38v-1065z" />
<glyph unicode="r" d="M133 27v1421q0 12 7.5 19.5t19.5 7.5h422q88 0 151.5 -63t63.5 -152v-435q0 -67 -37.5 -121t-97.5 -79l147 -598q3 -13 0.5 -19t-7.5 -7l-5 -1h-140q-2 0 -5 0.5t-9.5 7.5t-9.5 19l-144 583h-182v-583q0 -12 -6.5 -19.5t-17.5 -7.5h-123q-12 0 -19.5 7.5t-7.5 19.5z M307 766h260q23 0 38.5 15.5t15.5 37.5v438q0 22 -15.5 38t-38.5 16h-260v-545z" />
<glyph unicode="s" horiz-adv-x="868" d="M102 207v227q0 12 8 19.5t19 7.5h123q12 0 19.5 -7.5t7.5 -19.5v-233q0 -22 15.5 -38t37.5 -16h207q22 0 37.5 16t15.5 38v430q0 22 -15.5 37.5t-37.5 15.5h-220q-89 0 -153 63t-64 152v369q0 90 63.5 152.5t153.5 62.5h224q88 0 151.5 -62.5t63.5 -152.5v-135 q0 -12 -7.5 -19.5t-19.5 -7.5h-123q-11 0 -18.5 7.5t-7.5 19.5v133q0 23 -15.5 38t-38.5 15h-196q-22 0 -37.5 -15t-15.5 -38v-373q0 -22 15.5 -37.5t37.5 -15.5h219q90 0 152.5 -62.5t62.5 -152.5v-418q0 -91 -63 -154t-152 -63h-232q-90 0 -153.5 63.5t-63.5 153.5z" />
<glyph unicode="t" horiz-adv-x="864" d="M92 1335v113q0 12 8 19.5t19 7.5h626q11 0 19 -7.5t8 -19.5v-113q0 -10 -8 -17t-19 -7h-227v-1284q0 -12 -6.5 -19.5t-17.5 -7.5h-125q-11 0 -18 7.5t-7 19.5v1284h-225q-11 0 -19 7t-8 17z" />
<glyph unicode="u" horiz-adv-x="929" d="M133 207v1241q0 12 7.5 19.5t19.5 7.5h123q11 0 17.5 -7.5t6.5 -19.5v-1247q0 -22 16 -38t39 -16h205q23 0 38.5 16t15.5 38v1247q0 12 7.5 19.5t18.5 7.5h123q12 0 19.5 -7.5t7.5 -19.5v-1241q0 -90 -63.5 -153.5t-151.5 -63.5h-234q-88 0 -151.5 63.5t-63.5 153.5z" />
<glyph unicode="v" horiz-adv-x="905" d="M94 1448q-1 12 3.5 19t8.5 7l5 1h137q2 0 5 -0.5t9 -7.5t8 -19l183 -1108l182 1108q2 12 7.5 19t9.5 7l5 1h138q2 0 5 -0.5t7.5 -7.5t3.5 -19l-246 -1421q-2 -12 -9 -19t-13 -8h-6h-168q-25 0 -29 27z" />
<glyph unicode="w" horiz-adv-x="1415" d="M94 1448q-1 12 3.5 19t8.5 7l5 1h137q2 0 5 -0.5t9 -7.5t8 -19l183 -1108l163 1108q2 12 7.5 19t10.5 7l5 1h137q2 0 5.5 -0.5t9.5 -7.5t8 -19l164 -1108l182 1108q2 12 7.5 19t9.5 7l5 1h140q2 0 5 -0.5t7 -7.5t2 -19l-246 -1421q-2 -12 -8.5 -18.5t-12.5 -7.5l-5 -1 h-170q-25 0 -29 27l-143 954l-142 -954q-2 -12 -9 -19t-13 -8h-6h-168q-25 0 -29 27z" />
<glyph unicode="x" horiz-adv-x="835" d="M73.5 8q-2.5 6 2.5 19l225 743l-207 678q-3 13 -2.5 19t3.5 7l3 1h148q25 0 33 -27l139 -477l141 477q3 12 10.5 19t14.5 7l6 1h147q1 0 2.5 -1t4.5 -7t-1 -19l-211 -678l230 -743q2 -13 1 -19t-4 -7l-3 -1h-142q-24 0 -32 27l-164 546l-164 -546q-4 -12 -11.5 -18.5 t-13.5 -7.5l-6 -1h-143q-1 0 -2.5 1t-4 7z" />
<glyph unicode="y" horiz-adv-x="854" d="M75 1467q2 6 7 7l4 1h139q2 0 5.5 -0.5t9.5 -7.5t8 -19l180 -649l178 649q3 12 9 19t11 7l5 1h137q2 0 5 -0.5t6.5 -7.5t0.5 -19l-266 -987v-434q0 -12 -7.5 -19.5t-19.5 -7.5h-120q-11 0 -19 7.5t-8 19.5v434l-264 987q-3 13 -1 19z" />
<glyph unicode="z" horiz-adv-x="847" d="M113 27v137l450 1147h-424q-26 0 -26 24v113q0 27 26 27h572q11 0 17.5 -7.5t6.5 -19.5v-137l-448 -1147h424q11 0 17.5 -7.5t6.5 -19.5v-110q0 -12 -6.5 -19.5t-17.5 -7.5h-572q-26 0 -26 27z" />
<glyph unicode="{" horiz-adv-x="638" d="M123 721l110 287v462q0 90 64 153t154 63h79q12 0 19.5 -7t7.5 -18v-113q0 -11 -7.5 -18.5t-19.5 -7.5h-67q-22 0 -37.5 -15.5t-15.5 -38.5v-460l-103 -287l103 -287v-436q0 -22 15.5 -37.5t37.5 -15.5h67q12 0 19.5 -7.5t7.5 -19.5v-104q0 -11 -7.5 -19t-19.5 -8h-79 q-90 0 -154 63.5t-64 153.5v430z" />
<glyph unicode="|" horiz-adv-x="440" d="M133 -186v1847q0 11 7.5 18t19.5 7h123q10 0 17 -7t7 -18v-1847q0 -11 -7 -19t-17 -8h-123q-12 0 -19.5 8t-7.5 19z" />
<glyph unicode="}" horiz-adv-x="638" d="M82 -82q0 12 8 19.5t19 7.5h67q23 0 38 15.5t15 37.5v436l103 287l-103 287v460q0 23 -15 38.5t-38 15.5h-67q-11 0 -19 8t-8 18v113q0 10 8 17.5t19 7.5h81q88 0 152 -63t64 -153v-462l110 -287l-110 -287v-430q0 -90 -64 -153.5t-152 -63.5h-81q-11 0 -19 8.5t-8 18.5 v104z" />
<glyph unicode="~" horiz-adv-x="923" d="M94.5 752.5q2.5 10.5 11.5 15.5l97 57q9 6 20 2.5t17 -12.5l28 -51q12 -20 33.5 -26.5t40.5 5.5l164 95q75 43 163 20t132 -98l24 -47q13 -20 -8 -35l-100 -57q-6 -5 -17.5 -1.5t-15.5 13.5l-25 39q-12 21 -32.5 27t-40.5 -5l-164 -94q-77 -44 -163 -20.5t-132 98.5 l-29 53q-6 11 -3.5 21.5z" />
<glyph unicode="&#xa1;" horiz-adv-x="440" d="M133 27v1153q0 11 7.5 18.5t19.5 7.5h123q10 0 17 -7.5t7 -18.5v-1153q0 -12 -6.5 -19.5t-17.5 -7.5h-123q-12 0 -19.5 7.5t-7.5 19.5zM133 1319v129q0 12 7.5 19.5t19.5 7.5h123q11 0 17.5 -7.5t6.5 -19.5v-129q0 -11 -7 -18t-17 -7h-123q-12 0 -19.5 7t-7.5 18z" />
<glyph unicode="&#xa2;" horiz-adv-x="884" d="M123 311v836q0 89 63.5 152t151.5 63h41v86q0 12 7.5 19.5t19.5 7.5h86q11 0 18.5 -7.5t7.5 -19.5v-86h39q89 0 153 -63t64 -152v-137q0 -10 -7.5 -17.5t-18.5 -7.5h-123q-11 0 -19 7.5t-8 17.5v135q0 22 -15.5 37.5t-37.5 15.5h-193q-23 0 -39 -15.5t-16 -37.5v-840 q0 -22 16 -37.5t39 -15.5h203q22 0 37.5 15.5t15.5 37.5v236q0 10 7 17t18 7h125q10 0 17 -6.5t7 -17.5v-230q0 -89 -63.5 -152t-151.5 -63h-51v-69q0 -12 -8 -19.5t-19 -7.5h-86q-11 0 -18.5 7.5t-7.5 19.5v69h-39q-88 0 -151.5 63t-63.5 152z" />
<glyph unicode="&#xa3;" horiz-adv-x="948" d="M92 0v156h12q23 0 38.5 16t15.5 39v424h-39q-12 0 -19.5 8t-7.5 19v112q0 11 7.5 19t19.5 8h39v467q0 90 63.5 152.5t153.5 62.5h219q88 0 151.5 -62.5t63.5 -152.5v-135q0 -12 -7.5 -19.5t-19.5 -7.5h-123q-11 0 -17.5 7.5t-6.5 19.5v151q0 23 -16 38t-39 15h-193 q-22 0 -37.5 -15t-15.5 -38v-483h356q10 0 17.5 -8t7.5 -19v-112q0 -11 -7.5 -19t-17.5 -8h-356v-479h293q21 0 36.5 13.5t16.5 33.5q4 26 27 26h122q11 0 19 -8t8 -18v-25q0 -86 -61.5 -132t-155.5 -46h-547z" />
<glyph unicode="&#xa4;" horiz-adv-x="909" d="M114 483q0 11 7 19l39 39q-17 42 -17 82v190q0 39 17 82l-37 37q-19 20 0 39l80 80q7 7 18 7t19 -7l36 -39q40 16 82 16h191q42 0 82 -16l39 39q8 7 19 7t18 -7l79 -80q8 -8 8.5 -18.5t-6.5 -18.5l-38 -39q16 -40 16 -82v-190q0 -42 -16 -82l38 -39q8 -8 8 -19t-8 -18 l-79 -80q-19 -19 -37 -2l-39 39q-36 -16 -84 -16h-191q-42 0 -82 16l-36 -37q-20 -19 -39 0l-80 80q-7 7 -7 18zM317 616q0 -22 16.5 -37.5t39.5 -15.5h164q23 0 38 15.5t15 37.5v195q0 23 -15 38t-38 15h-164q-24 0 -40 -15t-16 -38v-195z" />
<glyph unicode="&#xa5;" horiz-adv-x="894" d="M95 1467q2 6 7 7l4 1h140q2 0 5 -0.5t9 -7.5t8 -19l181 -649l178 649q3 12 9 19t10 7l5 1h137q2 0 5 -0.5t7 -7.5t1 -19l-215 -795h145q12 0 19.5 -7.5t7.5 -18.5v-113q0 -11 -7.5 -19t-19.5 -8h-188l-8 -26v-66h196q12 0 19.5 -7.5t7.5 -18.5v-113q0 -11 -7.5 -19 t-19.5 -8h-196v-202q0 -12 -7.5 -19.5t-19.5 -7.5h-121q-11 0 -19 7.5t-8 19.5v202h-200q-10 0 -17.5 8t-7.5 19v113q0 11 7.5 18.5t17.5 7.5h200v66l-6 26h-194q-10 0 -17.5 8t-7.5 19v113q0 11 7.5 18.5t17.5 7.5h149l-213 795q-3 13 -1 19z" />
<glyph unicode="&#xa6;" horiz-adv-x="440" d="M133 -186v778q0 11 7.5 17.5t19.5 6.5h123q11 0 17.5 -7t6.5 -17v-778q0 -11 -7 -19t-17 -8h-123q-12 0 -19.5 8t-7.5 19zM133 844v817q0 11 7.5 18t19.5 7h123q10 0 17 -7t7 -18v-817q0 -11 -7 -18t-17 -7h-123q-12 0 -19.5 7t-7.5 18z" />
<glyph unicode="&#xa7;" horiz-adv-x="929" d="M102 1067v238q0 90 63.5 152.5t151.5 62.5h256q90 0 154 -62.5t64 -152.5v-136q0 -12 -8 -19t-19 -7h-123q-11 0 -19 7t-8 19v134q0 23 -15.5 38t-37.5 15h-229q-24 0 -40 -15t-16 -38v-205q0 -20 14 -35.5t34 -18.5h249q90 0 154 -63t64 -152v-186q0 -43 -21 -90 q57 -64 57 -145v-238q0 -90 -63.5 -153.5t-153.5 -63.5h-256q-88 0 -151.5 63.5t-63.5 153.5v135q0 12 7.5 19.5t19.5 7.5h123q11 0 17.5 -7.5t6.5 -19.5v-133q0 -23 16 -38t40 -15h229q22 0 37.5 15t15.5 38v205q0 37 -39 51h-260q-88 0 -151.5 63t-63.5 152v186 q0 42 21 93q-56 62 -56 145zM313 635q0 -22 15.5 -36.5t38.5 -14.5h208q39 0 39 51v192q0 22 -15.5 38t-37.5 16h-194q-23 0 -38.5 -16t-15.5 -38v-192z" />
<glyph unicode="&#xa8;" horiz-adv-x="774" d="M102 1649q0 41 29.5 69.5t71.5 28.5q40 0 68 -28.5t28 -69.5q0 -40 -28.5 -69.5t-67.5 -29.5q-41 0 -71 29.5t-30 69.5zM475 1649q0 41 29 69.5t69 28.5t69.5 -28.5t29.5 -69.5q0 -40 -29.5 -69.5t-69.5 -29.5t-69 29.5t-29 69.5z" />
<glyph unicode="&#xa9;" horiz-adv-x="1638" d="M92 737q0 204 95.5 375.5t263 271t368.5 99.5q152 0 287 -58.5t231.5 -158.5t152.5 -238t56 -291q0 -204 -95 -375t-262.5 -270.5t-369.5 -99.5q-201 0 -368.5 99.5t-263 270.5t-95.5 375zM252 737q0 -125 44 -234.5t119.5 -186t180.5 -120.5t223 -44q243 0 406.5 166 t163.5 419t-163.5 419.5t-406.5 166.5q-158 0 -287.5 -75t-204.5 -209.5t-75 -301.5zM645 446v570q0 46 34 80t83 34h115q49 0 82.5 -34t33.5 -80v-64q0 -24 -26 -24h-62q-11 0 -18.5 7t-7.5 17v41q0 12 -8.5 20.5t-20.5 8.5h-64q-11 0 -18.5 -8.5t-7.5 -20.5v-530 q0 -11 8 -20t18 -9h70q12 0 20.5 9t8.5 20v94q0 11 7 18t19 7h60q11 0 18.5 -7.5t7.5 -17.5v-111q0 -47 -33.5 -80.5t-80.5 -33.5h-121q-49 0 -83 33.5t-34 80.5z" />
<glyph unicode="&#xaa;" horiz-adv-x="526" d="M74 713l129 735q2 12 7.5 19t9.5 7l5 1h76q2 0 5.5 -0.5t9.5 -7.5t8 -19l129 -735q2 -11 -2 -17.5t-9 -7.5h-4h-78q-2 0 -5 0.5t-9 7t-8 17.5l-14 92h-121l-15 -92q-2 -11 -7.5 -17.5t-10.5 -7.5h-4h-78q-2 0 -5 0.5t-7 7t-2 17.5zM221 913h84l-41 318z" />
<glyph unicode="&#xab;" horiz-adv-x="720" d="M80 694q-16 26 0 51l145 256q6 11 14.5 17.5t13.5 7.5h5h145q2 0 4.5 -1t5.5 -6.5t-5 -17.5l-156 -280l156 -281q6 -13 5 -19t-5 -7h-5h-145q-19 -1 -33 26zM313 694q-16 26 0 51l146 256q7 11 16 17.5t14 7.5h5h145q2 0 4 -1t4.5 -6.5t-6.5 -17.5l-156 -280l156 -281 q7 -13 6.5 -19t-4.5 -7h-4h-145q-19 -1 -35 26z" />
<glyph unicode="&#xac;" horiz-adv-x="1048" d="M113 680v113q0 11 7 18.5t19 7.5h772q10 0 17.5 -7.5t7.5 -18.5v-361q0 -12 -7 -19t-18 -7h-112q-11 0 -19 7t-8 19v221h-633q-12 0 -19 8t-7 19z" />
<glyph unicode="&#xad;" horiz-adv-x="847" d="M113 662v112q0 11 7 19t19 8h572q10 0 17 -8t7 -19v-112q0 -11 -7 -19t-17 -8h-572q-12 0 -19 8t-7 19z" />
<glyph unicode="&#xae;" horiz-adv-x="1638" d="M92 737q0 204 95.5 375.5t263 271t368.5 99.5q152 0 287 -58.5t231.5 -158.5t152.5 -238t56 -291q0 -204 -95 -375t-262.5 -270.5t-369.5 -99.5q-201 0 -368.5 99.5t-263 270.5t-95.5 375zM252 737q0 -125 44 -234.5t119.5 -186t180.5 -120.5t223 -44q243 0 406.5 166 t163.5 419t-163.5 419.5t-406.5 166.5q-158 0 -287.5 -75t-204.5 -209.5t-75 -301.5zM641 362v736q0 12 8 19t19 7h213q47 0 80.5 -33.5t33.5 -80.5v-244q0 -35 -20 -63.5t-53 -40.5l75 -300q3 -11 0 -17t-7 -7h-5h-74q-18 -1 -26 24l-74 291h-57v-291q0 -11 -7.5 -17.5 t-19.5 -6.5h-59q-11 0 -19 7t-8 17zM754 756h100q12 0 20.5 8t8.5 20v205q0 11 -8.5 20t-20.5 9h-100v-262z" />
<glyph unicode="&#xaf;" horiz-adv-x="827" d="M102 1585v45q0 12 7.5 19.5t19.5 7.5h571q11 0 18 -7.5t7 -19.5v-45q0 -11 -7.5 -18.5t-17.5 -7.5h-571q-12 0 -19.5 7.5t-7.5 18.5z" />
<glyph unicode="&#xb0;" horiz-adv-x="557" d="M92 1405q0 77 54.5 131.5t132.5 54.5q77 0 131.5 -54.5t54.5 -131.5q0 -78 -54.5 -132t-131.5 -54q-78 0 -132.5 54t-54.5 132zM172 1405q0 -43 32 -75t75 -32t74.5 32t31.5 75t-31.5 74.5t-74.5 31.5t-75 -31.5t-32 -74.5z" />
<glyph unicode="&#xb1;" horiz-adv-x="847" d="M113 270v113q0 11 7 19t19 8h572q10 0 17 -8t7 -19v-113q0 -10 -6.5 -17t-17.5 -7h-572q-26 0 -26 24zM113 809v113q0 11 7 18.5t19 7.5h203v203q0 11 7 18t18 7h112q11 0 19 -7.5t8 -17.5v-203h205q10 0 17 -7.5t7 -18.5v-113q0 -11 -7 -19t-17 -8h-205v-202 q0 -12 -8 -19.5t-19 -7.5h-112q-11 0 -18 7.5t-7 19.5v202h-203q-12 0 -19 8t-7 19z" />
<glyph unicode="&#xb2;" horiz-adv-x="620" d="M133 707v73q11 18 28.5 49t62 113t79 148.5t62.5 129.5t28 83v65q0 12 -8 20.5t-20 8.5h-101q-12 0 -20 -8.5t-8 -20.5v-61q0 -13 -15 -13h-65q-15 0 -15 13v63q0 47 34 80t81 33h117q46 0 79 -33t33 -80v-67q0 -31 -64 -162t-128 -246l-64 -115h244q14 0 14 -14v-59 q0 -15 -14 -15h-328q-12 0 -12 15z" />
<glyph unicode="&#xb3;" horiz-adv-x="622" d="M133 1305v65q0 46 34.5 79.5t80.5 33.5h127q46 0 80 -33.5t34 -79.5v-209q0 -35 -20 -65q20 -30 20 -64v-233q0 -49 -34 -83t-80 -34h-125q-46 0 -80.5 34t-34.5 83v63q0 12 15 12h65q16 0 16 -12v-67q0 -11 7.5 -20t17.5 -9h111q11 0 20.5 9.5t9.5 19.5v227 q0 12 -9.5 20.5t-20.5 8.5h-48q-12 0 -12 12v61q0 6 4.5 10.5t10.5 4.5h45q11 0 20.5 8.5t9.5 21.5v199q0 11 -9.5 19t-20.5 8h-113q-12 0 -19.5 -7.5t-7.5 -19.5v-63q0 -5 -4 -10t-8 -5h-68q-6 0 -10 5t-4 10z" />
<glyph unicode="&#xb4;" horiz-adv-x="428" d="M108 1562q-6 6 1 23l69 156q4 12 11.5 18.5t12.5 6.5l5 1h108l7 -3q4 -6 -7 -23l-129 -182h-71z" />
<glyph unicode="&#xb5;" horiz-adv-x="929" d="M133 -281v1729q0 12 7.5 19.5t19.5 7.5h123q11 0 17.5 -7.5t6.5 -19.5v-1253q2 -20 17.5 -34t37.5 -14h205q23 0 38.5 16t15.5 38v1247q0 12 7.5 19.5t18.5 7.5h123q12 0 19.5 -7.5t7.5 -19.5v-1421q0 -12 -7 -19.5t-18 -7.5h-465v-281q0 -26 -24 -26h-123q-27 0 -27 26z " />
<glyph unicode="&#xb6;" horiz-adv-x="1175" d="M133 844v416q0 89 63.5 152t151.5 63h668q11 0 18.5 -7.5t7.5 -19.5v-113q0 -10 -7.5 -17t-18.5 -7h-25v-1284q0 -12 -6.5 -19.5t-17.5 -7.5h-125q-11 0 -18 7.5t-7 19.5v1284h-61v-1284q0 -12 -7 -19.5t-18 -7.5h-125q-11 0 -17.5 7.5t-6.5 19.5v602h-234 q-88 0 -151.5 63t-63.5 152z" />
<glyph unicode="&#xb7;" horiz-adv-x="364" d="M92 651v131q0 12 8 19.5t19 7.5h127q11 0 18.5 -7.5t7.5 -19.5v-131q0 -12 -7.5 -19t-18.5 -7h-127q-11 0 -19 7t-8 19z" />
<glyph unicode="&#xb8;" horiz-adv-x="393" d="M102 -88l62 115h67l-34 -66h43q20 0 35.5 -14.5t15.5 -34.5v-145q0 -21 -15.5 -36.5t-35.5 -15.5h-86q-22 0 -37 14.5t-15 34.5v27q0 25 25 25h8q10 0 17.5 -7t7.5 -18v-10q0 -5 4 -8.5t8 -3.5h47q12 0 12 14v111q0 4 -3.5 8t-8.5 4h-47q-4 0 -8 -4t-4 -8v-21h-58v39z " />
<glyph unicode="&#xb9;" horiz-adv-x="454" d="M133 1382v25l74 68h100q5 0 10 -4.5t5 -8.5v-760q0 -6 -5 -10t-10 -4h-67q-5 0 -9 4t-4 10v668h-82q-12 0 -12 12z" />
<glyph unicode="&#xba;" horiz-adv-x="518" d="M82 797v569q0 46 34.5 80.5t80.5 34.5h125q46 0 80 -34.5t34 -80.5v-569q0 -47 -34 -81t-80 -34h-125q-46 0 -80.5 34t-34.5 81zM197 813q0 -11 7.5 -20t18.5 -9h70q13 0 22 9t9 20v530q0 12 -9 20.5t-22 8.5h-70q-12 0 -19 -8.5t-7 -20.5v-530z" />
<glyph unicode="&#xbb;" horiz-adv-x="720" d="M73 1018.5q1 5.5 5 6.5l4 1h145q19 0 33 -25l146 -256q19 -25 0 -51l-146 -254q-6 -12 -14.5 -18.5t-13.5 -7.5h-5h-145l-7 3q-6 6 3 23l158 281l-158 280q-6 12 -5 17.5zM306 1018.5q1 5.5 5 6.5l4 1h146q19 0 33 -25l147 -256q16 -25 0 -51l-147 -254 q-6 -12 -14.5 -18.5t-13.5 -7.5h-5h-146l-7 3q-6 6 3 23l158 281l-158 280q-6 12 -5 17.5z" />
<glyph unicode="&#xbc;" horiz-adv-x="1212" d="M133 1382v25l74 68h100q5 0 10 -4.5t5 -8.5v-760q0 -6 -5 -10t-10 -4h-67q-5 0 -9 4t-4 10v668h-82q-12 0 -12 12zM205.5 100q-3.5 6 3.5 19l600 1218q6 12 14.5 18.5t13.5 7.5l5 1h110q2 0 4 -1t5 -7t-5 -19l-606 -1218q-5 -12 -13 -18.5t-13 -7.5l-5 -1h-104q-2 0 -4 1 t-5.5 7zM705 152v75l219 545q2 5 5.5 8t6.5 4h2h66q5 2 9.5 -2t4.5 -10v-545h45q6 0 11 -4t5 -10v-61q0 -6 -5 -10.5t-11 -4.5h-45v-125q0 -4 -4.5 -8t-9.5 -4h-66q-14 0 -14 12v125h-207q-5 0 -8.5 4.5t-3.5 10.5zM797 227h131v336z" />
<glyph unicode="&#xbd;" horiz-adv-x="1280" d="M133 1382v25l74 68h100q5 0 10 -4.5t5 -8.5v-760q0 -6 -5 -10t-10 -4h-67q-5 0 -9 4t-4 10v668h-82q-12 0 -12 12zM205.5 100q-3.5 6 3.5 19l600 1218q6 12 14.5 18.5t13.5 7.5l5 1h110q2 0 4 -1t5 -7t-5 -19l-606 -1218q-5 -12 -13 -18.5t-13 -7.5l-5 -1h-104q-2 0 -4 1 t-5.5 7zM791 12v74q11 18 28.5 49.5t62.5 113.5t79.5 148t63 129.5t28.5 83.5v64q0 12 -8.5 21.5t-20.5 9.5h-102q-10 0 -18.5 -9.5t-8.5 -21.5v-60q0 -14 -16 -14h-64q-14 0 -14 14v62q0 49 33 82t81 33h115q48 0 81.5 -33t33.5 -82v-66q0 -31 -64 -162t-128 -246l-64 -116 h244q14 0 14 -12v-62q0 -4 -4.5 -8t-9.5 -4h-328q-14 0 -14 12z" />
<glyph unicode="&#xbe;" horiz-adv-x="1304" d="M133 1305v65q0 46 34.5 79.5t80.5 33.5h127q46 0 80 -33.5t34 -79.5v-209q0 -35 -20 -65q20 -30 20 -64v-233q0 -49 -34 -83t-80 -34h-125q-46 0 -80.5 34t-34.5 83v63q0 12 15 12h65q16 0 16 -12v-67q0 -11 7.5 -20t17.5 -9h111q11 0 20.5 9.5t9.5 19.5v227 q0 12 -9.5 20.5t-20.5 8.5h-48q-12 0 -12 12v61q0 6 4.5 10.5t10.5 4.5h45q11 0 20.5 8.5t9.5 21.5v199q0 11 -9.5 19t-20.5 8h-113q-12 0 -19.5 -7.5t-7.5 -19.5v-63q0 -5 -4 -10t-8 -5h-68q-6 0 -10 5t-4 10zM317 100q-3 6 5 19l600 1218q5 12 12.5 18.5t12.5 7.5l5 1h111 q2 0 4 -1t5.5 -7t-3.5 -19l-606 -1218q-5 -12 -13 -18.5t-13 -7.5l-5 -1h-106q-2 0 -4 1t-5 7zM797 152v75l219 545q2 5 5.5 8t6.5 4h2h66q5 2 9.5 -2t4.5 -10v-545h45q6 0 11 -4t5 -10v-61q0 -6 -5 -10.5t-11 -4.5h-45v-125q0 -4 -4.5 -8t-9.5 -4h-66q-14 0 -14 12v125 h-207q-5 0 -8.5 4.5t-3.5 10.5zM889 227h131v336z" />
<glyph unicode="&#xbf;" horiz-adv-x="835" d="M92 207v448q0 98 67 157.5t148 59.5q23 0 38 15.5t15 38.5v254q0 10 8 18t19 8h123q11 0 19 -8t8 -18v-287q0 -89 -63.5 -152t-151.5 -63q-23 0 -39.5 -15.5t-16.5 -37.5v-416q0 -23 16 -38t40 -15h192q22 0 37.5 15t15.5 38v133q0 12 8 19.5t19 7.5h123q11 0 18.5 -7.5 t7.5 -19.5v-135q0 -90 -63.5 -153.5t-153.5 -63.5h-219q-88 0 -151.5 63.5t-63.5 153.5zM360 1319v129q0 12 8 19.5t19 7.5h123q11 0 19 -7.5t8 -19.5v-129q0 -10 -8 -17.5t-19 -7.5h-123q-11 0 -19 7.5t-8 17.5z" />
<glyph unicode="&#xc0;" horiz-adv-x="903" d="M94 27l246 1421q1 12 7.5 19t12.5 7l7 1h170q3 0 7 -0.5t11 -7.5t8 -19l246 -1421q2 -12 -1.5 -18.5t-7.5 -7.5l-5 -1h-140q-2 0 -5 0.5t-8.5 7.5t-6.5 19l-35 215h-297l-35 -215q-1 -12 -6 -19t-10 -8h-4h-139q-2 0 -5 0.5t-7.5 7.5t-2.5 19zM272 1741q-16 25 0 26h109 q19 1 31 -26l69 -156q4 -13 2.5 -19t-5.5 -6l-5 -1h-72zM326 406h252l-127 802z" />
<glyph unicode="&#xc1;" horiz-adv-x="903" d="M94 27l246 1421q1 12 7.5 19t12.5 7l7 1h170q3 0 7 -0.5t11 -7.5t8 -19l246 -1421q2 -12 -1.5 -18.5t-7.5 -7.5l-5 -1h-140q-2 0 -5 0.5t-8.5 7.5t-6.5 19l-35 215h-297l-35 -215q-1 -12 -6 -19t-10 -8h-4h-139q-2 0 -5 0.5t-7.5 7.5t-2.5 19zM326 406h252l-127 802z M415.5 1568q-0.5 3 0 7t2.5 10l69 156q5 12 13 18.5t13 6.5l5 1h109l7 -3q4 -6 -7 -23l-129 -182h-72h-1q-1 0 -2.5 0.5t-3 1.5t-2.5 2.5t-1.5 4.5z" />
<glyph unicode="&#xc2;" horiz-adv-x="903" d="M94 27l246 1421q1 12 7.5 19t12.5 7l7 1h170q3 0 7 -0.5t11 -7.5t8 -19l246 -1421q2 -12 -1.5 -18.5t-7.5 -7.5l-5 -1h-140q-2 0 -5 0.5t-8.5 7.5t-6.5 19l-35 215h-297l-35 -215q-1 -12 -6 -19t-10 -8h-4h-139q-2 0 -5 0.5t-7.5 7.5t-2.5 19zM304.5 1568q-0.5 3 0 7 t2.5 10l70 156q5 12 13 18.5t13 6.5l5 1h90q18 1 28 -26l72 -156q4 -13 2.5 -19t-6.5 -6l-4 -1h-74l-65 92l-64 -92h-72h-1q-1 0 -2.5 0.5t-3 1.5t-2.5 2.5t-1.5 4.5zM326 406h252l-127 802z" />
<glyph unicode="&#xc3;" horiz-adv-x="903" d="M94 27l246 1421q1 12 7.5 19t12.5 7l7 1h170q3 0 7 -0.5t11 -7.5t8 -19l246 -1421q2 -12 -1.5 -18.5t-7.5 -7.5l-5 -1h-140q-2 0 -5 0.5t-8.5 7.5t-6.5 19l-35 215h-297l-35 -215q-1 -12 -6 -19t-10 -8h-4h-139q-2 0 -5 0.5t-7.5 7.5t-2.5 19zM258 1562q-5 6 2 23l88 156 q4 12 11.5 18.5t12.5 6.5l5 1h45q20 0 35 -26l41 -60l80 86h71l7 -3q7 -6 -1 -23l-88 -156q-4 -12 -11 -18.5t-12 -6.5l-5 -1h-56l-65 92l-78 -92h-74zM326 406h252l-127 802z" />
<glyph unicode="&#xc4;" horiz-adv-x="903" d="M94 27l246 1421q1 12 7.5 19t12.5 7l7 1h170q3 0 7 -0.5t11 -7.5t8 -19l246 -1421q2 -12 -1.5 -18.5t-7.5 -7.5l-5 -1h-140q-2 0 -5 0.5t-8.5 7.5t-6.5 19l-35 215h-297l-35 -215q-1 -12 -6 -19t-10 -8h-4h-139q-2 0 -5 0.5t-7.5 7.5t-2.5 19zM168 1649q0 41 29 69.5 t69 28.5q41 0 70 -28.5t29 -69.5q0 -40 -29 -69.5t-70 -29.5q-40 0 -69 29.5t-29 69.5zM326 406h252l-127 802zM541 1649q0 41 29 69.5t69 28.5t69 -28.5t29 -69.5q0 -40 -29 -69.5t-69 -29.5t-69 29.5t-29 69.5z" />
<glyph unicode="&#xc5;" horiz-adv-x="903" d="M94 27l236 1376q-64 55 -64 143q0 77 54.5 132t130.5 55q78 0 132 -55t54 -132q0 -87 -66 -143l238 -1376q2 -12 -1.5 -18.5t-7.5 -7.5l-5 -1h-140q-2 0 -5 0.5t-8.5 7.5t-6.5 19l-35 215h-297l-35 -215q-1 -12 -6 -19t-10 -8h-4h-139q-2 0 -5 0.5t-7.5 7.5t-2.5 19z M326 406h252l-127 802zM362 1546q0 -40 28.5 -64t60.5 -24q33 0 61.5 24t28.5 64t-28.5 64t-61.5 24q-32 0 -60.5 -24t-28.5 -64z" />
<glyph unicode="&#xc6;" horiz-adv-x="1161" d="M94 27l246 1421q1 12 7.5 19t12.5 7l7 1h655q11 0 18 -7.5t7 -19.5v-113q0 -12 -7 -19t-18 -7h-434l78 -451h282q11 0 18 -7t7 -17v-113q0 -11 -7.5 -19t-17.5 -8h-256l92 -530h248q11 0 19 -7.5t8 -19.5v-110q0 -12 -8 -19.5t-19 -7.5h-377q-2 0 -5 0.5t-8.5 7.5 t-6.5 19l-35 215h-297l-35 -215q-1 -12 -6 -19t-10 -8h-4h-139q-2 0 -5 0.5t-7.5 7.5t-2.5 19zM326 406h252l-127 802z" />
<glyph unicode="&#xc7;" horiz-adv-x="888" d="M123 207v1061q0 90 63.5 152.5t151.5 62.5h223q90 0 152.5 -62.5t62.5 -152.5v-135q0 -12 -6.5 -19.5t-17.5 -7.5h-123q-12 0 -19.5 7.5t-7.5 19.5v133q0 23 -15.5 38t-37.5 15h-197q-23 0 -39 -15t-16 -38v-1065q0 -22 16 -38t39 -16h205q23 0 38 16t15 38v233 q0 12 8 19.5t19 7.5h123q26 0 26 -27v-227q0 -90 -63.5 -153.5t-151.5 -63.5h-112l-15 -29h43q21 0 36.5 -14.5t15.5 -34.5v-145q0 -21 -15.5 -36.5t-36.5 -15.5h-86q-22 0 -36.5 14.5t-14.5 34.5v27q0 25 25 25h8q10 0 17.5 -7t7.5 -18v-10q0 -5 4 -8.5t8 -3.5h47 q12 0 12 14v111q0 4 -3.5 8t-8.5 4h-47q-4 0 -8 -4t-4 -8v-21h-58v39l41 78h-53q-88 0 -151.5 63.5t-63.5 153.5z" />
<glyph unicode="&#xc8;" horiz-adv-x="858" d="M133 27v1421q0 12 7.5 19.5t19.5 7.5h559q11 0 18.5 -7.5t7.5 -19.5v-113q0 -12 -7.5 -19t-18.5 -7h-412v-451h338q11 0 19 -7t8 -17v-113q0 -11 -8 -19t-19 -8h-338v-530h424q11 0 18 -7.5t7 -19.5v-110q0 -12 -7 -19.5t-18 -7.5h-571q-12 0 -19.5 7.5t-7.5 19.5z M268 1741q-16 25 0 26h109q19 1 29 -26l69 -156q5 -13 3.5 -19t-5.5 -6l-4 -1h-72z" />
<glyph unicode="&#xc9;" horiz-adv-x="858" d="M133 27v1421q0 12 7.5 19.5t19.5 7.5h559q11 0 18.5 -7.5t7.5 -19.5v-113q0 -12 -7.5 -19t-18.5 -7h-412v-451h338q11 0 19 -7t8 -17v-113q0 -11 -8 -19t-19 -8h-338v-530h424q11 0 18 -7.5t7 -19.5v-110q0 -12 -7 -19.5t-18 -7.5h-571q-12 0 -19.5 7.5t-7.5 19.5z M396 1562q-6 6 1 23l70 156q4 12 11.5 18.5t12.5 6.5l5 1h108l7 -3q4 -6 -7 -23l-129 -182h-72z" />
<glyph unicode="&#xca;" horiz-adv-x="858" d="M133 27v1421q0 12 7.5 19.5t19.5 7.5h559q11 0 18.5 -7.5t7.5 -19.5v-113q0 -12 -7.5 -19t-18.5 -7h-412v-451h338q11 0 19 -7t8 -17v-113q0 -11 -8 -19t-19 -8h-338v-530h424q11 0 18 -7.5t7 -19.5v-110q0 -12 -7 -19.5t-18 -7.5h-571q-12 0 -19.5 7.5t-7.5 19.5z M286.5 1568q-0.5 3 0 7t2.5 10l71 156q4 12 11.5 18.5t12.5 6.5l5 1h90q19 1 31 -26l70 -156q4 -13 2 -19t-6 -6l-5 -1h-73l-64 92l-65 -92h-72h-1q-1 0 -2.5 0.5t-3 1.5t-2.5 2.5t-1.5 4.5z" />
<glyph unicode="&#xcb;" horiz-adv-x="858" d="M133 27v1421q0 12 7.5 19.5t19.5 7.5h559q11 0 18.5 -7.5t7.5 -19.5v-113q0 -12 -7.5 -19t-18.5 -7h-412v-451h338q11 0 19 -7t8 -17v-113q0 -11 -8 -19t-19 -8h-338v-530h424q11 0 18 -7.5t7 -19.5v-110q0 -12 -7 -19.5t-18 -7.5h-571q-12 0 -19.5 7.5t-7.5 19.5z M154 1649q0 41 29 69.5t69 28.5q41 0 69.5 -28.5t28.5 -69.5q0 -40 -28.5 -69.5t-69.5 -29.5q-40 0 -69 29.5t-29 69.5zM526 1649q0 41 29.5 69.5t69.5 28.5t69 -28.5t29 -69.5q0 -40 -29 -69.5t-69 -29.5t-69.5 29.5t-29.5 69.5z" />
<glyph unicode="&#xcc;" horiz-adv-x="440" d="M41 1741q-16 25 0 26h111q18 1 28 -26l70 -156q5 -13 3.5 -19t-5.5 -6l-4 -1h-74zM133 27v1421q0 12 7 19.5t18 7.5h123q26 0 26 -27v-1421q0 -27 -26 -27h-123q-11 0 -18 7.5t-7 19.5z" />
<glyph unicode="&#xcd;" horiz-adv-x="440" d="M133 27v1421q0 12 7.5 19.5t19.5 7.5h123q11 0 17.5 -7.5t6.5 -19.5v-1421q0 -12 -6.5 -19.5t-17.5 -7.5h-123q-12 0 -19.5 7.5t-7.5 19.5zM184 1566.5q-4 5.5 2 18.5l70 156q5 12 13 18.5t13 6.5l5 1h108l7 -3q4 -6 -7 -23l-129 -182h-71q-2 0 -4.5 1t-6.5 6.5z" />
<glyph unicode="&#xce;" horiz-adv-x="442" d="M73.5 1568q-0.5 3 0 7t2.5 10l69 156q5 12 13 18.5t13 6.5l5 1h90q19 1 29 -26l72 -156q4 -13 2 -19t-7 -6l-4 -1h-73l-66 92l-63 -92h-72h-1q-1 0 -2.5 0.5t-3 1.5t-2.5 2.5t-1.5 4.5zM133 27v1421q0 12 8 19.5t19 7.5h123q11 0 18.5 -7.5t7.5 -19.5v-1421 q0 -12 -7.5 -19.5t-18.5 -7.5h-123q-11 0 -19 7.5t-8 19.5z" />
<glyph unicode="&#xcf;" horiz-adv-x="440" d="M-55 1649q0 41 29.5 69.5t70.5 28.5q40 0 68 -28.5t28 -69.5q0 -40 -28.5 -69.5t-67.5 -29.5q-41 0 -70.5 29.5t-29.5 69.5zM133 27v1421q0 12 7 19.5t18 7.5h125q11 0 17.5 -7.5t6.5 -19.5v-1421q0 -12 -6.5 -19.5t-17.5 -7.5h-125q-11 0 -18 7.5t-7 19.5zM299 1649 q0 41 29 69.5t69 28.5t69.5 -28.5t29.5 -69.5q0 -40 -29.5 -69.5t-69.5 -29.5t-69 29.5t-29 69.5z" />
<glyph unicode="&#xd0;" horiz-adv-x="919" d="M41 662v112q0 11 7.5 19t19.5 8h65v647q0 12 7.5 19.5t19.5 7.5h422q88 0 151.5 -63t63.5 -152v-1045q0 -89 -63.5 -152t-151.5 -63h-422q-12 0 -19.5 7.5t-7.5 19.5v608h-65q-12 0 -19.5 8t-7.5 19zM307 164h260q23 0 38.5 15.5t15.5 37.5v1040q0 22 -15.5 38t-38.5 16 h-260v-510h86q10 0 17.5 -8t7.5 -19v-112q0 -11 -7.5 -19t-17.5 -8h-86v-471z" />
<glyph unicode="&#xd1;" horiz-adv-x="944" d="M133 27v1421q0 12 7.5 19.5t19.5 7.5h121q2 0 5.5 -0.5t10.5 -7.5t10 -19l330 -903v903q0 12 7 19.5t18 7.5h124q11 0 18 -7.5t7 -19.5v-1421q0 -12 -7 -19.5t-18 -7.5h-112q-21 0 -29 27l-338 899v-899q0 -12 -6.5 -19.5t-17.5 -7.5h-123q-12 0 -19.5 7.5t-7.5 19.5z M282 1562q-6 6 1 23l88 156q4 12 11 18.5t12 6.5l5 1h45q20 0 35 -26l41 -60l80 86h72l8 -3q6 -6 -2 -23l-88 -156q-4 -12 -11.5 -18.5t-12.5 -6.5l-5 -1h-55l-66 92l-78 -92h-73z" />
<glyph unicode="&#xd2;" d="M123 207v1061q0 90 63.5 152.5t151.5 62.5h235q90 0 154 -62.5t64 -152.5v-1061q0 -90 -64 -153.5t-154 -63.5h-235q-88 0 -151.5 63.5t-63.5 153.5zM276 1741q-16 25 0 26h109q19 1 29 -26l69 -156q5 -13 3.5 -19t-5.5 -6l-4 -1h-71zM297 201q0 -22 16 -38t39 -16h209 q23 0 38 16t15 38v1065q0 23 -15 38t-38 15h-209q-23 0 -39 -15t-16 -38v-1065z" />
<glyph unicode="&#xd3;" d="M123 207v1061q0 90 63.5 152.5t151.5 62.5h235q90 0 154 -62.5t64 -152.5v-1061q0 -90 -64 -153.5t-154 -63.5h-235q-88 0 -151.5 63.5t-63.5 153.5zM297 201q0 -22 16 -38t39 -16h209q23 0 38 16t15 38v1065q0 23 -15 38t-38 15h-209q-23 0 -39 -15t-16 -38v-1065z M424 1562q-6 6 2 23l70 156q4 12 11 18.5t12 6.5l5 1h109l7 -3q4 -6 -7 -23l-129 -182h-72z" />
<glyph unicode="&#xd4;" d="M123 207v1061q0 90 63.5 152.5t151.5 62.5h235q90 0 154 -62.5t64 -152.5v-1061q0 -90 -64 -153.5t-154 -63.5h-235q-88 0 -151.5 63.5t-63.5 153.5zM297 201q0 -22 16 -38t39 -16h209q23 0 38 16t15 38v1065q0 23 -15 38t-38 15h-209q-23 0 -39 -15t-16 -38v-1065z M304.5 1568q-0.5 3 0 7t2.5 10l70 156q5 12 13 18.5t13 6.5l5 1h90q18 1 28 -26l70 -156q5 -13 3.5 -19t-5.5 -6l-4 -1h-74l-65 92l-64 -92h-72h-1q-1 0 -2.5 0.5t-3 1.5t-2.5 2.5t-1.5 4.5z" />
<glyph unicode="&#xd5;" d="M123 207v1061q0 90 63.5 152.5t151.5 62.5h235q90 0 154 -62.5t64 -152.5v-1061q0 -90 -64 -153.5t-154 -63.5h-235q-88 0 -151.5 63.5t-63.5 153.5zM265.5 1568q-0.5 3 0 7t2.5 10l88 156q5 12 13 18.5t13 6.5l5 1h43q20 0 35 -26l41 -60l80 86h71q2 0 4.5 -1t6.5 -6.5 t-2 -18.5l-91 -156q-4 -12 -11 -18.5t-12 -6.5l-5 -1h-55l-66 92l-78 -92h-72h-1q-1 0 -2.5 0.5t-3 1.5t-2.5 2.5t-1.5 4.5zM297 201q0 -22 16 -38t39 -16h209q23 0 38 16t15 38v1065q0 23 -15 38t-38 15h-209q-23 0 -39 -15t-16 -38v-1065z" />
<glyph unicode="&#xd6;" d="M123 207v1061q0 90 63.5 152.5t151.5 62.5h235q90 0 154 -62.5t64 -152.5v-1061q0 -90 -64 -153.5t-154 -63.5h-235q-88 0 -151.5 63.5t-63.5 153.5zM170 1649q0 41 30 69.5t70 28.5t69.5 -28.5t29.5 -69.5q0 -40 -29.5 -69.5t-69.5 -29.5t-70 29.5t-30 69.5zM297 201 q0 -22 16 -38t39 -16h209q23 0 38 16t15 38v1065q0 23 -15 38t-38 15h-209q-23 0 -39 -15t-16 -38v-1065zM543 1649q0 41 30 69.5t70 28.5t68 -28.5t28 -69.5q0 -40 -28.5 -69.5t-67.5 -29.5q-40 0 -70 29.5t-30 69.5z" />
<glyph unicode="&#xd7;" horiz-adv-x="837" d="M95 1080q1 6 6 6l5 1h162q19 1 33 -26l117 -201l121 201q5 12 12.5 18.5t12.5 6.5l5 1h162h1q1 0 3 -0.5t3.5 -1.5t3 -2.5t1.5 -4.5t-1.5 -7t-4.5 -10l-202 -330l204 -336q6 -13 4.5 -19t-5.5 -6l-5 -1h-155q-15 -1 -33 26l-127 209l-125 -209q-7 -12 -15 -18.5t-12 -6.5 l-4 -1h-158l-8 3q-6 6 4 23l203 336l-201 330q-8 13 -7 19z" />
<glyph unicode="&#xd8;" horiz-adv-x="905" d="M123 207v1061q0 90 63.5 152.5t151.5 62.5h229h25l16 57q5 12 13 19t13 7l5 1h111q2 0 4 -1t5.5 -7t-3.5 -19l-35 -121q61 -64 61 -151v-1061q0 -90 -63.5 -153.5t-151.5 -63.5h-229q-4 0 -14.5 1t-14.5 1l-16 -58q-6 -12 -14.5 -18.5t-13.5 -7.5h-5h-104l-8 3q-6 6 2 23 l34 121q-61 64 -61 152zM297 453l248 866h-193q-23 0 -39 -15t-16 -38v-813zM352 147h203q22 0 37.5 16t15.5 38v827z" />
<glyph unicode="&#xd9;" horiz-adv-x="929" d="M133 207v1241q0 12 7.5 19.5t19.5 7.5h123q11 0 17.5 -7.5t6.5 -19.5v-1247q0 -22 16 -38t39 -16h205q23 0 38.5 16t15.5 38v1247q0 12 7.5 19.5t18.5 7.5h123q12 0 19.5 -7.5t7.5 -19.5v-1241q0 -90 -63.5 -153.5t-151.5 -63.5h-234q-88 0 -151.5 63.5t-63.5 153.5z M289 1741q-16 25 0 26h108q19 1 29 -26l70 -156q5 -13 3.5 -19t-5.5 -6l-5 -1h-71z" />
<glyph unicode="&#xda;" horiz-adv-x="929" d="M133 207v1241q0 12 7.5 19.5t19.5 7.5h123q11 0 17.5 -7.5t6.5 -19.5v-1247q0 -22 16 -38t39 -16h205q23 0 38.5 16t15.5 38v1247q0 12 7.5 19.5t18.5 7.5h123q12 0 19.5 -7.5t7.5 -19.5v-1241q0 -90 -63.5 -153.5t-151.5 -63.5h-234q-88 0 -151.5 63.5t-63.5 153.5z M428 1562q-5 6 2 23l70 156q4 12 11 18.5t12 6.5l5 1h111l7 -3q4 -6 -7 -23l-129 -182h-74z" />
<glyph unicode="&#xdb;" horiz-adv-x="929" d="M133 207v1241q0 12 7.5 19.5t19.5 7.5h123q11 0 17.5 -7.5t6.5 -19.5v-1247q0 -22 16 -38t39 -16h205q23 0 38.5 16t15.5 38v1247q0 12 7.5 19.5t18.5 7.5h123q12 0 19.5 -7.5t7.5 -19.5v-1241q0 -90 -63.5 -153.5t-151.5 -63.5h-234q-88 0 -151.5 63.5t-63.5 153.5z M315.5 1572q0.5 5 3.5 13l70 156q4 12 11.5 18.5t12.5 6.5l5 1h92q19 1 29 -26l69 -156q5 -13 3.5 -19t-5.5 -6l-4 -1h-74l-65 92l-64 -92h-73h-2t-3.5 1.5t-4 4t-1 7.5z" />
<glyph unicode="&#xdc;" horiz-adv-x="929" d="M133 207v1241q0 12 7.5 19.5t19.5 7.5h123q11 0 17.5 -7.5t6.5 -19.5v-1247q0 -22 16 -38t39 -16h205q23 0 38.5 16t15.5 38v1247q0 12 7.5 19.5t18.5 7.5h123q12 0 19.5 -7.5t7.5 -19.5v-1241q0 -90 -63.5 -153.5t-151.5 -63.5h-234q-88 0 -151.5 63.5t-63.5 153.5z M178 1649q0 41 30.5 69.5t70.5 28.5t69 -28.5t29 -69.5q0 -40 -29 -69.5t-69 -29.5t-70.5 29.5t-30.5 69.5zM551 1649q0 41 30 69.5t70 28.5t69.5 -28.5t29.5 -69.5q0 -40 -29.5 -69.5t-69.5 -29.5t-70 29.5t-30 69.5z" />
<glyph unicode="&#xdd;" horiz-adv-x="854" d="M75 1467q2 6 7 7l4 1h139q2 0 5.5 -0.5t9.5 -7.5t8 -19l180 -649l178 649q3 12 9 19t11 7l5 1h137q2 0 5 -0.5t6.5 -7.5t0.5 -19l-266 -987v-434q0 -12 -7.5 -19.5t-19.5 -7.5h-120q-11 0 -19 7.5t-8 19.5v434l-264 987q-3 13 -1 19zM399 1566.5q-4 5.5 2 18.5l70 156 q5 12 13 18.5t13 6.5l5 1h108l7 -3q4 -6 -7 -23l-129 -182h-71q-2 0 -4.5 1t-6.5 6.5z" />
<glyph unicode="&#xde;" horiz-adv-x="919" d="M133 27v1421q0 12 7.5 19.5t19.5 7.5h123q11 0 17.5 -7.5t6.5 -19.5v-268h275q88 0 151.5 -63t63.5 -152v-453q0 -89 -63.5 -152t-151.5 -63h-275v-270q0 -12 -6.5 -19.5t-17.5 -7.5h-123q-12 0 -19.5 7.5t-7.5 19.5zM307 453h260q23 0 38.5 15.5t15.5 37.5v457 q0 22 -15.5 37.5t-38.5 15.5h-260v-563z" />
<glyph unicode="&#xdf;" horiz-adv-x="905" d="M133 27v1233q0 89 63.5 152t151.5 63h383q11 0 18 -7.5t7 -19.5v-129l-127 -506q71 -17 117.5 -75t46.5 -134v-397q0 -90 -63.5 -153.5t-151.5 -63.5h-37q-11 0 -19 8t-8 18v105q0 12 8 19t19 7h24q22 0 37.5 16t15.5 38v401q0 23 -15.5 38t-37.5 15h-80q-10 0 -18 8 t-8 19v119l125 510h-222q-23 0 -39 -16t-16 -38v-1230q0 -12 -6.5 -19.5t-17.5 -7.5h-123q-12 0 -19.5 7.5t-7.5 19.5z" />
<glyph unicode="&#xe0;" horiz-adv-x="903" d="M94 27l246 1421q1 12 7.5 19t12.5 7l7 1h170q3 0 7 -0.5t11 -7.5t8 -19l246 -1421q2 -12 -1.5 -18.5t-7.5 -7.5l-5 -1h-140q-2 0 -5 0.5t-8.5 7.5t-6.5 19l-35 215h-297l-35 -215q-1 -12 -6 -19t-10 -8h-4h-139q-2 0 -5 0.5t-7.5 7.5t-2.5 19zM272 1741q-16 25 0 26h109 q19 1 31 -26l69 -156q4 -13 2.5 -19t-5.5 -6l-5 -1h-72zM326 406h252l-127 802z" />
<glyph unicode="&#xe1;" horiz-adv-x="903" d="M94 27l246 1421q1 12 7.5 19t12.5 7l7 1h170q3 0 7 -0.5t11 -7.5t8 -19l246 -1421q2 -12 -1.5 -18.5t-7.5 -7.5l-5 -1h-140q-2 0 -5 0.5t-8.5 7.5t-6.5 19l-35 215h-297l-35 -215q-1 -12 -6 -19t-10 -8h-4h-139q-2 0 -5 0.5t-7.5 7.5t-2.5 19zM326 406h252l-127 802z M415.5 1568q-0.5 3 0 7t2.5 10l69 156q5 12 13 18.5t13 6.5l5 1h109l7 -3q4 -6 -7 -23l-129 -182h-72h-1q-1 0 -2.5 0.5t-3 1.5t-2.5 2.5t-1.5 4.5z" />
<glyph unicode="&#xe2;" horiz-adv-x="903" d="M94 27l246 1421q1 12 7.5 19t12.5 7l7 1h170q3 0 7 -0.5t11 -7.5t8 -19l246 -1421q2 -12 -1.5 -18.5t-7.5 -7.5l-5 -1h-140q-2 0 -5 0.5t-8.5 7.5t-6.5 19l-35 215h-297l-35 -215q-1 -12 -6 -19t-10 -8h-4h-139q-2 0 -5 0.5t-7.5 7.5t-2.5 19zM304.5 1568q-0.5 3 0 7 t2.5 10l70 156q5 12 13 18.5t13 6.5l5 1h90q18 1 28 -26l72 -156q4 -13 2.5 -19t-6.5 -6l-4 -1h-74l-65 92l-64 -92h-72h-1q-1 0 -2.5 0.5t-3 1.5t-2.5 2.5t-1.5 4.5zM326 406h252l-127 802z" />
<glyph unicode="&#xe3;" horiz-adv-x="903" d="M94 27l246 1421q1 12 7.5 19t12.5 7l7 1h170q3 0 7 -0.5t11 -7.5t8 -19l246 -1421q2 -12 -1.5 -18.5t-7.5 -7.5l-5 -1h-140q-2 0 -5 0.5t-8.5 7.5t-6.5 19l-35 215h-297l-35 -215q-1 -12 -6 -19t-10 -8h-4h-139q-2 0 -5 0.5t-7.5 7.5t-2.5 19zM258 1562q-5 6 2 23l88 156 q4 12 11.5 18.5t12.5 6.5l5 1h45q20 0 35 -26l41 -60l80 86h71l7 -3q7 -6 -1 -23l-88 -156q-4 -12 -11 -18.5t-12 -6.5l-5 -1h-56l-65 92l-78 -92h-74zM326 406h252l-127 802z" />
<glyph unicode="&#xe4;" horiz-adv-x="903" d="M94 27l246 1421q1 12 7.5 19t12.5 7l7 1h170q3 0 7 -0.5t11 -7.5t8 -19l246 -1421q2 -12 -1.5 -18.5t-7.5 -7.5l-5 -1h-140q-2 0 -5 0.5t-8.5 7.5t-6.5 19l-35 215h-297l-35 -215q-1 -12 -6 -19t-10 -8h-4h-139q-2 0 -5 0.5t-7.5 7.5t-2.5 19zM168 1649q0 41 29 69.5 t69 28.5q41 0 70 -28.5t29 -69.5q0 -40 -29 -69.5t-70 -29.5q-40 0 -69 29.5t-29 69.5zM326 406h252l-127 802zM541 1649q0 41 29 69.5t69 28.5t69 -28.5t29 -69.5q0 -40 -29 -69.5t-69 -29.5t-69 29.5t-29 69.5z" />
<glyph unicode="&#xe5;" horiz-adv-x="903" d="M94 27l236 1376q-64 55 -64 143q0 77 54.5 132t130.5 55q78 0 132 -55t54 -132q0 -87 -66 -143l238 -1376q2 -12 -1.5 -18.5t-7.5 -7.5l-5 -1h-140q-2 0 -5 0.5t-8.5 7.5t-6.5 19l-35 215h-297l-35 -215q-1 -12 -6 -19t-10 -8h-4h-139q-2 0 -5 0.5t-7.5 7.5t-2.5 19z M326 406h252l-127 802zM362 1546q0 -40 28.5 -64t60.5 -24q33 0 61.5 24t28.5 64t-28.5 64t-61.5 24q-32 0 -60.5 -24t-28.5 -64z" />
<glyph unicode="&#xe6;" horiz-adv-x="1161" d="M94 27l246 1421q1 12 7.5 19t12.5 7l7 1h655q11 0 18 -7.5t7 -19.5v-113q0 -12 -7 -19t-18 -7h-434l78 -451h282q11 0 18 -7t7 -17v-113q0 -11 -7.5 -19t-17.5 -8h-256l92 -530h248q11 0 19 -7.5t8 -19.5v-110q0 -12 -8 -19.5t-19 -7.5h-377q-2 0 -5 0.5t-8.5 7.5 t-6.5 19l-35 215h-297l-35 -215q-1 -12 -6 -19t-10 -8h-4h-139q-2 0 -5 0.5t-7.5 7.5t-2.5 19zM326 406h252l-127 802z" />
<glyph unicode="&#xe7;" horiz-adv-x="888" d="M123 207v1061q0 90 63.5 152.5t151.5 62.5h223q90 0 152.5 -62.5t62.5 -152.5v-135q0 -12 -6.5 -19.5t-17.5 -7.5h-123q-12 0 -19.5 7.5t-7.5 19.5v133q0 23 -15.5 38t-37.5 15h-197q-23 0 -39 -15t-16 -38v-1065q0 -22 16 -38t39 -16h205q23 0 38 16t15 38v233 q0 12 8 19.5t19 7.5h123q26 0 26 -27v-227q0 -90 -63.5 -153.5t-151.5 -63.5h-112l-15 -29h43q21 0 36.5 -14.5t15.5 -34.5v-145q0 -21 -15.5 -36.5t-36.5 -15.5h-86q-22 0 -36.5 14.5t-14.5 34.5v27q0 25 25 25h8q10 0 17.5 -7t7.5 -18v-10q0 -5 4 -8.5t8 -3.5h47 q12 0 12 14v111q0 4 -3.5 8t-8.5 4h-47q-4 0 -8 -4t-4 -8v-21h-58v39l41 78h-53q-88 0 -151.5 63.5t-63.5 153.5z" />
<glyph unicode="&#xe8;" horiz-adv-x="858" d="M133 27v1421q0 12 7.5 19.5t19.5 7.5h559q11 0 18.5 -7.5t7.5 -19.5v-113q0 -12 -7.5 -19t-18.5 -7h-412v-451h338q11 0 19 -7t8 -17v-113q0 -11 -8 -19t-19 -8h-338v-530h424q11 0 18 -7.5t7 -19.5v-110q0 -12 -7 -19.5t-18 -7.5h-571q-12 0 -19.5 7.5t-7.5 19.5z M268 1741q-16 25 0 26h109q19 1 29 -26l69 -156q5 -13 3.5 -19t-5.5 -6l-4 -1h-72z" />
<glyph unicode="&#xe9;" horiz-adv-x="858" d="M133 27v1421q0 12 7.5 19.5t19.5 7.5h559q11 0 18.5 -7.5t7.5 -19.5v-113q0 -12 -7.5 -19t-18.5 -7h-412v-451h338q11 0 19 -7t8 -17v-113q0 -11 -8 -19t-19 -8h-338v-530h424q11 0 18 -7.5t7 -19.5v-110q0 -12 -7 -19.5t-18 -7.5h-571q-12 0 -19.5 7.5t-7.5 19.5z M396 1562q-6 6 1 23l70 156q4 12 11.5 18.5t12.5 6.5l5 1h108l7 -3q4 -6 -7 -23l-129 -182h-72z" />
<glyph unicode="&#xea;" horiz-adv-x="858" d="M133 27v1421q0 12 7.5 19.5t19.5 7.5h559q11 0 18.5 -7.5t7.5 -19.5v-113q0 -12 -7.5 -19t-18.5 -7h-412v-451h338q11 0 19 -7t8 -17v-113q0 -11 -8 -19t-19 -8h-338v-530h424q11 0 18 -7.5t7 -19.5v-110q0 -12 -7 -19.5t-18 -7.5h-571q-12 0 -19.5 7.5t-7.5 19.5z M286.5 1568q-0.5 3 0 7t2.5 10l71 156q4 12 11.5 18.5t12.5 6.5l5 1h90q19 1 31 -26l70 -156q4 -13 2 -19t-6 -6l-5 -1h-73l-64 92l-65 -92h-72h-1q-1 0 -2.5 0.5t-3 1.5t-2.5 2.5t-1.5 4.5z" />
<glyph unicode="&#xeb;" horiz-adv-x="858" d="M133 27v1421q0 12 7.5 19.5t19.5 7.5h559q11 0 18.5 -7.5t7.5 -19.5v-113q0 -12 -7.5 -19t-18.5 -7h-412v-451h338q11 0 19 -7t8 -17v-113q0 -11 -8 -19t-19 -8h-338v-530h424q11 0 18 -7.5t7 -19.5v-110q0 -12 -7 -19.5t-18 -7.5h-571q-12 0 -19.5 7.5t-7.5 19.5z M154 1649q0 41 29 69.5t69 28.5q41 0 69.5 -28.5t28.5 -69.5q0 -40 -28.5 -69.5t-69.5 -29.5q-40 0 -69 29.5t-29 69.5zM526 1649q0 41 29.5 69.5t69.5 28.5t69 -28.5t29 -69.5q0 -40 -29 -69.5t-69 -29.5t-69.5 29.5t-29.5 69.5z" />
<glyph unicode="&#xec;" horiz-adv-x="440" d="M41 1741q-16 25 0 26h111q18 1 28 -26l70 -156q5 -13 3.5 -19t-5.5 -6l-4 -1h-74zM133 27v1421q0 12 7 19.5t18 7.5h123q26 0 26 -27v-1421q0 -27 -26 -27h-123q-11 0 -18 7.5t-7 19.5z" />
<glyph unicode="&#xed;" horiz-adv-x="440" d="M133 27v1421q0 12 7.5 19.5t19.5 7.5h123q11 0 17.5 -7.5t6.5 -19.5v-1421q0 -12 -6.5 -19.5t-17.5 -7.5h-123q-12 0 -19.5 7.5t-7.5 19.5zM184 1566.5q-4 5.5 2 18.5l70 156q5 12 13 18.5t13 6.5l5 1h108l7 -3q4 -6 -7 -23l-129 -182h-71q-2 0 -4.5 1t-6.5 6.5z" />
<glyph unicode="&#xee;" horiz-adv-x="442" d="M76 1562q-5 6 2 23l69 156q4 12 11.5 18.5t12.5 6.5l5 1h90q19 1 31 -26l70 -156q4 -13 2 -19t-7 -6l-4 -1h-73l-64 92l-65 -92h-72zM133 27v1421q0 12 8 19.5t19 7.5h123q11 0 18.5 -7.5t7.5 -19.5v-1421q0 -12 -7.5 -19.5t-18.5 -7.5h-123q-11 0 -19 7.5t-8 19.5z" />
<glyph unicode="&#xef;" horiz-adv-x="440" d="M-55 1649q0 41 29.5 69.5t70.5 28.5q40 0 68 -28.5t28 -69.5q0 -40 -28.5 -69.5t-67.5 -29.5q-41 0 -70.5 29.5t-29.5 69.5zM133 27v1421q0 12 7 19.5t18 7.5h125q11 0 17.5 -7.5t6.5 -19.5v-1421q0 -12 -6.5 -19.5t-17.5 -7.5h-125q-11 0 -18 7.5t-7 19.5zM299 1649 q0 41 29 69.5t69 28.5t69.5 -28.5t29.5 -69.5q0 -40 -29.5 -69.5t-69.5 -29.5t-69 29.5t-29 69.5z" />
<glyph unicode="&#xf0;" horiz-adv-x="919" d="M41 662v112q0 11 7.5 19t19.5 8h65v647q0 12 7.5 19.5t19.5 7.5h422q88 0 151.5 -63t63.5 -152v-1045q0 -89 -63.5 -152t-151.5 -63h-422q-12 0 -19.5 7.5t-7.5 19.5v608h-65q-12 0 -19.5 8t-7.5 19zM307 164h260q23 0 38.5 15.5t15.5 37.5v1040q0 22 -15.5 38t-38.5 16 h-260v-510h86q10 0 17.5 -8t7.5 -19v-112q0 -11 -7.5 -19t-17.5 -8h-86v-471z" />
<glyph unicode="&#xf1;" horiz-adv-x="944" d="M133 27v1421q0 12 7.5 19.5t19.5 7.5h121q2 0 5.5 -0.5t10.5 -7.5t10 -19l330 -903v903q0 12 7 19.5t18 7.5h124q11 0 18 -7.5t7 -19.5v-1421q0 -12 -7 -19.5t-18 -7.5h-112q-21 0 -29 27l-338 899v-899q0 -12 -6.5 -19.5t-17.5 -7.5h-123q-12 0 -19.5 7.5t-7.5 19.5z M282 1562q-6 6 1 23l88 156q4 12 11 18.5t12 6.5l5 1h45q20 0 35 -26l41 -60l80 86h72l8 -3q6 -6 -2 -23l-88 -156q-4 -12 -11.5 -18.5t-12.5 -6.5l-5 -1h-55l-66 92l-78 -92h-73z" />
<glyph unicode="&#xf2;" d="M123 207v1061q0 90 63.5 152.5t151.5 62.5h235q90 0 154 -62.5t64 -152.5v-1061q0 -90 -64 -153.5t-154 -63.5h-235q-88 0 -151.5 63.5t-63.5 153.5zM276 1741q-16 25 0 26h109q19 1 29 -26l69 -156q5 -13 3.5 -19t-5.5 -6l-4 -1h-71zM297 201q0 -22 16 -38t39 -16h209 q23 0 38 16t15 38v1065q0 23 -15 38t-38 15h-209q-23 0 -39 -15t-16 -38v-1065z" />
<glyph unicode="&#xf3;" d="M123 207v1061q0 90 63.5 152.5t151.5 62.5h235q90 0 154 -62.5t64 -152.5v-1061q0 -90 -64 -153.5t-154 -63.5h-235q-88 0 -151.5 63.5t-63.5 153.5zM297 201q0 -22 16 -38t39 -16h209q23 0 38 16t15 38v1065q0 23 -15 38t-38 15h-209q-23 0 -39 -15t-16 -38v-1065z M424 1562q-6 6 2 23l70 156q4 12 11 18.5t12 6.5l5 1h109l7 -3q4 -6 -7 -23l-129 -182h-72z" />
<glyph unicode="&#xf4;" d="M123 207v1061q0 90 63.5 152.5t151.5 62.5h235q90 0 154 -62.5t64 -152.5v-1061q0 -90 -64 -153.5t-154 -63.5h-235q-88 0 -151.5 63.5t-63.5 153.5zM297 201q0 -22 16 -38t39 -16h209q23 0 38 16t15 38v1065q0 23 -15 38t-38 15h-209q-23 0 -39 -15t-16 -38v-1065z M304.5 1568q-0.5 3 0 7t2.5 10l70 156q5 12 13 18.5t13 6.5l5 1h90q18 1 28 -26l70 -156q5 -13 3.5 -19t-5.5 -6l-4 -1h-74l-65 92l-64 -92h-72h-1q-1 0 -2.5 0.5t-3 1.5t-2.5 2.5t-1.5 4.5z" />
<glyph unicode="&#xf5;" d="M123 207v1061q0 90 63.5 152.5t151.5 62.5h235q90 0 154 -62.5t64 -152.5v-1061q0 -90 -64 -153.5t-154 -63.5h-235q-88 0 -151.5 63.5t-63.5 153.5zM265.5 1568q-0.5 3 0 7t2.5 10l88 156q5 12 13 18.5t13 6.5l5 1h43q20 0 35 -26l41 -60l80 86h71q2 0 4.5 -1t6.5 -6.5 t-2 -18.5l-91 -156q-4 -12 -11 -18.5t-12 -6.5l-5 -1h-55l-66 92l-78 -92h-72h-1q-1 0 -2.5 0.5t-3 1.5t-2.5 2.5t-1.5 4.5zM297 201q0 -22 16 -38t39 -16h209q23 0 38 16t15 38v1065q0 23 -15 38t-38 15h-209q-23 0 -39 -15t-16 -38v-1065z" />
<glyph unicode="&#xf6;" d="M123 207v1061q0 90 63.5 152.5t151.5 62.5h235q90 0 154 -62.5t64 -152.5v-1061q0 -90 -64 -153.5t-154 -63.5h-235q-88 0 -151.5 63.5t-63.5 153.5zM170 1649q0 41 30 69.5t70 28.5t69.5 -28.5t29.5 -69.5q0 -40 -29.5 -69.5t-69.5 -29.5t-70 29.5t-30 69.5zM297 201 q0 -22 16 -38t39 -16h209q23 0 38 16t15 38v1065q0 23 -15 38t-38 15h-209q-23 0 -39 -15t-16 -38v-1065zM543 1649q0 41 30 69.5t70 28.5t68 -28.5t28 -69.5q0 -40 -28.5 -69.5t-67.5 -29.5q-40 0 -70 29.5t-30 69.5z" />
<glyph unicode="&#xf7;" horiz-adv-x="991" d="M113 662v112q0 11 7 19t19 8h715q10 0 17.5 -8t7.5 -19v-112q0 -11 -7.5 -19t-17.5 -8h-715q-12 0 -19 8t-7 19zM387 457q0 44 32 75t77 31q44 0 75 -31t31 -75q0 -45 -31 -77t-75 -32t-76.5 32.5t-32.5 76.5zM387 983q0 43 32.5 75t76.5 32t75 -32t31 -75q0 -45 -31 -77 t-75 -32t-76.5 32.5t-32.5 76.5z" />
<glyph unicode="&#xf8;" horiz-adv-x="905" d="M123 207v1061q0 90 63.5 152.5t151.5 62.5h229h25l16 57q5 12 13 19t13 7l5 1h111q2 0 4 -1t5.5 -7t-3.5 -19l-35 -121q61 -64 61 -151v-1061q0 -90 -63.5 -153.5t-151.5 -63.5h-229q-4 0 -14.5 1t-14.5 1l-16 -58q-6 -12 -14.5 -18.5t-13.5 -7.5h-5h-104l-8 3q-6 6 2 23 l34 121q-61 64 -61 152zM297 453l248 866h-193q-23 0 -39 -15t-16 -38v-813zM352 147h203q22 0 37.5 16t15.5 38v827z" />
<glyph unicode="&#xf9;" horiz-adv-x="929" d="M133 207v1241q0 12 7.5 19.5t19.5 7.5h123q11 0 17.5 -7.5t6.5 -19.5v-1247q0 -22 16 -38t39 -16h205q23 0 38.5 16t15.5 38v1247q0 12 7.5 19.5t18.5 7.5h123q12 0 19.5 -7.5t7.5 -19.5v-1241q0 -90 -63.5 -153.5t-151.5 -63.5h-234q-88 0 -151.5 63.5t-63.5 153.5z M289 1741q-16 25 0 26h108q19 1 29 -26l70 -156q5 -13 3.5 -19t-5.5 -6l-5 -1h-71z" />
<glyph unicode="&#xfa;" horiz-adv-x="929" d="M133 207v1241q0 12 7.5 19.5t19.5 7.5h123q11 0 17.5 -7.5t6.5 -19.5v-1247q0 -22 16 -38t39 -16h205q23 0 38.5 16t15.5 38v1247q0 12 7.5 19.5t18.5 7.5h123q12 0 19.5 -7.5t7.5 -19.5v-1241q0 -90 -63.5 -153.5t-151.5 -63.5h-234q-88 0 -151.5 63.5t-63.5 153.5z M428 1562q-5 6 2 23l70 156q4 12 11 18.5t12 6.5l5 1h111l7 -3q4 -6 -7 -23l-129 -182h-74z" />
<glyph unicode="&#xfb;" horiz-adv-x="929" d="M133 207v1241q0 12 7.5 19.5t19.5 7.5h123q11 0 17.5 -7.5t6.5 -19.5v-1247q0 -22 16 -38t39 -16h205q23 0 38.5 16t15.5 38v1247q0 12 7.5 19.5t18.5 7.5h123q12 0 19.5 -7.5t7.5 -19.5v-1241q0 -90 -63.5 -153.5t-151.5 -63.5h-234q-88 0 -151.5 63.5t-63.5 153.5z M315.5 1572q0.5 5 3.5 13l70 156q4 12 11.5 18.5t12.5 6.5l5 1h92q19 1 29 -26l69 -156q5 -13 3.5 -19t-5.5 -6l-4 -1h-74l-65 92l-64 -92h-73h-2t-3.5 1.5t-4 4t-1 7.5z" />
<glyph unicode="&#xfc;" horiz-adv-x="929" d="M133 207v1241q0 12 7.5 19.5t19.5 7.5h123q11 0 17.5 -7.5t6.5 -19.5v-1247q0 -22 16 -38t39 -16h205q23 0 38.5 16t15.5 38v1247q0 12 7.5 19.5t18.5 7.5h123q12 0 19.5 -7.5t7.5 -19.5v-1241q0 -90 -63.5 -153.5t-151.5 -63.5h-234q-88 0 -151.5 63.5t-63.5 153.5z M178 1649q0 41 30.5 69.5t70.5 28.5t69 -28.5t29 -69.5q0 -40 -29 -69.5t-69 -29.5t-70.5 29.5t-30.5 69.5zM551 1649q0 41 30 69.5t70 28.5t69.5 -28.5t29.5 -69.5q0 -40 -29.5 -69.5t-69.5 -29.5t-70 29.5t-30 69.5z" />
<glyph unicode="&#xfd;" horiz-adv-x="854" d="M75 1467q2 6 7 7l4 1h139q2 0 5.5 -0.5t9.5 -7.5t8 -19l180 -649l178 649q3 12 9 19t11 7l5 1h137q2 0 5 -0.5t6.5 -7.5t0.5 -19l-266 -987v-434q0 -12 -7.5 -19.5t-19.5 -7.5h-120q-11 0 -19 7.5t-8 19.5v434l-264 987q-3 13 -1 19zM399 1566.5q-4 5.5 2 18.5l70 156 q5 12 13 18.5t13 6.5l5 1h108l7 -3q4 -6 -7 -23l-129 -182h-71q-2 0 -4.5 1t-6.5 6.5z" />
<glyph unicode="&#xfe;" horiz-adv-x="919" d="M133 27v1421q0 12 7.5 19.5t19.5 7.5h123q11 0 17.5 -7.5t6.5 -19.5v-268h275q88 0 151.5 -63t63.5 -152v-453q0 -89 -63.5 -152t-151.5 -63h-275v-270q0 -12 -6.5 -19.5t-17.5 -7.5h-123q-12 0 -19.5 7.5t-7.5 19.5zM307 453h260q23 0 38.5 15.5t15.5 37.5v457 q0 22 -15.5 37.5t-38.5 15.5h-260v-563z" />
<glyph unicode="&#xff;" horiz-adv-x="854" d="M75 1467q2 6 7 7l4 1h139q2 0 5.5 -0.5t9.5 -7.5t8 -19l180 -649l178 649q3 12 9 19t11 7l5 1h137q2 0 5 -0.5t6.5 -7.5t0.5 -19l-266 -987v-434q0 -12 -7.5 -19.5t-19.5 -7.5h-120q-11 0 -19 7.5t-8 19.5v434l-264 987q-3 13 -1 19zM143 1649q0 41 30.5 69.5t70.5 28.5 t68 -28.5t28 -69.5q0 -40 -28.5 -69.5t-67.5 -29.5q-40 0 -70.5 29.5t-30.5 69.5zM516 1649q0 41 29.5 69.5t70.5 28.5q40 0 68.5 -28.5t28.5 -69.5q0 -40 -28.5 -69.5t-68.5 -29.5q-41 0 -70.5 29.5t-29.5 69.5z" />
<glyph unicode="&#x152;" horiz-adv-x="1296" d="M123 215v1045q0 89 63.5 152t151.5 63h819q11 0 18 -7.5t7 -19.5v-113q0 -12 -7 -19t-18 -7h-375v-451h301q11 0 18 -7t7 -17v-113q0 -11 -7.5 -19t-17.5 -8h-301v-530h385q11 0 19 -7.5t8 -19.5v-110q0 -12 -8 -19.5t-19 -7.5h-829q-88 0 -151.5 63t-63.5 152zM297 219 q0 -22 16 -37.5t39 -15.5h203q22 0 37.5 15.5t15.5 37.5v1028q0 23 -15.5 38t-37.5 15h-203q-23 0 -39 -15t-16 -38v-1028z" />
<glyph unicode="&#x153;" horiz-adv-x="1296" d="M123 215v1045q0 89 63.5 152t151.5 63h819q11 0 18 -7.5t7 -19.5v-113q0 -12 -7 -19t-18 -7h-375v-451h301q11 0 18 -7t7 -17v-113q0 -11 -7.5 -19t-17.5 -8h-301v-530h385q11 0 19 -7.5t8 -19.5v-110q0 -12 -8 -19.5t-19 -7.5h-829q-88 0 -151.5 63t-63.5 152zM297 219 q0 -22 16 -37.5t39 -15.5h203q22 0 37.5 15.5t15.5 37.5v1028q0 23 -15.5 38t-37.5 15h-203q-23 0 -39 -15t-16 -38v-1028z" />
<glyph unicode="&#x178;" horiz-adv-x="854" d="M75 1467q2 6 7 7l4 1h139q2 0 5.5 -0.5t9.5 -7.5t8 -19l180 -649l178 649q3 12 9 19t11 7l5 1h137q2 0 5 -0.5t6.5 -7.5t0.5 -19l-266 -987v-434q0 -12 -7.5 -19.5t-19.5 -7.5h-120q-11 0 -19 7.5t-8 19.5v434l-264 987q-3 13 -1 19zM143 1649q0 41 30.5 69.5t70.5 28.5 t68 -28.5t28 -69.5q0 -40 -28.5 -69.5t-67.5 -29.5q-40 0 -70.5 29.5t-30.5 69.5zM516 1649q0 41 29.5 69.5t70.5 28.5q40 0 68.5 -28.5t28.5 -69.5q0 -40 -28.5 -69.5t-68.5 -29.5q-41 0 -70.5 29.5t-29.5 69.5z" />
<glyph unicode="&#x2c6;" horiz-adv-x="503" d="M108 1562q-6 6 1 23l69 156q4 12 11.5 18.5t12.5 6.5l5 1h90q19 1 31 -26l69 -156q4 -13 2.5 -19t-5.5 -6l-5 -1h-74l-63 92l-66 -92h-71z" />
<glyph unicode="&#x2dc;" horiz-adv-x="612" d="M108 1562q-6 6 1 23l88 156q4 12 11 18.5t12 6.5l5 1h45q20 0 35 -26l41 -60l80 86h72l8 -3q5 -6 -2 -23l-88 -156q-4 -12 -11.5 -18.5t-12.5 -6.5l-5 -1h-55l-66 92l-80 -92h-71z" />
<glyph unicode="&#x2000;" horiz-adv-x="883" />
<glyph unicode="&#x2001;" horiz-adv-x="1767" />
<glyph unicode="&#x2002;" horiz-adv-x="883" />
<glyph unicode="&#x2003;" horiz-adv-x="1767" />
<glyph unicode="&#x2004;" horiz-adv-x="589" />
<glyph unicode="&#x2005;" horiz-adv-x="441" />
<glyph unicode="&#x2006;" horiz-adv-x="294" />
<glyph unicode="&#x2007;" horiz-adv-x="294" />
<glyph unicode="&#x2008;" horiz-adv-x="220" />
<glyph unicode="&#x2009;" horiz-adv-x="353" />
<glyph unicode="&#x200a;" horiz-adv-x="98" />
<glyph unicode="&#x2010;" horiz-adv-x="847" d="M113 662v112q0 11 7 19t19 8h572q10 0 17 -8t7 -19v-112q0 -11 -7 -19t-17 -8h-572q-12 0 -19 8t-7 19z" />
<glyph unicode="&#x2011;" horiz-adv-x="847" d="M113 662v112q0 11 7 19t19 8h572q10 0 17 -8t7 -19v-112q0 -11 -7 -19t-17 -8h-572q-12 0 -19 8t-7 19z" />
<glyph unicode="&#x2012;" horiz-adv-x="847" d="M113 662v112q0 11 7 19t19 8h572q10 0 17 -8t7 -19v-112q0 -11 -7 -19t-17 -8h-572q-12 0 -19 8t-7 19z" />
<glyph unicode="&#x2013;" horiz-adv-x="940" d="M113 662v112q0 11 7 19t19 8h664q10 0 17 -8t7 -19v-112q0 -11 -7 -19t-17 -8h-664q-12 0 -19 8t-7 19z" />
<glyph unicode="&#x2014;" horiz-adv-x="1032" d="M113 662v112q0 11 7 19t19 8h756q10 0 17.5 -8t7.5 -19v-112q0 -11 -7.5 -19t-17.5 -8h-756q-12 0 -19 8t-7 19z" />
<glyph unicode="&#x2018;" horiz-adv-x="288" d="M61 1198v188q0 46 33.5 80.5t79.5 34.5h29q10 0 17 -7.5t7 -18.5v-277q0 -11 -7 -19t-17 -8h-115q-10 0 -18.5 8.5t-8.5 18.5z" />
<glyph unicode="&#x2019;" horiz-adv-x="288" d="M61 1198v277q0 10 8 18t19 8h115q10 0 17 -7.5t7 -18.5v-189q0 -46 -32.5 -80.5t-77.5 -34.5h-29q-10 0 -18.5 8.5t-8.5 18.5z" />
<glyph unicode="&#x201a;" horiz-adv-x="288" d="M61 -88v276q0 10 8 17.5t19 7.5h115q10 0 17 -7t7 -18v-188q0 -47 -32 -81t-78 -34h-29q-10 0 -18.5 8.5t-8.5 18.5z" />
<glyph unicode="&#x201c;" horiz-adv-x="491" d="M61 1198v188q0 46 33.5 80.5t79.5 34.5h29q10 0 17 -7.5t7 -18.5v-277q0 -11 -7 -19t-17 -8h-115q-10 0 -18.5 8.5t-8.5 18.5zM264 1198v188q0 46 33.5 80.5t79.5 34.5h29q10 0 17 -7.5t7 -18.5v-277q0 -11 -7 -19t-17 -8h-115q-11 0 -19 8.5t-8 18.5z" />
<glyph unicode="&#x201d;" horiz-adv-x="491" d="M61 1198v277q0 10 8 18t19 8h115q10 0 17 -7.5t7 -18.5v-189q0 -46 -32.5 -80.5t-77.5 -34.5h-29q-10 0 -18.5 8.5t-8.5 18.5zM264 1198v277q0 10 8 18t19 8h115q10 0 17 -7.5t7 -18.5v-189q0 -46 -33 -80.5t-78 -34.5h-28q-11 0 -19 8.5t-8 18.5z" />
<glyph unicode="&#x201e;" horiz-adv-x="491" d="M61 -88v276q0 10 8 17.5t19 7.5h115q10 0 17 -7t7 -18v-188q0 -47 -32 -81t-78 -34h-29q-10 0 -18.5 8.5t-8.5 18.5zM264 -88v276q0 10 8 17.5t19 7.5h115q10 0 17 -7t7 -18v-188q0 -47 -32.5 -81t-78.5 -34h-28q-11 0 -19 8.5t-8 18.5z" />
<glyph unicode="&#x2022;" horiz-adv-x="382" d="M92 680v106q0 23 15.5 38.5t37.5 15.5h93q22 0 37.5 -15.5t15.5 -38.5v-106q0 -22 -15.5 -37.5t-37.5 -15.5h-93q-22 0 -37.5 15.5t-15.5 37.5z" />
<glyph unicode="&#x2026;" horiz-adv-x="907" d="M61 27v131q0 12 8 19t19 7h127q11 0 19 -7t8 -19v-131q0 -12 -8 -19.5t-19 -7.5h-127q-11 0 -19 7.5t-8 19.5zM365 27v131q0 26 26 26h127q11 0 18 -7t7 -19v-131q0 -12 -7 -19.5t-18 -7.5h-127q-26 0 -26 27zM668 27v131q0 26 24 26h127q27 0 27 -26v-131 q0 -12 -7.5 -19.5t-19.5 -7.5h-127q-11 0 -17.5 7.5t-6.5 19.5z" />
<glyph unicode="&#x202f;" horiz-adv-x="353" />
<glyph unicode="&#x2039;" horiz-adv-x="485" d="M80 694q-16 26 0 51l145 256q6 11 14.5 17.5t13.5 7.5h5h145q2 0 4.5 -1t5.5 -6.5t-5 -17.5l-156 -280l156 -281q6 -13 5 -19t-5 -7h-5h-145q-19 -1 -33 26z" />
<glyph unicode="&#x203a;" horiz-adv-x="487" d="M73 1018.5q1 5.5 5 6.5l4 1h145q19 0 33 -25l146 -256q19 -25 0 -51l-146 -254q-6 -12 -14.5 -18.5t-13.5 -7.5h-5h-145l-7 3q-6 6 3 23l158 281l-158 280q-6 12 -5 17.5z" />
<glyph unicode="&#x205f;" horiz-adv-x="441" />
<glyph unicode="&#x20ac;" horiz-adv-x="894" d="M41 551v113q0 11 7.5 18.5t19.5 7.5h65v92h-65q-12 0 -19.5 8t-7.5 19v113q0 11 7.5 18.5t19.5 7.5h65v320q0 90 63.5 152.5t151.5 62.5h219q90 0 153.5 -62.5t63.5 -152.5v-54q0 -10 -8 -18t-18 -8h-123q-11 0 -19 8t-8 18v52q0 23 -15.5 38t-37.5 15h-193 q-23 0 -39 -15t-16 -38v-318h332q10 0 17.5 -7.5t7.5 -18.5v-113q0 -11 -7.5 -19t-17.5 -8h-332v-92h332q10 0 17.5 -7.5t7.5 -18.5v-113q0 -11 -7.5 -19t-17.5 -8h-332v-323q0 -22 16 -38t39 -16h203q22 0 37.5 16t15.5 38v67q0 12 7 19.5t18 7.5h125q11 0 18 -7.5t7 -19.5 v-61q0 -90 -63.5 -153.5t-151.5 -63.5h-230q-88 0 -151.5 63.5t-63.5 153.5v317h-65q-12 0 -19.5 8t-7.5 19z" />
<glyph unicode="&#x2122;" horiz-adv-x="1216" d="M133 1393v55q0 12 7.5 19.5t19.5 7.5h311q11 0 18 -7.5t7 -19.5v-55q0 -11 -7 -18t-18 -7h-100v-655q0 -11 -7.5 -18t-19.5 -7h-61q-11 0 -19 7.5t-8 17.5v655h-96q-12 0 -19.5 7t-7.5 18zM586 713v735q0 12 7.5 19.5t18.5 7.5h64q2 0 5 -0.5t10 -7.5t11 -19l134 -363 l131 363q4 12 10.5 19t10.5 7l5 1h66q11 0 17.5 -7.5t6.5 -19.5v-735q0 -11 -7 -18t-17 -7h-64q-10 0 -17 7t-7 18v422l-135 -377l-138 377v-422q0 -11 -7 -18t-17 -7h-62q-11 0 -18.5 7.5t-7.5 17.5z" />
<glyph unicode="&#x25fc;" horiz-adv-x="1474" d="M0 0v1475h1475v-1475h-1475z" />
<glyph unicode="&#xfb01;" horiz-adv-x="1107" d="M133 27v1421q0 12 7.5 19.5t19.5 7.5h790q11 0 18 -7.5t7 -19.5v-113q0 -12 -7 -19t-18 -7h-643v-451h338q11 0 19 -7t8 -17v-113q0 -11 -8 -19t-19 -8h-338v-667q0 -12 -6.5 -19.5t-17.5 -7.5h-123q-12 0 -19.5 7.5t-7.5 19.5zM801 27v1091q0 11 7 19t17 8h125 q10 0 17.5 -8t7.5 -19v-1091q0 -12 -7 -19.5t-18 -7.5h-125q-11 0 -17.5 7.5t-6.5 19.5z" />
<glyph unicode="&#xfb02;" horiz-adv-x="1284" d="M133 27v1421q0 12 7.5 19.5t19.5 7.5h735q11 0 18 -7.5t7 -19.5v-113q0 -12 -7 -19t-18 -7h-588v-451h246q11 0 19 -7t8 -17v-113q0 -11 -8 -19t-19 -8h-246v-667q0 -12 -6.5 -19.5t-17.5 -7.5h-123q-12 0 -19.5 7.5t-7.5 19.5zM709 27v1091q0 11 7 19t17 8h125 q10 0 17.5 -8t7.5 -19v-954h293q26 0 26 -27v-110q0 -27 -26 -27h-443q-11 0 -17.5 7.5t-6.5 19.5z" />
<glyph horiz-adv-x="1345" d="M123 207v1061q0 90 63.5 152.5t151.5 62.5h229q88 0 151.5 -62.5t63.5 -152.5v-99q0 -26 -24 -26h-125q-11 0 -18 7t-7 19v97q0 23 -15.5 38t-37.5 15h-203q-23 0 -39 -15t-16 -38v-1065q0 -22 16 -38t39 -16h203q22 0 37.5 16t15.5 38v196q0 12 7 19.5t18 7.5h125 q11 0 17.5 -7.5t6.5 -19.5v-190q0 -90 -63.5 -153.5t-151.5 -63.5h-229q-88 0 -151.5 63.5t-63.5 153.5zM608 598v371q0 12 7 19t18 7h125q24 0 24 -26v-111h254v590q0 12 8 19.5t19 7.5h123q11 0 18.5 -7.5t7.5 -19.5v-1421q0 -12 -7.5 -19.5t-18.5 -7.5h-123 q-11 0 -19 7.5t-8 19.5v667h-254v-96q0 -12 -6.5 -19.5t-17.5 -7.5h-125q-11 0 -18 7.5t-7 19.5z" />
<glyph horiz-adv-x="1136" d="M133 27v1421q0 12 7.5 19.5t19.5 7.5h123q11 0 17.5 -7.5t6.5 -19.5v-1284h690q11 0 19 -7.5t8 -19.5v-110q0 -12 -8 -19.5t-19 -7.5h-837q-12 0 -19.5 7.5t-7.5 19.5zM473 356v1092q0 12 8 19.5t19 7.5h123q26 0 26 -27v-954h348q11 0 19 -7.5t8 -17.5v-113 q0 -12 -8 -19t-19 -7h-497q-11 0 -19 7t-8 19z" />
<glyph horiz-adv-x="1280" d="M123 207v1061q0 90 63.5 152.5t151.5 62.5h229q88 0 151.5 -62.5t63.5 -152.5v-99q0 -26 -24 -26h-125q-11 0 -18 7t-7 19v97q0 23 -15.5 38t-37.5 15h-203q-23 0 -39 -15t-16 -38v-1065q0 -22 16 -38t39 -16h203q22 0 37.5 16t15.5 38v196q0 12 7 19.5t18 7.5h125 q11 0 17.5 -7.5t6.5 -19.5v-190q0 -90 -63.5 -153.5t-151.5 -63.5h-229q-88 0 -151.5 63.5t-63.5 153.5zM608 580v407q0 12 7 19.5t18 7.5h125q11 0 17.5 -7.5t6.5 -19.5v-147l248 608q4 12 11 19t11 7l5 1h139q2 0 4.5 -1t6.5 -7t-3 -19l-248 -610l248 -811q3 -13 1 -19 t-7 -7l-4 -1h-139q-2 0 -5.5 0.5t-10 7.5t-9.5 19l-248 804v-251q0 -12 -6.5 -19.5t-17.5 -7.5h-125q-11 0 -18 7.5t-7 19.5z" />
<glyph horiz-adv-x="1955" d="M133 27v1421q0 12 7.5 19.5t19.5 7.5h114q23 0 33 -27l293 -705l293 705q4 12 11.5 19t13.5 7l6 1h108q23 0 31 -27l295 -705l293 705q4 12 11.5 19t13.5 7l5 1h117q11 0 18 -7.5t7 -19.5v-1421q0 -12 -7 -19.5t-18 -7.5h-125q-11 0 -17.5 7.5t-6.5 19.5v942l-291 -656 l-293 656v-942q0 -12 -7 -19.5t-18 -7.5h-125q-11 0 -17.5 7.5t-6.5 19.5v942l-291 -656l-293 656v-942q0 -12 -6.5 -19.5t-17.5 -7.5h-123q-12 0 -19.5 7.5t-7.5 19.5z" />
<glyph horiz-adv-x="1359" d="M113 27v137l450 1147h-424q-26 0 -26 24v113q0 27 26 27h572q11 0 17.5 -7.5t6.5 -19.5v-137l-448 -1147h202q11 0 18 -7.5t7 -19.5v-110q0 -12 -7 -19.5t-18 -7.5h-350q-26 0 -26 27zM625 27v137l452 1147h-186q-11 0 -19 7t-8 17v113q0 12 8 19.5t19 7.5h332 q11 0 17.5 -7.5t6.5 -19.5v-137l-446 -1147h422q11 0 17.5 -7.5t6.5 -19.5v-110q0 -12 -6.5 -19.5t-17.5 -7.5h-572q-11 0 -18.5 7.5t-7.5 19.5z" />
<glyph horiz-adv-x="1267" d="M133 27v1421q0 12 7.5 19.5t19.5 7.5h123q11 0 17.5 -7.5t6.5 -19.5v-1284h801q11 0 19 -7.5t8 -19.5v-110q0 -12 -8 -19.5t-19 -7.5h-948q-12 0 -19.5 7.5t-7.5 19.5zM473 522v746q0 90 63.5 152.5t153.5 62.5h228q90 0 153.5 -62.5t63.5 -152.5v-746 q0 -90 -63.5 -153.5t-153.5 -63.5h-228q-90 0 -153.5 63.5t-63.5 153.5zM649 516q0 -22 15.5 -37.5t37.5 -15.5h203q22 0 37.5 15.5t15.5 37.5v750q0 23 -15.5 38t-37.5 15h-203q-22 0 -37.5 -15t-15.5 -38v-750z" />
<glyph horiz-adv-x="1189" d="M92 1448q0 12 7.5 19.5t19.5 7.5h117q11 0 18.5 -7.5t7.5 -19.5l64 -1145l270 445l278 -445l56 1145q0 12 6.5 19.5t17.5 7.5h119q11 0 18 -7.5t7 -19.5l-70 -1421q0 -12 -6.5 -19.5t-17.5 -7.5h-121q-19 2 -31 27l-256 395l-256 -395q-6 -11 -14.5 -18t-13.5 -8l-5 -1 h-119q-11 0 -18.5 7.5t-7.5 19.5z" />
<glyph horiz-adv-x="909" d="M123 207v1061q0 90 63.5 152.5t151.5 62.5h229q88 0 151.5 -62.5t63.5 -152.5v-1061q0 -76 -45 -133l56 -176q5 -13 2 -19t-6 -7t-9 -1h-114q-25 0 -33 27l-33 92h-262q-88 0 -151.5 63.5t-63.5 153.5zM297 201q0 -22 16 -38t39 -16h203q22 0 37.5 16t15.5 38v1065 q0 23 -15.5 38t-37.5 15h-203q-23 0 -39 -15t-16 -38v-1065z" />
<glyph horiz-adv-x="827" d="M102 27v137l187 471h-123q-12 0 -19.5 8t-7.5 19v112q0 11 7.5 19t19.5 8h186l201 510h-424q-12 0 -19.5 6.5t-7.5 17.5v113q0 12 7.5 19.5t19.5 7.5h571q11 0 18 -7.5t7 -19.5v-137l-199 -510h138q10 0 17 -8t7 -19v-112q0 -11 -7 -19t-17 -8h-203l-185 -471h424 q11 0 18 -7.5t7 -19.5v-110q0 -12 -7 -19.5t-18 -7.5h-571q-12 0 -19.5 7.5t-7.5 19.5z" />
<glyph horiz-adv-x="591" d="M92 27v104q0 11 7.5 18t19.5 7h110q23 0 39.5 16t16.5 39v1237q0 12 6.5 19.5t17.5 7.5h123q12 0 19.5 -7.5t7.5 -19.5v-1233q0 -89 -63.5 -152t-151.5 -63h-125q-12 0 -19.5 7.5t-7.5 19.5z" />
<glyph horiz-adv-x="1378" d="M104 8q-5 6 0 19l148 598q-60 25 -97.5 79t-37.5 121v435q0 89 63.5 152t151.5 63h715q88 0 151.5 -63t63.5 -152v-435q0 -67 -38 -120.5t-98 -79.5l148 -598q3 -13 0.5 -19t-7.5 -7l-5 -1h-138q-2 0 -5.5 0.5t-10.5 7.5t-10 19l-144 583h-178v-583q0 -12 -6.5 -19.5 t-17.5 -7.5h-125q-11 0 -18 7.5t-7 19.5v583h-178l-143 -583q-2 -12 -8 -18.5t-11 -7.5l-6 -1h-139q-2 0 -5 1t-8 7zM293 819q0 -22 15 -37.5t38 -15.5h256v545h-256q-23 0 -38 -16t-15 -38v-438zM776 766h256q23 0 39 15.5t16 37.5v438q0 22 -16 38t-39 16h-256v-545z" />
<glyph horiz-adv-x="1447" d="M133 27v1421q0 12 7.5 19.5t19.5 7.5h121q2 0 5.5 -0.5t10.5 -7.5t10 -19l330 -903v903q0 12 7 19.5t18 7.5h122q2 0 6 -0.5t11 -7.5t10 -19l328 -903v903q0 12 7.5 19.5t18.5 7.5h123q11 0 19 -7.5t8 -19.5v-1421q0 -12 -8 -19.5t-19 -7.5h-112q-2 0 -6 0.5t-11 7.5 t-10 19l-338 899v-899q0 -12 -7 -19.5t-18 -7.5h-112q-21 0 -29 27l-338 899v-899q0 -12 -6.5 -19.5t-17.5 -7.5h-123q-12 0 -19.5 7.5t-7.5 19.5z" />
<glyph horiz-adv-x="1200" d="M133 27v1421q0 12 7.5 19.5t19.5 7.5h123q11 0 17.5 -7.5t6.5 -19.5v-1284h764q11 0 19 -7.5t8 -19.5v-110q0 -12 -8 -19.5t-19 -7.5h-911q-12 0 -19.5 7.5t-7.5 19.5zM473 332v1116q0 12 8 19.5t19 7.5h561q11 0 17.5 -7.5t6.5 -19.5v-113q0 -26 -24 -26h-412v-328h338 q10 0 17.5 -8t7.5 -19v-112q0 -10 -7 -17.5t-18 -7.5h-338v-348h422q11 0 19 -7.5t8 -17.5v-112q0 -10 -8 -18.5t-19 -8.5h-571q-10 0 -18.5 8.5t-8.5 18.5z" />
<glyph horiz-adv-x="1478" d="M92 1335v113q0 12 8 19.5t19 7.5h1200q11 0 19 -7.5t8 -19.5v-113q0 -10 -8 -17t-19 -7h-801v-1284q0 -12 -6.5 -19.5t-17.5 -7.5h-125q-11 0 -18 7.5t-7 19.5v1284h-225q-11 0 -19 7t-8 17zM666 27v1091q0 11 8 19t18 8h123q11 0 19 -8.5t8 -18.5v-426h327v426 q0 11 7.5 19t19.5 8h123q11 0 19 -8.5t8 -18.5v-1091q0 -12 -8 -19.5t-19 -7.5h-123q-12 0 -19.5 7.5t-7.5 19.5v501h-327v-501q0 -12 -8 -19.5t-19 -7.5h-123q-11 0 -18.5 7.5t-7.5 19.5z" />
<glyph horiz-adv-x="2199" d="M92 1335v113q0 12 8 19.5t19 7.5h1941q11 0 18 -7.5t7 -19.5v-113q0 -10 -7 -17t-18 -7h-1542v-1284q0 -12 -6.5 -19.5t-17.5 -7.5h-125q-11 0 -18 7.5t-7 19.5v1284h-225q-11 0 -19 7t-8 17zM666 27v1091q0 11 8 19t18 8h123q11 0 19 -8.5t8 -18.5v-426h327v426 q0 11 7.5 19t19.5 8h123q11 0 19 -8.5t8 -18.5v-1091q0 -12 -8 -19.5t-19 -7.5h-123q-12 0 -19.5 7.5t-7.5 19.5v501h-327v-501q0 -12 -8 -19.5t-19 -7.5h-123q-11 0 -18.5 7.5t-7.5 19.5zM1475 27v1091q0 11 7 19t17 8h561q10 0 17.5 -8t7.5 -19v-114q0 -10 -7.5 -17.5 t-17.5 -7.5h-411v-287h338q11 0 17.5 -7t6.5 -17v-113q0 -11 -7 -19t-17 -8h-338v-364h422q11 0 18.5 -7.5t7.5 -19.5v-110q0 -12 -7.5 -19.5t-18.5 -7.5h-572q-11 0 -17.5 7.5t-6.5 19.5z" />
<glyph horiz-adv-x="1447" d="M133 27v1421q0 12 7.5 19.5t19.5 7.5h123q11 0 17.5 -7.5t6.5 -19.5v-590h330v590q0 12 7 19.5t18 7.5h124q11 0 18 -7.5t7 -19.5v-590h328v590q0 12 7.5 19.5t18.5 7.5h123q11 0 19 -7.5t8 -19.5v-1421q0 -12 -8 -19.5t-19 -7.5h-123q-11 0 -18.5 7.5t-7.5 19.5v667 h-328v-667q0 -12 -7 -19.5t-18 -7.5h-124q-11 0 -18 7.5t-7 19.5v667h-330v-667q0 -12 -6.5 -19.5t-17.5 -7.5h-123q-12 0 -19.5 7.5t-7.5 19.5z" />
<glyph horiz-adv-x="1370" d="M113 215v410q0 81 57 145q-20 48 -20 92v398q0 89 64 152t153 63h639q89 0 152 -63t63 -152v-398q0 -48 -21 -92q57 -60 57 -145v-410q0 -89 -63 -152t-152 -63h-712q-89 0 -153 63t-64 152zM289 211q0 -23 15.5 -39t37.5 -16h256v514h-262q-20 -3 -33.5 -18.5 t-13.5 -35.5v-405zM326 872q0 -22 13.5 -36.5t33.5 -16.5h225v492h-219q-22 0 -37.5 -16t-15.5 -38v-385zM774 156h256q22 0 37.5 16t15.5 39v405q0 20 -13.5 35.5t-35.5 18.5h-260v-514zM774 819h223q22 2 36 16.5t14 36.5v385q0 22 -16 38t-38 16h-219v-492z" />
<glyph horiz-adv-x="1390" d="M123 207v1061q0 90 63.5 152.5t151.5 62.5h229q70 0 127 -41q61 41 129 41h230q88 0 151.5 -62.5t63.5 -152.5v-1061q0 -90 -63.5 -153.5t-151.5 -63.5h-230q-70 0 -129 43q-56 -43 -127 -43h-229q-88 0 -151.5 63.5t-63.5 153.5zM297 201q0 -22 16 -38t39 -16h203 q22 0 37.5 16t15.5 38v1071q0 20 -16 33.5t-37 13.5h-203q-23 0 -39 -15t-16 -38v-1065zM782 201q0 -22 16 -38t38 -16h202q23 0 38.5 16t15.5 38v1065q0 23 -15.5 38t-38.5 15h-202q-21 0 -37.5 -13.5t-16.5 -33.5v-1071z" />
<glyph horiz-adv-x="710" d="M102 1575v119q0 11 7.5 18.5t19.5 7.5h113q12 0 19 -7.5t7 -18.5v-119q0 -11 -7 -18t-19 -7h-113q-12 0 -19.5 7t-7.5 18zM442 1575v119q0 11 7.5 18.5t17.5 7.5h115q10 0 18 -8t8 -18v-119q0 -10 -7.5 -17.5t-18.5 -7.5h-115q-11 0 -18 7t-7 18z" />
<glyph horiz-adv-x="903" d="M94 27l246 1421q1 12 7.5 19t12.5 7l7 1h170q3 0 7 -0.5t11 -7.5t8 -19l246 -1421q2 -12 -1.5 -18.5t-7.5 -7.5l-5 -1h-140q-2 0 -5 0.5t-8.5 7.5t-6.5 19l-35 215h-297l-35 -215q-1 -12 -6 -19t-10 -8h-4h-139q-2 0 -5 0.5t-7.5 7.5t-2.5 19zM199 1575v119q0 10 7.5 18 t18.5 8h115q10 0 17.5 -7.5t7.5 -18.5v-119q0 -11 -7.5 -18t-17.5 -7h-115q-11 0 -18.5 7.5t-7.5 17.5zM326 406h252l-127 802zM539 1575v119q0 11 7 18.5t17 7.5h115q11 0 19 -8t8 -18v-119q0 -10 -8 -17.5t-19 -7.5h-115q-10 0 -17 7t-7 18z" />
<glyph horiz-adv-x="858" d="M133 27v1421q0 12 7.5 19.5t19.5 7.5h559q11 0 18.5 -7.5t7.5 -19.5v-113q0 -12 -7.5 -19t-18.5 -7h-412v-451h338q11 0 19 -7t8 -17v-113q0 -11 -8 -19t-19 -8h-338v-530h424q11 0 18 -7.5t7 -19.5v-110q0 -12 -7 -19.5t-18 -7.5h-571q-12 0 -19.5 7.5t-7.5 19.5z M178 1575v119q0 11 7.5 18.5t17.5 7.5h114q11 0 19 -8t8 -18v-119q0 -10 -8 -17.5t-19 -7.5h-114q-11 0 -18 7t-7 18zM516 1575v119q0 10 8 18t19 8h114q10 0 17.5 -7.5t7.5 -18.5v-119q0 -11 -7 -18t-18 -7h-114q-11 0 -19 7.5t-8 17.5z" />
<glyph d="M123 207v1061q0 90 63.5 152.5t151.5 62.5h235q90 0 154 -62.5t64 -152.5v-1061q0 -90 -64 -153.5t-154 -63.5h-235q-88 0 -151.5 63.5t-63.5 153.5zM203 1575v119q0 11 7 18.5t17 7.5h115q11 0 19 -8t8 -18v-119q0 -10 -8 -17.5t-19 -7.5h-115q-10 0 -17 7t-7 18z M297 201q0 -22 16 -38t39 -16h209q23 0 38 16t15 38v1065q0 23 -15 38t-38 15h-209q-23 0 -39 -15t-16 -38v-1065zM541 1575v119q0 10 7.5 18t18.5 8h115q10 0 17.5 -7.5t7.5 -18.5v-119q0 -11 -7.5 -18t-17.5 -7h-115q-11 0 -18.5 7.5t-7.5 17.5z" />
<glyph horiz-adv-x="929" d="M133 207v1241q0 12 7.5 19.5t19.5 7.5h123q11 0 17.5 -7.5t6.5 -19.5v-1247q0 -22 16 -38t39 -16h205q23 0 38.5 16t15.5 38v1247q0 12 7.5 19.5t18.5 7.5h123q12 0 19.5 -7.5t7.5 -19.5v-1241q0 -90 -63.5 -153.5t-151.5 -63.5h-234q-88 0 -151.5 63.5t-63.5 153.5z M211 1575v119q0 11 7.5 18.5t17.5 7.5h114q11 0 19 -8t8 -18v-119q0 -10 -8 -17.5t-19 -7.5h-114q-10 0 -17.5 7t-7.5 18zM549 1575v119q0 10 7.5 18t18.5 8h115q10 0 17.5 -7.5t7.5 -18.5v-119q0 -11 -7.5 -18t-17.5 -7h-115q-11 0 -18.5 7.5t-7.5 17.5z" />
<glyph horiz-adv-x="440" d="M-33 1575v119q0 11 7.5 18.5t19.5 7.5h112q12 0 19.5 -7.5t7.5 -18.5v-119q0 -11 -7.5 -18t-19.5 -7h-112q-12 0 -19.5 7t-7.5 18zM133 27v1421q0 12 7.5 19.5t19.5 7.5h123q11 0 17.5 -7.5t6.5 -19.5v-1421q0 -12 -6.5 -19.5t-17.5 -7.5h-123q-12 0 -19.5 7.5t-7.5 19.5 zM307 1575v119q0 11 7.5 18.5t17.5 7.5h114q11 0 19 -8t8 -18v-119q0 -10 -8 -17.5t-19 -7.5h-114q-10 0 -17.5 7t-7.5 18z" />
<glyph horiz-adv-x="854" d="M75 1467q2 6 7 7l4 1h139q2 0 5.5 -0.5t9.5 -7.5t8 -19l180 -649l178 649q3 12 9 19t11 7l5 1h137q2 0 5 -0.5t6.5 -7.5t0.5 -19l-266 -987v-434q0 -12 -7.5 -19.5t-19.5 -7.5h-120q-11 0 -19 7.5t-8 19.5v434l-264 987q-3 13 -1 19zM174 1575v119q0 10 8 18t19 8h114 q10 0 17.5 -7.5t7.5 -18.5v-119q0 -11 -7 -18t-18 -7h-114q-11 0 -19 7.5t-8 17.5zM514 1575v119q0 11 7.5 18.5t19.5 7.5h112q12 0 19.5 -7.5t7.5 -18.5v-119q0 -11 -7.5 -18t-19.5 -7h-112q-12 0 -19.5 7t-7.5 18z" />
</font>
</defs>
</svg>
