<?xml version="1.0" standalone="no"?>
<!DOCTYPE svg PUBLIC "-//W3C//DTD SVG 1.1//EN" "http://www.w3.org/Graphics/SVG/1.1/DTD/svg11.dtd" >
<svg xmlns="http://www.w3.org/2000/svg" xmlns:xlink="http://www.w3.org/1999/xlink" version="1.1">
<metadata></metadata>
<defs>
<font id="clarkeoblique" horiz-adv-x="888" >
<font-face units-per-em="2048" ascent="1638" descent="-410" />
<missing-glyph horiz-adv-x="645" />
<glyph horiz-adv-x="0" />
<glyph horiz-adv-x="682" />
<glyph horiz-adv-x="0" />
<glyph horiz-adv-x="0" />
<glyph unicode="&#xd;" horiz-adv-x="645" />
<glyph unicode=" "  horiz-adv-x="645" />
<glyph unicode="&#x09;" horiz-adv-x="645" />
<glyph unicode="&#xa0;" horiz-adv-x="645" />
<glyph unicode="!" horiz-adv-x="428" d="M94 27l23 129q2 11 10 17.5t20 6.5h123q11 0 16.5 -7t4.5 -17l-23 -129q-7 -27 -28 -27h-123q-12 0 -19 7.5t-4 19.5zM141 295l203 1153q7 27 31 27h123q11 0 17 -7.5t3 -19.5l-203 -1153q-2 -11 -10 -19t-18 -8h-123q-12 0 -18.5 8t-4.5 19z" />
<glyph unicode="&#x22;" horiz-adv-x="479" d="M229 1276l35 199q3 11 13 18.5t20 7.5h115q10 0 15.5 -7.5t2.5 -18.5l-35 -199q-8 -53 -37.5 -79t-62.5 -26t-53.5 26t-12.5 79zM451 1276l34 199q3 11 13 18.5t20 7.5h115q10 0 15.5 -7.5t2.5 -18.5l-35 -199q-8 -53 -37.5 -79t-62.5 -26t-53 26t-12 79z" />
<glyph unicode="#" horiz-adv-x="1331" d="M156 459l20 112q1 10 10.5 18.5t20.5 8.5h182l117 240h-168q-10 0 -16.5 7.5t-4.5 18.5l21 113q2 11 10.5 19t18.5 8h213l122 286h166l-125 -286h261l122 286h166l-125 -286h152q10 0 16 -8t4 -19l-20 -113q-2 -11 -10.5 -18.5t-18.5 -7.5h-198l-117 -240h170q10 0 17 -8 t5 -19l-20 -112q-1 -10 -10.5 -18.5t-20.5 -8.5h-213l-108 -248h-160l106 248h-262l-108 -248h-160l106 248h-139q-10 0 -17 8t-5 19zM551 598h262l117 240h-262z" />
<glyph unicode="$" horiz-adv-x="858" d="M96 207l41 227q1 12 10.5 19.5t20.5 7.5h123q25 0 22 -27l-41 -233q-4 -22 8.5 -38t34.5 -16h203q22 0 40.5 16t23.5 38l71 411q4 22 -8.5 38t-34.5 16h-215q-89 0 -142 63t-38 152l70 387q15 90 89.5 152.5t164.5 62.5h41l14 76q1 12 9.5 19t19.5 7h86q25 0 22 -26 l-14 -76h41q88 0 140.5 -62.5t37.5 -152.5l-25 -135q-1 -12 -9 -19.5t-19 -7.5h-125q-11 0 -16.5 7.5t-4.5 19.5l23 133q4 23 -8.5 38t-34.5 15h-195q-22 0 -40.5 -15t-22.5 -38l-62 -355q-4 -22 8.5 -37.5t34.5 -15.5h215q90 0 143 -62.5t38 -152.5l-78 -436 q-15 -90 -89.5 -153.5t-164.5 -63.5h-49l-13 -70q-7 -24 -30 -24h-86q-11 0 -17.5 7t-3.5 17l12 70h-41q-89 0 -142 63t-38 154z" />
<glyph unicode="%" horiz-adv-x="1718" d="M240 897l65 371q15 90 89 152.5t163 62.5h174q88 0 140.5 -62.5t37.5 -152.5l-65 -371q-15 -89 -90.5 -152t-163.5 -63h-174q-88 0 -139.5 63t-36.5 152zM412 893q-3 -23 10.5 -39t36.5 -16h147q22 0 40.5 16t21.5 39l65 373q4 23 -8.5 38t-34.5 15h-147q-24 0 -43 -15 t-23 -38zM537 0q-12 0 0 27l639 1421q5 12 14 19t16 7l6 1h148q12 0 0 -27l-645 -1421q-5 -12 -14 -18.5t-15 -7.5l-6 -1h-143zM983 207l66 371q15 89 90.5 152t163.5 63h174q88 0 139.5 -63t36.5 -152l-66 -371q-15 -90 -89.5 -153.5t-162.5 -63.5h-174q-88 0 -140.5 63.5 t-37.5 153.5zM1157 201q-5 -22 8.5 -38t36.5 -16h148q22 0 40 16t23 38l66 374q4 22 -8.5 38t-34.5 16h-148q-23 0 -41.5 -16t-23.5 -38z" />
<glyph unicode="&#x26;" horiz-adv-x="940" d="M76 215l37 213q5 28 26 65.5t61.5 89t72.5 89t89 102.5q-97 302 -83 377l20 117q15 90 89.5 152.5t164.5 62.5h123q89 0 141 -62t37 -153l-23 -121q-4 -27 -25.5 -64.5t-73.5 -102t-77 -93.5t-102 -117l78 -240l86 117q17 25 31 25h124q11 0 15 -8t-2 -17l-197 -276 l129 -344q2 -11 -4 -19t-18 -8h-129q-7 0 -12 4.5t-7 8.5t-6 14q-31 70 -70 174l-143 -201h-172q-89 0 -142 63t-38 152zM252 211q-4 -23 8.5 -39t34.5 -16h65l150 204q-35 92 -92 252q-124 -156 -133 -206zM457 1169q-8 -46 47 -237q146 171 158 233q1 3 2 10t5 33.5 t11 65.5q4 22 -8.5 37.5t-34.5 15.5h-98q-22 0 -41 -15.5t-23 -37.5z" />
<glyph unicode="'" horiz-adv-x="258" d="M229 1276l35 199q3 11 13 18.5t20 7.5h115q10 0 15.5 -7.5t2.5 -18.5l-35 -199q-8 -53 -37.5 -79t-62.5 -26t-53.5 26t-12.5 79z" />
<glyph unicode="(" horiz-adv-x="583" d="M86 4l258 1466q17 90 91.5 153t162.5 63h137q10 0 16.5 -7t4.5 -18l-21 -113q-2 -11 -10 -18.5t-18 -7.5h-123q-23 0 -42.5 -15.5t-23.5 -38.5l-260 -1470q-3 -22 10.5 -37.5t36.5 -15.5h123q11 0 16 -7.5t2 -19.5l-18 -104q-2 -11 -10.5 -19t-18.5 -8h-137 q-88 0 -140.5 63.5t-35.5 153.5z" />
<glyph unicode=")" horiz-adv-x="595" d="M12 -186l19 104q7 27 32 27h123q23 0 41 15.5t21 37.5l260 1470q5 23 -7.5 38.5t-35.5 15.5h-123q-11 0 -17.5 8t-5.5 18l21 113q1 10 10.5 17.5t20.5 7.5h137q89 0 141 -63t35 -153l-258 -1466q-17 -90 -91.5 -153.5t-162.5 -63.5h-137q-10 0 -17.5 8t-5.5 19z" />
<glyph unicode="*" horiz-adv-x="643" d="M299 1280q-3 10 2 20l14 35q17 33 37 19l92 -43q22 -18 15 -31q-11 -21 -35 -18l-109 8q-13 0 -16 10zM348 1133l84 84q24 21 37 8q14 -8 4 -35l-55 -103q-14 -22 -39 -10l-29 19q-23 19 -2 37zM489 1339v109q0 13 9 20t22 7h37q12 0 19.5 -7.5t1.5 -19.5l-37 -109 q-12 -24 -29 -24q-23 0 -23 24zM504 1190q-3 27 16 35q18 10 33 -8l57 -84q14 -20 -16 -37l-37 -19q-9 -5 -19.5 -3t-13.5 13zM551 1280q-2 17 22 31l109 45q14 6 20.5 0.5t8.5 -19.5l4 -34q0 -31 -25 -31l-112 -10q-27 0 -27 18z" />
<glyph unicode="+" horiz-adv-x="882" d="M207 662l20 112q2 11 10.5 19t20.5 8h203l37 203q1 10 9 17t19 7h113q11 0 17.5 -7t5.5 -17l-37 -203h204q10 0 16.5 -8t4.5 -19l-21 -112q-2 -11 -10 -19t-18 -8h-205l-35 -203q-7 -26 -33 -26h-112q-11 0 -16.5 7t-2.5 19l35 203h-203q-12 0 -18 8t-4 19z" />
<glyph unicode="," horiz-adv-x="303" d="M33 63l16 95q1 12 10.5 19t20.5 7h127q11 0 17 -7t5 -19l-34 -201q-9 -50 -36 -72t-55 -22q-18 0 -18 20l20 107h-14q-71 0 -59 73z" />
<glyph unicode="-" horiz-adv-x="872" d="M197 662l20 112q2 11 10.5 19t20.5 8h571q10 0 16.5 -8t4.5 -19l-21 -112q-2 -11 -10 -19t-18 -8h-572q-12 0 -18 8t-4 19z" />
<glyph unicode="." horiz-adv-x="309" d="M33 27l22 131q1 12 10.5 19t20.5 7h127q11 0 17.5 -7t5.5 -19l-23 -131q-7 -27 -31 -27h-127q-11 0 -18 7.5t-4 19.5z" />
<glyph unicode="/" horiz-adv-x="743" d="M41 8q-2 6 4 19l641 1421q5 12 14 19t15 7l6 1h147q2 0 3.5 -1t3.5 -7t-5 -19l-645 -1421q-5 -12 -14.5 -18.5t-16.5 -7.5l-6 -1h-141q-1 0 -2.5 1t-3.5 7z" />
<glyph unicode="0" horiz-adv-x="897" d="M117 207l188 1061q15 90 89 152.5t163 62.5h229q88 0 141 -62.5t38 -152.5l-189 -1061q-15 -90 -89.5 -153.5t-162.5 -63.5h-229q-88 0 -140.5 63.5t-37.5 153.5zM291 201q-5 -22 8.5 -38t36.5 -16h203q22 0 40 16t23 38l186 1065q4 23 -8.5 38t-34.5 15h-202 q-24 0 -43 -15t-23 -38z" />
<glyph unicode="1" horiz-adv-x="614" d="M268 27l221 1251h-147q-12 0 -19 7.5t-4 17.5l7 43l159 129h187q12 0 18.5 -7.5t3.5 -19.5l-250 -1421q-7 -27 -30 -27h-123q-11 0 -18.5 8t-4.5 19z" />
<glyph unicode="2" horiz-adv-x="858" d="M63 27l25 137q26 34 69 92t154.5 211.5t198 277.5t160.5 242.5t80 155.5l20 123q4 23 -8.5 38t-34.5 15h-188q-22 0 -41 -15t-23 -38l-18 -115q-7 -27 -33 -27h-123q-11 0 -17 7.5t-3 19.5l20 117q15 90 89.5 152.5t164.5 62.5h213q89 0 141 -62t37 -153l-22 -125 q-11 -58 -169 -303t-310 -460l-152 -216h436q11 0 16.5 -7.5t2.5 -19.5l-19 -110q-7 -27 -29 -27h-614q-11 0 -18.5 8t-4.5 19z" />
<glyph unicode="3" horiz-adv-x="886" d="M106 207l23 119q2 11 10.5 18.5t18.5 7.5h125q10 0 16 -7.5t4 -18.5l-22 -125q-4 -22 8.5 -38t34.5 -16h202q23 0 41 16t23 38l74 422q4 23 -8 38t-35 15h-89q-9 1 -13.5 9t-2.5 17l21 113q1 10 10 17.5t20 7.5h82q23 0 41 15.5t21 37.5l65 373q4 23 -8 38t-35 15h-205 q-23 0 -42 -15t-23 -38l-19 -115q-7 -27 -30 -27h-123q-12 0 -18 7.5t-3 19.5l21 117q15 90 89 152.5t163 62.5h233q88 0 140.5 -62.5t37.5 -152.5l-69 -387q-9 -64 -58 -119q28 -55 17 -119l-78 -436q-15 -90 -89.5 -153.5t-162.5 -63.5h-229q-89 0 -141.5 63t-37.5 154z " />
<glyph unicode="4" horiz-adv-x="774" d="M43 285l25 139l591 1024q7 12 15 19t12 7l4 1h123q12 1 18 -7t3 -20l-181 -1024h88q26 0 23 -27l-21 -112q-4 -25 -30 -25h-88l-41 -233q-7 -27 -29 -27h-125q-11 0 -17 7.5t-3 19.5l41 233h-385q-12 0 -18.5 7t-4.5 18zM248 424h237l107 608z" />
<glyph unicode="5" horiz-adv-x="882" d="M127 207l41 227q1 12 10 19.5t21 7.5h123q23 0 20 -27l-41 -233q-5 -22 8.5 -38t36.5 -16h203q22 0 40 16t23 38l80 461q4 22 -8.5 37.5t-34.5 15.5h-401q-10 0 -16.5 7.5t-4.5 18.5l125 707q7 27 29 27h559q11 0 18.5 -8t4.5 -19l-21 -113q-1 -12 -10.5 -19t-20.5 -7 h-409l-76 -437h264q88 0 139.5 -63t36.5 -154l-80 -448q-15 -90 -89 -153.5t-162 -63.5h-230q-88 0 -140.5 63.5t-37.5 153.5z" />
<glyph unicode="6" horiz-adv-x="866" d="M106 207l189 1061q15 90 89 152.5t163 62.5h209q89 0 141 -62t37 -153l-25 -135q-1 -12 -9 -19.5t-19 -7.5h-125q-11 0 -16.5 7.5t-4.5 19.5l23 133q4 23 -8.5 38t-34.5 15h-183q-23 0 -42 -15t-23 -38l-74 -420h271q88 0 140.5 -63t37.5 -152l-76 -424 q-15 -90 -89.5 -153.5t-162.5 -63.5h-229q-88 0 -141 63.5t-38 153.5zM281 201q-5 -22 8.5 -38t36.5 -16h202q22 0 40.5 16t23.5 38l76 428q3 22 -10 37.5t-35 15.5h-258z" />
<glyph unicode="7" horiz-adv-x="768" d="M228.5 8q-4.5 6 0.5 19l494 1284h-434q-26 0 -23 24l21 113q7 27 30 27h572q11 0 17 -7.5t3 -19.5l-24 -137l-490 -1284q-4 -12 -10.5 -19t-10.5 -8h-5h-129q-2 0 -4.5 1t-7 7z" />
<glyph unicode="8" horiz-adv-x="890" d="M106 207l78 438q2 13 6.5 24.5t10 21.5t12 18.5t13.5 16t13.5 13t13 10t11 7.5t8.5 6l4 2q-3 0 -9.5 3.5t-16 11.5t-16.5 21.5t-10.5 34t1.5 48.5l70 385q15 90 89 152.5t163 62.5h233q88 0 140.5 -62.5t37.5 -152.5l-69 -385q-5 -27 -15.5 -49t-22 -34.5t-24.5 -21 t-21 -11.5t-11 -3q3 -2 8 -5.5t16 -13.5t17.5 -23t12 -33.5t-0.5 -43.5l-78 -438q-15 -90 -89.5 -153.5t-162.5 -63.5h-233q-88 0 -141 63.5t-38 153.5zM281 201q-5 -22 8.5 -38t36.5 -16h204q23 0 41 16t23 38l74 424q5 22 -7.5 37.5t-35.5 15.5h-205q-23 0 -42 -15.5 t-24 -37.5zM403 895q-4 -22 9.5 -37.5t36.5 -15.5h210q20 1 36.5 16.5t21.5 36.5l63 371q4 23 -8 38t-35 15h-205q-23 0 -42 -15t-23 -38z" />
<glyph unicode="9" d="M127 207l25 135q2 12 10 19.5t20 7.5h123q11 0 16.5 -7.5t4.5 -19.5l-25 -133q-3 -23 10.5 -38t36.5 -15h184q22 0 40.5 15t21.5 38l70 387h-271q-88 0 -140.5 62.5t-37.5 152.5l82 457q15 90 89 152.5t163 62.5h229q88 0 140.5 -62.5t37.5 -152.5l-188 -1061 q-15 -90 -89.5 -153.5t-162.5 -63.5h-211q-88 0 -140.5 63.5t-37.5 153.5zM391 813q-4 -23 9 -38t36 -15h256l90 514q4 22 -8.5 37.5t-34.5 15.5h-202q-23 0 -42 -15.5t-24 -37.5z" />
<glyph unicode=":" horiz-adv-x="376" d="M63 27l23 131q1 12 10.5 19t20.5 7h127q11 0 17 -7t5 -19l-22 -131q-7 -27 -31 -27h-127q-11 0 -18.5 8t-4.5 19zM213 877l23 133q3 11 12.5 18.5t19.5 7.5h127q11 0 17.5 -8t3.5 -18l-23 -133q-1 -10 -10.5 -17.5t-20.5 -7.5h-126q-11 0 -17.5 7.5t-5.5 17.5z" />
<glyph unicode=";" horiz-adv-x="370" d="M63 63l17 95q1 12 10.5 19t20.5 7h127q11 0 17 -7t5 -19l-35 -201q-9 -50 -36 -72t-54 -22q-18 0 -18 20l20 107h-14q-30 0 -48.5 16.5t-11.5 56.5zM207 877l22 133q3 11 13 18.5t20 7.5h127q11 0 17.5 -8t3.5 -18l-23 -133q-1 -10 -10.5 -17.5t-20.5 -7.5h-127 q-11 0 -17 7.5t-5 17.5z" />
<glyph unicode="&#x3c;" horiz-adv-x="569" d="M156 694q-7 26 10 51l323 424q8 12 17.5 18.5t14.5 7.5l5 1h136q18 0 0 -27l-328 -448l170 -451q4 -12 2.5 -17.5t-6.5 -6.5h-4h-136q-18 -1 -28 24z" />
<glyph unicode="=" horiz-adv-x="876" d="M176 532l21 113q2 11 10 19t20 8h572q10 0 16 -8t4 -19l-20 -113q-2 -11 -10.5 -18.5t-18.5 -7.5h-571q-12 0 -18.5 7.5t-4.5 18.5zM223 791l19 112q2 11 11 19t21 8h572q10 0 15 -8t3 -19l-18 -112q-3 -11 -12 -19t-19 -8h-571q-12 0 -18 8t-3 19z" />
<glyph unicode="&#x3e;" horiz-adv-x="569" d="M73 249q-4 5 7 21l330 451l-172 448q-4 13 -2.5 19t6.5 7l4 1h135q19 0 31 -27l174 -424q9 -28 -11 -51l-321 -424q-9 -11 -18.5 -17t-15.5 -7h-5h-135z" />
<glyph unicode="?" horiz-adv-x="845" d="M248 1133l24 135q15 90 89 152.5t163 62.5h219q90 0 143 -62.5t38 -152.5l-80 -449q-18 -98 -96 -157.5t-160 -59.5q-22 0 -40.5 -15t-21.5 -38l-45 -254q-2 -11 -10 -19t-18 -8h-125q-10 0 -16.5 8t-4.5 19l49 285q17 91 91 154t163 63q22 0 41 15t23 38l71 416 q4 23 -8.5 38t-34.5 15h-192q-24 0 -43 -15t-23 -38l-22 -133q-1 -12 -9.5 -19.5t-19.5 -7.5h-123q-25 0 -22 27zM260 27l23 129q1 10 9 17t19 7h125q11 0 16.5 -7t4.5 -17l-23 -129q-7 -27 -28 -27h-125q-11 0 -17.5 7.5t-3.5 19.5z" />
<glyph unicode="@" horiz-adv-x="1546" d="M127 215l184 1045q15 89 89.5 152t162.5 63h862q88 0 141 -63t38 -152l-134 -758q-17 -91 -91 -154t-162 -63h-101q-60 0 -104 30q-53 -30 -115 -30h-229q-88 0 -140.5 63.5t-35.5 153.5l63 368q17 89 91.5 152t162.5 63h229q88 0 140.5 -63t35.5 -152l-65 -374 q-3 -23 13 -38.5t50 -15.5q35 0 56 15.5t24 38.5l135 761q3 22 -9.5 38t-35.5 16h-833q-23 0 -42 -16t-22 -38l-184 -1046q-4 -23 9 -39t36 -16h1024q11 0 17.5 -7.5t5.5 -17.5l-19 -104q-7 -27 -31 -27h-1038q-88 0 -140.5 63t-37.5 152zM664 496q-3 -22 10.5 -38t36.5 -16 h202q20 0 37 13t23 32l67 381q4 22 -8.5 38t-34.5 16h-202q-23 0 -42 -16t-24 -38z" />
<glyph unicode="A" d="M54.5 8q-4.5 6 0.5 19l496 1421q3 12 10.5 19t14.5 7l6 1h170h2.5t5.5 -1.5t7 -4t5.5 -8t1.5 -13.5v-1421q0 -12 -4.5 -18.5t-9.5 -7.5l-4 -1h-144q-16 0 -16 27v215h-295l-72 -215q-3 -12 -9 -18.5t-10 -7.5l-5 -1h-139q-2 0 -4.5 1t-7 7zM356 406h256v786z" />
<glyph unicode="B" horiz-adv-x="911" d="M94 27l250 1421q7 27 31 27h385q88 0 140 -63q41 -49 41 -114q0 -18 -3 -38l-70 -398q-7 -37 -37 -92q34 -50 34 -108q0 -18 -3 -37l-71 -410q-15 -89 -89.5 -152t-162.5 -63h-422q-12 0 -19 7.5t-4 19.5zM291 156h260q23 0 40.5 15.5t22.5 39.5l72 405q3 21 -7.5 36 t-31.5 18h-266zM408 819h229q21 1 36.5 16t20.5 37l68 385q3 22 -9.5 38t-35.5 16h-223z" />
<glyph unicode="C" horiz-adv-x="901" d="M127 207l188 1061q15 90 89 152.5t163 62.5h224q89 0 141 -62q40 -48 40 -114q0 -19 -3 -39l-25 -135q-1 -12 -9.5 -19.5t-19.5 -7.5h-122q-26 0 -23 27l23 133q4 23 -8.5 38t-34.5 15h-197q-24 0 -43 -15t-23 -38l-186 -1065q-5 -22 8.5 -38t36.5 -16h205q23 0 40.5 16 t22.5 38l41 233q1 12 10.5 19.5t20.5 7.5h123q25 0 22 -27l-40 -227q-15 -90 -89.5 -153.5t-162.5 -63.5h-234q-89 0 -141 64q-41 49 -40 114q0 19 3 39z" />
<glyph unicode="D" horiz-adv-x="917" d="M94 27l250 1421q7 27 31 27h422q89 0 141 -63q41 -49 40 -114q0 -18 -3 -38l-184 -1045q-15 -89 -89.5 -152t-162.5 -63h-422q-12 0 -19 7.5t-4 19.5zM293 164h260q23 0 40.5 15.5t20.5 37.5l185 1040q3 22 -9.5 38t-35.5 16h-260z" />
<glyph unicode="E" horiz-adv-x="856" d="M94 27l250 1421q7 27 31 27h559q11 0 18 -7.5t4 -19.5l-20 -113q-1 -12 -10.5 -19t-20.5 -7h-411l-80 -451h338q11 0 17 -7t5 -17l-18 -113q-3 -11 -13 -19t-20 -8h-338l-92 -530h424q11 0 16 -7.5t2 -19.5l-18 -110q-7 -27 -29 -27h-571q-12 0 -19 7.5t-4 19.5z" />
<glyph unicode="F" horiz-adv-x="825" d="M94 27l250 1421q7 27 31 27h559q11 0 18 -7.5t4 -19.5l-20 -113q-1 -12 -10.5 -19t-20.5 -7h-411l-80 -451h338q11 0 17 -7t5 -17l-18 -113q-3 -11 -13 -19t-20 -8h-338l-117 -667q-7 -27 -28 -27h-123q-12 0 -19 7.5t-4 19.5z" />
<glyph unicode="G" horiz-adv-x="901" d="M127 207l188 1061q15 90 89 152.5t163 62.5h221q90 0 143 -63q41 -48 41 -114q0 -18 -3 -38l-25 -135q-1 -12 -10.5 -19.5t-20.5 -7.5h-122q-26 0 -23 27l23 133q4 23 -8.5 38t-34.5 15h-195q-24 0 -43 -15t-23 -38l-186 -1065q-5 -22 8.5 -38t36.5 -16h205q23 0 40.5 16 t22.5 38l62 352h-156q-11 0 -17 7.5t-5 19.5l20 110q1 12 10.5 19.5t20.5 7.5h305q26 0 23 -27l-86 -483q-15 -90 -89.5 -153.5t-162.5 -63.5h-234q-88 0 -141 64q-40 49 -40 114q0 19 3 39z" />
<glyph unicode="H" horiz-adv-x="931" d="M94 27l250 1421q7 27 31 27h123q11 0 17 -7.5t3 -19.5l-104 -590h329l105 590q7 27 29 27h124q11 0 17.5 -7.5t3.5 -19.5l-250 -1421q-7 -27 -29 -27h-125q-11 0 -17 7.5t-3 19.5l117 667h-330l-117 -667q-7 -27 -28 -27h-123q-12 0 -19 7.5t-4 19.5z" />
<glyph unicode="I" horiz-adv-x="428" d="M94 27l250 1421q7 27 31 27h123q11 0 17 -7.5t3 -19.5l-250 -1421q-7 -27 -28 -27h-123q-12 0 -19 7.5t-4 19.5z" />
<glyph unicode="J" horiz-adv-x="843" d="M66 207l40 227q1 12 10 19.5t21 7.5h119q11 0 17.5 -7.5t5.5 -19.5l-41 -233q-5 -22 7.5 -38t35.5 -16h206q22 0 40.5 16t23.5 38l219 1247q7 27 29 27h125q11 0 17 -7.5t3 -19.5l-219 -1241q-15 -90 -89.5 -153.5t-162.5 -63.5h-229q-88 0 -140 64q-41 49 -41 114 q0 19 3 39z" />
<glyph unicode="K" d="M94 27l250 1421q7 27 31 27h123q11 0 17 -7.5t3 -19.5l-106 -608l428 608q6 12 14 19t13 7l5 1h138q2 0 5 -1t6.5 -7t-5.5 -19l-414 -617l164 -804q2 -12 -2 -18.5t-9 -7.5l-5 -1h-142q-16 0 -22 27l-133 626l-99 -135l-86 -491q-7 -27 -28 -27h-123q-12 0 -19 7.5 t-4 19.5z" />
<glyph unicode="L" horiz-adv-x="829" d="M94 27l250 1421q7 27 31 27h123q11 0 17 -7.5t3 -19.5l-225 -1284h424q11 0 16 -7.5t2 -19.5l-18 -110q-7 -27 -29 -27h-571q-12 0 -19 7.5t-4 19.5z" />
<glyph unicode="M" horiz-adv-x="1185" d="M94 27l250 1421q7 27 31 27h114q23 0 29 -27l170 -705l416 705q5 12 14 19t15 7l6 1h116q11 0 17.5 -7.5t3.5 -19.5l-250 -1421q-7 -27 -29 -27h-125q-11 0 -17 7.5t-3 19.5l166 942l-408 -656l-176 656l-166 -942q-7 -27 -28 -27h-123q-12 0 -19 7.5t-4 19.5z" />
<glyph unicode="N" horiz-adv-x="931" d="M94 27l250 1421q7 27 31 27h121q2 0 5.5 -0.5t9.5 -7.5t7 -19l170 -903l160 903q7 27 29 27h124q11 0 17.5 -7.5t3.5 -19.5l-250 -1421q-7 -27 -29 -27h-112q-2 0 -6 0.5t-10.5 7.5t-8.5 19l-180 899l-158 -899q-7 -27 -28 -27h-123q-12 0 -19 7.5t-4 19.5z" />
<glyph unicode="O" horiz-adv-x="925" d="M127 207l188 1061q15 90 89 152.5t163 62.5h236q91 -1 143 -63q41 -49 40 -113q0 -19 -3 -39l-188 -1061q-15 -90 -89.5 -153.5t-164.5 -63.5h-236q-89 0 -141 64q-41 49 -40 114q0 19 3 39zM301 201q-5 -22 8.5 -38t36.5 -16h209q23 0 40.5 16t22.5 38l187 1065 q4 23 -8 38t-35 15h-209q-24 0 -43 -15t-23 -38z" />
<glyph unicode="P" horiz-adv-x="907" d="M94 27l250 1421q7 27 31 27h422q89 0 141 -63q41 -49 40 -114q0 -18 -3 -38l-76 -435q-17 -89 -91.5 -152t-162.5 -63h-274l-103 -583q-7 -27 -28 -27h-123q-12 0 -19 7.5t-4 19.5zM397 766h260q23 0 42 15.5t22 37.5l78 438q3 22 -9.5 38t-35.5 16h-260z" />
<glyph unicode="Q" horiz-adv-x="925" d="M127 207l188 1061q15 90 89 152.5t163 62.5h236q90 0 143 -63q40 -48 40 -113q0 -19 -3 -39l-188 -1061q-15 -90 -89.5 -153.5t-164.5 -63.5h-29l-23 -129q-7 -27 -32 -27h-125q-11 0 -16.5 7.5t-2.5 19.5l23 129h-31q-88 0 -141 64q-40 49 -40 114q0 19 3 39zM301 201 q-5 -22 8.5 -38t36.5 -16h209q23 0 40.5 16t22.5 38l187 1065q4 23 -8 38t-35 15h-209q-24 0 -43 -15t-23 -38z" />
<glyph unicode="R" horiz-adv-x="917" d="M94 27l250 1421q7 27 31 27h422q89 0 141 -63q41 -49 40 -114q0 -18 -3 -38l-76 -435q-12 -67 -59.5 -120.5t-112.5 -79.5l43 -598q2 -12 -2 -18.5t-9 -7.5l-5 -1h-140q-2 0 -5 0.5t-8.5 7.5t-6.5 19l-41 583h-182l-103 -583q-7 -27 -28 -27h-123q-12 0 -19 7.5t-4 19.5z M397 766h260q23 0 42 15.5t22 37.5l78 438q3 22 -9.5 38t-35.5 16h-260z" />
<glyph unicode="S" horiz-adv-x="862" d="M96 207l41 227q1 12 10.5 19.5t20.5 7.5h123q25 0 22 -27l-41 -233q-4 -22 8.5 -38t34.5 -16h207q22 0 40.5 16t23.5 38l76 430q3 22 -10.5 37.5t-35.5 15.5h-219q-89 0 -141 63q-40 49 -40 113q0 19 3 39l66 369q15 90 89.5 152.5t164.5 62.5h223q88 -1 140 -63 q41 -49 41 -113q0 -19 -3 -39l-25 -135q-2 -12 -10 -19.5t-20 -7.5h-123q-11 0 -17.5 7.5t-5.5 19.5l23 133q4 23 -8 38t-35 15h-197q-22 0 -40.5 -15t-22.5 -38l-66 -373q-3 -22 10 -37.5t35 -15.5h219q90 0 142 -62q39 -47 39 -110q0 -21 -4 -43l-74 -418 q-15 -90 -88.5 -153.5t-163.5 -63.5h-232q-89 0 -142 63q-41 49 -41 115q0 19 3 39z" />
<glyph unicode="T" horiz-adv-x="878" d="M289 1335l20 113q7 27 31 27h627q11 0 18 -7.5t4 -19.5l-20 -113q-1 -10 -10.5 -17t-20.5 -7h-227l-226 -1284q-7 -27 -28 -27h-125q-11 0 -17.5 7.5t-3.5 19.5l226 1284h-226q-11 0 -17 7t-5 17z" />
<glyph unicode="U" horiz-adv-x="929" d="M127 207l219 1241q7 27 31 27h123q11 0 17 -7.5t3 -19.5l-219 -1247q-5 -22 8.5 -38t36.5 -16h205q23 0 40.5 16t22.5 38l220 1247q7 27 30 27h123q12 0 19 -7.5t4 -19.5l-219 -1241q-15 -90 -89.5 -153.5t-162.5 -63.5h-234q-89 0 -141 64q-41 49 -40 114q0 19 3 39z " />
<glyph unicode="V" horiz-adv-x="886" d="M297 27l4 1421q1 12 6 19t10 7l5 1h137q2 0 5 -0.5t8 -7.5t5 -19l-12 -1108l377 1108q4 12 10.5 19t11.5 7l4 1h138q2 0 5 -0.5t6.5 -7.5t0.5 -19l-496 -1421q-4 -12 -12 -18.5t-14 -7.5l-7 -1h-167q-3 0 -7 0.5t-11 7.5t-7 19z" />
<glyph unicode="W" horiz-adv-x="1398" d="M297 27l4 1421q1 12 6 19t10 7l5 1h137q2 0 5 -0.5t8 -7.5t5 -19l-12 -1108l358 1108q4 12 10.5 19t11.5 7l5 1h137q2 0 5 -0.5t8.5 -7.5t5.5 -19l-31 -1108l377 1108q4 12 10.5 19t11.5 7l4 1h140q2 0 4.5 -1t6.5 -7t-1 -19l-496 -1421q-4 -12 -11.5 -19t-13.5 -8h-6 h-170h-2.5t-5.5 1.5t-7.5 4t-6 8t-2.5 13.5l24 954l-309 -954q-4 -12 -12 -18.5t-14 -7.5l-7 -1h-167q-3 0 -7 0.5t-11 7.5t-7 19z" />
<glyph unicode="X" horiz-adv-x="835" d="M37 0q-12 0 0 27l356 743l-88 678q-2 12 0 19t5 7l3 1h148q24 0 28 -27l56 -477l225 477q4 12 13 19t15 7l7 1h147q1 0 2.5 -1t3.5 -7t-4 -19l-329 -678l98 -743q1 -12 -1.5 -18.5t-5.5 -7.5l-3 -1h-142q-24 0 -28 27l-68 546l-260 -546q-5 -12 -14 -19t-15 -8h-6h-143z " />
<glyph unicode="Y" horiz-adv-x="854" d="M289 1448q-2 12 1.5 19t7.5 7l5 1h139q2 0 5 -0.5t8.5 -7.5t5.5 -19l65 -649l293 649q4 12 11.5 19t12.5 7l5 1h137q2 0 4.5 -1t6 -7t-2.5 -19l-440 -987l-76 -434q-7 -27 -31 -27h-120q-11 0 -18.5 8t-4.5 19l76 434z" />
<glyph unicode="Z" horiz-adv-x="845" d="M74 27l24 137l652 1147h-424q-26 0 -23 24l21 113q7 27 30 27h572q11 0 17 -7.5t3 -19.5l-24 -137l-650 -1147h424q11 0 16.5 -7.5t2.5 -19.5l-19 -110q-7 -27 -28 -27h-572q-12 0 -18.5 7.5t-3.5 19.5z" />
<glyph unicode="[" horiz-adv-x="585" d="M53 -186l328 1847q4 25 31 25h325q10 0 16.5 -7t4.5 -18l-21 -113q-2 -11 -10 -18.5t-18 -7.5h-179l-278 -1577h178q11 0 16.5 -7.5t2.5 -19.5l-19 -104q-2 -11 -10.5 -19t-18.5 -8h-325q-12 0 -18.5 8t-4.5 19z" />
<glyph unicode="\" horiz-adv-x="780" d="M299 1448q-1 12 1.5 19t5.5 7l3 1h148q3 0 7 -0.5t11 -7.5t8 -19l142 -1421q2 -12 -1 -18.5t-6 -7.5l-4 -1h-141q-3 0 -7 0.5t-11.5 7.5t-8.5 19z" />
<glyph unicode="]" horiz-adv-x="587" d="M2 -186l18 104q3 12 12.5 19.5t20.5 7.5h176l279 1577h-176q-11 0 -17.5 8t-5.5 18l21 113q1 10 10 17.5t20 7.5h326q12 0 18.5 -7t4.5 -18l-328 -1847q-2 -11 -10.5 -19t-20.5 -8h-325q-10 0 -17.5 8t-5.5 19z" />
<glyph unicode="^" horiz-adv-x="604" d="M319 1474q-3 6 5 19l168 248q8 12 17 18.5t14 6.5l5 1h90q2 0 5 -0.5t9 -7t9 -18.5l84 -248q3 -12 0 -18.5t-7 -7.5l-5 -1h-74l-88 185l-152 -185h-71q-2 0 -4 1t-5 7z" />
<glyph unicode="_" horiz-adv-x="1064" d="M94 27l19 110q7 27 32 27h756q11 0 16.5 -7.5t2.5 -19.5l-19 -110q-7 -27 -29 -27h-755q-12 0 -19 7.5t-4 19.5z" />
<glyph unicode="`" horiz-adv-x="397" d="M268.5 1760q1.5 6 5.5 6l5 1h110q2 0 5.5 -0.5t9.5 -7t8 -18.5l43 -156q3 -13 0.5 -19t-7.5 -6l-4 -1h-73l-99 182q-5 13 -3.5 19z" />
<glyph unicode="a" d="M54.5 8q-4.5 6 0.5 19l496 1421q3 12 10.5 19t14.5 7l6 1h170h2.5t5.5 -1.5t7 -4t5.5 -8t1.5 -13.5v-1421q0 -12 -4.5 -18.5t-9.5 -7.5l-4 -1h-144q-16 0 -16 27v215h-295l-72 -215q-3 -12 -9 -18.5t-10 -7.5l-5 -1h-139q-2 0 -4.5 1t-7 7zM356 406h256v786z" />
<glyph unicode="b" horiz-adv-x="911" d="M94 27l250 1421q7 27 31 27h385q88 0 140 -63q41 -49 41 -114q0 -18 -3 -38l-70 -398q-7 -37 -37 -92q34 -50 34 -108q0 -18 -3 -37l-71 -410q-15 -89 -89.5 -152t-162.5 -63h-422q-12 0 -19 7.5t-4 19.5zM291 156h260q23 0 40.5 15.5t22.5 39.5l72 405q3 21 -7.5 36 t-31.5 18h-266zM408 819h229q21 1 36.5 16t20.5 37l68 385q3 22 -9.5 38t-35.5 16h-223z" />
<glyph unicode="c" horiz-adv-x="901" d="M127 207l188 1061q15 90 89 152.5t163 62.5h224q89 0 141 -62q40 -48 40 -114q0 -19 -3 -39l-25 -135q-1 -12 -9.5 -19.5t-19.5 -7.5h-122q-26 0 -23 27l23 133q4 23 -8.5 38t-34.5 15h-197q-24 0 -43 -15t-23 -38l-186 -1065q-5 -22 8.5 -38t36.5 -16h205q23 0 40.5 16 t22.5 38l41 233q1 12 10.5 19.5t20.5 7.5h123q25 0 22 -27l-40 -227q-15 -90 -89.5 -153.5t-162.5 -63.5h-234q-89 0 -141 64q-41 49 -40 114q0 19 3 39z" />
<glyph unicode="d" horiz-adv-x="917" d="M94 27l250 1421q7 27 31 27h422q89 0 141 -63q41 -49 40 -114q0 -18 -3 -38l-184 -1045q-15 -89 -89.5 -152t-162.5 -63h-422q-12 0 -19 7.5t-4 19.5zM293 164h260q23 0 40.5 15.5t20.5 37.5l185 1040q3 22 -9.5 38t-35.5 16h-260z" />
<glyph unicode="e" horiz-adv-x="856" d="M94 27l250 1421q7 27 31 27h559q11 0 18 -7.5t4 -19.5l-20 -113q-1 -12 -10.5 -19t-20.5 -7h-411l-80 -451h338q11 0 17 -7t5 -17l-18 -113q-3 -11 -13 -19t-20 -8h-338l-92 -530h424q11 0 16 -7.5t2 -19.5l-18 -110q-7 -27 -29 -27h-571q-12 0 -19 7.5t-4 19.5z" />
<glyph unicode="f" horiz-adv-x="825" d="M94 27l250 1421q7 27 31 27h559q11 0 18 -7.5t4 -19.5l-20 -113q-1 -12 -10.5 -19t-20.5 -7h-411l-80 -451h338q11 0 17 -7t5 -17l-18 -113q-3 -11 -13 -19t-20 -8h-338l-117 -667q-7 -27 -28 -27h-123q-12 0 -19 7.5t-4 19.5z" />
<glyph unicode="g" horiz-adv-x="897" d="M127 207l188 1061q15 90 89 152.5t163 62.5h217q90 0 143 -63q41 -48 41 -114q0 -18 -3 -38l-25 -135q-1 -12 -10.5 -19.5t-20.5 -7.5h-123q-11 0 -17 7.5t-5 19.5l22 133q4 23 -8 38t-35 15h-190q-24 0 -43 -15t-23 -38l-186 -1065q-5 -22 8.5 -38t36.5 -16h203 q22 0 40 16t23 38l62 352h-154q-11 0 -17 7.5t-5 19.5l20 110q1 12 10.5 19.5t20.5 7.5h303q23 0 20 -27l-86 -483q-15 -90 -89 -153.5t-162 -63.5h-230q-88 0 -141 64q-40 49 -40 114q0 19 3 39z" />
<glyph unicode="h" horiz-adv-x="931" d="M94 27l250 1421q7 27 31 27h123q11 0 17 -7.5t3 -19.5l-104 -590h329l105 590q7 27 29 27h124q11 0 17.5 -7.5t3.5 -19.5l-250 -1421q-7 -27 -29 -27h-125q-11 0 -17 7.5t-3 19.5l117 667h-330l-117 -667q-7 -27 -28 -27h-123q-12 0 -19 7.5t-4 19.5z" />
<glyph unicode="i" horiz-adv-x="428" d="M94 27l250 1421q7 27 31 27h123q11 0 17 -7.5t3 -19.5l-250 -1421q-7 -27 -28 -27h-123q-12 0 -19 7.5t-4 19.5z" />
<glyph unicode="j" horiz-adv-x="843" d="M66 207l40 227q1 12 10 19.5t21 7.5h119q11 0 17.5 -7.5t5.5 -19.5l-41 -233q-5 -22 7.5 -38t35.5 -16h206q22 0 40.5 16t23.5 38l219 1247q7 27 29 27h125q11 0 17 -7.5t3 -19.5l-219 -1241q-15 -90 -89.5 -153.5t-162.5 -63.5h-229q-88 0 -140 64q-41 49 -41 114 q0 19 3 39z" />
<glyph unicode="k" d="M94 27l250 1421q7 27 31 27h123q11 0 17 -7.5t3 -19.5l-106 -608l428 608q6 12 14 19t13 7l5 1h138q2 0 5 -1t6.5 -7t-5.5 -19l-414 -617l164 -804q2 -12 -2 -18.5t-9 -7.5l-5 -1h-142q-16 0 -22 27l-133 626l-99 -135l-86 -491q-7 -27 -28 -27h-123q-12 0 -19 7.5 t-4 19.5z" />
<glyph unicode="l" horiz-adv-x="829" d="M94 27l250 1421q7 27 31 27h123q11 0 17 -7.5t3 -19.5l-225 -1284h424q11 0 16 -7.5t2 -19.5l-18 -110q-7 -27 -29 -27h-571q-12 0 -19 7.5t-4 19.5z" />
<glyph unicode="m" horiz-adv-x="1185" d="M94 27l250 1421q7 27 31 27h114q23 0 29 -27l170 -705l416 705q5 12 14 19t15 7l6 1h116q11 0 17.5 -7.5t3.5 -19.5l-250 -1421q-7 -27 -29 -27h-125q-11 0 -17 7.5t-3 19.5l166 942l-408 -656l-176 656l-166 -942q-7 -27 -28 -27h-123q-12 0 -19 7.5t-4 19.5z" />
<glyph unicode="n" horiz-adv-x="931" d="M94 27l250 1421q7 27 31 27h121q2 0 5.5 -0.5t9.5 -7.5t7 -19l170 -903l160 903q7 27 29 27h124q11 0 17.5 -7.5t3.5 -19.5l-250 -1421q-7 -27 -29 -27h-112q-2 0 -6 0.5t-10.5 7.5t-8.5 19l-180 899l-158 -899q-7 -27 -28 -27h-123q-12 0 -19 7.5t-4 19.5z" />
<glyph unicode="o" horiz-adv-x="925" d="M127 207l188 1061q15 90 89 152.5t163 62.5h236q91 -1 143 -63q41 -49 40 -113q0 -19 -3 -39l-188 -1061q-15 -90 -89.5 -153.5t-164.5 -63.5h-236q-89 0 -141 64q-41 49 -40 114q0 19 3 39zM301 201q-5 -22 8.5 -38t36.5 -16h209q23 0 40.5 16t22.5 38l187 1065 q4 23 -8 38t-35 15h-209q-24 0 -43 -15t-23 -38z" />
<glyph unicode="p" horiz-adv-x="907" d="M94 27l250 1421q7 27 31 27h422q88 0 141 -63q40 -49 40 -114q0 -18 -3 -38l-76 -435q-17 -89 -91.5 -152t-162.5 -63h-274l-103 -583q-7 -27 -28 -27h-123q-12 0 -19 7.5t-4 19.5zM397 766h260q23 0 42 15.5t22 37.5l78 438q3 22 -9.5 38t-35.5 16h-260z" />
<glyph unicode="q" horiz-adv-x="925" d="M127 207l188 1061q15 90 89 152.5t163 62.5h236q90 0 143 -63q40 -48 40 -113q0 -19 -3 -39l-188 -1061q-15 -90 -89.5 -153.5t-164.5 -63.5h-29l-23 -129q-7 -27 -32 -27h-125q-11 0 -16.5 7.5t-2.5 19.5l23 129h-31q-88 0 -141 64q-40 49 -40 114q0 19 3 39zM301 201 q-5 -22 8.5 -38t36.5 -16h209q23 0 40.5 16t22.5 38l187 1065q4 23 -8 38t-35 15h-209q-24 0 -43 -15t-23 -38z" />
<glyph unicode="r" horiz-adv-x="917" d="M94 27l250 1421q7 27 31 27h422q89 0 141 -63q41 -49 40 -114q0 -18 -3 -38l-76 -435q-12 -67 -59.5 -120.5t-112.5 -79.5l43 -598q2 -12 -2 -18.5t-9 -7.5l-5 -1h-140q-2 0 -5 0.5t-8.5 7.5t-6.5 19l-41 583h-182l-103 -583q-7 -27 -28 -27h-123q-12 0 -19 7.5t-4 19.5z M397 766h260q23 0 42 15.5t22 37.5l78 438q3 22 -9.5 38t-35.5 16h-260z" />
<glyph unicode="s" horiz-adv-x="862" d="M96 207l41 227q1 12 10.5 19.5t20.5 7.5h123q25 0 22 -27l-41 -233q-4 -22 8.5 -38t34.5 -16h207q22 0 40.5 16t23.5 38l76 430q3 22 -10.5 37.5t-35.5 15.5h-219q-89 0 -141 63q-40 49 -40 113q0 19 3 39l66 369q15 90 89.5 152.5t164.5 62.5h223q88 -1 140 -63 q41 -49 41 -113q0 -19 -3 -39l-25 -135q-2 -12 -10 -19.5t-20 -7.5h-123q-11 0 -17.5 7.5t-5.5 19.5l23 133q4 23 -8 38t-35 15h-197q-22 0 -40.5 -15t-22.5 -38l-66 -373q-3 -22 10 -37.5t35 -15.5h219q90 0 142 -62q39 -47 39 -110q0 -21 -4 -43l-74 -418 q-15 -90 -88.5 -153.5t-163.5 -63.5h-232q-89 0 -142 63q-41 49 -41 115q0 19 3 39z" />
<glyph unicode="t" horiz-adv-x="878" d="M289 1335l20 113q7 27 31 27h627q11 0 18 -7.5t4 -19.5l-20 -113q-1 -10 -10.5 -17t-20.5 -7h-227l-226 -1284q-7 -27 -28 -27h-125q-11 0 -17.5 7.5t-3.5 19.5l226 1284h-226q-11 0 -17 7t-5 17z" />
<glyph unicode="u" horiz-adv-x="929" d="M127 207l219 1241q7 27 31 27h123q11 0 17 -7.5t3 -19.5l-219 -1247q-5 -22 8.5 -38t36.5 -16h205q23 0 40.5 16t22.5 38l220 1247q7 27 30 27h123q12 0 19 -7.5t4 -19.5l-219 -1241q-15 -90 -89.5 -153.5t-162.5 -63.5h-234q-89 0 -141 64q-41 49 -40 114q0 19 3 39z " />
<glyph unicode="v" horiz-adv-x="886" d="M297 27l4 1421q1 12 6 19t10 7l5 1h137q2 0 5 -0.5t8 -7.5t5 -19l-12 -1108l377 1108q4 12 10.5 19t11.5 7l4 1h138q2 0 5 -0.5t6.5 -7.5t0.5 -19l-496 -1421q-4 -12 -12 -18.5t-14 -7.5l-7 -1h-167q-3 0 -7 0.5t-11 7.5t-7 19z" />
<glyph unicode="w" horiz-adv-x="1398" d="M297 27l4 1421q1 12 6 19t10 7l5 1h137q2 0 5 -0.5t8 -7.5t5 -19l-12 -1108l358 1108q4 12 10.5 19t11.5 7l5 1h137q2 0 5 -0.5t8.5 -7.5t5.5 -19l-31 -1108l377 1108q4 12 10.5 19t11.5 7l4 1h140q2 0 4.5 -1t6.5 -7t-1 -19l-496 -1421q-4 -12 -11.5 -19t-13.5 -8h-6 h-170h-2.5t-5.5 1.5t-7.5 4t-6 8t-2.5 13.5l24 954l-309 -954q-4 -12 -12 -18.5t-14 -7.5l-7 -1h-167q-3 0 -7 0.5t-11 7.5t-7 19z" />
<glyph unicode="x" horiz-adv-x="835" d="M37 0q-12 0 0 27l356 743l-88 678q-2 12 0 19t5 7l3 1h148q24 0 28 -27l56 -477l225 477q4 12 13 19t15 7l7 1h147q1 0 2.5 -1t3.5 -7t-4 -19l-329 -678l98 -743q1 -12 -1.5 -18.5t-5.5 -7.5l-3 -1h-142q-24 0 -28 27l-68 546l-260 -546q-5 -12 -14 -19t-15 -8h-6h-143z " />
<glyph unicode="y" horiz-adv-x="854" d="M289 1448q-2 12 1.5 19t7.5 7l5 1h139q2 0 5 -0.5t8.5 -7.5t5.5 -19l65 -649l293 649q4 12 11.5 19t12.5 7l5 1h137q2 0 4.5 -1t6 -7t-2.5 -19l-440 -987l-76 -434q-7 -27 -31 -27h-120q-11 0 -18.5 8t-4.5 19l76 434z" />
<glyph unicode="z" horiz-adv-x="845" d="M74 27l24 137l652 1147h-424q-26 0 -23 24l21 113q7 27 30 27h572q11 0 17 -7.5t3 -19.5l-24 -137l-650 -1147h424q11 0 16.5 -7.5t2.5 -19.5l-19 -110q-7 -27 -28 -27h-572q-12 0 -18.5 7.5t-3.5 19.5z" />
<glyph unicode="{" horiz-adv-x="632" d="M188 4l76 430l-59 287l160 287l81 462q17 91 92 153.5t164 62.5h80q12 0 18.5 -7t4.5 -18l-21 -113q-2 -11 -10 -18.5t-20 -7.5h-68q-22 0 -40.5 -15.5t-22.5 -38.5l-82 -460l-152 -287l51 -287l-78 -436q-3 -22 10.5 -37.5t35.5 -15.5h67q12 0 18 -7.5t3 -19.5l-19 -104 q-2 -11 -10.5 -19t-20.5 -8h-79q-90 0 -143 63.5t-36 153.5z" />
<glyph unicode="|" horiz-adv-x="434" d="M53 -186l328 1847q4 25 31 25h123q10 0 16 -7t4 -18l-328 -1847q-2 -11 -10 -19t-18 -8h-123q-12 0 -18.5 8t-4.5 19z" />
<glyph unicode="}" horiz-adv-x="632" d="M2 -186l18 104q3 12 12.5 19.5t20.5 7.5h68q23 0 40.5 15.5t20.5 37.5l78 436l154 287l-54 287l82 460q5 23 -7.5 38.5t-35.5 15.5h-67q-11 0 -17.5 8t-5.5 18l21 113q1 10 10 17.5t20 7.5h82q89 0 141 -63t35 -153l-81 -462l61 -287l-162 -287l-76 -430 q-17 -90 -91.5 -153.5t-162.5 -63.5h-81q-10 0 -17.5 8t-5.5 19z" />
<glyph unicode="~" horiz-adv-x="925" d="M186 731q-3 11 2 22t15 15l106 57q9 6 19.5 2.5t15.5 -12.5l18 -51q9 -20 29.5 -26.5t42.5 5.5l180 95q83 43 166.5 20t114.5 -98l16 -47q10 -20 -14 -35l-111 -57q-7 -5 -17 -1.5t-13 13.5l-19 39q-7 21 -26.5 27t-42.5 -5l-181 -94q-85 -44 -166.5 -20.5t-113.5 98.5z " />
<glyph unicode="&#xa1;" horiz-adv-x="428" d="M94 27l203 1153q2 11 10.5 18.5t20.5 7.5h123q10 0 16 -7.5t4 -18.5l-203 -1153q-7 -27 -28 -27h-123q-12 0 -19 7.5t-4 19.5zM322 1319l22 129q7 27 31 27h123q11 0 17 -7.5t3 -19.5l-22 -129q-1 -10 -9.5 -17.5t-19.5 -7.5h-123q-12 0 -18 7t-4 18z" />
<glyph unicode="&#xa2;" d="M137 311l148 836q15 89 90.5 152t163.5 63h41l14 86q1 12 10 19.5t21 7.5h86q11 0 17 -7.5t5 -19.5l-14 -86h39q89 0 141 -63t37 -152l-25 -137q-1 -10 -10 -17.5t-20 -7.5h-123q-11 0 -17.5 7.5t-5.5 17.5l25 135q4 22 -8.5 37.5t-34.5 15.5h-193q-23 0 -41.5 -15.5 t-23.5 -37.5l-148 -840q-5 -22 8.5 -37.5t36.5 -15.5h203q22 0 41 15.5t23 37.5l41 236q1 10 9 17t19 7h125q11 0 16.5 -7t4.5 -17l-41 -230q-15 -89 -89.5 -152t-162.5 -63h-51l-13 -69q-1 -12 -10 -19.5t-20 -7.5h-86q-11 0 -17.5 7.5t-5.5 19.5l12 69h-39 q-88 0 -140.5 63t-37.5 152z" />
<glyph unicode="&#xa3;" horiz-adv-x="913" d="M31 0l26 156h13q23 0 40.5 15.5t22.5 39.5l74 424h-39q-12 0 -18.5 8t-4.5 19l21 112q2 11 10.5 19t20.5 8h39l83 467q15 90 89.5 152.5t164.5 62.5h220q88 0 140.5 -62.5t37.5 -152.5l-25 -135q-1 -12 -10 -19.5t-21 -7.5h-122q-11 0 -16.5 7.5t-4.5 19.5l27 151 q4 23 -9 38t-36 15h-193q-22 0 -40.5 -15t-22.5 -38l-86 -483h356q10 0 16 -8t4 -19l-20 -112q-2 -11 -10.5 -19t-18.5 -8h-356l-84 -479h293q21 0 39 13.5t22 33.5q7 26 31 26h123q10 0 17 -7.5t5 -18.5l-4 -25q-14 -86 -83.5 -132t-163.5 -46h-547z" />
<glyph unicode="&#xa4;" horiz-adv-x="909" d="M157 483.5q2 10.5 11 18.5l45 39q-8 35 -2 82l35 190q6 45 30 82l-30 37q-7 9 -5 20t11 19l94 80q9 7 20 7t17 -7l31 -39q40 16 84 16h190q40 0 80 -16l45 39q9 7 20 7t17 -7l65 -80q6 -7 5.5 -18.5t-9.5 -18.5l-45 -39q7 -45 2 -82l-34 -190q-5 -35 -31 -82l33 -39 q13 -17 -7 -37l-94 -80q-22 -19 -39 -2l-30 39q-39 -16 -88 -16h-191q-41 0 -78 16l-43 -37q-11 -9 -22 -8.5t-17 8.5l-65 80q-7 8 -5 18.5zM385 616q-5 -22 8.5 -37.5t36.5 -15.5h164q23 0 40.5 15.5t22.5 37.5l33 195q4 23 -8 38t-35 15h-164q-23 0 -42 -15t-23 -38z" />
<glyph unicode="&#xa5;" horiz-adv-x="890" d="M135 256l19 113q1 10 10 18t20 8h201l10 66l-2 26h-194q-10 0 -15.5 8t-3.5 19l19 113q3 11 11.5 18.5t18.5 7.5h150l-74 795q-2 12 1.5 19t7.5 7l5 1h140q2 0 5 -0.5t8 -7.5t5 -19l66 -649l293 649q4 12 11 19t12 7l5 1h137q2 0 4.5 -1t6.5 -7t-2 -19l-355 -795h146 q12 0 17.5 -7.5t2.5 -18.5l-18 -113q-2 -11 -11.5 -19t-21.5 -8h-188l-13 -26l-10 -66h197q24 0 20 -26l-18 -113q-8 -27 -33 -27h-197l-34 -202q-7 -27 -31 -27h-121q-11 0 -18.5 8t-4.5 19l35 202h-200q-10 0 -16 8t-3 19z" />
<glyph unicode="&#xa6;" horiz-adv-x="434" d="M53 -186l137 778q7 24 33 24h123q11 0 16.5 -7t2.5 -17l-138 -778q-2 -11 -10 -19t-18 -8h-123q-12 0 -18.5 8t-4.5 19zM236 844l145 817q4 25 31 25h123q10 0 16 -7t4 -18l-145 -817q-1 -10 -9.5 -17.5t-19.5 -7.5h-123q-12 0 -18 7t-4 18z" />
<glyph unicode="&#xa7;" horiz-adv-x="870" d="M96 170l25 135q1 12 10 19.5t21 7.5h122q11 0 16.5 -7.5t4.5 -19.5l-25 -133q-3 -23 10.5 -38t36.5 -15h230q22 0 40 15t21 38l37 205q3 17 -5.5 31t-25.5 20h-260q-88 0 -139.5 63t-36.5 152l33 186q9 47 37 93q-46 61 -31 145l43 238q15 90 89 152.5t163 62.5h256 q90 0 142.5 -62.5t37.5 -152.5l-24 -136q-1 -12 -10.5 -19t-20.5 -7h-123q-11 0 -17 7t-5 19l24 134q3 23 -10 38t-35 15h-229q-24 0 -42.5 -15t-21.5 -38l-37 -205q-3 -20 7.5 -35.5t29.5 -18.5h250q89 0 142 -63t38 -152l-33 -186q-8 -42 -36 -90q44 -60 32 -145l-43 -238 q-15 -90 -90.5 -153.5t-165.5 -63.5h-256q-88 0 -139.5 63t-36.5 154zM352 635q-3 -22 9.5 -36.5t35.5 -14.5h209q38 0 47 51l35 192q3 22 -10 38t-35 16h-194q-23 0 -41 -16t-21 -38z" />
<glyph unicode="&#xa8;" horiz-adv-x="778" d="M268 1649q7 41 42 69.5t77 28.5q40 0 62.5 -28.5t15.5 -69.5q-6 -40 -39.5 -69.5t-73.5 -29.5q-41 0 -65.5 29.5t-18.5 69.5zM641 1649q7 41 42 69.5t75 28.5t63.5 -28.5t16.5 -69.5q-6 -40 -40.5 -69.5t-74.5 -29.5t-64 29.5t-18 69.5z" />
<glyph unicode="&#xa9;" horiz-adv-x="1595" d="M158 737q27 153 108 291t194.5 238t259 158.5t296.5 58.5q122 0 227.5 -38t181.5 -105.5t128 -161t65 -205t-6 -236.5q-37 -205 -162 -375.5t-309.5 -270t-386.5 -99.5q-151 0 -276 58.5t-204 158t-111 237.5t-5 291zM317 737q-22 -125 3 -234.5t87.5 -186t159.5 -120.5 t215 -44q243 0 435.5 166t236.5 419q29 167 -22.5 301.5t-168.5 209.5t-276 75q-158 0 -301 -75t-241.5 -209.5t-127.5 -301.5zM659 446l101 570q8 46 48 80t89 34h115q49 0 76.5 -33.5t19.5 -80.5l-12 -64q-1 -10 -10 -17t-21 -7h-61q-11 0 -17.5 7t-5.5 17l8 41 q2 12 -5 20.5t-19 8.5h-64q-11 0 -20.5 -8.5t-10.5 -20.5l-94 -530q-2 -11 5.5 -20t17.5 -9h69q12 0 21.5 9t11.5 20l17 94q7 25 32 25h60q11 0 17 -7.5t3 -17.5l-18 -111q-9 -47 -48.5 -80.5t-86.5 -33.5h-121q-49 0 -77.5 33.5t-19.5 80.5z" />
<glyph unicode="&#xaa;" horiz-adv-x="526" d="M157 695.5q-4 5.5 1 17.5l258 735q4 12 10.5 19t11.5 7l4 1h76q2 0 5 -0.5t8.5 -7.5t5.5 -19v-735q0 -11 -4.5 -17.5t-9.5 -7.5h-5h-78q-2 0 -5 0.5t-8 7t-5 17.5l2 92h-121l-31 -92q-4 -11 -10.5 -17.5t-11.5 -7.5h-4h-78q-2 0 -4.5 1t-6.5 6.5zM340 913h84l14 318z" />
<glyph unicode="&#xab;" horiz-adv-x="712" d="M158 694q-10 28 10 51l190 256q8 11 17 17.5t15 7.5h5h146q18 0 0 -25l-205 -280l104 -281q4 -13 2.5 -19t-6.5 -7h-4h-145q-19 -1 -29 26zM391 694q-10 28 10 51l191 256q9 11 18.5 17.5t15.5 7.5h5h145l6 -3q3 -7 -8 -22l-205 -280l105 -281q5 -13 3.5 -19t-5.5 -7h-4 h-146q-18 -1 -30 26z" />
<glyph unicode="&#xac;" horiz-adv-x="1073" d="M197 680l20 113q2 11 10.5 18.5t20.5 7.5h772q10 0 16 -7.5t4 -18.5l-63 -361q-7 -26 -31 -26h-112q-11 0 -17.5 7t-3.5 19l39 221h-633q-12 0 -18 8t-4 19z" />
<glyph unicode="&#xad;" horiz-adv-x="872" d="M197 662l20 112q2 11 10.5 19t20.5 8h571q10 0 16.5 -8t4.5 -19l-21 -112q-2 -11 -10 -19t-18 -8h-572q-12 0 -18 8t-4 19z" />
<glyph unicode="&#xae;" horiz-adv-x="1595" d="M158 737q27 153 108 291t194.5 238t259 158.5t296.5 58.5q122 0 227.5 -38t181.5 -105.5t128 -161t65 -205t-6 -236.5q-37 -205 -162 -375.5t-309.5 -270t-386.5 -99.5q-151 0 -276 58.5t-204 158t-111 237.5t-5 291zM317 737q-22 -125 3 -234.5t87.5 -186t159.5 -120.5 t215 -44q243 0 435.5 166t236.5 419q29 167 -22.5 301.5t-168.5 209.5t-276 75q-158 0 -301 -75t-241.5 -209.5t-127.5 -301.5zM641 362l129 736q1 12 10.5 19t20.5 7h213q47 0 75 -33.5t19 -80.5l-43 -244q-6 -35 -31.5 -63.5t-60.5 -40.5l24 -300q1 -11 -3 -17t-8 -7h-5 h-74q-2 0 -5 0.5t-9 6.5t-8 17l-23 291h-57l-51 -291q-7 -24 -31 -24h-59q-11 0 -18.5 7t-4.5 17zM823 756h101q12 0 21.5 8t10.5 20l37 205q2 11 -5 20t-19 9h-101z" />
<glyph unicode="&#xaf;" horiz-adv-x="839" d="M268 1585l8 45q1 12 10 19.5t21 7.5h572q23 0 20 -27l-8 -45q-2 -11 -10.5 -18.5t-18.5 -7.5h-571q-12 0 -18.5 7.5t-4.5 18.5z" />
<glyph unicode="&#xb0;" horiz-adv-x="626" d="M332 1405q14 77 78.5 131.5t142.5 54.5q76 0 121 -54.5t31 -131.5q-13 -77 -78 -131.5t-142 -54.5q-78 0 -122.5 54t-30.5 132zM412 1405q-6 -43 20 -75t68 -32q43 0 81 32.5t44 74.5q8 43 -17.5 74.5t-68.5 31.5t-81.5 -31.5t-45.5 -74.5z" />
<glyph unicode="&#xb1;" horiz-adv-x="884" d="M135 270l19 113q8 27 32 27h572q10 0 15.5 -8t2.5 -19l-18 -113q-1 -10 -9.5 -17t-19.5 -7h-571q-26 0 -23 24zM229 809l21 113q2 11 10.5 18.5t20.5 7.5h202l37 203q1 10 9.5 17.5t19.5 7.5h113q11 0 17 -7.5t5 -17.5l-37 -203h205q10 0 16 -7.5t4 -18.5l-20 -113 q-2 -11 -10.5 -19t-18.5 -8h-205l-36 -202q-1 -12 -10.5 -19.5t-20.5 -7.5h-113q-23 0 -20 27l37 202h-203q-12 0 -18.5 8t-4.5 19z" />
<glyph unicode="&#xb2;" horiz-adv-x="616" d="M215 707l14 73q14 18 37 49t82.5 113t105.5 148.5t85.5 129.5t42.5 83l10 65q3 12 -4 20.5t-19 8.5h-100q-12 0 -22 -8.5t-13 -20.5l-10 -61q-3 -13 -16 -13h-66q-15 0 -12 13l10 63q9 47 48.5 80t86.5 33h117q46 0 73.5 -33t18.5 -80l-10 -67q-5 -31 -89.5 -162 t-166.5 -246l-82 -115h233q6 0 9 -4t2 -10l-11 -59q0 -6 -5 -10.5t-11 -4.5h-328q-10 0 -10 15z" />
<glyph unicode="&#xb3;" horiz-adv-x="612" d="M227 799l13 63q0 12 16 12h66q14 0 14 -12l-12 -67q-2 -11 3 -20t15 -9h111q11 0 23 9.5t13 19.5l39 227q3 12 -5 20.5t-19 8.5h-47q-11 0 -11 12l11 61q4 15 18 15h45q11 0 22.5 8.5t12.5 21.5l35 199q3 11 -5.5 19t-19.5 8h-112q-26 0 -33 -27l-10 -63q-5 -15 -15 -15 h-67q-6 0 -10.5 5t-2.5 10l11 65q9 46 49 79.5t86 33.5h127q46 0 74.5 -34t19.5 -79l-37 -209q-5 -32 -31 -65q14 -32 9 -64l-41 -233q-7 -49 -48 -83t-88 -34h-124q-46 0 -74 34t-21 83z" />
<glyph unicode="&#xb4;" horiz-adv-x="460" d="M269 1562q-5 6 5 23l97 156q7 12 16 18.5t14 6.5l5 1h108l6 -2q3 -8 -12 -24l-160 -182h-72z" />
<glyph unicode="&#xb5;" horiz-adv-x="931" d="M43 -281l305 1729q7 27 31 27h123q11 0 17 -7.5t3 -19.5l-221 -1253q-2 -20 11.5 -34t35.5 -14h205q23 0 40.5 16t22.5 38l220 1247q7 27 30 27h123q12 0 19 -7.5t4 -19.5l-250 -1421q-7 -27 -29 -27h-465l-51 -281q-1 -12 -9.5 -19t-19.5 -7h-122q-26 0 -23 26z" />
<glyph unicode="&#xb6;" horiz-adv-x="1134" d="M240 844l73 416q15 89 89.5 152t162.5 63h668q11 0 18 -7.5t4 -19.5l-20 -113q-1 -10 -10.5 -17t-20.5 -7h-24l-226 -1284q-7 -27 -28 -27h-125q-11 0 -17.5 7.5t-3.5 19.5l226 1284h-62l-225 -1284q-7 -27 -29 -27h-125q-11 0 -17 7.5t-3 19.5l106 602h-233 q-88 0 -140.5 63t-37.5 152z" />
<glyph unicode="&#xb7;" horiz-adv-x="309" d="M135 651l23 131q1 12 10 19.5t20 7.5h127q11 0 17.5 -7.5t5.5 -19.5l-23 -131q-7 -26 -32 -26h-127q-11 0 -17.5 7t-3.5 19z" />
<glyph unicode="&#xb8;" horiz-adv-x="423" d="M268 -233l6 24q2 11 10.5 19t20.5 8h4q27 0 21 -35q-1 -6 2 -10t8 -4h47q11 0 14 14l19 111q1 4 -2 8t-8 4h-48q-10 0 -14 -12l-2 -21h-57l6 39l82 115h67l-47 -66h43q20 0 33 -14.5t10 -34.5l-26 -145q-3 -21 -21 -36.5t-39 -15.5h-88q-20 0 -32 15t-9 37z" />
<glyph unicode="&#xb9;" horiz-adv-x="446" d="M309 702l117 668h-82q-11 0 -8 12l4 25l84 68h100q5 0 9.5 -4.5t3.5 -8.5l-134 -760q-3 -14 -16 -14h-68q-5 0 -8 4t-2 10z" />
<glyph unicode="&#xba;" horiz-adv-x="428" d="M145 797l101 569q7 46 48 80.5t87 34.5h125q46 0 74 -34.5t20 -80.5l-100 -569q-7 -47 -48 -81t-87 -34h-125q-46 0 -74 34t-21 81zM264 813q-3 -11 3 -20t18 -9h69q13 0 23.5 9t13.5 20l92 530q3 12 -4 20.5t-20 8.5h-70q-12 0 -21 -8.5t-12 -20.5z" />
<glyph unicode="&#xbb;" horiz-adv-x="712" d="M104 417q-4 6 7 23l208 281l-108 280q-4 12 -2.5 17.5t5.5 6.5l5 1h146q18 0 28 -25l101 -256q13 -27 -11 -51l-190 -254q-8 -12 -17.5 -18.5t-14.5 -7.5h-5h-145zM337 417q-4 6 7 23l209 281l-109 280q-4 12 -2 17.5t6 6.5l5 1h145q19 0 29 -25l102 -256q10 -28 -10 -51 l-193 -254q-8 -12 -17 -18.5t-15 -7.5h-5h-145z" />
<glyph unicode="&#xbc;" horiz-adv-x="1196" d="M172 92q-18 0 0 27l815 1218q8 12 17.5 18.5t14.5 7.5l5 1h111q18 0 0 -27l-822 -1218q-8 -12 -17.5 -19t-14.5 -8h-5h-104zM293 702l117 668h-82q-12 0 -9 12l5 25l84 68h100q5 0 9 -4.5t3 -8.5l-133 -760q-3 -14 -16 -14h-68q-5 0 -8 4t-2 10zM674 152l12 75l315 545 q3 5 7 8t7 4h3h65q5 2 9.5 -2t3.5 -10l-97 -545h45q6 0 11 -4t4 -10l-10 -61q-4 -15 -21 -15h-45l-20 -125q-4 -12 -17 -12h-65q-6 0 -10 4t-3 8l21 125h-207q-5 0 -7 4.5t-1 10.5zM778 227h131l60 336z" />
<glyph unicode="&#xbd;" horiz-adv-x="1259" d="M172 92q-18 0 0 27l815 1218q8 12 17.5 18.5t14.5 7.5l5 1h111q18 0 0 -27l-822 -1218q-8 -12 -17.5 -19t-14.5 -8h-5h-104zM293 702l117 668h-82q-12 0 -9 12l5 25l84 68h100q5 0 9 -4.5t3 -8.5l-133 -760q-3 -14 -16 -14h-68q-5 0 -8 4t-2 10zM735 12l13 74 q14 18 37 49.5t82.5 113.5t106 148t86 129.5t42.5 83.5l12 64q2 12 -5 21.5t-19 9.5h-103q-11 0 -20 -9.5t-11 -21.5l-12 -60q0 -14 -18 -14h-64q-12 0 -12 14l12 62q7 49 47 82t88 33h115q47 0 74 -33t20 -82l-12 -66q-5 -31 -89.5 -162t-166.5 -246l-82 -116h234q5 0 9 -3 t3 -9l-10 -62q-4 -12 -17 -12h-327q-6 0 -10 4t-3 8z" />
<glyph unicode="&#xbe;" horiz-adv-x="1306" d="M238 799l12 63q0 12 16 12h66q14 0 14 -12l-12 -67q-2 -11 3 -20t15 -9h111q11 0 23.5 9.5t13.5 19.5l39 227q3 11 -5.5 20t-19.5 9h-47q-10 0 -10 12l10 61q4 15 18 15h45q11 0 22.5 8.5t12.5 21.5l35 199q3 11 -5.5 19t-19.5 8h-112q-26 0 -33 -27l-10 -63 q-5 -15 -14 -15h-68q-6 0 -10 5t-2 10l10 65q9 46 49 79.5t86 33.5h127q46 0 74.5 -34t19.5 -79l-37 -209q-5 -33 -30 -65q13 -30 8 -64l-41 -233q-7 -49 -47.5 -83t-87.5 -34h-125q-46 0 -73.5 34t-20.5 83zM297 95q-3 8 8 24l815 1218q7 12 16 18.5t14 7.5l5 1h111 q2 0 4 -1t4.5 -7t-6.5 -19l-822 -1218q-8 -12 -17 -18.5t-14 -7.5l-5 -1h-107zM786 152l13 75l315 545q3 5 7 8t7 4h2h66q5 2 9 -2t3 -10l-96 -545h45q6 0 10.5 -4t3.5 -10l-10 -61q-4 -15 -20 -15h-45l-21 -125q-4 -12 -16 -12h-66q-6 0 -9.5 4t-2.5 8l20 125h-206 q-5 0 -7.5 4.5t-1.5 10.5zM891 227h131l59 336z" />
<glyph unicode="&#xbf;" horiz-adv-x="856" d="M106 207l80 448q18 98 95.5 157.5t158.5 59.5q23 0 41 15.5t21 38.5l45 254q1 10 10.5 18t20.5 8h122q11 0 17.5 -8t5.5 -18l-51 -287q-15 -89 -89.5 -152t-162.5 -63q-23 0 -42 -15.5t-24 -37.5l-73 -416q-3 -23 10.5 -38t36.5 -15h192q22 0 40.5 15t21.5 38l24 133 q1 12 10.5 19.5t20.5 7.5h123q11 0 17 -7.5t5 -19.5l-24 -135q-15 -90 -89.5 -153.5t-164.5 -63.5h-219q-88 0 -141 63.5t-38 153.5zM571 1319l23 129q7 27 31 27h123q11 0 18 -7.5t4 -19.5l-22 -129q-1 -10 -10.5 -17.5t-20.5 -7.5h-123q-11 0 -17.5 7.5t-5.5 17.5z" />
<glyph unicode="&#xc0;" d="M54.5 8q-4.5 6 0.5 19l496 1421q3 12 10.5 19t14.5 7l6 1h170h2.5t5.5 -1.5t7 -4t5.5 -8t1.5 -13.5v-1421q0 -12 -4.5 -18.5t-9.5 -7.5l-4 -1h-144q-16 0 -16 27v215h-295l-72 -215q-3 -12 -9 -18.5t-10 -7.5l-5 -1h-139q-2 0 -4.5 1t-7 7zM356 406h256v786zM526.5 1760 q1.5 6 5.5 6l5 1h108q2 0 5.5 -0.5t10 -7t9.5 -18.5l43 -156q3 -12 -0.5 -18.5t-8.5 -6.5l-4 -1h-71l-99 182q-5 13 -3.5 19z" />
<glyph unicode="&#xc1;" horiz-adv-x="901" d="M54.5 8q-4.5 6 0.5 19l496 1421q3 12 10.5 19t14.5 7l6 1h170h2.5t5.5 -1.5t7 -4t5.5 -8t1.5 -13.5v-1421q0 -12 -4.5 -18.5t-9.5 -7.5l-4 -1h-144q-16 0 -16 27v215h-295l-72 -215q-3 -12 -9 -18.5t-10 -7.5l-5 -1h-139q-2 0 -4.5 1t-7 7zM356 406h256v786zM648 1562 q-6 6 3 23l97 156q8 12 17 18.5t14 6.5l5 1h109l6 -2q3 -8 -12 -24l-160 -182h-72z" />
<glyph unicode="&#xc2;" d="M54.5 8q-4.5 6 0.5 19l496 1421q3 12 10.5 19t14.5 7l6 1h170h2.5t5.5 -1.5t7 -4t5.5 -8t1.5 -13.5v-1421q0 -12 -4.5 -18.5t-9.5 -7.5l-4 -1h-144q-16 0 -16 27v215h-295l-72 -215q-3 -12 -9 -18.5t-10 -7.5l-5 -1h-139q-2 0 -4.5 1t-7 7zM356 406h256v786zM534 1562 q-6 6 3 23l96 156q8 12 17.5 18.5t14.5 6.5l5 1h90q2 0 5 -0.5t9 -7t8 -18.5l45 -156q3 -12 0 -18.5t-7 -6.5l-5 -1h-74l-49 92l-80 -92h-71z" />
<glyph unicode="&#xc3;" d="M54.5 8q-4.5 6 0.5 19l496 1421q3 12 10.5 19t14.5 7l6 1h170h2.5t5.5 -1.5t7 -4t5.5 -8t1.5 -13.5v-1421q0 -12 -4.5 -18.5t-9.5 -7.5l-4 -1h-144q-16 0 -16 27v215h-295l-72 -215q-3 -12 -9 -18.5t-10 -7.5l-5 -1h-139q-2 0 -4.5 1t-7 7zM356 406h256v786zM495 1562 q-5 6 5 23l114 156q7 12 16 18.5t14 6.5l5 1h45q19 0 29 -26l31 -60l96 86h72l7 -3q4 -6 -7 -23l-115 -156q-6 -12 -14.5 -18.5t-13.5 -6.5l-5 -1h-55l-49 92l-95 -92h-73z" />
<glyph unicode="&#xc4;" d="M54.5 8q-4.5 6 0.5 19l496 1421q3 12 10.5 19t14.5 7l6 1h170h2.5t5.5 -1.5t7 -4t5.5 -8t1.5 -13.5v-1421q0 -12 -4.5 -18.5t-9.5 -7.5l-4 -1h-144q-16 0 -16 27v215h-295l-72 -215q-3 -12 -9 -18.5t-10 -7.5l-5 -1h-139q-2 0 -4.5 1t-7 7zM356 406h256v786zM399 1649 q7 41 42 69.5t75 28.5q41 0 64.5 -28.5t15.5 -69.5q-6 -40 -40 -69.5t-75 -29.5q-40 0 -64 29.5t-18 69.5zM772 1649q7 41 42 69.5t75 28.5t63.5 -28.5t16.5 -69.5q-6 -40 -40.5 -69.5t-74.5 -29.5t-64 29.5t-18 69.5z" />
<glyph unicode="&#xc5;" d="M54.5 8q-4.5 6 0.5 19l480 1376q-54 57 -39 143q12 76 76 131.5t141 55.5t121 -55t32 -132q-15 -86 -92 -143v-1376q0 -12 -4.5 -18.5t-9.5 -7.5l-4 -1h-144q-16 0 -16 27v215h-295l-72 -215q-3 -12 -9 -18.5t-10 -7.5l-5 -1h-139q-2 0 -4.5 1t-7 7zM356 406h256v786z M592 1546q-7 -40 17 -64t55 -24q33 0 66 24t40 64t-18 64t-58 24q-31 0 -63 -24t-39 -64z" />
<glyph unicode="&#xc6;" horiz-adv-x="1159" d="M54.5 8q-4.5 6 0.5 19l496 1421q4 12 11.5 19t13.5 7l6 1h657q11 0 17.5 -7.5t3.5 -19.5l-21 -113q-1 -12 -9.5 -19t-19.5 -7h-434l-2 -451h283q23 0 20 -24l-18 -113q-3 -11 -12 -19t-19 -8h-254v-530h246q11 0 17 -7.5t3 -19.5l-18 -110q-7 -27 -31 -27h-379 q-16 0 -16 27v215h-295l-72 -215q-4 -12 -10 -18.5t-10 -7.5l-4 -1h-139q-2 0 -4.5 1t-7 7zM356 406h256v786z" />
<glyph unicode="&#xc7;" horiz-adv-x="901" d="M127 207l188 1061q15 90 89 152.5t163 62.5h224q89 0 141 -62t37 -153l-25 -135q-1 -12 -9.5 -19.5t-19.5 -7.5h-122q-26 0 -23 27l23 133q4 23 -8.5 38t-34.5 15h-197q-24 0 -43 -15t-23 -38l-186 -1065q-5 -22 8.5 -38t36.5 -16h205q23 0 40.5 16t22.5 38l41 233 q1 12 10.5 19.5t20.5 7.5h123q25 0 22 -27l-40 -227q-15 -90 -89.5 -153.5t-162.5 -63.5h-109l-22 -29h43q22 0 34 -14.5t9 -34.5l-27 -145q-3 -22 -20 -37t-39 -15h-86q-22 0 -34 15t-9 37l6 24q2 11 11 19t19 8h7q24 0 18 -35q-1 -6 2.5 -10t9.5 -4h45q11 0 15 14l18 111 q2 5 -1 8.5t-9 3.5h-45q-13 0 -17 -12l-2 -21h-57l6 39l55 78h-55q-88 0 -140.5 63.5t-37.5 153.5z" />
<glyph unicode="&#xc8;" horiz-adv-x="856" d="M94 27l250 1421q7 27 31 27h559q11 0 18 -7.5t4 -19.5l-20 -113q-1 -12 -10.5 -19t-20.5 -7h-411l-80 -451h338q11 0 17 -7t5 -17l-18 -113q-3 -11 -13 -19t-20 -8h-338l-92 -530h424q11 0 16 -7.5t2 -19.5l-18 -110q-7 -27 -29 -27h-571q-12 0 -19 7.5t-4 19.5z M526.5 1760q1.5 6 5.5 6l5 1h108q2 0 5.5 -0.5t9.5 -7t8 -18.5l43 -156q3 -13 0.5 -19t-7.5 -6l-4 -1h-71l-99 182q-5 13 -3.5 19z" />
<glyph unicode="&#xc9;" horiz-adv-x="856" d="M94 27l250 1421q7 27 31 27h559q11 0 18 -7.5t4 -19.5l-20 -113q-1 -12 -10.5 -19t-20.5 -7h-411l-80 -451h338q11 0 17 -7t5 -17l-18 -113q-3 -11 -13 -19t-20 -8h-338l-92 -530h424q11 0 16 -7.5t2 -19.5l-18 -110q-7 -27 -29 -27h-571q-12 0 -19 7.5t-4 19.5z M628 1562q-5 6 5 23l96 156q7 12 16 18.5t14 6.5l5 1h108l6 -2q3 -8 -12 -24l-159 -182h-72z" />
<glyph unicode="&#xca;" horiz-adv-x="856" d="M94 27l250 1421q7 27 31 27h559q11 0 18 -7.5t4 -19.5l-20 -113q-1 -12 -10.5 -19t-20.5 -7h-411l-80 -451h338q11 0 17 -7t5 -17l-18 -113q-3 -11 -13 -19t-20 -8h-338l-92 -530h424q11 0 16 -7.5t2 -19.5l-18 -110q-7 -27 -29 -27h-571q-12 0 -19 7.5t-4 19.5z M521 1562q-6 6 3 23l99 156q7 12 15.5 18.5t13.5 6.5l5 1h91q2 0 5 -0.5t9.5 -7t9.5 -18.5l43 -156q3 -12 0 -18.5t-7 -6.5l-5 -1h-74l-47 92l-82 -92h-72z" />
<glyph unicode="&#xcb;" horiz-adv-x="858" d="M94 27l250 1421q7 27 31 27h559q11 0 18 -7.5t4 -19.5l-20 -113q-1 -12 -10.5 -19t-20.5 -7h-411l-80 -451h338q11 0 17 -7t5 -17l-18 -113q-3 -11 -13 -19t-20 -8h-338l-92 -530h424q11 0 16 -7.5t2 -19.5l-18 -110q-7 -27 -29 -27h-571q-12 0 -19 7.5t-4 19.5z M399 1649q7 41 42 69.5t75 28.5q41 0 64.5 -28.5t15.5 -69.5q-6 -40 -40 -69.5t-75 -29.5q-40 0 -64 29.5t-18 69.5zM772 1649q7 41 42 69.5t75 28.5t63.5 -28.5t16.5 -69.5q-6 -40 -40.5 -69.5t-74.5 -29.5t-64 29.5t-18 69.5z" />
<glyph unicode="&#xcc;" horiz-adv-x="428" d="M94 27l250 1421q7 27 29 27h123q12 0 18.5 -7.5t3.5 -19.5l-250 -1421q-7 -27 -30 -27h-123q-11 0 -17.5 7.5t-3.5 19.5zM299.5 1760q1.5 6 5.5 6l4 1h111q2 0 5 -0.5t9 -7t8 -18.5l43 -156q3 -13 1 -19t-6 -6l-5 -1h-74l-98 182q-5 13 -3.5 19z" />
<glyph unicode="&#xcd;" horiz-adv-x="428" d="M94 27l250 1421q7 27 31 27h123q11 0 17 -7.5t3 -19.5l-250 -1421q-7 -27 -28 -27h-123q-12 0 -19 7.5t-4 19.5zM419 1562q-6 6 3 23l96 156q8 12 17 18.5t15 6.5l5 1h109l6 -2q2 -8 -13 -24l-159 -182h-72z" />
<glyph unicode="&#xce;" horiz-adv-x="428" d="M94 27l250 1421q7 27 31 27h123q11 0 18 -7.5t4 -19.5l-250 -1421q-7 -27 -30 -27h-123q-11 0 -18.5 8t-4.5 19zM308 1562q-6 6 3 23l97 156q8 12 17 18.5t14 6.5l5 1h91q2 0 5 -0.5t9 -7t8 -18.5l45 -156q3 -12 0 -18.5t-8 -6.5l-4 -1h-74l-49 92l-80 -92h-72z" />
<glyph unicode="&#xcf;" horiz-adv-x="428" d="M94 27l250 1421q7 27 29 27h125q11 0 17 -7.5t3 -19.5l-250 -1421q-7 -27 -28 -27h-125q-11 0 -17.5 7.5t-3.5 19.5zM190 1649q7 41 42 69.5t77 28.5q40 0 62.5 -28.5t15.5 -69.5q-6 -40 -39.5 -69.5t-73.5 -29.5q-41 0 -65.5 29.5t-18.5 69.5zM545 1649q7 41 42 69.5 t75 28.5t63 -28.5t16 -69.5q-6 -40 -40 -69.5t-74 -29.5t-64 29.5t-18 69.5z" />
<glyph unicode="&#xd0;" horiz-adv-x="917" d="M94 27l107 608h-66q-12 0 -18 8t-4 19l20 112q2 11 10.5 19t20.5 8h65l115 647q7 27 31 27h422q88 0 140.5 -63t37.5 -152l-184 -1045q-15 -89 -89.5 -152t-162.5 -63h-422q-12 0 -19 7.5t-4 19.5zM293 164h260q23 0 40.5 15.5t20.5 37.5l185 1040q3 22 -9.5 38t-35.5 16 h-260l-91 -510h86q10 0 16.5 -8t4.5 -19l-21 -112q-2 -11 -10 -19t-18 -8h-86z" />
<glyph unicode="&#xd1;" horiz-adv-x="931" d="M94 27l250 1421q7 27 31 27h121q2 0 5.5 -0.5t9.5 -7.5t7 -19l170 -903l160 903q7 27 29 27h124q11 0 17.5 -7.5t3.5 -19.5l-250 -1421q-7 -27 -29 -27h-112q-2 0 -6 0.5t-10.5 7.5t-8.5 19l-180 899l-158 -899q-7 -27 -28 -27h-123q-12 0 -19 7.5t-4 19.5zM513 1562 q-5 6 5 23l115 156q7 12 16 18.5t14 6.5l5 1h45q18 0 28 -26l31 -60l96 86h72l7 -3q4 -6 -7 -23l-115 -156q-6 -12 -14 -18.5t-13 -6.5l-5 -1h-56l-49 92l-94 -92h-74z" />
<glyph unicode="&#xd2;" horiz-adv-x="925" d="M127 207l188 1061q15 90 89 152.5t163 62.5h236q90 0 142.5 -62.5t37.5 -152.5l-188 -1061q-15 -90 -89.5 -153.5t-164.5 -63.5h-236q-88 0 -140.5 63.5t-37.5 153.5zM301 201q-5 -22 8.5 -38t36.5 -16h209q23 0 40.5 16t22.5 38l187 1065q4 23 -8 38t-35 15h-209 q-24 0 -43 -15t-23 -38zM547.5 1760q1.5 6 5.5 6l4 1h109q2 0 5 -0.5t9 -7t8 -18.5l43 -156q3 -13 1 -19t-6 -6l-5 -1h-72l-98 182q-5 13 -3.5 19z" />
<glyph unicode="&#xd3;" horiz-adv-x="925" d="M127 207l188 1061q15 90 89 152.5t163 62.5h236q90 0 142.5 -62.5t37.5 -152.5l-188 -1061q-15 -90 -89.5 -153.5t-164.5 -63.5h-236q-88 0 -140.5 63.5t-37.5 153.5zM301 201q-5 -22 8.5 -38t36.5 -16h209q23 0 40.5 16t22.5 38l187 1065q4 23 -8 38t-35 15h-209 q-24 0 -43 -15t-23 -38zM669 1562q-5 6 5 23l96 156q7 12 16 18.5t14 6.5l5 1h108l6 -2q3 -8 -12 -24l-159 -182h-72z" />
<glyph unicode="&#xd4;" horiz-adv-x="925" d="M127 207l188 1061q15 90 89 152.5t163 62.5h236q90 0 142.5 -62.5t37.5 -152.5l-188 -1061q-15 -90 -89.5 -153.5t-164.5 -63.5h-236q-88 0 -140.5 63.5t-37.5 153.5zM301 201q-5 -22 8.5 -38t36.5 -16h209q23 0 40.5 16t22.5 38l187 1065q4 23 -8 38t-35 15h-209 q-24 0 -43 -15t-23 -38zM552 1562q-6 6 3 23l96 156q8 12 17.5 18.5t14.5 6.5l5 1h90q2 0 5.5 -0.5t9.5 -7t8 -18.5l43 -156q3 -13 1 -19t-7 -6l-4 -1h-74l-49 92l-80 -92h-72z" />
<glyph unicode="&#xd5;" horiz-adv-x="925" d="M127 207l188 1061q15 90 89 152.5t163 62.5h236q90 0 142.5 -62.5t37.5 -152.5l-188 -1061q-15 -90 -89.5 -153.5t-164.5 -63.5h-236q-88 0 -140.5 63.5t-37.5 153.5zM301 201q-5 -22 8.5 -38t36.5 -16h209q23 0 40.5 16t22.5 38l187 1065q4 23 -8 38t-35 15h-209 q-24 0 -43 -15t-23 -38zM513 1562q-6 6 3 23l115 156q8 12 17.5 18.5t14.5 6.5l5 1h43q18 0 28 -26l31 -60l96 86h72l7 -3q5 -6 -5 -23l-117 -156q-6 -12 -14 -18.5t-13 -6.5l-5 -1h-56l-49 92l-94 -92h-72z" />
<glyph unicode="&#xd6;" horiz-adv-x="937" d="M127 207l188 1061q15 90 89 152.5t163 62.5h236q90 0 142.5 -62.5t37.5 -152.5l-188 -1061q-15 -90 -89.5 -153.5t-164.5 -63.5h-236q-88 0 -140.5 63.5t-37.5 153.5zM301 201q-5 -22 8.5 -38t36.5 -16h209q23 0 40.5 16t22.5 38l187 1065q4 23 -8 38t-35 15h-209 q-24 0 -43 -15t-23 -38zM428 1649q7 41 43 69.5t76 28.5t63.5 -28.5t16.5 -69.5q-6 -40 -40.5 -69.5t-74.5 -29.5t-65 29.5t-19 69.5zM801 1649q7 41 43 69.5t76 28.5t62 -28.5t15 -69.5q-6 -40 -39 -69.5t-73 -29.5t-65 29.5t-19 69.5z" />
<glyph unicode="&#xd7;" horiz-adv-x="837" d="M115 372q-4 6 10 23l260 336l-141 330q-6 13 -4 19t7 6l5 1h162q18 1 28 -26l82 -201l156 201q7 12 16 18.5t14 6.5l5 1h162l9 -3q5 -6 -7 -23l-263 -330l148 -336q3 -13 0.5 -19t-7.5 -6l-5 -1h-156q-15 -1 -27 26l-90 209l-162 -209q-10 -12 -19 -18.5t-13 -6.5l-4 -1 h-158z" />
<glyph unicode="&#xd8;" horiz-adv-x="935" d="M106 -89q-5 6 5 23l55 121q-49 67 -35 152l188 1061q15 90 89 152.5t163 62.5h230h24l27 57q7 12 16 19t14 7l5 1h110q2 0 4 -1t4.5 -7t-6.5 -19l-55 -121q49 -66 35 -151l-188 -1061q-15 -90 -89.5 -153.5t-162.5 -63.5h-230q-4 0 -14 1t-14 1l-27 -58q-8 -12 -17 -18.5 t-15 -7.5h-5h-104zM348 453l402 866h-193q-23 0 -42 -15t-23 -38zM350 147h203q22 0 40 16t23 38l146 827z" />
<glyph unicode="&#xd9;" horiz-adv-x="929" d="M127 207l219 1241q7 27 31 27h123q11 0 17 -7.5t3 -19.5l-219 -1247q-5 -22 8.5 -38t36.5 -16h205q23 0 40.5 16t22.5 38l220 1247q7 27 30 27h123q12 0 19 -7.5t4 -19.5l-219 -1241q-15 -90 -89.5 -153.5t-162.5 -63.5h-234q-88 0 -140.5 63.5t-37.5 153.5zM549.5 1760 q1.5 6 5.5 6l4 1h109q2 0 5 -0.5t9 -7t8 -18.5l43 -156q3 -13 1 -19t-6 -6l-5 -1h-72l-98 182q-5 13 -3.5 19z" />
<glyph unicode="&#xda;" horiz-adv-x="929" d="M127 207l219 1241q7 27 31 27h123q11 0 17 -7.5t3 -19.5l-219 -1247q-5 -22 8.5 -38t36.5 -16h205q23 0 40.5 16t22.5 38l220 1247q7 27 30 27h123q12 0 19 -7.5t4 -19.5l-219 -1241q-15 -90 -89.5 -153.5t-162.5 -63.5h-234q-88 0 -140.5 63.5t-37.5 153.5zM663 1562 q-5 6 5 23l96 156q7 12 16 18.5t14 6.5l5 1h110l6 -2q3 -8 -12 -24l-160 -182h-73z" />
<glyph unicode="&#xdb;" horiz-adv-x="929" d="M127 207l219 1241q7 27 31 27h123q11 0 17 -7.5t3 -19.5l-219 -1247q-5 -22 8.5 -38t36.5 -16h205q23 0 40.5 16t22.5 38l220 1247q7 27 30 27h123q12 0 19 -7.5t4 -19.5l-219 -1241q-15 -90 -89.5 -153.5t-162.5 -63.5h-234q-88 0 -140.5 63.5t-37.5 153.5zM552 1562 q-5 6 5 23l96 156q7 12 16 18.5t14 6.5l5 1h92q2 0 5.5 -0.5t9.5 -7t8 -18.5l43 -156q3 -13 1 -19t-7 -6l-4 -1h-74l-49 92l-80 -92h-74z" />
<glyph unicode="&#xdc;" horiz-adv-x="929" d="M127 207l219 1241q7 27 31 27h123q11 0 17 -7.5t3 -19.5l-219 -1247q-5 -22 8.5 -38t36.5 -16h205q23 0 40.5 16t22.5 38l220 1247q7 27 30 27h123q12 0 19 -7.5t4 -19.5l-219 -1241q-15 -90 -89.5 -153.5t-162.5 -63.5h-234q-88 0 -140.5 63.5t-37.5 153.5zM426 1649 q7 41 43 69.5t76 28.5t63.5 -28.5t16.5 -69.5q-6 -40 -40.5 -69.5t-74.5 -29.5t-65 29.5t-19 69.5zM799 1649q7 41 43 69.5t76 28.5t63 -28.5t16 -69.5q-6 -40 -40 -69.5t-74 -29.5t-65 29.5t-19 69.5z" />
<glyph unicode="&#xdd;" horiz-adv-x="854" d="M289 1448q-2 12 1.5 19t7.5 7l5 1h139q2 0 5 -0.5t8.5 -7.5t5.5 -19l65 -649l293 649q4 12 11.5 19t12.5 7l5 1h137q2 0 4.5 -1t6 -7t-2.5 -19l-440 -987l-76 -434q-7 -27 -31 -27h-120q-11 0 -18.5 8t-4.5 19l76 434zM636 1562q-6 6 3 23l96 156q8 12 17.5 18.5 t14.5 6.5l5 1h109l6 -2q2 -8 -13 -24l-159 -182h-72z" />
<glyph unicode="&#xde;" horiz-adv-x="907" d="M94 27l250 1421q7 27 31 27h123q11 0 17 -7.5t3 -19.5l-47 -268h274q88 0 141 -63t38 -152l-80 -453q-17 -89 -91.5 -152t-162.5 -63h-275l-47 -270q-7 -27 -28 -27h-123q-12 0 -19 7.5t-4 19.5zM342 453h260q23 0 42 15.5t22 37.5l79 457q5 22 -7.5 37.5t-35.5 15.5 h-260z" />
<glyph unicode="&#xdf;" horiz-adv-x="897" d="M94 27l217 1233q15 89 89.5 152t162.5 63h383q11 0 17.5 -7.5t3.5 -19.5l-23 -129l-215 -506q68 -17 103.5 -75t23.5 -134l-72 -397q-15 -90 -89.5 -153.5t-162.5 -63.5h-36q-11 0 -17.5 8t-5.5 18l19 105q1 12 10 19t20 7h25q22 0 40 16t23 38l70 401q4 23 -8.5 38 t-34.5 15h-80q-10 0 -17 8t-5 19l20 119l215 510h-221q-23 0 -42 -16t-22 -38l-217 -1230q-7 -27 -28 -27h-123q-12 0 -19 7.5t-4 19.5z" />
<glyph unicode="&#xe0;" d="M54.5 8q-4.5 6 0.5 19l496 1421q3 12 10.5 19t14.5 7l6 1h170h2.5t5.5 -1.5t7 -4t5.5 -8t1.5 -13.5v-1421q0 -12 -4.5 -18.5t-9.5 -7.5l-4 -1h-144q-16 0 -16 27v215h-295l-72 -215q-3 -12 -9 -18.5t-10 -7.5l-5 -1h-139q-2 0 -4.5 1t-7 7zM356 406h256v786zM526.5 1760 q1.5 6 5.5 6l5 1h108q2 0 5.5 -0.5t10 -7t9.5 -18.5l43 -156q3 -12 -0.5 -18.5t-8.5 -6.5l-4 -1h-71l-99 182q-5 13 -3.5 19z" />
<glyph unicode="&#xe1;" d="M54.5 8q-4.5 6 0.5 19l496 1421q3 12 10.5 19t14.5 7l6 1h170h2.5t5.5 -1.5t7 -4t5.5 -8t1.5 -13.5v-1421q0 -12 -4.5 -18.5t-9.5 -7.5l-4 -1h-144q-16 0 -16 27v215h-295l-72 -215q-3 -12 -9 -18.5t-10 -7.5l-5 -1h-139q-2 0 -4.5 1t-7 7zM356 406h256v786zM648 1562 q-6 6 3 23l97 156q8 12 17 18.5t14 6.5l5 1h109l6 -2q3 -8 -12 -24l-160 -182h-72z" />
<glyph unicode="&#xe2;" d="M54.5 8q-4.5 6 0.5 19l496 1421q3 12 10.5 19t14.5 7l6 1h170h2.5t5.5 -1.5t7 -4t5.5 -8t1.5 -13.5v-1421q0 -12 -4.5 -18.5t-9.5 -7.5l-4 -1h-144q-16 0 -16 27v215h-295l-72 -215q-3 -12 -9 -18.5t-10 -7.5l-5 -1h-139q-2 0 -4.5 1t-7 7zM356 406h256v786zM534 1562 q-6 6 3 23l96 156q8 12 17.5 18.5t14.5 6.5l5 1h90q2 0 5 -0.5t9 -7t8 -18.5l45 -156q3 -12 0 -18.5t-7 -6.5l-5 -1h-74l-49 92l-80 -92h-71z" />
<glyph unicode="&#xe3;" d="M54.5 8q-4.5 6 0.5 19l496 1421q3 12 10.5 19t14.5 7l6 1h170h2.5t5.5 -1.5t7 -4t5.5 -8t1.5 -13.5v-1421q0 -12 -4.5 -18.5t-9.5 -7.5l-4 -1h-144q-16 0 -16 27v215h-295l-72 -215q-3 -12 -9 -18.5t-10 -7.5l-5 -1h-139q-2 0 -4.5 1t-7 7zM356 406h256v786zM495 1562 q-5 6 5 23l114 156q7 12 16 18.5t14 6.5l5 1h45q19 0 29 -26l31 -60l96 86h72l7 -3q4 -6 -7 -23l-115 -156q-6 -12 -14.5 -18.5t-13.5 -6.5l-5 -1h-55l-49 92l-95 -92h-73z" />
<glyph unicode="&#xe4;" d="M54.5 8q-4.5 6 0.5 19l496 1421q3 12 10.5 19t14.5 7l6 1h170h2.5t5.5 -1.5t7 -4t5.5 -8t1.5 -13.5v-1421q0 -12 -4.5 -18.5t-9.5 -7.5l-4 -1h-144q-16 0 -16 27v215h-295l-72 -215q-3 -12 -9 -18.5t-10 -7.5l-5 -1h-139q-2 0 -4.5 1t-7 7zM356 406h256v786zM399 1649 q7 41 42 69.5t75 28.5q41 0 64.5 -28.5t15.5 -69.5q-6 -40 -40 -69.5t-75 -29.5q-40 0 -64 29.5t-18 69.5zM772 1649q7 41 42 69.5t75 28.5t63.5 -28.5t16.5 -69.5q-6 -40 -40.5 -69.5t-74.5 -29.5t-64 29.5t-18 69.5z" />
<glyph unicode="&#xe5;" d="M54.5 8q-4.5 6 0.5 19l480 1376q-54 57 -39 143q12 76 76 131.5t141 55.5t121 -55t32 -132q-15 -86 -92 -143v-1376q0 -12 -4.5 -18.5t-9.5 -7.5l-4 -1h-144q-16 0 -16 27v215h-295l-72 -215q-3 -12 -9 -18.5t-10 -7.5l-5 -1h-139q-2 0 -4.5 1t-7 7zM356 406h256v786z M592 1546q-7 -40 17 -64t55 -24q33 0 66 24t40 64t-18 64t-58 24q-31 0 -63 -24t-39 -64z" />
<glyph unicode="&#xe6;" horiz-adv-x="1159" d="M54.5 8q-4.5 6 0.5 19l496 1421q4 12 11.5 19t13.5 7l6 1h657q11 0 17.5 -7.5t3.5 -19.5l-21 -113q-1 -12 -9.5 -19t-19.5 -7h-434l-2 -451h283q23 0 20 -24l-18 -113q-3 -11 -12 -19t-19 -8h-254v-530h246q11 0 17 -7.5t3 -19.5l-18 -110q-7 -27 -31 -27h-379 q-16 0 -16 27v215h-295l-72 -215q-4 -12 -10 -18.5t-10 -7.5l-4 -1h-139q-2 0 -4.5 1t-7 7zM356 406h256v786z" />
<glyph unicode="&#xe7;" horiz-adv-x="901" d="M127 207l188 1061q15 90 89 152.5t163 62.5h224q89 0 141 -62t37 -153l-25 -135q-1 -12 -9.5 -19.5t-19.5 -7.5h-122q-26 0 -23 27l23 133q4 23 -8.5 38t-34.5 15h-197q-24 0 -43 -15t-23 -38l-186 -1065q-5 -22 8.5 -38t36.5 -16h205q23 0 40.5 16t22.5 38l41 233 q1 12 10.5 19.5t20.5 7.5h123q25 0 22 -27l-40 -227q-15 -90 -89.5 -153.5t-162.5 -63.5h-109l-22 -29h43q22 0 34 -14.5t9 -34.5l-27 -145q-3 -22 -20 -37t-39 -15h-86q-22 0 -34 15t-9 37l6 24q2 11 11 19t19 8h7q24 0 18 -35q-1 -6 2.5 -10t9.5 -4h45q11 0 15 14l18 111 q2 5 -1 8.5t-9 3.5h-45q-13 0 -17 -12l-2 -21h-57l6 39l55 78h-55q-88 0 -140.5 63.5t-37.5 153.5z" />
<glyph unicode="&#xe8;" horiz-adv-x="856" d="M94 27l250 1421q7 27 31 27h559q11 0 18 -7.5t4 -19.5l-20 -113q-1 -12 -10.5 -19t-20.5 -7h-411l-80 -451h338q11 0 17 -7t5 -17l-18 -113q-3 -11 -13 -19t-20 -8h-338l-92 -530h424q11 0 16 -7.5t2 -19.5l-18 -110q-7 -27 -29 -27h-571q-12 0 -19 7.5t-4 19.5z M526.5 1760q1.5 6 5.5 6l5 1h108q2 0 5.5 -0.5t9.5 -7t8 -18.5l43 -156q3 -13 0.5 -19t-7.5 -6l-4 -1h-71l-99 182q-5 13 -3.5 19z" />
<glyph unicode="&#xe9;" horiz-adv-x="856" d="M94 27l250 1421q7 27 31 27h559q11 0 18 -7.5t4 -19.5l-20 -113q-1 -12 -10.5 -19t-20.5 -7h-411l-80 -451h338q11 0 17 -7t5 -17l-18 -113q-3 -11 -13 -19t-20 -8h-338l-92 -530h424q11 0 16 -7.5t2 -19.5l-18 -110q-7 -27 -29 -27h-571q-12 0 -19 7.5t-4 19.5z M628 1562q-5 6 5 23l96 156q7 12 16 18.5t14 6.5l5 1h108l6 -2q3 -8 -12 -24l-159 -182h-72z" />
<glyph unicode="&#xea;" horiz-adv-x="856" d="M94 27l250 1421q7 27 31 27h559q11 0 18 -7.5t4 -19.5l-20 -113q-1 -12 -10.5 -19t-20.5 -7h-411l-80 -451h338q11 0 17 -7t5 -17l-18 -113q-3 -11 -13 -19t-20 -8h-338l-92 -530h424q11 0 16 -7.5t2 -19.5l-18 -110q-7 -27 -29 -27h-571q-12 0 -19 7.5t-4 19.5z M521 1562q-6 6 3 23l99 156q7 12 15.5 18.5t13.5 6.5l5 1h91q2 0 5 -0.5t9.5 -7t9.5 -18.5l43 -156q3 -12 0 -18.5t-7 -6.5l-5 -1h-74l-47 92l-82 -92h-72z" />
<glyph unicode="&#xeb;" horiz-adv-x="858" d="M94 27l250 1421q7 27 31 27h559q11 0 18 -7.5t4 -19.5l-20 -113q-1 -12 -10.5 -19t-20.5 -7h-411l-80 -451h338q11 0 17 -7t5 -17l-18 -113q-3 -11 -13 -19t-20 -8h-338l-92 -530h424q11 0 16 -7.5t2 -19.5l-18 -110q-7 -27 -29 -27h-571q-12 0 -19 7.5t-4 19.5z M399 1649q7 41 42 69.5t75 28.5q41 0 64.5 -28.5t15.5 -69.5q-6 -40 -40 -69.5t-75 -29.5q-40 0 -64 29.5t-18 69.5zM772 1649q7 41 42 69.5t75 28.5t63.5 -28.5t16.5 -69.5q-6 -40 -40.5 -69.5t-74.5 -29.5t-64 29.5t-18 69.5z" />
<glyph unicode="&#xec;" horiz-adv-x="428" d="M94 27l250 1421q7 27 29 27h123q12 0 18.5 -7.5t3.5 -19.5l-250 -1421q-7 -27 -30 -27h-123q-11 0 -17.5 7.5t-3.5 19.5zM299.5 1760q1.5 6 5.5 6l4 1h111q2 0 5 -0.5t9 -7t8 -18.5l43 -156q3 -13 1 -19t-6 -6l-5 -1h-74l-98 182q-5 13 -3.5 19z" />
<glyph unicode="&#xed;" horiz-adv-x="428" d="M94 27l250 1421q7 27 31 27h123q11 0 17 -7.5t3 -19.5l-250 -1421q-7 -27 -28 -27h-123q-12 0 -19 7.5t-4 19.5zM419 1562q-6 6 3 23l96 156q8 12 17 18.5t15 6.5l5 1h109l6 -2q2 -8 -13 -24l-159 -182h-72z" />
<glyph unicode="&#xee;" horiz-adv-x="428" d="M94 27l250 1421q7 27 31 27h123q11 0 18 -7.5t4 -19.5l-250 -1421q-7 -27 -30 -27h-123q-11 0 -18.5 8t-4.5 19zM308 1562q-6 6 3 23l97 156q8 12 17 18.5t14 6.5l5 1h91q2 0 5 -0.5t9 -7t8 -18.5l45 -156q3 -12 0 -18.5t-8 -6.5l-4 -1h-74l-49 92l-80 -92h-72z" />
<glyph unicode="&#xef;" horiz-adv-x="428" d="M94 27l250 1421q7 27 29 27h125q11 0 17 -7.5t3 -19.5l-250 -1421q-7 -27 -28 -27h-125q-11 0 -17.5 7.5t-3.5 19.5zM190 1649q7 41 42 69.5t77 28.5q40 0 62.5 -28.5t15.5 -69.5q-6 -40 -39.5 -69.5t-73.5 -29.5q-41 0 -65.5 29.5t-18.5 69.5zM545 1649q7 41 42 69.5 t75 28.5t63 -28.5t16 -69.5q-6 -40 -40 -69.5t-74 -29.5t-64 29.5t-18 69.5z" />
<glyph unicode="&#xf0;" horiz-adv-x="917" d="M94 27l107 608h-66q-12 0 -18 8t-4 19l20 112q2 11 10.5 19t20.5 8h65l115 647q7 27 31 27h422q88 0 140.5 -63t37.5 -152l-184 -1045q-15 -89 -89.5 -152t-162.5 -63h-422q-12 0 -19 7.5t-4 19.5zM293 164h260q23 0 40.5 15.5t20.5 37.5l185 1040q3 22 -9.5 38t-35.5 16 h-260l-91 -510h86q10 0 16.5 -8t4.5 -19l-21 -112q-2 -11 -10 -19t-18 -8h-86z" />
<glyph unicode="&#xf1;" horiz-adv-x="931" d="M94 27l250 1421q7 27 31 27h121q2 0 5.5 -0.5t9.5 -7.5t7 -19l170 -903l160 903q7 27 29 27h124q11 0 17.5 -7.5t3.5 -19.5l-250 -1421q-7 -27 -29 -27h-112q-2 0 -6 0.5t-10.5 7.5t-8.5 19l-180 899l-158 -899q-7 -27 -28 -27h-123q-12 0 -19 7.5t-4 19.5zM513 1562 q-5 6 5 23l115 156q7 12 16 18.5t14 6.5l5 1h45q18 0 28 -26l31 -60l96 86h72l7 -3q4 -6 -7 -23l-115 -156q-6 -12 -14 -18.5t-13 -6.5l-5 -1h-56l-49 92l-94 -92h-74z" />
<glyph unicode="&#xf2;" horiz-adv-x="925" d="M127 207l188 1061q15 90 89 152.5t163 62.5h236q90 0 142.5 -62.5t37.5 -152.5l-188 -1061q-15 -90 -89.5 -153.5t-164.5 -63.5h-236q-88 0 -140.5 63.5t-37.5 153.5zM301 201q-5 -22 8.5 -38t36.5 -16h209q23 0 40.5 16t22.5 38l187 1065q4 23 -8 38t-35 15h-209 q-24 0 -43 -15t-23 -38zM547.5 1760q1.5 6 5.5 6l4 1h109q2 0 5 -0.5t9 -7t8 -18.5l43 -156q3 -13 1 -19t-6 -6l-5 -1h-72l-98 182q-5 13 -3.5 19z" />
<glyph unicode="&#xf3;" horiz-adv-x="925" d="M127 207l188 1061q15 90 89 152.5t163 62.5h236q90 0 142.5 -62.5t37.5 -152.5l-188 -1061q-15 -90 -89.5 -153.5t-164.5 -63.5h-236q-88 0 -140.5 63.5t-37.5 153.5zM301 201q-5 -22 8.5 -38t36.5 -16h209q23 0 40.5 16t22.5 38l187 1065q4 23 -8 38t-35 15h-209 q-24 0 -43 -15t-23 -38zM669 1562q-5 6 5 23l96 156q7 12 16 18.5t14 6.5l5 1h108l6 -2q3 -8 -12 -24l-159 -182h-72z" />
<glyph unicode="&#xf4;" horiz-adv-x="925" d="M127 207l188 1061q15 90 89 152.5t163 62.5h236q90 0 142.5 -62.5t37.5 -152.5l-188 -1061q-15 -90 -89.5 -153.5t-164.5 -63.5h-236q-88 0 -140.5 63.5t-37.5 153.5zM301 201q-5 -22 8.5 -38t36.5 -16h209q23 0 40.5 16t22.5 38l187 1065q4 23 -8 38t-35 15h-209 q-24 0 -43 -15t-23 -38zM552 1562q-6 6 3 23l96 156q8 12 17.5 18.5t14.5 6.5l5 1h90q2 0 5.5 -0.5t9.5 -7t8 -18.5l43 -156q3 -13 1 -19t-7 -6l-4 -1h-74l-49 92l-80 -92h-72z" />
<glyph unicode="&#xf5;" horiz-adv-x="925" d="M127 207l188 1061q15 90 89 152.5t163 62.5h236q90 0 142.5 -62.5t37.5 -152.5l-188 -1061q-15 -90 -89.5 -153.5t-164.5 -63.5h-236q-88 0 -140.5 63.5t-37.5 153.5zM301 201q-5 -22 8.5 -38t36.5 -16h209q23 0 40.5 16t22.5 38l187 1065q4 23 -8 38t-35 15h-209 q-24 0 -43 -15t-23 -38zM513 1562q-6 6 3 23l115 156q8 12 17.5 18.5t14.5 6.5l5 1h43q18 0 28 -26l31 -60l96 86h72l7 -3q5 -6 -5 -23l-117 -156q-6 -12 -14 -18.5t-13 -6.5l-5 -1h-56l-49 92l-94 -92h-72z" />
<glyph unicode="&#xf6;" horiz-adv-x="937" d="M127 207l188 1061q15 90 89 152.5t163 62.5h236q90 0 142.5 -62.5t37.5 -152.5l-188 -1061q-15 -90 -89.5 -153.5t-164.5 -63.5h-236q-88 0 -140.5 63.5t-37.5 153.5zM301 201q-5 -22 8.5 -38t36.5 -16h209q23 0 40.5 16t22.5 38l187 1065q4 23 -8 38t-35 15h-209 q-24 0 -43 -15t-23 -38zM428 1649q7 41 43 69.5t76 28.5t63.5 -28.5t16.5 -69.5q-6 -40 -40.5 -69.5t-74.5 -29.5t-65 29.5t-19 69.5zM801 1649q7 41 43 69.5t76 28.5t62 -28.5t15 -69.5q-6 -40 -39 -69.5t-73 -29.5t-65 29.5t-19 69.5z" />
<glyph unicode="&#xf7;" horiz-adv-x="1015" d="M197 662l20 112q2 11 10.5 19t20.5 8h715q10 0 16 -8t4 -19l-20 -112q-2 -11 -10.5 -19t-18.5 -8h-715q-12 0 -18 8t-4 19zM436 457q7 44 44.5 75t82.5 31q44 0 70 -31t18 -75t-45.5 -76.5t-81.5 -32.5t-70 32.5t-18 76.5zM528 983q8 43 45.5 75t81.5 32t70 -32t18 -75 q-8 -44 -44.5 -76.5t-80.5 -32.5t-71 32.5t-19 76.5z" />
<glyph unicode="&#xf8;" horiz-adv-x="935" d="M106 -89q-5 6 5 23l55 121q-49 67 -35 152l188 1061q15 90 89 152.5t163 62.5h230h24l27 57q7 12 16 19t14 7l5 1h110q2 0 4 -1t4.5 -7t-6.5 -19l-55 -121q49 -66 35 -151l-188 -1061q-15 -90 -89.5 -153.5t-162.5 -63.5h-230q-4 0 -14 1t-14 1l-27 -58q-8 -12 -17 -18.5 t-15 -7.5h-5h-104zM348 453l402 866h-193q-23 0 -42 -15t-23 -38zM350 147h203q22 0 40 16t23 38l146 827z" />
<glyph unicode="&#xf9;" horiz-adv-x="929" d="M127 207l219 1241q7 27 31 27h123q11 0 17 -7.5t3 -19.5l-219 -1247q-5 -22 8.5 -38t36.5 -16h205q23 0 40.5 16t22.5 38l220 1247q7 27 30 27h123q12 0 19 -7.5t4 -19.5l-219 -1241q-15 -90 -89.5 -153.5t-162.5 -63.5h-234q-88 0 -140.5 63.5t-37.5 153.5zM549.5 1760 q1.5 6 5.5 6l4 1h109q2 0 5 -0.5t9 -7t8 -18.5l43 -156q3 -13 1 -19t-6 -6l-5 -1h-72l-98 182q-5 13 -3.5 19z" />
<glyph unicode="&#xfa;" horiz-adv-x="929" d="M127 207l219 1241q7 27 31 27h123q11 0 17 -7.5t3 -19.5l-219 -1247q-5 -22 8.5 -38t36.5 -16h205q23 0 40.5 16t22.5 38l220 1247q7 27 30 27h123q12 0 19 -7.5t4 -19.5l-219 -1241q-15 -90 -89.5 -153.5t-162.5 -63.5h-234q-88 0 -140.5 63.5t-37.5 153.5zM663 1562 q-5 6 5 23l96 156q7 12 16 18.5t14 6.5l5 1h110l6 -2q3 -8 -12 -24l-160 -182h-73z" />
<glyph unicode="&#xfb;" horiz-adv-x="929" d="M127 207l219 1241q7 27 31 27h123q11 0 17 -7.5t3 -19.5l-219 -1247q-5 -22 8.5 -38t36.5 -16h205q23 0 40.5 16t22.5 38l220 1247q7 27 30 27h123q12 0 19 -7.5t4 -19.5l-219 -1241q-15 -90 -89.5 -153.5t-162.5 -63.5h-234q-88 0 -140.5 63.5t-37.5 153.5zM552 1562 q-5 6 5 23l96 156q7 12 16 18.5t14 6.5l5 1h92q2 0 5.5 -0.5t9.5 -7t8 -18.5l43 -156q3 -13 1 -19t-7 -6l-4 -1h-74l-49 92l-80 -92h-74z" />
<glyph unicode="&#xfc;" horiz-adv-x="929" d="M127 207l219 1241q7 27 31 27h123q11 0 17 -7.5t3 -19.5l-219 -1247q-5 -22 8.5 -38t36.5 -16h205q23 0 40.5 16t22.5 38l220 1247q7 27 30 27h123q12 0 19 -7.5t4 -19.5l-219 -1241q-15 -90 -89.5 -153.5t-162.5 -63.5h-234q-88 0 -140.5 63.5t-37.5 153.5zM426 1649 q7 41 43 69.5t76 28.5t63.5 -28.5t16.5 -69.5q-6 -40 -40.5 -69.5t-74.5 -29.5t-65 29.5t-19 69.5zM799 1649q7 41 43 69.5t76 28.5t63 -28.5t16 -69.5q-6 -40 -40 -69.5t-74 -29.5t-65 29.5t-19 69.5z" />
<glyph unicode="&#xfd;" horiz-adv-x="854" d="M289 1448q-2 12 1.5 19t7.5 7l5 1h139q2 0 5 -0.5t8.5 -7.5t5.5 -19l65 -649l293 649q4 12 11.5 19t12.5 7l5 1h137q2 0 4.5 -1t6 -7t-2.5 -19l-440 -987l-76 -434q-7 -27 -31 -27h-120q-11 0 -18.5 8t-4.5 19l76 434zM636 1562q-6 6 3 23l96 156q8 12 17.5 18.5 t14.5 6.5l5 1h109l6 -2q2 -8 -13 -24l-159 -182h-72z" />
<glyph unicode="&#xfe;" horiz-adv-x="907" d="M94 27l250 1421q7 27 31 27h123q11 0 17 -7.5t3 -19.5l-47 -268h274q88 0 141 -63t38 -152l-80 -453q-17 -89 -91.5 -152t-162.5 -63h-275l-47 -270q-7 -27 -28 -27h-123q-12 0 -19 7.5t-4 19.5zM342 453h260q23 0 42 15.5t22 37.5l79 457q5 22 -7.5 37.5t-35.5 15.5 h-260z" />
<glyph unicode="&#xff;" horiz-adv-x="854" d="M289 1448q-2 12 1.5 19t7.5 7l5 1h139q2 0 5 -0.5t8.5 -7.5t5.5 -19l65 -649l293 649q4 12 11.5 19t12.5 7l5 1h137q2 0 4.5 -1t6 -7t-2.5 -19l-440 -987l-76 -434q-7 -27 -31 -27h-120q-11 0 -18.5 8t-4.5 19l76 434zM391 1649q7 41 43 69.5t76 28.5t62.5 -28.5 t15.5 -69.5q-6 -40 -39.5 -69.5t-73.5 -29.5t-65 29.5t-19 69.5zM764 1649q7 41 42 69.5t77 28.5q40 0 62.5 -28.5t15.5 -69.5q-6 -40 -39.5 -69.5t-73.5 -29.5q-41 0 -65.5 29.5t-18.5 69.5z" />
<glyph unicode="&#x152;" horiz-adv-x="1302" d="M127 215l184 1045q15 89 89.5 152t162.5 63h819q11 0 17.5 -7.5t3.5 -19.5l-21 -113q-1 -12 -9 -19t-19 -7h-375l-80 -451h301q11 0 16.5 -7t4.5 -17l-19 -113q-3 -11 -12 -19t-19 -8h-301l-92 -530h385q11 0 17.5 -7.5t3.5 -19.5l-19 -110q-7 -27 -30 -27h-830 q-88 0 -140.5 63t-37.5 152zM301 219q-3 -22 10.5 -37.5t36.5 -15.5h203q22 0 40 15.5t21 37.5l183 1028q4 23 -9.5 38t-35.5 15h-203q-23 0 -41.5 -15t-22.5 -38z" />
<glyph unicode="&#x153;" horiz-adv-x="1302" d="M127 215l184 1045q15 89 89.5 152t162.5 63h819q11 0 17.5 -7.5t3.5 -19.5l-21 -113q-1 -12 -9 -19t-19 -7h-375l-80 -451h301q11 0 16.5 -7t4.5 -17l-19 -113q-3 -11 -12 -19t-19 -8h-301l-92 -530h385q11 0 17.5 -7.5t3.5 -19.5l-19 -110q-7 -27 -30 -27h-830 q-88 0 -140.5 63t-37.5 152zM301 219q-3 -22 10.5 -37.5t36.5 -15.5h203q22 0 40 15.5t21 37.5l183 1028q4 23 -9.5 38t-35.5 15h-203q-23 0 -41.5 -15t-22.5 -38z" />
<glyph unicode="&#x178;" horiz-adv-x="854" d="M289 1448q-2 12 1.5 19t7.5 7l5 1h139q2 0 5 -0.5t8.5 -7.5t5.5 -19l65 -649l293 649q4 12 11.5 19t12.5 7l5 1h137q2 0 4.5 -1t6 -7t-2.5 -19l-440 -987l-76 -434q-7 -27 -31 -27h-120q-11 0 -18.5 8t-4.5 19l76 434zM391 1649q7 41 43 69.5t76 28.5t62.5 -28.5 t15.5 -69.5q-6 -40 -39.5 -69.5t-73.5 -29.5t-65 29.5t-19 69.5zM764 1649q7 41 42 69.5t77 28.5q40 0 62.5 -28.5t15.5 -69.5q-6 -40 -39.5 -69.5t-73.5 -29.5q-41 0 -65.5 29.5t-18.5 69.5z" />
<glyph unicode="&#x2c6;" horiz-adv-x="503" d="M269 1562q-5 6 5 23l97 156q7 12 16 18.5t14 6.5l5 1h90q2 0 5 -0.5t9.5 -7t9.5 -18.5l43 -156q3 -12 0 -18.5t-7 -6.5l-5 -1h-74l-47 92l-82 -92h-72z" />
<glyph unicode="&#x2dc;" horiz-adv-x="645" d="M269 1562q-5 6 5 23l115 156q7 12 16 18.5t14 6.5l5 1h45q19 0 29 -26l30 -60l97 86h71l7 -3q4 -6 -7 -23l-114 -156q-6 -12 -14.5 -18.5t-13.5 -6.5l-5 -1h-55l-50 92l-96 -92h-72z" />
<glyph unicode="&#x2000;" horiz-adv-x="883" />
<glyph unicode="&#x2001;" horiz-adv-x="1767" />
<glyph unicode="&#x2002;" horiz-adv-x="883" />
<glyph unicode="&#x2003;" horiz-adv-x="1767" />
<glyph unicode="&#x2004;" horiz-adv-x="589" />
<glyph unicode="&#x2005;" horiz-adv-x="441" />
<glyph unicode="&#x2006;" horiz-adv-x="294" />
<glyph unicode="&#x2007;" horiz-adv-x="294" />
<glyph unicode="&#x2008;" horiz-adv-x="220" />
<glyph unicode="&#x2009;" horiz-adv-x="353" />
<glyph unicode="&#x200a;" horiz-adv-x="98" />
<glyph unicode="&#x2010;" horiz-adv-x="872" d="M197 662l20 112q2 11 10.5 19t20.5 8h571q10 0 16.5 -8t4.5 -19l-21 -112q-2 -11 -10 -19t-18 -8h-572q-12 0 -18 8t-4 19z" />
<glyph unicode="&#x2011;" horiz-adv-x="872" d="M197 662l20 112q2 11 10.5 19t20.5 8h571q10 0 16.5 -8t4.5 -19l-21 -112q-2 -11 -10 -19t-18 -8h-572q-12 0 -18 8t-4 19z" />
<glyph unicode="&#x2012;" horiz-adv-x="872" d="M197 662l20 112q2 11 10.5 19t20.5 8h571q10 0 16.5 -8t4.5 -19l-21 -112q-2 -11 -10 -19t-18 -8h-572q-12 0 -18 8t-4 19z" />
<glyph unicode="&#x2013;" horiz-adv-x="964" d="M197 662l20 112q2 11 10.5 19t20.5 8h663q10 0 16.5 -8t4.5 -19l-21 -112q-2 -11 -10 -19t-18 -8h-664q-12 0 -18 8t-4 19z" />
<glyph unicode="&#x2014;" horiz-adv-x="1056" d="M197 662l20 112q2 11 10.5 19t20.5 8h756q10 0 16 -8t4 -19l-20 -112q-2 -11 -10.5 -19t-18.5 -8h-756q-12 0 -18 8t-4 19z" />
<glyph unicode="&#x2018;" horiz-adv-x="278" d="M217 1198l33 188q8 46 47.5 80.5t85.5 34.5h29q10 0 15.5 -7.5t2.5 -18.5l-47 -277q-3 -11 -12 -19t-19 -8h-114q-11 0 -17.5 8.5t-3.5 18.5z" />
<glyph unicode="&#x2019;" horiz-adv-x="278" d="M217 1198l47 277q3 11 13 18.5t20 7.5h115q10 0 15.5 -7.5t2.5 -18.5l-33 -189q-8 -46 -47 -80.5t-84 -34.5h-28q-11 0 -17.5 8.5t-3.5 18.5z" />
<glyph unicode="&#x201a;" horiz-adv-x="301" d="M12 -88l49 276q1 10 10.5 17.5t20.5 7.5h115q10 0 16 -7t4 -18l-32 -188q-9 -47 -47.5 -81t-84.5 -34h-28q-10 0 -17.5 8t-5.5 19z" />
<glyph unicode="&#x201c;" horiz-adv-x="481" d="M217 1198l33 188q8 46 47.5 80.5t85.5 34.5h29q10 0 15.5 -7.5t2.5 -18.5l-47 -277q-3 -11 -12 -19t-19 -8h-114q-11 0 -17.5 8.5t-3.5 18.5zM420 1198l33 188q8 46 47.5 80.5t85.5 34.5h28q11 0 16.5 -8t2.5 -18l-47 -277q-3 -11 -12 -19t-19 -8h-115q-11 0 -17 8.5 t-3 18.5z" />
<glyph unicode="&#x201d;" horiz-adv-x="481" d="M217 1198l47 277q3 11 13 18.5t20 7.5h115q10 0 15.5 -7.5t2.5 -18.5l-33 -189q-8 -46 -47 -80.5t-84 -34.5h-28q-11 0 -17.5 8.5t-3.5 18.5zM420 1198l47 277q3 11 13 18.5t20 7.5h114q11 0 16.5 -8t2.5 -18l-33 -189q-8 -46 -47 -80.5t-84 -34.5h-29q-11 0 -17 8.5 t-3 18.5z" />
<glyph unicode="&#x201e;" horiz-adv-x="503" d="M12 -88l49 276q1 10 10.5 17.5t20.5 7.5h115q10 0 16 -7t4 -18l-32 -188q-9 -47 -47.5 -81t-84.5 -34h-28q-10 0 -17.5 8t-5.5 19zM215 -88l49 276q1 10 10.5 17.5t20.5 7.5h115q10 0 16 -7t4 -18l-33 -188q-9 -47 -47 -81t-84 -34h-28q-10 0 -17.5 8t-5.5 19z" />
<glyph unicode="&#x2022;" horiz-adv-x="456" d="M207 680l18 106q4 23 23 38.5t41 15.5h92q22 0 34.5 -15.5t8.5 -38.5l-18 -106q-3 -21 -22.5 -37t-41.5 -16h-92q-21 0 -33.5 15.5t-9.5 37.5z" />
<glyph unicode="&#x2026;" horiz-adv-x="913" d="M33 27l22 131q1 12 10.5 19t20.5 7h127q11 0 17.5 -7t5.5 -19l-23 -131q-7 -27 -31 -27h-127q-11 0 -18 7.5t-4 19.5zM336 27l22 131q3 26 31 26h127q24 0 21 -26l-23 -131q-7 -27 -29 -27h-127q-12 0 -18.5 7.5t-3.5 19.5zM639 27l23 131q1 12 9 19t19 7h127 q26 0 23 -26l-23 -131q-7 -27 -31 -27h-127q-11 0 -17 7.5t-3 19.5z" />
<glyph unicode="&#x202f;" horiz-adv-x="353" />
<glyph unicode="&#x2039;" horiz-adv-x="479" d="M158 694q-10 28 10 51l190 256q8 11 17 17.5t15 7.5h5h146q18 0 0 -25l-205 -280l104 -281q4 -13 2.5 -19t-6.5 -7h-4h-145q-19 -1 -29 26z" />
<glyph unicode="&#x203a;" horiz-adv-x="479" d="M104 417q-4 6 7 23l208 281l-108 280q-4 12 -2.5 17.5t5.5 6.5l5 1h146q18 0 28 -25l101 -256q13 -27 -11 -51l-190 -254q-8 -12 -17.5 -18.5t-14.5 -7.5h-5h-145z" />
<glyph unicode="&#x205f;" horiz-adv-x="441" />
<glyph unicode="&#x20ac;" horiz-adv-x="897" d="M94 551l21 113q2 11 10 18.5t20 7.5h66l16 92h-65q-12 0 -18.5 8t-4.5 19l21 113q2 11 10 18.5t20 7.5h66l57 320q15 90 89 152.5t163 62.5h219q90 0 143 -62.5t38 -152.5l-11 -54q-1 -10 -10 -18t-20 -8h-123q-11 0 -17.5 8t-5.5 18l8 52q4 23 -8.5 38t-34.5 15h-192 q-24 0 -43 -15t-23 -38l-55 -318h332q10 0 16 -7.5t4 -18.5l-20 -113q-2 -11 -10.5 -19t-18.5 -8h-332l-16 -92h332q10 0 16 -7.5t4 -18.5l-20 -113q-2 -11 -10.5 -19t-18.5 -8h-332l-57 -323q-5 -22 8.5 -38t36.5 -16h203q22 0 40 16t23 38l13 67q1 12 9 19.5t19 7.5h125 q11 0 16.5 -7.5t4.5 -19.5l-13 -61q-15 -90 -89.5 -153.5t-162.5 -63.5h-229q-88 0 -140.5 63.5t-37.5 153.5l57 317h-65q-12 0 -18.5 8t-4.5 19z" />
<glyph unicode="&#x2122;" horiz-adv-x="1210" d="M330 1393l10 55q7 27 31 27h311q11 0 17 -7.5t3 -19.5l-10 -55q-2 -11 -10 -18t-18 -7h-101l-114 -655q-4 -25 -31 -25h-62q-11 0 -17 7.5t-5 17.5l115 655h-97q-12 0 -18 7t-4 18zM664 713l129 735q7 27 30 27h64q2 0 5 -0.5t9 -7.5t8 -19l70 -363l195 363q5 12 12.5 19 t12.5 7l5 1h66q11 0 17 -7.5t3 -19.5l-129 -735q-2 -11 -10 -18t-18 -7h-64q-10 0 -16 7t-4 18l73 422l-200 -377l-72 377l-74 -422q-2 -11 -10 -18t-18 -7h-62q-11 0 -17 7.5t-5 17.5z" />
<glyph unicode="&#x25fc;" horiz-adv-x="1474" d="M0 0v1475h1475v-1475h-1475z" />
<glyph unicode="&#xfb01;" horiz-adv-x="1095" d="M94 27l250 1421q7 27 31 27h790q11 0 17.5 -7.5t3.5 -19.5l-21 -113q-1 -12 -9 -19t-19 -7h-643l-80 -451h338q11 0 17 -7t5 -17l-18 -113q-3 -11 -13 -19t-20 -8h-338l-117 -667q-7 -27 -28 -27h-123q-12 0 -19 7.5t-4 19.5zM762 27l192 1091q2 11 10.5 19t18.5 8h125 q10 0 16 -8t4 -19l-192 -1091q-7 -27 -29 -27h-125q-11 0 -17 7.5t-3 19.5z" />
<glyph unicode="&#xfb02;" horiz-adv-x="1275" d="M94 27l250 1421q7 27 31 27h735q11 0 17 -7.5t3 -19.5l-20 -113q-1 -12 -9.5 -19t-19.5 -7h-587l-80 -451h245q11 0 17.5 -7t5.5 -17l-18 -113q-3 -11 -13 -19t-20 -8h-246l-117 -667q-7 -27 -28 -27h-123q-12 0 -19 7.5t-4 19.5zM670 27l192 1091q2 11 10.5 19t18.5 8 h125q10 0 16 -8t4 -19l-168 -954h293q12 0 18 -7.5t3 -19.5l-19 -110q-7 -27 -30 -27h-443q-11 0 -17 7.5t-3 19.5z" />
<glyph horiz-adv-x="1355" d="M127 207l188 1061q15 90 89 152.5t163 62.5h230q88 0 140.5 -62.5t37.5 -152.5l-19 -99q-1 -12 -9 -19t-19 -7h-125q-24 0 -21 26l17 97q4 23 -8.5 38t-34.5 15h-203q-24 0 -43 -15t-23 -38l-186 -1065q-5 -22 8.5 -38t36.5 -16h203q22 0 40 16t23 38l35 196 q1 12 9.5 19.5t19.5 7.5h125q23 0 20 -27l-35 -190q-15 -90 -89 -153.5t-162 -63.5h-230q-88 0 -140.5 63.5t-37.5 153.5zM682 598l66 371q1 12 9 19t19 7h125q24 0 21 -26l-21 -111h254l105 590q7 27 30 27h123q11 0 18.5 -8t4.5 -19l-250 -1421q-7 -27 -31 -27h-123 q-11 0 -18 7.5t-4 19.5l116 667h-254l-16 -96q-1 -12 -9.5 -19.5t-19.5 -7.5h-125q-23 0 -20 27z" />
<glyph horiz-adv-x="1157" d="M94 27l250 1421q7 27 31 27h123q11 0 17 -7.5t3 -19.5l-225 -1284h690q11 0 17.5 -7.5t3.5 -19.5l-19 -110q-7 -27 -31 -27h-837q-12 0 -19 7.5t-4 19.5zM492 356l192 1092q7 27 31 27h123q12 0 18.5 -7.5t3.5 -19.5l-168 -954h348q11 0 17.5 -7.5t5.5 -17.5l-21 -113 q-1 -12 -10 -19t-20 -7h-498q-11 0 -17 7t-5 19z" />
<glyph horiz-adv-x="1302" d="M127 207l188 1061q15 90 89 152.5t163 62.5h230q88 0 140.5 -62.5t37.5 -152.5l-19 -99q-1 -12 -9 -19t-19 -7h-125q-24 0 -21 26l17 97q4 23 -8.5 38t-34.5 15h-203q-24 0 -43 -15t-23 -38l-186 -1065q-5 -22 8.5 -38t36.5 -16h203q22 0 40 16t23 38l35 196 q1 12 9.5 19.5t19.5 7.5h125q23 0 20 -27l-35 -190q-15 -90 -89 -153.5t-162 -63.5h-230q-88 0 -140.5 63.5t-37.5 153.5zM678 580l72 407q7 27 30 27h125q11 0 16.5 -7.5t2.5 -19.5l-25 -147l354 608q6 12 14 19t13 7l4 1h139q2 0 4.5 -1t5.5 -7t-6 -19l-354 -610l105 -811 q2 -12 -2 -18.5t-8 -7.5l-5 -1h-139q-2 0 -5 0.5t-8.5 7.5t-6.5 19l-107 804l-45 -251q-1 -12 -9.5 -19.5t-19.5 -7.5h-125q-23 0 -20 27z" />
<glyph horiz-adv-x="1943" d="M94 27l250 1421q7 27 31 27h114q23 0 29 -27l170 -705l416 705q5 12 14 19t15 7l6 1h108q3 0 6.5 -0.5t11 -7.5t9.5 -19l172 -705l416 705q5 12 13.5 19t14.5 7l6 1h117q11 0 17.5 -7.5t3.5 -19.5l-250 -1421q-7 -27 -29 -27h-125q-11 0 -17 7.5t-3 19.5l166 942 l-408 -656l-176 656l-166 -942q-7 -27 -29 -27h-125q-11 0 -17 7.5t-3 19.5l166 942l-408 -656l-176 656l-166 -942q-7 -27 -28 -27h-123q-12 0 -19 7.5t-4 19.5z" />
<glyph horiz-adv-x="1357" d="M74 27l24 137l652 1147h-424q-26 0 -23 24l21 113q7 27 30 27h572q11 0 17 -7.5t3 -19.5l-24 -137l-650 -1147h203q11 0 16.5 -7.5t2.5 -19.5l-19 -110q-7 -27 -29 -27h-350q-12 0 -18.5 7.5t-3.5 19.5zM586 27l24 137l654 1147h-187q-11 0 -17 7t-5 17l20 113 q7 27 31 27h332q11 0 17 -7.5t3 -19.5l-24 -137l-648 -1147h422q11 0 16.5 -7.5t2.5 -19.5l-19 -110q-7 -27 -28 -27h-572q-11 0 -18 7.5t-4 19.5z" />
<glyph horiz-adv-x="1257" d="M94 27l250 1421q7 27 31 27h123q11 0 17 -7.5t3 -19.5l-225 -1284h801q11 0 17 -7.5t3 -19.5l-18 -110q-7 -27 -31 -27h-948q-12 0 -19 7.5t-4 19.5zM520 522l133 746q15 90 89.5 152.5t164.5 62.5h228q90 0 142.5 -62.5t37.5 -152.5l-133 -746q-15 -90 -89.5 -153.5 t-164.5 -63.5h-228q-89 0 -142 63t-38 154zM696 516q-4 -22 8.5 -37.5t34.5 -15.5h203q22 0 41 15.5t23 37.5l131 750q4 23 -8.5 38t-34.5 15h-203q-22 0 -41 -15t-23 -38z" />
<glyph horiz-adv-x="1189" d="M125 27l180 1421q7 27 31 27h117q11 0 18 -7.5t4 -19.5l-137 -1145l348 445l201 -445l256 1145q7 27 28 27h119q11 0 17.5 -7.5t3.5 -19.5l-320 -1421q-7 -27 -28 -27h-121q-19 2 -27 27l-186 395l-326 -395q-8 -11 -17.5 -18t-14.5 -8l-5 -1h-119q-11 0 -18 7.5t-4 19.5 z" />
<glyph horiz-adv-x="917" d="M127 207l188 1061q15 90 89 152.5t163 62.5h230q88 0 140.5 -62.5t37.5 -152.5l-189 -1061q-12 -75 -67 -133l26 -176q1 -8 0.5 -13t-3 -8t-4.5 -4.5t-4 -1.5h-1h-96q-23 2 -33 27l-37 92h-262q-88 0 -140.5 63.5t-37.5 153.5zM301 201q-5 -22 8.5 -38t36.5 -16h203 q22 0 40 16t23 38l187 1065q4 23 -8.5 38t-34.5 15h-203q-24 0 -43 -15t-23 -38z" />
<glyph horiz-adv-x="845" d="M84 27l25 137l268 471h-123q-12 0 -18.5 8t-4.5 19l21 112q2 11 10.5 19t20.5 8h186l291 510h-424q-26 0 -23 24l21 113q7 27 31 27h571q11 0 17 -7.5t3 -19.5l-24 -137l-289 -510h137q10 0 16.5 -8t4.5 -19l-21 -112q-2 -11 -10 -19t-18 -8h-203l-266 -471h424 q11 0 16 -7.5t2 -19.5l-18 -110q-7 -27 -29 -27h-572q-12 0 -18.5 7.5t-3.5 19.5z" />
<glyph horiz-adv-x="600" d="M53 27l19 104q4 25 30 25h111q23 0 42.5 16t23.5 39l217 1237q7 27 28 27h123q12 0 19 -7.5t4 -19.5l-217 -1233q-15 -89 -89.5 -152t-162.5 -63h-125q-12 0 -19 7.5t-4 19.5z" />
<glyph horiz-adv-x="1413" d="M93 8q-4 6 3 19l252 598q-55 25 -82.5 78.5t-15.5 121.5l76 435q15 89 89.5 152t162.5 63h714q88 0 140.5 -63t37.5 -152l-75 -435q-12 -67 -59.5 -120.5t-112.5 -79.5l43 -598q2 -12 -2.5 -18.5t-9.5 -7.5l-5 -1h-137q-2 0 -5.5 0.5t-9.5 7.5t-7 19l-41 583h-179 l-102 -583q-7 -27 -29 -27h-125q-11 0 -17 7.5t-3 19.5l102 583h-178l-246 -583q-4 -12 -11 -19t-12 -8h-5h-140q-2 0 -4.5 1t-6.5 7zM424 819q-3 -22 8.5 -37.5t34.5 -15.5h256l96 545h-256q-23 0 -40.5 -16t-20.5 -38zM897 766h256q23 0 43 15.5t23 37.5l77 438 q3 22 -10.5 38t-36.5 16h-256z" />
<glyph horiz-adv-x="1435" d="M94 27l250 1421q7 27 31 27h121q2 0 5.5 -0.5t9.5 -7.5t7 -19l170 -903l160 903q7 27 29 27h122q2 0 5.5 -0.5t10 -7.5t7.5 -19l168 -903l160 903q7 27 30 27h123q11 0 18.5 -8t4.5 -19l-250 -1421q-7 -27 -31 -27h-112q-2 0 -5.5 0.5t-10 7.5t-7.5 19l-180 899 l-158 -899q-7 -27 -29 -27h-112q-2 0 -6 0.5t-10.5 7.5t-8.5 19l-180 899l-158 -899q-7 -27 -28 -27h-123q-12 0 -19 7.5t-4 19.5z" />
<glyph horiz-adv-x="1196" d="M94 27l250 1421q7 27 31 27h123q11 0 17 -7.5t3 -19.5l-225 -1284h764q11 0 17 -7.5t3 -19.5l-18 -110q-7 -27 -31 -27h-911q-12 0 -19 7.5t-4 19.5zM487 332l197 1116q7 27 31 27h561q11 0 17 -7.5t3 -19.5l-20 -113q-1 -12 -9.5 -19t-19.5 -7h-411l-58 -328h338 q10 0 16.5 -8t4.5 -19l-21 -112q-1 -10 -9.5 -17.5t-19.5 -7.5h-337l-62 -348h422q11 0 17.5 -7.5t5.5 -17.5l-21 -112q-1 -10 -10.5 -18.5t-20.5 -8.5h-571q-10 0 -17.5 8t-5.5 19z" />
<glyph horiz-adv-x="1472" d="M289 1335l20 113q7 27 31 27h1200q11 0 18.5 -8t4.5 -19l-21 -113q-1 -10 -10.5 -17t-20.5 -7h-800l-226 -1284q-7 -27 -28 -27h-125q-11 0 -17.5 7.5t-3.5 19.5l226 1284h-226q-11 0 -17 7t-5 17zM633 27l192 1091q1 10 10.5 18.5t20.5 8.5h123q10 0 17 -8t5 -19 l-75 -426h327l76 426q2 11 10.5 19t20.5 8h123q10 0 17 -8t5 -19l-192 -1091q-7 -27 -31 -27h-123q-12 0 -18.5 7.5t-3.5 19.5l88 501h-328l-88 -501q-7 -27 -31 -27h-123q-11 0 -18 7.5t-4 19.5z" />
<glyph horiz-adv-x="2201" d="M289 1335l20 113q7 27 31 27h1941q11 0 17.5 -7.5t3.5 -19.5l-21 -113q-1 -10 -9 -17t-19 -7h-1542l-226 -1284q-7 -27 -28 -27h-125q-11 0 -17.5 7.5t-3.5 19.5l226 1284h-226q-11 0 -17 7t-5 17zM633 27l192 1091q1 10 10.5 18.5t20.5 8.5h123q10 0 17 -8t5 -19 l-75 -426h327l76 426q2 11 10.5 19t20.5 8h123q10 0 17 -8t5 -19l-192 -1091q-7 -27 -31 -27h-123q-12 0 -18.5 7.5t-3.5 19.5l88 501h-328l-88 -501q-7 -27 -31 -27h-123q-11 0 -18 7.5t-4 19.5zM1442 27l192 1091q2 11 10.5 19t18.5 8h561q10 0 16.5 -8t4.5 -19l-21 -114 q-1 -10 -9.5 -17.5t-19.5 -7.5h-411l-51 -287h338q23 0 20 -24l-20 -113q-2 -11 -10.5 -19t-18.5 -8h-338l-64 -364h422q11 0 17.5 -7.5t3.5 -19.5l-19 -110q-7 -27 -30 -27h-572q-11 0 -17 7.5t-3 19.5z" />
<glyph horiz-adv-x="1435" d="M94 27l250 1421q7 27 31 27h123q11 0 17 -7.5t3 -19.5l-104 -590h329l105 590q7 27 29 27h124q11 0 17.5 -7.5t3.5 -19.5l-104 -590h327l105 590q7 27 30 27h123q11 0 18.5 -8t4.5 -19l-250 -1421q-7 -27 -31 -27h-123q-11 0 -18 7.5t-4 19.5l117 667h-328l-117 -667 q-7 -27 -29 -27h-125q-11 0 -17 7.5t-3 19.5l117 667h-330l-117 -667q-7 -27 -28 -27h-123q-12 0 -19 7.5t-4 19.5z" />
<glyph horiz-adv-x="1351" d="M117 215l71 410q15 82 84 145q-12 45 -4 92l70 398q15 89 89.5 152t164.5 63h639q89 0 141 -63t37 -152l-70 -398q-9 -48 -36 -92q45 -61 30 -145l-71 -410q-15 -89 -89 -152t-163 -63h-713q-89 0 -142 63t-38 152zM293 211q-4 -23 8.5 -39t34.5 -16h256l90 514h-262 q-20 -3 -36 -18.5t-19 -35.5zM446 872q-4 -22 6.5 -36.5t30.5 -16.5h226l86 492h-220q-22 0 -40 -16t-21 -38zM768 156h256q22 0 40.5 16t22.5 39l72 405q3 21 -8.5 36t-32.5 18h-260zM885 819h223q22 1 38 16t21 37l68 385q3 22 -10 38t-35 16h-219z" />
<glyph horiz-adv-x="1402" d="M127 207l188 1061q15 90 89 152.5t163 62.5h230q70 0 121 -41q67 41 135 41h229q88 0 140.5 -62.5t37.5 -152.5l-188 -1061q-15 -90 -89.5 -153.5t-162.5 -63.5h-229q-70 0 -123 43q-62 -43 -133 -43h-230q-88 0 -140.5 63.5t-37.5 153.5zM301 201q-5 -22 8.5 -38 t36.5 -16h203q22 0 40 16t23 38l191 1071q3 18 -11.5 32.5t-35.5 14.5h-203q-24 0 -43 -15t-23 -38zM786 201q-4 -23 8.5 -38.5t34.5 -15.5h203q23 0 41 16t23 38l186 1065q4 23 -8 38t-35 15h-203q-21 0 -39.5 -13.5t-21.5 -33.5z" />
<glyph horiz-adv-x="735" d="M268 1575l21 119q3 11 12 18.5t21 7.5h112q12 0 18 -7.5t3 -18.5l-21 -119q-4 -25 -31 -25h-112q-12 0 -18.5 7t-4.5 18zM608 1575l21 119q3 11 11.5 18.5t18.5 7.5h115q11 0 17.5 -8t3.5 -18l-21 -119q-1 -10 -10.5 -17.5t-20.5 -7.5h-114q-10 0 -16.5 7t-4.5 18z" />
<glyph d="M54.5 8q-4.5 6 0.5 19l496 1421q3 12 10.5 19t14.5 7l6 1h170h2.5t5.5 -1.5t7 -4t5.5 -8t1.5 -13.5v-1421q0 -12 -4.5 -18.5t-9.5 -7.5l-4 -1h-144q-16 0 -16 27v215h-295l-72 -215q-3 -12 -9 -18.5t-10 -7.5l-5 -1h-139q-2 0 -4.5 1t-7 7zM356 406h256v786zM434 1575 l21 119q3 11 12.5 18.5t19.5 7.5h115q11 0 16.5 -8t2.5 -18l-21 -119q-1 -10 -9.5 -17.5t-19.5 -7.5h-114q-11 0 -17.5 7.5t-5.5 17.5zM774 1575l21 119q3 11 11.5 18.5t18.5 7.5h115q11 0 17.5 -8t3.5 -18l-21 -119q-1 -10 -10.5 -17.5t-20.5 -7.5h-114q-10 0 -16.5 7 t-4.5 18z" />
<glyph horiz-adv-x="856" d="M94 27l250 1421q7 27 31 27h559q11 0 18 -7.5t4 -19.5l-20 -113q-1 -12 -10.5 -19t-20.5 -7h-411l-80 -451h338q11 0 17 -7t5 -17l-18 -113q-3 -11 -13 -19t-20 -8h-338l-92 -530h424q11 0 16 -7.5t2 -19.5l-18 -110q-7 -27 -29 -27h-571q-12 0 -19 7.5t-4 19.5z M412 1575l20 119q3 11 12 18.5t19 7.5h115q11 0 17 -8t3 -18l-20 -119q-1 -10 -10.5 -17.5t-20.5 -7.5h-115q-10 0 -16 7t-4 18zM750 1575l20 119q3 11 13 18.5t20 7.5h115q10 0 15.5 -7.5t2.5 -18.5l-21 -119q-2 -11 -10 -18t-18 -7h-115q-11 0 -17 7.5t-5 17.5z" />
<glyph horiz-adv-x="925" d="M127 207l188 1061q15 90 89 152.5t163 62.5h236q90 0 142.5 -62.5t37.5 -152.5l-188 -1061q-15 -90 -89.5 -153.5t-164.5 -63.5h-236q-88 0 -140.5 63.5t-37.5 153.5zM301 201q-5 -22 8.5 -38t36.5 -16h209q23 0 40.5 16t22.5 38l187 1065q4 23 -8 38t-35 15h-209 q-24 0 -43 -15t-23 -38zM449 1575l20 119q3 11 12 18.5t19 7.5h114q11 0 17.5 -8t3.5 -18l-21 -119q-1 -10 -10 -17.5t-20 -7.5h-115q-10 0 -16 7t-4 18zM786 1575l21 119q3 11 13 18.5t20 7.5h114q11 0 16.5 -8t2.5 -18l-21 -119q-2 -11 -10 -18t-18 -7h-115 q-11 0 -17.5 7.5t-5.5 17.5z" />
<glyph horiz-adv-x="929" d="M127 207l219 1241q7 27 31 27h123q11 0 17 -7.5t3 -19.5l-219 -1247q-5 -22 8.5 -38t36.5 -16h205q23 0 40.5 16t22.5 38l220 1247q7 27 30 27h123q12 0 19 -7.5t4 -19.5l-219 -1241q-15 -90 -89.5 -153.5t-162.5 -63.5h-234q-88 0 -140.5 63.5t-37.5 153.5zM446 1575 l21 119q3 11 12 18.5t19 7.5h114q11 0 17.5 -8t3.5 -18l-21 -119q-1 -10 -10 -17.5t-20 -7.5h-115q-10 0 -16.5 7t-4.5 18zM784 1575l21 119q3 11 13 18.5t20 7.5h114q11 0 16.5 -8t2.5 -18l-21 -119q-2 -11 -10 -18t-18 -7h-115q-11 0 -17.5 7.5t-5.5 17.5z" />
<glyph horiz-adv-x="428" d="M94 27l250 1421q7 27 31 27h123q11 0 17 -7.5t3 -19.5l-250 -1421q-7 -27 -28 -27h-123q-12 0 -19 7.5t-4 19.5zM201 1575l20 119q3 11 12 18.5t21 7.5h113q12 0 17.5 -7.5t2.5 -18.5l-20 -119q-4 -25 -31 -25h-113q-12 0 -18 7t-4 18zM541 1575l20 119q3 11 12 18.5 t19 7.5h115q11 0 17 -8t3 -18l-20 -119q-1 -10 -10.5 -17.5t-20.5 -7.5h-115q-10 0 -16 7t-4 18z" />
<glyph horiz-adv-x="854" d="M289 1448q-2 12 1.5 19t7.5 7l5 1h139q2 0 5 -0.5t8.5 -7.5t5.5 -19l65 -649l293 649q4 12 11.5 19t12.5 7l5 1h137q2 0 4.5 -1t6 -7t-2.5 -19l-440 -987l-76 -434q-7 -27 -31 -27h-120q-11 0 -18.5 8t-4.5 19l76 434zM410 1575l20 119q3 11 13 18.5t20 7.5h115 q10 0 15.5 -7.5t2.5 -18.5l-21 -119q-2 -11 -10 -18t-18 -7h-115q-11 0 -17 7.5t-5 17.5zM750 1575l20 119q3 11 12 18.5t21 7.5h112q12 0 18 -7.5t3 -18.5l-21 -119q-4 -25 -30 -25h-113q-12 0 -18 7t-4 18z" />
</font>
</defs>
</svg>
