<?xml version="1.0" standalone="no"?>
<!DOCTYPE svg PUBLIC "-//W3C//DTD SVG 1.1//EN" "http://www.w3.org/Graphics/SVG/1.1/DTD/svg11.dtd" >
<svg xmlns="http://www.w3.org/2000/svg" xmlns:xlink="http://www.w3.org/1999/xlink" version="1.1">
<metadata></metadata>
<defs>
<font id="clarkelight_oblique" horiz-adv-x="946" >
<font-face units-per-em="2048" ascent="1638" descent="-410" />
<missing-glyph horiz-adv-x="645" />
<glyph horiz-adv-x="0" />
<glyph horiz-adv-x="682" />
<glyph horiz-adv-x="0" />
<glyph horiz-adv-x="0" />
<glyph unicode="&#xd;" horiz-adv-x="645" />
<glyph unicode=" "  horiz-adv-x="645" />
<glyph unicode="&#x09;" horiz-adv-x="645" />
<glyph unicode="&#xa0;" horiz-adv-x="645" />
<glyph unicode="!" horiz-adv-x="409" d="M104 27l17 92q1 10 9.5 17t19.5 7h86q23 0 20 -24l-16 -92q-7 -27 -29 -27h-86q-11 0 -17.5 7.5t-3.5 19.5zM145 258l209 1190q7 27 29 27h86q11 0 17 -7.5t3 -19.5l-208 -1190q-7 -27 -31 -27h-86q-11 0 -16.5 7.5t-2.5 19.5z" />
<glyph unicode="&#x22;" horiz-adv-x="428" d="M240 1255l36 220q3 11 13 18.5t20 7.5h78q11 0 16.5 -8t2.5 -18l-37 -220q-7 -40 -28.5 -62t-51.5 -22t-43 21.5t-6 62.5zM424 1255l37 220q3 11 13 18.5t20 7.5h77q11 0 16.5 -8t2.5 -18l-37 -220q-7 -40 -28.5 -62t-51.5 -22t-43 21.5t-6 62.5z" />
<glyph unicode="#" horiz-adv-x="1343" d="M166 477l12 76q1 10 10.5 18.5t20.5 8.5h201l122 276h-186q-10 0 -16 8t-4 19l14 75q2 11 10.5 19t18.5 8h221l137 305h129l-139 -305h297l137 305h129l-139 -305h180q10 0 16 -8t4 -19l-14 -75q-2 -11 -10.5 -19t-18.5 -8h-215l-125 -276h189q10 0 17 -8t5 -19l-12 -76 q-3 -11 -13 -18.5t-20 -7.5h-223l-119 -267h-123l117 267h-299l-119 -267h-122l116 267h-166q-11 0 -17 8t-3 18zM535 580h299l122 276h-297z" />
<glyph unicode="$" horiz-adv-x="878" d="M106 207l41 227q1 12 10.5 19.5t20.5 7.5h86q26 0 23 -27l-47 -270q-4 -22 8.5 -37.5t34.5 -15.5h276q22 0 41 15.5t23 37.5l84 485q4 22 -8.5 37.5t-34.5 15.5h-252q-89 0 -142.5 63.5t-38.5 152.5l64 350q15 90 89.5 152.5t164.5 62.5h59l15 76q1 12 9 19t19 7h49 q26 0 23 -26l-14 -76h59q88 0 140.5 -62.5t37.5 -152.5l-24 -135q-1 -12 -9.5 -19.5t-19.5 -7.5h-88q-11 0 -16.5 7.5t-4.5 19.5l31 170q3 23 -10 38t-35 15h-268q-22 0 -40.5 -15t-21.5 -38l-75 -429q-4 -22 8.5 -37.5t34.5 -15.5h251q90 0 143 -62.5t38 -152.5l-72 -399 q-15 -90 -89.5 -153.5t-164.5 -63.5h-68l-12 -70q-7 -24 -31 -24h-49q-11 0 -17 7t-3 17l12 70h-59q-90 0 -143 63.5t-38 153.5z" />
<glyph unicode="%" horiz-adv-x="1701" d="M250 897l65 371q15 90 89 152.5t163 62.5h174q88 0 141 -62.5t38 -152.5l-66 -371q-15 -89 -90.5 -152t-163.5 -63h-174q-88 0 -139.5 63t-36.5 152zM379 856q-3 -24 9.5 -39.5t35.5 -15.5h221q22 0 41.5 16t22.5 39l79 447q3 23 -10 38t-35 15h-221q-24 0 -42 -15 t-21 -38zM547 0q-12 0 0 27l639 1421q5 12 14.5 19t15.5 7l7 1h110q12 0 0 -27l-645 -1421q-5 -12 -14 -18.5t-15 -7.5l-6 -1h-106zM956 207l66 371q15 89 90.5 152t163.5 63h174q88 0 139.5 -63t36.5 -152l-65 -371q-15 -90 -89.5 -153.5t-162.5 -63.5h-174 q-88 0 -141 63.5t-38 153.5zM1087 164q-4 -22 9.5 -37.5t36.5 -15.5h221q22 0 40 15.5t23 37.5l78 448q4 22 -8.5 38t-34.5 16h-221q-23 0 -42 -16t-24 -38z" />
<glyph unicode="&#x26;" horiz-adv-x="960" d="M86 215l37 213q6 35 40.5 80t119.5 133t123 131q-17 55 -45.5 139t-41 122.5t-21 83t-3.5 71.5l14 80q15 90 89.5 152.5t164.5 62.5h123q89 0 141 -62t37 -153l-14 -80q-3 -16 -13.5 -37t-31 -50.5t-38.5 -53.5t-52 -64t-54 -63t-61.5 -71t-58.5 -67l102 -315l127 180 q17 25 31 25h82q10 0 14 -8t-2 -17l-213 -299l109 -321q3 -11 -4 -19t-19 -8h-86q-19 0 -31 27q-26 73 -63 186l-150 -213h-172q-89 0 -142 63t-38 152zM217 174q-3 -23 10 -39t35 -16h139l148 211q-65 189 -109 334q-35 -42 -83 -94.5t-67.5 -78t-23.5 -45.5zM430 1171 q-2 -11 1 -28t11 -44.5t16.5 -54t23.5 -72.5t26 -83q95 111 144.5 176.5t56.5 99.5l24 146q4 22 -8.5 37.5t-34.5 15.5h-172q-22 0 -40 -15.5t-23 -37.5z" />
<glyph unicode="'" horiz-adv-x="243" d="M240 1255l36 220q3 11 13 18.5t20 7.5h78q11 0 16.5 -8t2.5 -18l-37 -220q-7 -40 -28.5 -62t-51.5 -22t-43 21.5t-6 62.5z" />
<glyph unicode="(" horiz-adv-x="598" d="M96 23l254 1429q15 90 89 152.5t163 62.5h137q10 0 16.5 -7t4.5 -18l-15 -75q-2 -11 -10 -19t-18 -8h-160q-24 0 -42 -15t-21 -38l-267 -1507q-5 -22 8.5 -38t36.5 -16h160q24 0 21 -26l-13 -68q-2 -11 -10 -19t-18 -8h-138q-88 0 -140.5 64t-37.5 154z" />
<glyph unicode=")" horiz-adv-x="608" d="M23 -168l12 68q1 12 9 19t19 7h160q23 0 42 16t24 38l266 1507q3 23 -10.5 38t-36.5 15h-160q-10 0 -16 8t-4 19l14 75q1 10 9.5 17.5t19.5 7.5h137q88 0 140.5 -62.5t37.5 -152.5l-254 -1429q-15 -90 -89.5 -154t-162.5 -64h-137q-10 0 -16 8t-4 19z" />
<glyph unicode="*" horiz-adv-x="663" d="M309.5 1280q-3.5 10 1.5 20l15 35q16 33 36 19l93 -43q21 -17 14 -31q-11 -21 -35 -18l-108 8q-13 0 -16.5 10zM358 1133l84 84q24 21 37 8q14 -8 4 -35l-55 -103q-14 -22 -39 -10l-29 19q-23 19 -2 37zM500 1339v109q0 27 30 27h37q12 0 19.5 -7.5t1.5 -19.5l-37 -109 q-12 -24 -29 -24q-22 0 -22 24zM514 1190q-3 27 16 35q18 10 33 -8l58 -84q14 -19 -17 -37l-37 -19q-26 -13 -32 10zM561 1280q-2 17 23 31l108 45q14 6 20.5 0.5t8.5 -19.5l4 -34q0 -31 -25 -31l-112 -10q-27 0 -27 18z" />
<glyph unicode="+" horiz-adv-x="897" d="M217 680l14 76q2 11 10.5 18.5t20.5 7.5h221l39 222q1 10 9.5 17t19.5 7h76q11 0 17 -7t5 -17l-39 -222h224q10 0 16 -7.5t4 -18.5l-14 -76q-2 -11 -10.5 -19t-18.5 -8h-223l-39 -221q-7 -26 -33 -26h-76q-24 0 -18 26l39 221h-221q-12 0 -18.5 8t-4.5 19z" />
<glyph unicode="," horiz-adv-x="280" d="M43 63l10 58q1 12 10.5 19t20.5 7h90q11 0 17.5 -7t5.5 -19l-23 -123q-15 -94 -70 -94q-17 0 -14 20l12 66q-71 0 -59 73z" />
<glyph unicode="-" horiz-adv-x="886" d="M207 680l14 76q2 11 10.5 18.5t20.5 7.5h571q10 0 16.5 -7.5t4.5 -18.5l-15 -76q-2 -11 -10 -19t-18 -8h-572q-12 0 -18 8t-4 19z" />
<glyph unicode="." horiz-adv-x="286" d="M43 27l16 94q1 12 10.5 19t20.5 7h90q11 0 17.5 -7t5.5 -19l-17 -94q-7 -27 -30 -27h-90q-11 0 -18.5 8t-4.5 19z" />
<glyph unicode="/" horiz-adv-x="727" d="M51 8q-2 6 4 19l641 1421q5 12 14 19t15 7l6 1h111q2 0 3.5 -1t3.5 -7t-5 -19l-645 -1421q-5 -12 -14.5 -18.5t-16.5 -7.5l-6 -1h-105q-1 0 -2.5 1t-3.5 7z" />
<glyph unicode="0" horiz-adv-x="917" d="M127 207l188 1061q15 90 89 152.5t163 62.5h230q88 0 140.5 -62.5t37.5 -152.5l-189 -1061q-15 -90 -89 -153.5t-162 -63.5h-230q-88 0 -140.5 63.5t-37.5 153.5zM258 164q-5 -22 8.5 -37.5t36.5 -15.5h277q22 0 40 15.5t23 37.5l201 1139q3 23 -10 38t-35 15h-277 q-24 0 -42 -15t-21 -38z" />
<glyph unicode="1" horiz-adv-x="598" d="M279 27l227 1288h-86q-26 0 -23 24v7l160 129h88q12 0 19 -7.5t4 -19.5l-250 -1421q-7 -27 -31 -27h-86q-11 0 -18 7.5t-4 19.5z" />
<glyph unicode="2" horiz-adv-x="878" d="M74 27l16 100q27 34 73 92t164 211.5t209.5 277.5t169.5 242.5t85 155.5l34 197q3 23 -10 38t-35 15h-262q-22 0 -40 -15t-21 -38l-27 -152q-7 -27 -33 -27h-86q-11 0 -17 7.5t-3 19.5l20 117q15 90 89.5 152.5t164.5 62.5h213q89 0 141 -62t37 -153l-28 -162 q-11 -58 -181 -303t-335 -461l-164 -215h483q11 0 17.5 -7.5t3.5 -19.5l-13 -73q-7 -27 -28 -27h-615q-11 0 -18 7.5t-4 19.5z" />
<glyph unicode="3" horiz-adv-x="907" d="M117 207l22 119q2 11 10.5 18.5t18.5 7.5h88q10 0 16 -7.5t4 -18.5l-28 -162q-4 -22 8.5 -37.5t34.5 -15.5h276q23 0 41 15.5t23 37.5l84 477q3 23 -9.5 38t-35.5 15h-125q-19 3 -15 27l13 76q1 10 10 17t20 7h119q23 0 41 15.5t23 37.5l75 429q3 23 -9.5 38t-35.5 15 h-278q-24 0 -42.5 -15t-21.5 -38l-26 -152q-7 -27 -31 -27h-86q-12 0 -17.5 7.5t-2.5 19.5l20 117q15 90 89 152.5t163 62.5h233q88 0 141 -62.5t38 -152.5l-70 -387q-9 -65 -57 -119q28 -54 16 -119l-78 -436q-15 -90 -89.5 -153.5t-162.5 -63.5h-229q-89 0 -141 63 t-37 154z" />
<glyph unicode="4" horiz-adv-x="786" d="M53 303l17 103l596 1042q7 12 15 19t13 7l4 1h117q12 1 18 -7t3 -20l-185 -1042h92q12 0 19 -7.5t4 -19.5l-12 -76q-7 -24 -33 -24h-92l-43 -252q-7 -27 -29 -27h-88q-11 0 -17 7.5t-3 19.5l43 252h-418q-12 0 -18 7t-3 17zM203 406h317l158 835z" />
<glyph unicode="5" horiz-adv-x="903" d="M137 207l41 227q1 12 10 19.5t21 7.5h86q23 0 20 -27l-47 -270q-5 -22 8.5 -37.5t36.5 -15.5h277q22 0 40 15.5t23 37.5l90 516q4 22 -8.5 37.5t-34.5 15.5h-438q-10 0 -16 8t-4 19l120 688q7 27 29 27h559q11 0 18.5 -8t4.5 -19l-12 -76q-7 -26 -33 -26h-447l-86 -492 h301q88 0 140.5 -63.5t35.5 -153.5l-75 -430q-15 -90 -89.5 -153.5t-162.5 -63.5h-230q-88 0 -140.5 63.5t-37.5 153.5z" />
<glyph unicode="6" horiz-adv-x="886" d="M117 207l188 1061q15 90 89 152.5t163 62.5h209q89 0 141 -62t37 -153l-24 -135q-1 -12 -9.5 -19.5t-19.5 -7.5h-88q-11 0 -16.5 7.5t-4.5 19.5l31 170q3 23 -10 38t-35 15h-256q-24 0 -42 -15t-21 -38l-84 -476h307q88 0 139.5 -63t36.5 -152l-72 -405 q-15 -90 -89.5 -153.5t-162.5 -63.5h-229q-88 0 -140.5 63.5t-37.5 153.5zM248 164q-5 -22 8.5 -37.5t36.5 -15.5h276q22 0 41 15.5t23 37.5l84 483q4 22 -8.5 37.5t-34.5 15.5h-332z" />
<glyph unicode="7" horiz-adv-x="792" d="M238.5 8q-4.5 6 1.5 19l536 1321h-465q-12 0 -18.5 7t-3.5 17l12 76q7 27 31 27h571q11 0 17.5 -7.5t3.5 -19.5l-17 -100l-534 -1321q-4 -12 -11.5 -18.5t-12.5 -7.5l-5 -1h-94q-2 0 -4.5 1t-7 7z" />
<glyph unicode="8" horiz-adv-x="911" d="M117 207l78 438q2 13 6.5 24.5t10 21.5t12 18.5t13.5 16t13.5 13t13 10t11 7.5t8.5 6l4 2q-3 0 -9.5 3.5t-16 11.5t-16.5 21.5t-10.5 34t1.5 48.5l69 385q15 90 89 152.5t163 62.5h234q88 0 140.5 -62.5t37.5 -152.5l-70 -385q-5 -27 -15.5 -49t-22 -34.5t-24.5 -21 t-21 -11.5t-11 -3q3 -2 8 -5.5t16 -13.5t17.5 -23t12 -33.5t-0.5 -43.5l-78 -438q-15 -90 -89.5 -153.5t-162.5 -63.5h-233q-88 0 -140.5 63.5t-37.5 153.5zM248 164q-5 -22 8.5 -37.5t36.5 -15.5h278q23 0 41 15.5t23 37.5l84 479q3 22 -9.5 37.5t-35.5 15.5h-279 q-23 0 -41.5 -15.5t-21.5 -37.5zM373 877q-5 -22 8.5 -38t36.5 -16h284q21 1 38 17t20 37l76 426q3 23 -9.5 38t-35.5 15h-279q-24 0 -42 -15t-21 -38z" />
<glyph unicode="9" horiz-adv-x="909" d="M137 207l25 135q1 12 10 19.5t21 7.5h86q23 0 20 -27l-31 -170q-3 -23 10.5 -38t36.5 -15h258q22 0 40.5 15t21.5 38l78 442h-307q-88 0 -140 62.5t-37 152.5l78 439q15 90 89 152.5t163 62.5h229q88 0 141 -62.5t38 -152.5l-189 -1061q-15 -90 -89.5 -153.5 t-162.5 -63.5h-211q-88 0 -140.5 63.5t-37.5 153.5zM360 795q-4 -23 9.5 -38.5t36.5 -15.5h329l101 570q4 22 -8.5 37.5t-34.5 15.5h-277q-23 0 -41.5 -15.5t-23.5 -37.5z" />
<glyph unicode=":" horiz-adv-x="356" d="M74 27l16 90q1 12 10.5 19t20.5 7h86q11 0 17 -7t5 -19l-16 -90q-7 -27 -31 -27h-86q-11 0 -18 7.5t-4 19.5zM231 920l15 90q3 12 12.5 19t20.5 7h86q11 0 17 -7t3 -19l-14 -90q-3 -12 -12.5 -19.5t-20.5 -7.5h-86q-11 0 -17.5 7.5t-3.5 19.5z" />
<glyph unicode=";" horiz-adv-x="350" d="M74 63l10 54q1 12 10.5 19t20.5 7h86q11 0 17 -7t5 -19l-22 -119q-15 -94 -66 -94q-17 0 -14 20l12 66q-71 0 -59 73zM225 920l15 90q3 12 12 19t20 7h86q11 0 17.5 -7t3.5 -19l-14 -90q-3 -12 -12.5 -19.5t-20.5 -7.5h-86q-11 0 -17.5 7.5t-3.5 19.5z" />
<glyph unicode="&#x3c;" horiz-adv-x="559" d="M168 694q-10 28 10 51l324 424q8 12 17 18.5t15 7.5l5 1h102q18 0 0 -27l-340 -448l182 -451q4 -12 2.5 -17.5t-5.5 -6.5h-5h-102q-19 -1 -29 24z" />
<glyph unicode="=" horiz-adv-x="890" d="M186 551l13 76q7 26 32 26h572q10 0 15.5 -7.5t2.5 -18.5l-12 -76q-2 -11 -10.5 -19t-18.5 -8h-571q-12 0 -18.5 8t-4.5 19zM231 809l15 76q2 11 10 18.5t20 7.5h572q10 0 16 -7.5t4 -18.5l-14 -76q-2 -11 -10.5 -19t-18.5 -8h-571q-12 0 -18.5 8t-4.5 19z" />
<glyph unicode="&#x3e;" horiz-adv-x="557" d="M83 249q-4 5 7 21l342 451l-184 448q-4 13 -2.5 19t6.5 7l4 1h102q19 0 29 -27l176 -424q10 -28 -10 -51l-324 -424q-8 -11 -17 -17t-14 -7h-5h-103z" />
<glyph unicode="?" horiz-adv-x="870" d="M258 1133l25 135q15 90 89 152.5t163 62.5h223q90 0 142.5 -62.5t37.5 -152.5l-78 -437q-15 -89 -89.5 -152t-164.5 -63h-2q-22 0 -41 -15.5t-22 -37.5l-54 -305q-7 -27 -30 -27h-86q-11 0 -16.5 7.5t-2.5 19.5l45 262q17 91 91 153t163 62q22 0 40.5 15.5t21.5 37.5 l92 515q3 23 -10 38t-35 15h-271q-23 0 -40.5 -15t-20.5 -38l-31 -170q-1 -12 -10 -19.5t-20 -7.5h-86q-26 0 -23 27zM311 27l17 92q1 10 9 17t19 7h86q11 0 16.5 -7t4.5 -17l-17 -92q-7 -27 -28 -27h-86q-11 0 -17.5 7.5t-3.5 19.5z" />
<glyph unicode="@" horiz-adv-x="1566" d="M137 215l185 1045q15 89 89 152t162 63h863q88 0 140.5 -63t37.5 -152l-133 -758q-17 -90 -91.5 -153.5t-162.5 -63.5h-90q-61 0 -105 30q-52 -30 -114 -30h-230q-88 0 -140.5 63.5t-35.5 153.5l63 368q17 89 91.5 152t162.5 63h230q88 0 140.5 -63t35.5 -152l-72 -411 q-3 -23 12.5 -38t49.5 -15h26q35 0 57 15t25 38l148 835q3 23 -8.5 38.5t-34.5 15.5h-908q-23 0 -42.5 -16t-22.5 -38l-199 -1120q-3 -23 10.5 -39t36.5 -16h1061q11 0 17.5 -7.5t5.5 -17.5l-13 -67q-7 -27 -30 -27h-1039q-88 0 -140.5 63t-37.5 152zM643 459 q-3 -22 9.5 -37.5t35.5 -15.5h275q20 0 37.5 13t23.5 32l80 454q4 22 -8.5 37.5t-34.5 15.5h-275q-23 0 -41.5 -15.5t-23.5 -37.5z" />
<glyph unicode="A" horiz-adv-x="907" d="M63 8q-5 6 0 19l496 1421q4 12 12 19t15 7l6 1h168h2.5t5.5 -1.5t7.5 -4t6 -8t2.5 -13.5l-4 -1421q0 -12 -5 -19t-10 -8h-5h-101q-2 0 -5 0.5t-8 7.5t-5 19l2 233h-362l-78 -233q-4 -12 -10.5 -18.5t-11.5 -7.5l-5 -1h-100q-2 0 -5 1t-8 7zM324 387h321l12 973z" />
<glyph unicode="B" horiz-adv-x="931" d="M104 27l250 1421q7 27 31 27h385q88 0 140 -63q41 -49 41 -114q0 -18 -3 -38l-69 -398q-7 -37 -37 -92q34 -48 34 -106q0 -19 -4 -39l-71 -410q-15 -89 -89.5 -152t-162.5 -63h-422q-12 0 -19 7.5t-4 19.5zM258 119h334q23 0 40.5 16t20.5 39l82 461q3 21 -7 35.5 t-30 17.5h-340zM377 801h303q23 1 38.5 16t18.5 37l78 440q3 23 -8.5 38.5t-34.5 15.5h-297z" />
<glyph unicode="C" horiz-adv-x="921" d="M137 207l189 1061q15 90 89 152.5t163 62.5h223q89 0 141 -62q40 -48 40 -114q0 -19 -3 -39l-25 -135q-1 -12 -9 -19.5t-19 -7.5h-86q-26 0 -23 27l31 170q3 23 -10 38t-35 15h-271q-24 0 -42 -15t-21 -38l-201 -1139q-5 -22 8.5 -37.5t36.5 -15.5h279q23 0 40.5 15.5 t22.5 37.5l47 270q1 12 10.5 19.5t20.5 7.5h86q26 0 23 -27l-41 -227q-15 -90 -89.5 -153.5t-162.5 -63.5h-234q-89 0 -141 64q-41 49 -40 114q0 19 3 39z" />
<glyph unicode="D" horiz-adv-x="937" d="M104 27l250 1421q7 27 31 27h422q89 0 141 -63q41 -49 40 -114q0 -18 -3 -38l-184 -1045q-15 -89 -89.5 -152t-162.5 -63h-422q-12 0 -19 7.5t-4 19.5zM258 127h334q23 0 41.5 15.5t21.5 37.5l197 1114q3 23 -8.5 38.5t-34.5 15.5h-334z" />
<glyph unicode="E" horiz-adv-x="876" d="M104 27l250 1421q7 27 31 27h559q11 0 18.5 -8t4.5 -19l-13 -76q-3 -12 -12 -19t-20 -7h-449l-88 -506h375q11 0 17 -7.5t5 -17.5l-14 -76q-1 -10 -10.5 -18t-20.5 -8h-375l-104 -586h461q11 0 17 -7.5t3 -19.5l-12 -73q-7 -27 -29 -27h-571q-12 0 -19 7.5t-4 19.5z" />
<glyph unicode="F" horiz-adv-x="845" d="M104 27l250 1421q7 27 31 27h559q11 0 18.5 -8t4.5 -19l-13 -76q-3 -12 -12 -19t-20 -7h-449l-88 -506h375q11 0 17 -7.5t5 -17.5l-14 -76q-1 -10 -10.5 -18t-20.5 -8h-375l-120 -686q-7 -27 -29 -27h-86q-12 0 -19 7.5t-4 19.5z" />
<glyph unicode="G" horiz-adv-x="917" d="M137 207l189 1061q15 90 89 152.5t163 62.5h217q90 0 143 -63q40 -48 40 -113q0 -19 -3 -39l-25 -135q-1 -12 -10 -19.5t-20 -7.5h-86q-11 0 -17.5 7.5t-5.5 19.5l31 170q3 23 -9.5 38t-35.5 15h-265q-24 0 -42 -15t-21 -38l-201 -1139q-5 -22 8.5 -37.5t36.5 -15.5h277 q22 0 40 15.5t23 37.5l74 426h-190q-11 0 -17.5 7t-3.5 19l12 74q1 12 10.5 19.5t20.5 7.5h303q11 0 16.5 -7.5t4.5 -19.5l-86 -483q-15 -90 -89.5 -153.5t-162.5 -63.5h-230q-88 0 -141 64q-40 49 -40 114q0 19 3 39z" />
<glyph unicode="H" horiz-adv-x="952" d="M104 27l250 1421q7 27 31 27h86q11 0 17.5 -7.5t3.5 -19.5l-107 -608h403l107 608q7 27 29 27h88q11 0 17 -7.5t3 -19.5l-250 -1421q-7 -27 -28 -27h-88q-11 0 -17.5 7.5t-3.5 19.5l121 686h-404l-120 -686q-7 -27 -29 -27h-86q-12 0 -19 7.5t-4 19.5z" />
<glyph unicode="I" horiz-adv-x="411" d="M104 27l250 1421q7 27 31 27h86q11 0 17.5 -7.5t3.5 -19.5l-250 -1421q-7 -27 -29 -27h-86q-12 0 -19 7.5t-4 19.5z" />
<glyph unicode="J" horiz-adv-x="843" d="M76 207l41 227q2 12 10 19.5t20 7.5h82q11 0 17.5 -7.5t5.5 -19.5l-47 -270q-5 -22 7.5 -37.5t35.5 -15.5h260q22 0 40 15.5t23 37.5l226 1284q7 27 28 27h88q11 0 17.5 -7.5t3.5 -19.5l-219 -1241q-15 -90 -89.5 -153.5t-162.5 -63.5h-209q-88 0 -140 64q-41 49 -41 114 q0 19 3 39z" />
<glyph unicode="K" horiz-adv-x="911" d="M104 27l250 1421q7 27 31 27h86q11 0 17.5 -7.5t3.5 -19.5l-121 -692l518 692q18 27 37 27h94q3 0 5.5 -1t6.5 -7t-6 -19l-418 -569l201 -852q3 -12 -1 -19t-10 -8h-5h-103q-16 0 -22 27l-174 710l-164 -205l-88 -505q-7 -27 -29 -27h-86q-12 0 -19 7.5t-4 19.5z" />
<glyph unicode="L" horiz-adv-x="843" d="M104 27l250 1421q7 27 31 27h86q11 0 17.5 -7.5t3.5 -19.5l-234 -1321h461q11 0 17 -7.5t3 -19.5l-12 -73q-7 -27 -29 -27h-571q-12 0 -19 7.5t-4 19.5z" />
<glyph unicode="M" horiz-adv-x="1206" d="M104 27l250 1421q7 27 31 27h74q22 0 28 -27l203 -746l465 746q7 12 16 19t14 7l5 1h76q11 0 17 -7.5t3 -19.5l-250 -1421q-7 -27 -28 -27h-86q-11 0 -17.5 7.5t-3.5 19.5l195 1110l-457 -723l-205 723l-194 -1110q-7 -27 -29 -27h-84q-12 0 -19 7.5t-4 19.5z" />
<glyph unicode="N" horiz-adv-x="952" d="M104 27l250 1421q7 27 31 27h80q2 0 5 -0.5t9.5 -7.5t9.5 -19l222 -1061l186 1061q7 27 29 27h86q11 0 17 -7.5t3 -19.5l-250 -1421q-7 -27 -28 -27h-74q-2 0 -6 0.5t-11 7.5t-10 19l-227 1056l-186 -1056q-7 -27 -29 -27h-84q-12 0 -19 7.5t-4 19.5z" />
<glyph unicode="O" d="M137 207l189 1061q15 90 89 152.5t163 62.5h235q91 -1 143 -63q41 -49 40 -113q0 -19 -3 -39l-188 -1061q-15 -90 -89.5 -153.5t-164.5 -63.5h-236q-89 0 -141 64q-41 49 -40 114q0 19 3 39zM268 164q-5 -22 8.5 -37.5t36.5 -15.5h283q23 0 40.5 15.5t22.5 37.5l201 1139 q3 23 -9.5 38t-35.5 15h-283q-24 0 -42 -15t-21 -38z" />
<glyph unicode="P" horiz-adv-x="927" d="M104 27l250 1421q7 27 31 27h422q89 0 141 -63q41 -49 40 -114q0 -18 -3 -38l-74 -414q-15 -89 -89.5 -152t-162.5 -63h-311l-106 -604q-7 -27 -29 -27h-86q-12 0 -19 7.5t-4 19.5zM369 745h333q23 0 41 16t21 38l88 495q3 23 -8.5 38.5t-34.5 15.5h-334z" />
<glyph unicode="Q" d="M137 207l189 1061q15 90 89 152.5t163 62.5h235q90 0 143 -63q40 -48 40 -113q0 -19 -3 -39l-188 -1061q-15 -90 -89.5 -153.5t-164.5 -63.5h-47l-23 -129q-7 -27 -32 -27h-89q-11 0 -16 7.5t-2 19.5l23 129h-50q-88 0 -141 64q-40 49 -40 114q0 19 3 39zM268 164 q-5 -22 8.5 -37.5t36.5 -15.5h283q23 0 40.5 15.5t22.5 37.5l201 1139q3 23 -9.5 38t-35.5 15h-283q-24 0 -42 -15t-21 -38z" />
<glyph unicode="R" horiz-adv-x="937" d="M104 27l250 1421q7 27 31 27h422q89 0 141 -63q41 -49 40 -114q0 -18 -3 -38l-74 -416q-12 -68 -58.5 -122t-111.5 -79l39 -616q1 -12 -3 -18.5t-9 -7.5l-4 -1h-105q-2 0 -5 0.5t-8.5 7.5t-6.5 19l-41 602h-250l-106 -602q-7 -27 -29 -27h-86q-12 0 -19 7.5t-4 19.5z M369 750h333q23 0 41 15.5t23 37.5l86 491q3 23 -8.5 38.5t-34.5 15.5h-334z" />
<glyph unicode="S" horiz-adv-x="882" d="M106 207l41 227q1 12 10.5 19.5t20.5 7.5h86q26 0 23 -27l-47 -270q-4 -22 8.5 -37.5t34.5 -15.5h280q22 0 41 15.5t23 37.5l84 485q4 22 -8.5 37.5t-34.5 15.5h-256q-88 0 -142 64q-42 50 -42 114q0 18 3 38l64 350q15 90 89.5 152.5t164.5 62.5h223q88 -1 140 -63 q41 -49 41 -113q0 -19 -3 -39l-24 -135q-1 -12 -10 -19.5t-21 -7.5h-86q-11 0 -17.5 7.5t-5.5 19.5l31 170q3 23 -9.5 38t-35.5 15h-270q-22 0 -40.5 -15t-21.5 -38l-75 -429q-4 -22 8.5 -37.5t34.5 -15.5h256q89 0 141 -62q40 -48 40 -114q0 -19 -3 -39l-72 -399 q-15 -90 -88.5 -153.5t-163.5 -63.5h-231q-90 0 -143 64q-41 49 -41 115q0 18 3 38z" />
<glyph unicode="T" horiz-adv-x="890" d="M299 1372l12 76q7 27 31 27h627q11 0 18 -7.5t4 -19.5l-12 -76q-7 -24 -31 -24h-248l-233 -1321q-7 -27 -29 -27h-84q-11 0 -17 7.5t-3 19.5l233 1321h-245q-11 0 -18.5 7t-4.5 17z" />
<glyph unicode="U" horiz-adv-x="950" d="M137 207l219 1241q7 27 31 27h86q11 0 17.5 -7.5t3.5 -19.5l-226 -1284q-5 -22 8.5 -37.5t36.5 -15.5h279q23 0 40.5 15.5t22.5 37.5l226 1284q7 27 30 27h86q12 0 19 -7.5t4 -19.5l-219 -1241q-15 -90 -89.5 -153.5t-162.5 -63.5h-234q-89 0 -141 64q-41 49 -40 114 q0 19 3 39z" />
<glyph unicode="V" horiz-adv-x="907" d="M307 27l4 1421q0 12 5.5 19t10.5 7l5 1h100q2 0 5 -0.5t8.5 -7.5t5.5 -19l-17 -1333l455 1333q4 12 10.5 19t10.5 7l5 1h101q2 0 5 -1t7.5 -7t-0.5 -19l-496 -1421q-4 -12 -12 -18.5t-14 -7.5l-6 -1h-168q-3 0 -7 0.5t-11 7.5t-7 19z" />
<glyph unicode="W" horiz-adv-x="1413" d="M307 27l4 1421q0 12 5.5 19t10.5 7l5 1h100q2 0 5 -0.5t8.5 -7.5t5.5 -19l-17 -1333l424 1333q4 12 10.5 19t11.5 7l5 1h84q2 0 5 -0.5t8 -7.5t5 -19l-47 -1333l455 1333q4 12 10.5 19t10.5 7l5 1h101q2 0 5 -1t7.5 -7t-0.5 -19l-496 -1421q-4 -12 -12 -19t-14 -8h-6 h-166q-3 0 -7 0.5t-11 7.5t-7 19l31 989l-316 -989q-4 -12 -12 -18.5t-14 -7.5l-6 -1h-166q-3 0 -7 0.5t-11 7.5t-7 19z" />
<glyph unicode="X" horiz-adv-x="862" d="M42.5 8q-3.5 6 4.5 19l389 733l-125 688q-2 12 2 19t9 7l4 1h108q2 0 5.5 -0.5t10 -7.5t9.5 -19l90 -512l272 512q6 12 14.5 19t13.5 7l5 1h109q2 0 4 -1t5.5 -7t-3.5 -19l-367 -688l131 -733q3 -12 -0.5 -18.5t-8.5 -7.5l-5 -1h-105q-2 0 -5 0.5t-9.5 7.5t-9.5 19 l-103 557l-297 -557q-6 -12 -14 -19t-13 -8h-5h-105q-2 0 -4.5 1t-6 7z" />
<glyph unicode="Y" horiz-adv-x="874" d="M299 1448q-2 12 1.5 19t7.5 7l5 1h99q2 0 5 -0.5t9 -7.5t8 -19l92 -711l340 711q5 12 13 19t13 7l5 1h98q2 0 4.5 -1t6.5 -7t-2 -19l-449 -926l-86 -495q-7 -27 -31 -27h-84q-11 0 -18 7.5t-4 19.5l86 495z" />
<glyph unicode="Z" horiz-adv-x="866" d="M84 27l16 100l701 1221h-457q-12 0 -18.5 7t-3.5 17l12 76q7 27 31 27h571q11 0 17 -7.5t3 -19.5l-16 -100l-696 -1221h454q11 0 17.5 -7.5t3.5 -19.5l-12 -73q-7 -27 -29 -27h-572q-12 0 -18.5 7.5t-3.5 19.5z" />
<glyph unicode="[" horiz-adv-x="559" d="M63 -168l320 1810q4 25 31 25h286q10 0 16.5 -7t4.5 -18l-14 -75q-2 -11 -10.5 -19t-18.5 -8h-176l-285 -1614h176q24 0 21 -26l-13 -68q-2 -11 -10 -19t-18 -8h-287q-12 0 -18.5 8t-4.5 19z" />
<glyph unicode="\" horiz-adv-x="763" d="M309 1448q-1 12 1.5 19t5.5 7l3 1h111q3 0 7 -0.5t11.5 -7.5t8.5 -19l141 -1421q2 -12 -0.5 -18.5t-5.5 -7.5l-4 -1h-105q-3 0 -7 0.5t-11 7.5t-8 19z" />
<glyph unicode="]" horiz-adv-x="559" d="M12 -168l13 68q1 12 9 19t19 7h176l285 1614h-176q-10 0 -16.5 8t-4.5 19l15 75q2 11 10 18t18 7h287q12 0 18.5 -7t4.5 -18l-320 -1810q-2 -11 -10.5 -19t-20.5 -8h-286q-10 0 -16.5 8t-4.5 19z" />
<glyph unicode="^" horiz-adv-x="595" d="M329 1474q-3 6 7 19l168 248q8 12 17.5 18.5t14.5 6.5l5 1h57q2 0 5 -0.5t9 -7t9 -18.5l84 -248q4 -13 1 -19t-8 -7l-6 -1h-37l-108 185l-172 -185h-35q-2 0 -5 1t-6 7z" />
<glyph unicode="_" horiz-adv-x="1079" d="M104 27l13 73q7 27 30 27h756q11 0 17.5 -7.5t3.5 -19.5l-13 -73q-7 -27 -28 -27h-756q-12 0 -19 7.5t-4 19.5z" />
<glyph unicode="`" horiz-adv-x="380" d="M279.5 1760q1.5 6 5.5 6l4 1h73q2 0 5.5 -0.5t9.5 -7t8 -18.5l43 -156q3 -13 1 -19t-7 -6l-4 -1h-37l-98 182q-5 13 -3.5 19z" />
<glyph unicode="a" horiz-adv-x="907" d="M63 8q-5 6 0 19l496 1421q4 12 12 19t15 7l6 1h168h2.5t5.5 -1.5t7.5 -4t6 -8t2.5 -13.5l-4 -1421q0 -12 -5 -19t-10 -8h-5h-101q-2 0 -5 0.5t-8 7.5t-5 19l2 233h-362l-78 -233q-4 -12 -10.5 -18.5t-11.5 -7.5l-5 -1h-100q-2 0 -5 1t-8 7zM324 387h321l12 973z" />
<glyph unicode="b" horiz-adv-x="931" d="M104 27l250 1421q7 27 31 27h385q88 0 140 -63q41 -49 41 -114q0 -18 -3 -38l-69 -398q-7 -37 -37 -92q34 -48 34 -106q0 -19 -4 -39l-71 -410q-15 -89 -89.5 -152t-162.5 -63h-422q-12 0 -19 7.5t-4 19.5zM258 119h334q23 0 40.5 16t20.5 39l82 461q3 21 -7 35.5 t-30 17.5h-340zM377 801h303q23 1 38.5 16t18.5 37l78 440q3 23 -8.5 38.5t-34.5 15.5h-297z" />
<glyph unicode="c" horiz-adv-x="921" d="M137 207l189 1061q15 90 89 152.5t163 62.5h223q89 0 141 -62q40 -48 40 -114q0 -19 -3 -39l-25 -135q-1 -12 -9 -19.5t-19 -7.5h-86q-26 0 -23 27l31 170q3 23 -10 38t-35 15h-271q-24 0 -42 -15t-21 -38l-201 -1139q-5 -22 8.5 -37.5t36.5 -15.5h279q23 0 40.5 15.5 t22.5 37.5l47 270q1 12 10.5 19.5t20.5 7.5h86q26 0 23 -27l-41 -227q-15 -90 -89.5 -153.5t-162.5 -63.5h-234q-89 0 -141 64q-41 49 -40 114q0 19 3 39z" />
<glyph unicode="d" horiz-adv-x="937" d="M104 27l250 1421q7 27 31 27h422q89 0 141 -63q41 -49 40 -114q0 -18 -3 -38l-184 -1045q-15 -89 -89.5 -152t-162.5 -63h-422q-12 0 -19 7.5t-4 19.5zM258 127h334q23 0 41.5 15.5t21.5 37.5l197 1114q3 23 -8.5 38.5t-34.5 15.5h-334z" />
<glyph unicode="e" horiz-adv-x="876" d="M104 27l250 1421q7 27 31 27h559q11 0 18.5 -8t4.5 -19l-13 -76q-3 -12 -12 -19t-20 -7h-449l-88 -506h375q11 0 17 -7.5t5 -17.5l-14 -76q-1 -10 -10.5 -18t-20.5 -8h-375l-104 -586h461q11 0 17 -7.5t3 -19.5l-12 -73q-7 -27 -29 -27h-571q-12 0 -19 7.5t-4 19.5z" />
<glyph unicode="f" horiz-adv-x="845" d="M104 27l250 1421q7 27 31 27h559q11 0 18.5 -8t4.5 -19l-13 -76q-3 -12 -12 -19t-20 -7h-449l-88 -506h375q11 0 17 -7.5t5 -17.5l-14 -76q-1 -10 -10.5 -18t-20.5 -8h-375l-120 -686q-7 -27 -29 -27h-86q-12 0 -19 7.5t-4 19.5z" />
<glyph unicode="g" horiz-adv-x="917" d="M137 207l189 1061q15 90 89 152.5t163 62.5h217q90 0 143 -63q40 -48 40 -113q0 -19 -3 -39l-25 -135q-1 -12 -10 -19.5t-20 -7.5h-86q-11 0 -17.5 7.5t-5.5 19.5l31 170q3 23 -9.5 38t-35.5 15h-265q-24 0 -42 -15t-21 -38l-201 -1139q-5 -22 8.5 -37.5t36.5 -15.5h277 q22 0 40 15.5t23 37.5l74 426h-190q-11 0 -17.5 7t-3.5 19l12 74q1 12 10.5 19.5t20.5 7.5h303q11 0 16.5 -7.5t4.5 -19.5l-86 -483q-15 -90 -89.5 -153.5t-162.5 -63.5h-230q-88 0 -141 64q-40 49 -40 114q0 19 3 39z" />
<glyph unicode="h" horiz-adv-x="952" d="M104 27l250 1421q7 27 31 27h86q11 0 17.5 -7.5t3.5 -19.5l-107 -608h403l107 608q7 27 29 27h88q11 0 17 -7.5t3 -19.5l-250 -1421q-7 -27 -28 -27h-88q-11 0 -17.5 7.5t-3.5 19.5l121 686h-404l-120 -686q-7 -27 -29 -27h-86q-12 0 -19 7.5t-4 19.5z" />
<glyph unicode="i" horiz-adv-x="411" d="M104 27l250 1421q7 27 31 27h86q11 0 17.5 -7.5t3.5 -19.5l-250 -1421q-7 -27 -29 -27h-86q-12 0 -19 7.5t-4 19.5z" />
<glyph unicode="j" horiz-adv-x="843" d="M76 207l41 227q2 12 10 19.5t20 7.5h82q11 0 17.5 -7.5t5.5 -19.5l-47 -270q-5 -22 7.5 -37.5t35.5 -15.5h260q22 0 40 15.5t23 37.5l226 1284q7 27 28 27h88q11 0 17.5 -7.5t3.5 -19.5l-219 -1241q-15 -90 -89.5 -153.5t-162.5 -63.5h-209q-88 0 -140 64q-41 49 -41 114 q0 19 3 39z" />
<glyph unicode="k" horiz-adv-x="911" d="M104 27l250 1421q7 27 31 27h86q11 0 17.5 -7.5t3.5 -19.5l-121 -692l518 692q18 27 37 27h94q3 0 5.5 -1t6.5 -7t-6 -19l-418 -569l201 -852q3 -12 -1 -19t-10 -8h-5h-103q-16 0 -22 27l-174 710l-164 -205l-88 -505q-7 -27 -29 -27h-86q-12 0 -19 7.5t-4 19.5z" />
<glyph unicode="l" horiz-adv-x="843" d="M104 27l250 1421q7 27 31 27h86q11 0 17.5 -7.5t3.5 -19.5l-234 -1321h461q11 0 17 -7.5t3 -19.5l-12 -73q-7 -27 -29 -27h-571q-12 0 -19 7.5t-4 19.5z" />
<glyph unicode="m" horiz-adv-x="1206" d="M104 27l250 1421q7 27 31 27h74q22 0 28 -27l203 -746l465 746q7 12 16 19t14 7l5 1h76q11 0 17 -7.5t3 -19.5l-250 -1421q-7 -27 -28 -27h-86q-11 0 -17.5 7.5t-3.5 19.5l195 1110l-457 -723l-205 723l-194 -1110q-7 -27 -29 -27h-84q-12 0 -19 7.5t-4 19.5z" />
<glyph unicode="n" horiz-adv-x="952" d="M104 27l250 1421q7 27 31 27h80q2 0 5 -0.5t9.5 -7.5t9.5 -19l222 -1061l186 1061q7 27 29 27h86q11 0 17 -7.5t3 -19.5l-250 -1421q-7 -27 -28 -27h-74q-2 0 -6 0.5t-11 7.5t-10 19l-227 1056l-186 -1056q-7 -27 -29 -27h-84q-12 0 -19 7.5t-4 19.5z" />
<glyph unicode="o" d="M137 207l189 1061q15 90 89 152.5t163 62.5h235q91 -1 143 -63q41 -49 40 -113q0 -19 -3 -39l-188 -1061q-15 -90 -89.5 -153.5t-164.5 -63.5h-236q-89 0 -141 64q-41 49 -40 114q0 19 3 39zM268 164q-5 -22 8.5 -37.5t36.5 -15.5h283q23 0 40.5 15.5t22.5 37.5l201 1139 q3 23 -9.5 38t-35.5 15h-283q-24 0 -42 -15t-21 -38z" />
<glyph unicode="p" horiz-adv-x="927" d="M104 27l250 1421q7 27 31 27h422q88 0 141 -63q40 -49 40 -114q0 -18 -3 -38l-74 -414q-15 -89 -89.5 -152t-162.5 -63h-311l-106 -604q-7 -27 -29 -27h-86q-12 0 -19 7.5t-4 19.5zM369 745h333q23 0 41 16t21 38l88 495q3 23 -8.5 38.5t-34.5 15.5h-334z" />
<glyph unicode="q" d="M137 207l189 1061q15 90 89 152.5t163 62.5h235q90 0 143 -63q40 -48 40 -113q0 -19 -3 -39l-188 -1061q-15 -90 -89.5 -153.5t-164.5 -63.5h-47l-23 -129q-7 -27 -32 -27h-89q-11 0 -16 7.5t-2 19.5l23 129h-50q-88 0 -141 64q-40 49 -40 114q0 19 3 39zM268 164 q-5 -22 8.5 -37.5t36.5 -15.5h283q23 0 40.5 15.5t22.5 37.5l201 1139q3 23 -9.5 38t-35.5 15h-283q-24 0 -42 -15t-21 -38z" />
<glyph unicode="r" horiz-adv-x="927" d="M104 27l250 1421q7 27 31 27h422q89 0 141 -63q41 -49 40 -114q0 -18 -3 -38l-74 -416q-12 -68 -58.5 -122t-111.5 -79l39 -616q1 -12 -3 -18.5t-9 -7.5l-4 -1h-105q-2 0 -5 0.5t-8.5 7.5t-6.5 19l-41 602h-250l-106 -602q-7 -27 -29 -27h-86q-12 0 -19 7.5t-4 19.5z M369 750h333q23 0 41 15.5t23 37.5l86 491q3 23 -8.5 38.5t-34.5 15.5h-334z" />
<glyph unicode="s" horiz-adv-x="882" d="M106 207l41 227q1 12 10.5 19.5t20.5 7.5h86q26 0 23 -27l-47 -270q-4 -22 8.5 -37.5t34.5 -15.5h280q22 0 41 15.5t23 37.5l84 485q4 22 -8.5 37.5t-34.5 15.5h-256q-88 0 -142 64q-42 50 -42 114q0 18 3 38l64 350q15 90 89.5 152.5t164.5 62.5h223q88 -1 140 -63 q41 -49 41 -113q0 -19 -3 -39l-24 -135q-1 -12 -10 -19.5t-21 -7.5h-86q-11 0 -17.5 7.5t-5.5 19.5l31 170q3 23 -9.5 38t-35.5 15h-270q-22 0 -40.5 -15t-21.5 -38l-75 -429q-4 -22 8.5 -37.5t34.5 -15.5h256q89 0 141 -62q40 -48 40 -114q0 -19 -3 -39l-72 -399 q-15 -90 -88.5 -153.5t-163.5 -63.5h-231q-90 0 -143 64q-41 49 -41 115q0 18 3 38z" />
<glyph unicode="t" horiz-adv-x="890" d="M299 1372l12 76q7 27 31 27h627q11 0 18 -7.5t4 -19.5l-12 -76q-7 -24 -31 -24h-248l-233 -1321q-7 -27 -29 -27h-84q-11 0 -17 7.5t-3 19.5l233 1321h-245q-11 0 -18.5 7t-4.5 17z" />
<glyph unicode="u" horiz-adv-x="950" d="M137 207l219 1241q7 27 31 27h86q11 0 17.5 -7.5t3.5 -19.5l-226 -1284q-5 -22 8.5 -37.5t36.5 -15.5h279q23 0 40.5 15.5t22.5 37.5l226 1284q7 27 30 27h86q12 0 19 -7.5t4 -19.5l-219 -1241q-15 -90 -89.5 -153.5t-162.5 -63.5h-234q-89 0 -141 64q-41 49 -40 114 q0 19 3 39z" />
<glyph unicode="v" horiz-adv-x="907" d="M307 27l4 1421q0 12 5.5 19t10.5 7l5 1h100q2 0 5 -0.5t8.5 -7.5t5.5 -19l-17 -1333l455 1333q4 12 10.5 19t10.5 7l5 1h101q2 0 5 -1t7.5 -7t-0.5 -19l-496 -1421q-4 -12 -12 -18.5t-14 -7.5l-6 -1h-168q-3 0 -7 0.5t-11 7.5t-7 19z" />
<glyph unicode="w" horiz-adv-x="1413" d="M307 27l4 1421q0 12 5.5 19t10.5 7l5 1h100q2 0 5 -0.5t8.5 -7.5t5.5 -19l-17 -1333l424 1333q4 12 10.5 19t11.5 7l5 1h84q2 0 5 -0.5t8 -7.5t5 -19l-47 -1333l455 1333q4 12 10.5 19t10.5 7l5 1h101q2 0 5 -1t7.5 -7t-0.5 -19l-496 -1421q-4 -12 -12 -19t-14 -8h-6 h-166q-3 0 -7 0.5t-11 7.5t-7 19l31 989l-316 -989q-4 -12 -12 -18.5t-14 -7.5l-6 -1h-166q-3 0 -7 0.5t-11 7.5t-7 19z" />
<glyph unicode="x" horiz-adv-x="862" d="M42.5 8q-3.5 6 4.5 19l389 733l-125 688q-2 12 2 19t9 7l4 1h108q2 0 5.5 -0.5t10 -7.5t9.5 -19l90 -512l272 512q6 12 14.5 19t13.5 7l5 1h109q2 0 4 -1t5.5 -7t-3.5 -19l-367 -688l131 -733q3 -12 -0.5 -18.5t-8.5 -7.5l-5 -1h-105q-2 0 -5 0.5t-9.5 7.5t-9.5 19 l-103 557l-297 -557q-6 -12 -14 -19t-13 -8h-5h-105q-2 0 -4.5 1t-6 7z" />
<glyph unicode="y" horiz-adv-x="874" d="M299 1448q-2 12 1.5 19t7.5 7l5 1h99q2 0 5 -0.5t9 -7.5t8 -19l92 -711l340 711q5 12 13 19t13 7l5 1h98q2 0 4.5 -1t6.5 -7t-2 -19l-449 -926l-86 -495q-7 -27 -31 -27h-84q-11 0 -18 7.5t-4 19.5l86 495z" />
<glyph unicode="z" horiz-adv-x="866" d="M84 27l16 100l701 1221h-457q-12 0 -18.5 7t-3.5 17l12 76q7 27 31 27h571q11 0 17 -7.5t3 -19.5l-16 -100l-696 -1221h454q11 0 17.5 -7.5t3.5 -19.5l-12 -73q-7 -27 -29 -27h-572q-12 0 -18.5 7.5t-3.5 19.5z" />
<glyph unicode="{" horiz-adv-x="628" d="M199 23l73 411l-59 287l160 287l80 444q15 90 89.5 152.5t164.5 62.5h61q12 0 18.5 -7t4.5 -18l-15 -75q-2 -11 -10.5 -19t-20.5 -8h-86q-22 0 -40 -15t-21 -38l-86 -479l-152 -287l52 -287l-80 -454q-4 -22 8.5 -38t34.5 -16h86q25 0 22 -26l-12 -68q-2 -11 -10.5 -19 t-20.5 -8h-61q-89 0 -142 63.5t-38 154.5z" />
<glyph unicode="|" horiz-adv-x="417" d="M63 -186l328 1847q4 25 31 25h86q10 0 16 -7t4 -18l-327 -1847q-2 -11 -10.5 -19t-18.5 -8h-86q-12 0 -18.5 8t-4.5 19z" />
<glyph unicode="}" horiz-adv-x="628" d="M12 -168l13 68q3 26 30 26h86q22 0 40.5 16t23.5 38l80 454l153 287l-53 287l86 479q3 23 -10 38t-35 15h-86q-12 0 -18.5 8t-4.5 19l15 75q4 25 30 25h62q90 0 142.5 -62.5t37.5 -152.5l-80 -444l62 -287l-162 -287l-74 -411q-15 -90 -89.5 -154t-164.5 -64h-61 q-12 0 -18.5 8t-4.5 19z" />
<glyph unicode="~" horiz-adv-x="948" d="M199 727q-4 10 0.5 21t13.5 16l74 39q9 5 20 1.5t15 -13.5l24 -66q9 -20 30 -26t40 6l217 112q83 43 166 20t112 -98l13 -28q7 -23 -15 -35l-75 -41q-7 -3 -17.5 0.5t-13.5 11.5l-25 55q-9 21 -28 27.5t-41 -4.5l-215 -113q-85 -45 -166.5 -22t-112.5 100z" />
<glyph unicode="&#xa1;" horiz-adv-x="409" d="M104 27l209 1190q7 26 31 26h86q11 0 16.5 -7t2.5 -19l-209 -1190q-7 -27 -29 -27h-86q-11 0 -17.5 7.5t-3.5 19.5zM338 1356l16 92q7 27 29 27h86q11 0 17 -7.5t3 -19.5l-16 -92q-1 -10 -9.5 -17.5t-19.5 -7.5h-86q-10 0 -16 7t-4 18z" />
<glyph unicode="&#xa2;" horiz-adv-x="909" d="M147 311l148 836q15 89 90.5 152t163.5 63h59l15 86q7 27 30 27h49q11 0 18.5 -8t4.5 -19l-14 -86h57q89 0 141 -63t37 -152l-24 -137q-1 -10 -10.5 -17.5t-20.5 -7.5h-86q-11 0 -17.5 7.5t-5.5 17.5l31 172q4 22 -8.5 37.5t-34.5 15.5h-266q-23 0 -42 -15.5t-24 -37.5 l-159 -914q-5 -22 8.5 -37.5t36.5 -15.5h276q22 0 41 15.5t23 37.5l47 273q1 10 9 17t19 7h88q11 0 16.5 -7t4.5 -17l-41 -230q-15 -89 -89.5 -152t-162.5 -63h-70l-12 -69q-7 -27 -31 -27h-49q-11 0 -18 7.5t-4 19.5l12 69h-57q-88 0 -141 63t-38 152z" />
<glyph unicode="&#xa3;" horiz-adv-x="933" d="M41 0l20 119h13q23 0 40.5 16t20.5 39l86 479h-39q-12 0 -18 8t-4 19l14 76q2 11 10.5 18.5t20.5 7.5h39l86 486q15 90 89.5 152.5t164.5 62.5h219q88 0 140.5 -62.5t37.5 -152.5l-25 -135q-2 -12 -10 -19.5t-20 -7.5h-86q-11 0 -16.5 7.5t-4.5 19.5l33 188q4 23 -9 38 t-36 15h-266q-22 0 -41 -15t-23 -38l-94 -539h393q10 0 16.5 -7.5t4.5 -18.5l-15 -76q-2 -11 -10 -19t-18 -8h-394l-94 -534h383q37 0 41 28l10 56q2 11 10.5 18.5t20.5 7.5h86q11 0 17.5 -8t5.5 -18l-4 -25q-14 -85 -84 -131.5t-164 -46.5h-547z" />
<glyph unicode="&#xa4;" horiz-adv-x="888" d="M166.5 470q2.5 11 11.5 19l45 39q-2 5 -5 13t-7.5 34t0.5 48l31 170q4 26 15.5 49.5t20.5 33.5l9 11l-31 37q-7 9 -4 21t12 20l64 53q19 16 34 -2l33 -37q44 29 99 29h172q24 0 46.5 -7t33.5 -15l10 -7l45 37q22 18 35 2l47 -53q6 -7 3.5 -19.5t-12.5 -21.5l-43 -37 q3 -4 6 -11.5t8.5 -32t-1.5 -50.5l-31 -170q-4 -24 -15 -47.5t-20 -35.5l-10 -12l33 -39q6 -8 3.5 -19t-11.5 -17l-62 -56q-9 -8 -21 -8.5t-20 8.5l-31 37q-39 -28 -100 -28h-172q-27 0 -49 7t-30 14l-9 7l-43 -37q-11 -9 -23 -8.5t-18 8.5l-45 56q-6 6 -3.5 17zM342 580 q-3 -22 10 -38t35 -16h217q22 0 40.5 16t21.5 38l45 247q6 24 -7.5 38t-37.5 16h-217q-24 -2 -41.5 -16t-20.5 -38z" />
<glyph unicode="&#xa5;" horiz-adv-x="888" d="M145 274l15 76q2 11 10 19t18 8h199l23 129h-199q-10 0 -16.5 7.5t-4.5 18.5l15 76q2 11 10 19t18 8h164l-104 813q-2 12 1.5 19t7.5 7l5 1h99q2 0 5 -0.5t9 -7.5t8 -19l92 -711l340 711q5 12 13 19t13 7l5 1h98q2 0 4.5 -1t6 -7t-2.5 -19l-393 -813h201q12 0 18 -8 t4 -19l-14 -76q-2 -11 -10.5 -18.5t-20.5 -7.5h-235l-23 -129h236q12 0 18 -8t4 -19l-14 -76q-2 -11 -10.5 -18.5t-20.5 -7.5h-235l-39 -221q-7 -27 -31 -27h-84q-11 0 -18 7.5t-4 19.5l39 221h-199q-10 0 -16.5 7.5t-4.5 18.5z" />
<glyph unicode="&#xa6;" horiz-adv-x="417" d="M63 -186l138 778q7 24 32 24h86q11 0 16.5 -7t2.5 -17l-137 -778q-2 -11 -10.5 -19t-18.5 -8h-86q-12 0 -18.5 8t-4.5 19zM246 844l145 817q4 25 31 25h86q10 0 16 -7t4 -18l-145 -817q-1 -10 -9.5 -17.5t-19.5 -7.5h-86q-12 0 -18 7t-4 18z" />
<glyph unicode="&#xa7;" horiz-adv-x="890" d="M106 170l25 135q1 12 10 19.5t21 7.5h86q23 0 20 -27l-24 -133q-3 -23 10.5 -38t36.5 -15h303q22 0 40 15t21 38l37 205q7 38 -30 51h-297q-88 0 -140 63t-37 152l33 186q9 47 37 93q-46 61 -31 145l43 238q15 90 89 152.5t163 62.5h256q90 0 142.5 -62.5t37.5 -152.5 l-24 -136q-1 -12 -10.5 -19t-20.5 -7h-86q-11 0 -17 7t-5 19l30 170q3 23 -10 38.5t-35 15.5h-303q-23 0 -41.5 -15.5t-21.5 -38.5l-43 -241q-3 -20 7.5 -35.5t29.5 -18.5h286q89 0 142 -63t38 -152l-32 -186q-7 -40 -37 -90q45 -61 33 -145l-43 -238q-15 -90 -90.5 -153.5 t-165.5 -63.5h-256q-88 0 -140 63.5t-37 153.5zM319 598q-3 -22 10 -36.5t36 -14.5h282q38 0 47 51l47 266q3 22 -10 38t-35 16h-268q-23 0 -40.5 -16t-20.5 -38z" />
<glyph unicode="&#xa8;" horiz-adv-x="770" d="M279 1636q7 37 37 61.5t65 24.5q36 0 56.5 -25t13.5 -61q-6 -35 -36 -60.5t-65 -25.5t-56 25.5t-15 60.5zM647 1636q7 36 37 61t66 25t56 -25t13 -61q-6 -35 -35.5 -60.5t-64.5 -25.5t-56.5 25.5t-15.5 60.5z" />
<glyph unicode="&#xa9;" horiz-adv-x="1615" d="M168 737q27 153 108 291t194.5 238t259 158.5t296.5 58.5q122 0 227.5 -38t181.5 -105.5t128 -161t65 -205t-6 -236.5q-37 -205 -162 -375.5t-309.5 -270t-386.5 -99.5q-151 0 -276 58.5t-204 158t-111 237.5t-5 291zM291 737q-23 -133 3 -249t92 -197.5t169 -128.5 t229 -47q169 0 322 79.5t258.5 222.5t136.5 320t-23.5 320t-178.5 223t-293 80q-168 0 -320.5 -80t-258 -223t-136.5 -320zM666 449l100 567q7 47 47 80.5t88 33.5h119q47 0 74.5 -33.5t19.5 -80.5l-12 -74q-4 -14 -17 -14h-47q-14 0 -10 14l16 92q2 12 -5 20.5t-19 8.5 h-143q-12 0 -23 -8.5t-12 -20.5l-109 -608q-1 -12 7 -20.5t20 -8.5h149q12 0 20.5 8.5t10.5 20.5l27 143q0 6 5.5 10.5t10.5 4.5h47q12 0 12 -15l-22 -120q-9 -49 -49 -83t-86 -34h-125q-48 0 -75.5 34t-18.5 83z" />
<glyph unicode="&#xaa;" horiz-adv-x="550" d="M166 702l264 760q2 5 6.5 8.5t8.5 3.5l4 1h90q12 -1 12 -13l-2 -760q0 -6 -2.5 -9.5t-4.5 -4.5h-3h-54q-10 0 -10 14l2 125h-194l-41 -125q-3 -6 -6.5 -9.5t-5.5 -4.5h-3h-53q-1 0 -3 0.5t-4.5 4t-0.5 9.5zM305 895h172l6 520z" />
<glyph unicode="&#xab;" horiz-adv-x="659" d="M168 694q-10 28 10 51l191 256q8 11 17.5 17.5t14.5 7.5h5h108q18 0 0 -25l-205 -280l105 -281q4 -13 2.5 -19t-6.5 -7h-4h-109q-19 -1 -29 26zM365 694q-10 28 10 51l190 256q9 11 18.5 17.5t14.5 7.5h6h109l6 -3q3 -7 -8 -22l-205 -280l104 -281q5 -13 3.5 -19t-5.5 -7 h-4h-108q-19 -1 -31 26z" />
<glyph unicode="&#xac;" horiz-adv-x="1085" d="M207 698l12 76q2 11 10.5 19t20.5 8h772q10 0 16 -8t4 -19l-59 -342q-7 -26 -31 -26h-75q-11 0 -17.5 7t-3.5 19l41 240h-670q-12 0 -17.5 7.5t-2.5 18.5z" />
<glyph unicode="&#xad;" horiz-adv-x="886" d="M207 680l14 76q2 11 10.5 18.5t20.5 7.5h571q10 0 16.5 -7.5t4.5 -18.5l-15 -76q-2 -11 -10 -19t-18 -8h-572q-12 0 -18 8t-4 19z" />
<glyph unicode="&#xae;" horiz-adv-x="1615" d="M168 737q27 153 108 291t194.5 238t259 158.5t296.5 58.5q122 0 227.5 -38t181.5 -105.5t128 -161t65 -205t-6 -236.5q-37 -205 -162 -375.5t-309.5 -270t-386.5 -99.5q-151 0 -276 58.5t-204 158t-111 237.5t-5 291zM291 737q-23 -133 3 -249t92 -197.5t169 -128.5 t229 -47q169 0 322 79.5t258.5 222.5t136.5 320t-23.5 320t-178.5 223t-293 80q-168 0 -320.5 -80t-258 -223t-136.5 -320zM659 352l134 760q3 12 16 12h225q47 0 75 -33.5t19 -80.5l-38 -222q-6 -36 -31.5 -65t-59.5 -41l23 -330q0 -6 -2.5 -9.5t-5.5 -4.5h-2h-58 q-10 0 -12 14l-20 322h-131l-58 -322q-3 -14 -14 -14h-47q-6 0 -10 4t-3 10zM801 737h178q12 0 21.5 9t11.5 20l47 262q2 12 -5.5 20.5t-19.5 8.5h-178z" />
<glyph unicode="&#xaf;" horiz-adv-x="851" d="M279 1604v8q7 26 32 26h572q11 0 16 -7t2 -19v-8q-3 -11 -12 -19t-19 -8h-571q-12 0 -17.5 8t-2.5 19z" />
<glyph unicode="&#xb0;" horiz-adv-x="647" d="M342 1405q14 77 78.5 131.5t142.5 54.5q76 0 121 -54.5t31 -131.5q-13 -78 -77.5 -132t-141.5 -54q-78 0 -122.5 54t-31.5 132zM381 1405q-9 -62 25 -105t98 -43q65 0 114 43.5t58 104.5q11 61 -22.5 104t-98.5 43t-114 -43t-60 -104z" />
<glyph unicode="&#xb1;" horiz-adv-x="899" d="M145 289l15 76q2 11 10 18.5t20 7.5h572q10 0 16 -7.5t4 -18.5l-14 -76q-1 -10 -9.5 -17.5t-19.5 -7.5h-571q-12 0 -18.5 7t-4.5 18zM242 827l12 76q2 11 11.5 19t21.5 8h221l39 221q2 11 10 18t18 7h76q11 0 17.5 -7.5t5.5 -17.5l-39 -221h223q10 0 15.5 -8t3.5 -19 l-13 -76q-1 -10 -10 -18t-20 -8h-224l-39 -221q-1 -12 -10 -19.5t-20 -7.5h-76q-11 0 -16.5 7.5t-4.5 19.5l39 221h-221q-24 0 -20 26z" />
<glyph unicode="&#xb2;" horiz-adv-x="638" d="M225 696l11 54q15 18 39 49t87 113t111.5 148t90 129t44.5 83l19 106q3 12 -4 20.5t-19 8.5h-139q-12 0 -22 -8.5t-13 -20.5l-14 -82q-4 -14 -17 -14h-47q-5 0 -8 4t-2 10l12 64q8 47 47 81t86 34h115q47 0 75.5 -34t20.5 -81l-16 -88q-5 -31 -94.5 -161.5t-176.5 -245.5 l-87 -115h254q14 0 10 -15l-8 -39q0 -14 -15 -14h-327q-13 0 -13 14z" />
<glyph unicode="&#xb3;" horiz-adv-x="632" d="M240 793l10 63q4 14 14 14h47q6 0 10 -4t3 -10l-15 -86q-3 -12 3.5 -20.5t17.5 -8.5h149q12 0 21 8.5t12 20.5l45 254q2 12 -4 20.5t-18 8.5h-68q-8 3 -8 14l8 41q0 4 5 8t11 4h64q11 0 20 9t11 20l40 229q3 12 -2.5 20.5t-17.5 8.5h-149q-12 0 -23 -8.5t-14 -20.5 l-15 -82q-3 -14 -14 -14h-45q-16 0 -12 14l12 64q8 47 47 81t86 34h125q46 0 74.5 -34t21.5 -81l-37 -207q-6 -37 -32 -63q17 -25 10 -64l-41 -233q-9 -49 -49 -83t-86 -34h-123q-48 0 -75.5 34t-18.5 83z" />
<glyph unicode="&#xb4;" horiz-adv-x="444" d="M280 1562q-5 6 5 23l96 156q7 12 16 18.5t14 6.5l5 1h71l6 -2q3 -8 -12 -24l-159 -182h-35z" />
<glyph unicode="&#xb5;" horiz-adv-x="952" d="M53 -281l305 1729q7 27 31 27h86q11 0 17.5 -7.5t3.5 -19.5l-228 -1290q-2 -20 11.5 -33.5t35.5 -13.5h279q23 0 40.5 15.5t22.5 37.5l226 1284q7 27 30 27h86q12 0 19 -7.5t4 -19.5l-250 -1421q-7 -27 -29 -27h-501l-52 -281q-1 -12 -9 -19t-19 -7h-86q-26 0 -23 26z " />
<glyph unicode="&#xb6;" horiz-adv-x="1118" d="M250 844l74 416q15 89 89 152t162 63h631q11 0 18.5 -8t4.5 -19l-21 -113q-1 -10 -10 -17t-20 -7h-25l-225 -1284q-7 -27 -29 -27h-88q-11 0 -17 7.5t-3 19.5l225 1284h-62l-225 -1284q-7 -27 -29 -27h-88q-11 0 -17 7.5t-3 19.5l106 602h-270q-88 0 -140.5 63t-37.5 152 z" />
<glyph unicode="&#xb7;" horiz-adv-x="286" d="M145 670l17 94q3 12 12.5 19.5t20.5 7.5h90q11 0 17 -7.5t3 -19.5l-16 -94q-1 -12 -10.5 -19.5t-20.5 -7.5h-90q-11 0 -17.5 7.5t-5.5 19.5z" />
<glyph unicode="&#xb8;" horiz-adv-x="444" d="M279 -236l6 27q3 25 28 25h9q10 0 15.5 -7t4.5 -18l-2 -10q-1 -4 2 -8t8 -4h47q11 0 15 14l18 111q1 4 -2 8t-8 4h-47q-11 0 -15 -12l-2 -21h-57l6 39l82 115h68l-47 -66h43q20 0 33 -14.5t10 -34.5l-27 -145q-3 -21 -20.5 -36.5t-38.5 -15.5h-86q-22 0 -34 14.5t-9 34.5 z" />
<glyph unicode="&#xb9;" horiz-adv-x="448" d="M319 702l121 689h-45q-12 0 -12 12l2 4l84 68h47q15 0 12 -13l-133 -760q-3 -14 -16 -14h-47q-5 0 -9.5 4t-3.5 10z" />
<glyph unicode="&#xba;" horiz-adv-x="452" d="M158 793l100 567q8 47 47 81t86 34h125q47 0 76 -34t22 -81l-100 -567q-9 -49 -49 -83t-88 -34h-125q-48 0 -75.5 34t-18.5 83zM225 770q-3 -12 5 -20.5t20 -8.5h151q12 0 21 8.5t12 20.5l107 608q3 12 -3 20.5t-18 8.5h-151q-12 0 -23 -8.5t-14 -20.5z" />
<glyph unicode="&#xbb;" horiz-adv-x="659" d="M114 417q-3 6 9 23l207 281l-107 280q-5 12 -3.5 17.5t5.5 6.5l4 1h109q19 0 31 -25l100 -256q10 -28 -10 -51l-191 -254q-9 -12 -18.5 -18.5t-15.5 -7.5h-5h-108zM312 417q-4 6 7 23l207 281l-106 280q-4 12 -2.5 17.5t6.5 6.5l4 1h109q18 0 28 -25l101 -256 q10 -27 -11 -51l-190 -254q-8 -12 -17.5 -18.5t-14.5 -7.5h-5h-109z" />
<glyph unicode="&#xbc;" horiz-adv-x="1179" d="M182 92q-18 0 0 27l815 1218q8 12 17.5 18.5t14.5 7.5l5 1h74q18 0 0 -27l-821 -1218q-8 -12 -17.5 -19t-14.5 -8h-5h-68zM307 702l121 689h-45q-12 0 -12 12l2 4l84 68h47q15 0 12 -13l-133 -760q-3 -14 -16 -14h-48q-5 0 -9 4t-3 10zM649 162l10 55l318 557q3 5 7 8 t6 4h3h64q6 2 9.5 -2t2.5 -10l-98 -557h49q6 0 9.5 -4t2.5 -10l-8 -41q0 -12 -16 -12h-50l-22 -136q-4 -14 -16 -14h-48q-5 0 -8 4t-2 10l23 136h-223q-13 0 -13 12zM727 217h174l78 445z" />
<glyph unicode="&#xbd;" horiz-adv-x="1275" d="M182 92q-18 0 0 27l815 1218q8 12 17.5 18.5t14.5 7.5l5 1h74q18 0 0 -27l-821 -1218q-8 -12 -17.5 -19t-14.5 -8h-5h-68zM307 702l121 689h-45q-12 0 -12 12l2 4l84 68h47q15 0 12 -13l-133 -760q-3 -14 -16 -14h-48q-5 0 -9 4t-3 10zM741 14l9 54q15 18 39 49t87 113 t111.5 148t90 129t44.5 83l19 106q3 12 -4 20.5t-19 8.5h-139q-12 0 -22 -8.5t-13 -20.5l-14 -82q0 -6 -5.5 -10t-11.5 -4h-47q-10 0 -10 14l12 64q7 47 47.5 81t88.5 34h114q47 0 74.5 -33.5t19.5 -81.5l-16 -88q-5 -31 -94.5 -161.5t-176.5 -245.5l-87 -115h254 q14 0 10 -15l-6 -39q-4 -14 -15 -14h-327q-6 0 -10 4t-3 10z" />
<glyph unicode="&#xbe;" horiz-adv-x="1325" d="M250 793l10 63q4 14 14 14h48q6 0 9.5 -4t2.5 -10l-15 -86q-3 -12 3.5 -20.5t17.5 -8.5h149q12 0 21 8.5t12 20.5l45 254q2 12 -4 20.5t-18 8.5h-68q-8 3 -8 14l8 41q0 4 5.5 8t11.5 4h63q11 0 20 9t11 20l41 229q3 12 -3 20.5t-18 8.5h-149q-12 0 -23 -8.5t-14 -20.5 l-14 -82q-4 -14 -15 -14h-45q-16 0 -12 14l12 64q8 47 47 81t86 34h125q46 0 74.5 -34t21.5 -81l-36 -207q-6 -36 -33 -63q17 -25 10 -64l-41 -233q-9 -49 -49 -83t-86 -34h-123q-48 0 -75.5 34t-18.5 83zM348 92q-18 0 0 27l815 1218q8 12 17.5 18.5t14.5 7.5l5 1h74 q18 0 0 -27l-821 -1218q-8 -12 -17.5 -19t-14.5 -8h-5h-68zM815 162l10 55l318 557q3 5 7 8t6 4h3h64q6 2 9.5 -2t2.5 -10l-98 -557h49q6 0 9.5 -4t2.5 -10l-8 -41q0 -12 -16 -12h-50l-22 -136q-4 -14 -17 -14h-47q-5 0 -8 4t-2 10l23 136h-224q-12 0 -12 12zM893 217h174 l78 445z" />
<glyph unicode="&#xbf;" horiz-adv-x="880" d="M117 215l78 436q15 89 89.5 152t164.5 63h2q22 0 40 16t23 38l53 305q1 12 9.5 19t19.5 7h86q23 0 20 -26l-47 -262q-15 -90 -88.5 -152.5t-163.5 -62.5q-22 0 -40 -16t-23 -38l-90 -514q-4 -23 8.5 -38t34.5 -15h270q23 0 41.5 15t22.5 38l30 170q1 12 10.5 19.5 t20.5 7.5h86q26 0 23 -27l-25 -135q-15 -90 -89 -152.5t-163 -62.5h-223q-90 0 -142.5 62.5t-37.5 152.5zM592 1364l16 92q1 12 9.5 19.5t19.5 7.5h86q23 0 20 -27l-16 -92q-1 -10 -9.5 -17.5t-19.5 -7.5h-86q-10 0 -16 7t-4 18z" />
<glyph unicode="&#xc0;" horiz-adv-x="907" d="M63 8q-5 6 0 19l496 1421q4 12 12 19t15 7l6 1h168h2.5t5.5 -1.5t7.5 -4t6 -8t2.5 -13.5l-4 -1421q0 -12 -5 -19t-10 -8h-5h-101q-2 0 -5 0.5t-8 7.5t-5 19l2 233h-362l-78 -233q-4 -12 -10.5 -18.5t-11.5 -7.5l-5 -1h-100q-2 0 -5 1t-8 7zM324 387h321l12 973z M557.5 1760q1.5 6 5.5 6l4 1h72q2 0 5.5 -0.5t10 -7t9.5 -18.5l43 -156q3 -12 -0.5 -18.5t-8.5 -6.5l-4 -1h-35l-98 182q-5 13 -3.5 19z" />
<glyph unicode="&#xc1;" horiz-adv-x="903" d="M63 8q-5 6 0 19l496 1421q4 12 12 19t15 7l6 1h168h2.5t5.5 -1.5t7.5 -4t6 -8t2.5 -13.5l-4 -1421q0 -12 -5 -19t-10 -8h-5h-101q-2 0 -5 0.5t-8 7.5t-5 19l2 233h-362l-78 -233q-4 -12 -10.5 -18.5t-11.5 -7.5l-5 -1h-100q-2 0 -5 1t-8 7zM324 387h321l12 973zM677 1562 q-6 6 3 23l96 156q8 12 17 18.5t15 6.5l5 1h72l6 -2q3 -8 -12 -24l-160 -182h-35z" />
<glyph unicode="&#xc2;" horiz-adv-x="909" d="M63 8q-5 6 0 19l496 1421q4 12 12 19t15 7l6 1h168h2.5t5.5 -1.5t7.5 -4t6 -8t2.5 -13.5l-4 -1421q0 -12 -5 -19t-10 -8h-5h-101q-2 0 -5 0.5t-8 7.5t-5 19l2 233h-362l-78 -233q-4 -12 -10.5 -18.5t-11.5 -7.5l-5 -1h-100q-2 0 -5 1t-8 7zM324 387h321l12 973zM544 1562 q-5 6 5 23l117 156q20 26 39 26h49q15 0 26 -26l64 -156q3 -13 1 -19t-7 -6l-4 -1h-35l-86 116l-127 -116h-35z" />
<glyph unicode="&#xc3;" horiz-adv-x="911" d="M63 8q-5 6 0 19l496 1421q4 12 12 19t15 7l6 1h168h2.5t5.5 -1.5t7.5 -4t6 -8t2.5 -13.5l-4 -1421q0 -12 -5 -19t-10 -8h-5h-101q-2 0 -5 0.5t-8 7.5t-5 19l2 233h-362l-78 -233q-4 -12 -10.5 -18.5t-11.5 -7.5l-5 -1h-100q-2 0 -5 1t-8 7zM324 387h321l12 973z M487.5 1566.5q-3.5 5.5 10.5 18.5l145 156q12 12 23.5 18.5t16.5 6.5l5 1h25l65 -106l109 106h53l10 -3q7 -6 -10 -23l-145 -156q-11 -12 -22 -18.5t-16 -6.5l-5 -1h-35l-55 112l-109 -112h-53q-3 0 -6 1t-6.5 6.5z" />
<glyph unicode="&#xc4;" horiz-adv-x="905" d="M63 8q-5 6 0 19l496 1421q4 12 12 19t15 7l6 1h168h2.5t5.5 -1.5t7.5 -4t6 -8t2.5 -13.5l-4 -1421q0 -12 -5 -19t-10 -8h-5h-101q-2 0 -5 0.5t-8 7.5t-5 19l2 233h-362l-78 -233q-4 -12 -10.5 -18.5t-11.5 -7.5l-5 -1h-100q-2 0 -5 1t-8 7zM324 387h321l12 973zM434 1636 q7 36 37 61t66 25t56 -25t13 -61q-6 -35 -35.5 -60.5t-64.5 -25.5t-56.5 25.5t-15.5 60.5zM803 1636q7 37 37 61.5t65 24.5q36 0 56.5 -25t13.5 -61q-6 -35 -36 -60.5t-65 -25.5t-56 25.5t-15 60.5z" />
<glyph unicode="&#xc5;" horiz-adv-x="911" d="M63 8q-5 6 0 19l480 1376q-55 55 -39 143q12 77 76.5 132t142.5 55q76 0 121 -55t33 -132q-15 -83 -95 -143l-2 -1376q0 -12 -5 -19t-10 -8h-5h-101q-2 0 -5 0.5t-8 7.5t-5 19l2 233h-362l-78 -233q-4 -12 -10.5 -18.5t-11.5 -7.5l-5 -1h-100q-2 0 -5 1t-8 7zM324 387 h321l12 973zM565 1546q-10 -55 22.5 -90t80.5 -35t92.5 35t54.5 90q9 56 -23.5 90.5t-80.5 34.5t-92.5 -35t-53.5 -90z" />
<glyph unicode="&#xc6;" horiz-adv-x="1175" d="M63 8q-5 6 0 19l496 1421q4 12 12 19t15 7l6 1h653q11 0 17.5 -7.5t3.5 -19.5l-13 -76q-7 -26 -30 -26h-441v-506h279q10 0 16 -7t4 -18l-14 -76q-2 -11 -10.5 -18.5t-18.5 -7.5h-256l-4 -586h240q11 0 18 -7.5t4 -19.5l-12 -73q-7 -27 -31 -27h-338q-2 0 -5 0.5t-8 7.5 t-5 19l2 233h-362l-78 -233q-4 -12 -10.5 -18.5t-11.5 -7.5l-5 -1h-100q-2 0 -5 1t-8 7zM324 387h321l12 973z" />
<glyph unicode="&#xc7;" horiz-adv-x="921" d="M137 207l189 1061q15 90 89 152.5t163 62.5h223q89 0 141 -62t37 -153l-25 -135q-1 -12 -9 -19.5t-19 -7.5h-86q-26 0 -23 27l31 170q3 23 -10 38t-35 15h-271q-24 0 -42 -15t-21 -38l-201 -1139q-5 -22 8.5 -37.5t36.5 -15.5h279q23 0 40.5 15.5t22.5 37.5l47 270 q1 12 10.5 19.5t20.5 7.5h86q26 0 23 -27l-41 -227q-15 -90 -89.5 -153.5t-162.5 -63.5h-100l-21 -29h43q20 0 33 -14.5t10 -34.5l-27 -145q-3 -21 -20.5 -36.5t-38.5 -15.5h-86q-22 0 -34 14.5t-9 34.5l6 27q3 25 29 25h8q10 0 15.5 -7t4.5 -18l-2 -10q-1 -4 2.5 -8t8.5 -4 h47q10 0 14 14l19 111q1 4 -2.5 8t-8.5 4h-47q-10 0 -14 -12l-2 -21h-58l7 39l55 78h-66q-88 0 -140.5 63.5t-37.5 153.5z" />
<glyph unicode="&#xc8;" horiz-adv-x="876" d="M104 27l250 1421q7 27 31 27h559q11 0 18.5 -8t4.5 -19l-13 -76q-3 -12 -12 -19t-20 -7h-449l-88 -506h375q11 0 17 -7.5t5 -17.5l-14 -76q-1 -10 -10.5 -18t-20.5 -8h-375l-104 -586h461q11 0 17 -7.5t3 -19.5l-12 -73q-7 -27 -29 -27h-571q-12 0 -19 7.5t-4 19.5z M555.5 1760q1.5 6 5.5 6l4 1h72q2 0 5 -0.5t9 -7t8 -18.5l43 -156q3 -13 1 -19t-7 -6l-4 -1h-35l-98 182q-5 13 -3.5 19z" />
<glyph unicode="&#xc9;" horiz-adv-x="876" d="M104 27l250 1421q7 27 31 27h559q11 0 18.5 -8t4.5 -19l-13 -76q-3 -12 -12 -19t-20 -7h-449l-88 -506h375q11 0 17 -7.5t5 -17.5l-14 -76q-1 -10 -10.5 -18t-20.5 -8h-375l-104 -586h461q11 0 17 -7.5t3 -19.5l-12 -73q-7 -27 -29 -27h-571q-12 0 -19 7.5t-4 19.5z M657 1562q-5 6 5 23l96 156q7 12 16 18.5t14 6.5l5 1h71l6 -2q3 -8 -12 -24l-160 -182h-34z" />
<glyph unicode="&#xca;" horiz-adv-x="876" d="M104 27l250 1421q7 27 31 27h559q11 0 18.5 -8t4.5 -19l-13 -76q-3 -12 -12 -19t-20 -7h-449l-88 -506h375q11 0 17 -7.5t5 -17.5l-14 -76q-1 -10 -10.5 -18t-20.5 -8h-375l-104 -586h461q11 0 17 -7.5t3 -19.5l-12 -73q-7 -27 -29 -27h-571q-12 0 -19 7.5t-4 19.5z M528 1562q-6 6 4 23l117 156q20 26 39 26h49q16 0 27 -26l63 -156q3 -13 1 -19t-6 -6l-5 -1h-35l-86 116l-127 -116h-34z" />
<glyph unicode="&#xcb;" horiz-adv-x="876" d="M104 27l250 1421q7 27 31 27h559q11 0 18.5 -8t4.5 -19l-13 -76q-3 -12 -12 -19t-20 -7h-449l-88 -506h375q11 0 17 -7.5t5 -17.5l-14 -76q-1 -10 -10.5 -18t-20.5 -8h-375l-104 -586h461q11 0 17 -7.5t3 -19.5l-12 -73q-7 -27 -29 -27h-571q-12 0 -19 7.5t-4 19.5z M420 1636q7 37 37 61.5t65 24.5q36 0 56.5 -25t13.5 -61q-6 -35 -35.5 -60.5t-64.5 -25.5t-56.5 25.5t-15.5 60.5zM788 1636q7 36 37 61t66 25t56.5 -25t13.5 -61q-6 -35 -36 -60.5t-65 -25.5t-56.5 25.5t-15.5 60.5z" />
<glyph unicode="&#xcc;" horiz-adv-x="391" d="M104 27l250 1421q7 27 29 27h86q12 0 19 -7.5t4 -19.5l-250 -1421q-7 -27 -31 -27h-86q-11 0 -17.5 7.5t-3.5 19.5zM309.5 1760q1.5 6 5.5 6l4 1h74q2 0 5.5 -0.5t9.5 -7t8 -18.5l43 -156q3 -13 1 -19t-6 -6l-5 -1h-37l-99 182q-5 13 -3.5 19z" />
<glyph unicode="&#xcd;" horiz-adv-x="409" d="M104 27l250 1421q7 27 31 27h86q11 0 17.5 -7.5t3.5 -19.5l-250 -1421q-7 -27 -29 -27h-86q-12 0 -19 7.5t-4 19.5zM429 1562q-6 6 3 23l96 156q8 12 17 18.5t15 6.5l5 1h72l6 -2q3 -8 -12 -24l-160 -182h-35z" />
<glyph unicode="&#xce;" horiz-adv-x="413" d="M104 27l250 1421q7 27 31 27h86q11 0 17.5 -7.5t3.5 -19.5l-250 -1421q-7 -27 -29 -27h-86q-12 0 -19 7.5t-4 19.5zM294 1562q-5 6 5 23l117 156q20 26 39 26h49q15 0 26 -26l64 -156q3 -13 1 -19t-7 -6l-4 -1h-35l-86 116l-127 -116h-35z" />
<glyph unicode="&#xcf;" horiz-adv-x="409" d="M104 27l250 1421q7 27 31 27h86q11 0 17.5 -7.5t3.5 -19.5l-250 -1421q-7 -27 -29 -27h-86q-12 0 -19 7.5t-4 19.5zM205 1636q7 37 37 61.5t65 24.5q36 0 56.5 -25t13.5 -61q-6 -35 -36 -60.5t-65 -25.5t-56 25.5t-15 60.5zM532 1636q7 36 37 61t66 25t56.5 -25t13.5 -61 q-6 -35 -36 -60.5t-65 -25.5t-56.5 25.5t-15.5 60.5z" />
<glyph unicode="&#xd0;" horiz-adv-x="937" d="M104 27l111 626h-65q-12 0 -18.5 8t-4.5 19l14 76q2 11 10.5 18.5t20.5 7.5h66l116 666q7 27 31 27h422q88 0 140.5 -63t37.5 -152l-184 -1045q-15 -89 -89.5 -152t-162.5 -63h-422q-12 0 -19 7.5t-4 19.5zM258 127h334q23 0 41.5 15.5t21.5 37.5l197 1114 q3 23 -8.5 38.5t-34.5 15.5h-334l-100 -566h67q10 0 16.5 -7.5t4.5 -18.5l-14 -76q-2 -11 -10.5 -19t-18.5 -8h-68z" />
<glyph unicode="&#xd1;" horiz-adv-x="952" d="M104 27l250 1421q7 27 31 27h80q2 0 5 -0.5t9.5 -7.5t9.5 -19l222 -1061l186 1061q7 27 29 27h86q11 0 17 -7.5t3 -19.5l-250 -1421q-7 -27 -28 -27h-74q-2 0 -6 0.5t-11 7.5t-10 19l-227 1056l-186 -1056q-7 -27 -29 -27h-84q-12 0 -19 7.5t-4 19.5zM511.5 1566.5 q-3.5 5.5 10.5 18.5l146 156q12 12 23 18.5t17 6.5l5 1h24l66 -106l108 106h54l10 -3q7 -6 -10 -23l-146 -156q-11 -12 -22 -18.5t-16 -6.5l-5 -1h-35l-55 112l-108 -112h-54q-3 0 -6 1t-6.5 6.5z" />
<glyph unicode="&#xd2;" d="M137 207l189 1061q15 90 89 152.5t163 62.5h235q90 0 142.5 -62.5t37.5 -152.5l-188 -1061q-15 -90 -89.5 -153.5t-164.5 -63.5h-236q-88 0 -140.5 63.5t-37.5 153.5zM268 164q-5 -22 8.5 -37.5t36.5 -15.5h283q23 0 40.5 15.5t22.5 37.5l201 1139q3 23 -9.5 38t-35.5 15 h-283q-24 0 -42 -15t-21 -38zM576.5 1760q1.5 6 5.5 6l4 1h71q2 0 5.5 -0.5t9.5 -7t8 -18.5l43 -156q3 -13 1 -19t-6 -6l-5 -1h-35l-98 182q-5 13 -3.5 19z" />
<glyph unicode="&#xd3;" d="M137 207l189 1061q15 90 89 152.5t163 62.5h235q90 0 142.5 -62.5t37.5 -152.5l-188 -1061q-15 -90 -89.5 -153.5t-164.5 -63.5h-236q-88 0 -140.5 63.5t-37.5 153.5zM268 164q-5 -22 8.5 -37.5t36.5 -15.5h283q23 0 40.5 15.5t22.5 37.5l201 1139q3 23 -9.5 38t-35.5 15 h-283q-24 0 -42 -15t-21 -38zM698 1562q-6 6 4 23l97 156q7 12 16 18.5t14 6.5l5 1h71l6 -2q3 -8 -12 -24l-160 -182h-34z" />
<glyph unicode="&#xd4;" d="M137 207l189 1061q15 90 89 152.5t163 62.5h235q90 0 142.5 -62.5t37.5 -152.5l-188 -1061q-15 -90 -89.5 -153.5t-164.5 -63.5h-236q-88 0 -140.5 63.5t-37.5 153.5zM268 164q-5 -22 8.5 -37.5t36.5 -15.5h283q23 0 40.5 15.5t22.5 37.5l201 1139q3 23 -9.5 38t-35.5 15 h-283q-24 0 -42 -15t-21 -38zM556 1562q-5 6 5 23l117 156q20 26 39 26h49q16 0 27 -26l63 -156q3 -13 1 -19t-7 -6l-4 -1h-35l-86 116l-127 -116h-35z" />
<glyph unicode="&#xd5;" d="M137 207l189 1061q15 90 89 152.5t163 62.5h235q90 0 142.5 -62.5t37.5 -152.5l-188 -1061q-15 -90 -89.5 -153.5t-164.5 -63.5h-236q-88 0 -140.5 63.5t-37.5 153.5zM268 164q-5 -22 8.5 -37.5t36.5 -15.5h283q23 0 40.5 15.5t22.5 37.5l201 1139q3 23 -9.5 38t-35.5 15 h-283q-24 0 -42 -15t-21 -38zM503.5 1566.5q-3.5 5.5 10.5 18.5l145 156q12 12 23.5 18.5t17.5 6.5l5 1h24l66 -106l108 106h53l10 -3q7 -6 -10 -23l-145 -156q-11 -12 -22 -18.5t-16 -6.5l-5 -1h-35l-55 112l-109 -112h-53q-3 0 -6 1t-6.5 6.5z" />
<glyph unicode="&#xd6;" d="M137 207l189 1061q15 90 89 152.5t163 62.5h235q90 0 142.5 -62.5t37.5 -152.5l-188 -1061q-15 -90 -89.5 -153.5t-164.5 -63.5h-236q-88 0 -140.5 63.5t-37.5 153.5zM268 164q-5 -22 8.5 -37.5t36.5 -15.5h283q23 0 40.5 15.5t22.5 37.5l201 1139q3 23 -9.5 38t-35.5 15 h-283q-24 0 -42 -15t-21 -38zM453 1636q7 37 37 61.5t65 24.5q36 0 56.5 -25t13.5 -61q-6 -35 -36 -60.5t-65 -25.5t-56 25.5t-15 60.5zM821 1636q7 36 37 61t66 25t56 -25t13 -61q-6 -35 -35.5 -60.5t-64.5 -25.5t-56.5 25.5t-15.5 60.5z" />
<glyph unicode="&#xd7;" horiz-adv-x="827" d="M125 372q-6 6 10 23l289 342l-162 324q-6 13 -3.5 19t7.5 6l6 1h119q17 1 31 -26l100 -207l176 207q10 12 20 18.5t14 6.5l5 1h119l10 -3q6 -6 -8 -23l-276 -324l170 -342q5 -13 2.5 -19t-8.5 -6l-5 -1h-114q-17 -1 -29 26l-117 228l-192 -228q-11 -12 -21.5 -18.5 t-15.5 -6.5l-4 -1h-115z" />
<glyph unicode="&#xd8;" horiz-adv-x="952" d="M116 -89q-4 6 3 23l55 121q-50 63 -35 152l189 1061q15 90 89 152.5t163 62.5h254l26 57q5 12 13.5 19t14.5 7l5 1h111q2 0 4 -1t4.5 -7t-4.5 -19l-56 -115q59 -62 43 -157l-188 -1061q-15 -90 -89.5 -153.5t-164.5 -63.5h-264l-27 -56q-5 -12 -14.5 -18.5t-15.5 -7.5h-7 h-102zM297 319l477 1037h-239q-24 0 -42.5 -15t-21.5 -38zM342 111h256q23 0 41 15.5t23 37.5l178 1014z" />
<glyph unicode="&#xd9;" horiz-adv-x="950" d="M137 207l219 1241q7 27 31 27h86q11 0 17.5 -7.5t3.5 -19.5l-226 -1284q-5 -22 8.5 -37.5t36.5 -15.5h279q23 0 40.5 15.5t22.5 37.5l226 1284q7 27 30 27h86q12 0 19 -7.5t4 -19.5l-219 -1241q-15 -90 -89.5 -153.5t-162.5 -63.5h-234q-88 0 -140.5 63.5t-37.5 153.5z M578.5 1760q1.5 6 5.5 6l4 1h71q2 0 5.5 -0.5t9.5 -7t8 -18.5l43 -156q3 -13 1 -19t-6 -6l-5 -1h-35l-98 182q-5 13 -3.5 19z" />
<glyph unicode="&#xda;" horiz-adv-x="950" d="M137 207l219 1241q7 27 31 27h86q11 0 17.5 -7.5t3.5 -19.5l-226 -1284q-5 -22 8.5 -37.5t36.5 -15.5h279q23 0 40.5 15.5t22.5 37.5l226 1284q7 27 30 27h86q12 0 19 -7.5t4 -19.5l-219 -1241q-15 -90 -89.5 -153.5t-162.5 -63.5h-234q-88 0 -140.5 63.5t-37.5 153.5z M691 1562q-5 6 5 23l97 156q7 12 15.5 18.5t13.5 6.5l5 1h74l6 -2q3 -8 -12 -24l-160 -182h-37z" />
<glyph unicode="&#xdb;" horiz-adv-x="950" d="M137 207l219 1241q7 27 31 27h86q11 0 17.5 -7.5t3.5 -19.5l-226 -1284q-5 -22 8.5 -37.5t36.5 -15.5h279q23 0 40.5 15.5t22.5 37.5l226 1284q7 27 30 27h86q12 0 19 -7.5t4 -19.5l-219 -1241q-15 -90 -89.5 -153.5t-162.5 -63.5h-234q-88 0 -140.5 63.5t-37.5 153.5z M558 1562q-5 6 5 23l117 156q20 26 39 26h49q16 0 27 -26l63 -156q3 -13 1 -19t-7 -6l-4 -1h-35l-86 116l-127 -116h-35z" />
<glyph unicode="&#xdc;" horiz-adv-x="950" d="M137 207l219 1241q7 27 31 27h86q11 0 17.5 -7.5t3.5 -19.5l-226 -1284q-5 -22 8.5 -37.5t36.5 -15.5h279q23 0 40.5 15.5t22.5 37.5l226 1284q7 27 30 27h86q12 0 19 -7.5t4 -19.5l-219 -1241q-15 -90 -89.5 -153.5t-162.5 -63.5h-234q-88 0 -140.5 63.5t-37.5 153.5z M449 1636q7 37 37 61.5t65 24.5q36 0 56.5 -25t13.5 -61q-6 -35 -36 -60.5t-65 -25.5t-56 25.5t-15 60.5zM817 1636q7 36 37 61t66 25t56 -25t13 -61q-6 -35 -35.5 -60.5t-64.5 -25.5t-56.5 25.5t-15.5 60.5z" />
<glyph unicode="&#xdd;" horiz-adv-x="874" d="M299 1448q-2 12 1.5 19t7.5 7l5 1h99q2 0 5 -0.5t9 -7.5t8 -19l92 -711l340 711q5 12 13 19t13 7l5 1h98q2 0 4.5 -1t6.5 -7t-2 -19l-449 -926l-86 -495q-7 -27 -31 -27h-84q-11 0 -18 7.5t-4 19.5l86 495zM665 1562q-6 6 3 23l96 156q8 12 17 18.5t15 6.5l5 1h71l6 -2 q3 -8 -12 -24l-159 -182h-35z" />
<glyph unicode="&#xde;" horiz-adv-x="927" d="M104 27l250 1421q7 27 31 27h86q11 0 17.5 -7.5t3.5 -19.5l-48 -268h312q88 0 140.5 -63t37.5 -152l-80 -453q-17 -89 -91.5 -152t-162.5 -63h-311l-47 -270q-7 -27 -29 -27h-86q-12 0 -19 7.5t-4 19.5zM309 416h334q23 0 41 15.5t23 37.5l94 530q3 22 -9.5 38t-35.5 16 h-334z" />
<glyph unicode="&#xdf;" horiz-adv-x="917" d="M104 27l218 1233q15 89 89 152t162 63h383q11 0 17.5 -7.5t3.5 -19.5l-16 -92l-226 -561q68 -17 104 -75t23 -134l-67 -379q-15 -90 -89.5 -153.5t-162.5 -63.5h-37q-11 0 -17.5 8t-5.5 18l13 68q1 12 10 19.5t20 7.5h62q22 0 40 15.5t23 37.5l80 457q4 23 -8.5 38 t-34.5 15h-80q-10 0 -17 7.5t-5 18.5l14 82l225 566h-295q-23 0 -42.5 -16t-22.5 -38l-223 -1267q-7 -27 -29 -27h-86q-12 0 -19 7.5t-4 19.5z" />
<glyph unicode="&#xe0;" horiz-adv-x="907" d="M63 8q-5 6 0 19l496 1421q4 12 12 19t15 7l6 1h168h2.5t5.5 -1.5t7.5 -4t6 -8t2.5 -13.5l-4 -1421q0 -12 -5 -19t-10 -8h-5h-101q-2 0 -5 0.5t-8 7.5t-5 19l2 233h-362l-78 -233q-4 -12 -10.5 -18.5t-11.5 -7.5l-5 -1h-100q-2 0 -5 1t-8 7zM324 387h321l12 973z M557.5 1760q1.5 6 5.5 6l4 1h72q2 0 5.5 -0.5t10 -7t9.5 -18.5l43 -156q3 -12 -0.5 -18.5t-8.5 -6.5l-4 -1h-35l-98 182q-5 13 -3.5 19z" />
<glyph unicode="&#xe1;" horiz-adv-x="892" d="M63 8q-5 6 0 19l496 1421q4 12 12 19t15 7l6 1h168h2.5t5.5 -1.5t7.5 -4t6 -8t2.5 -13.5l-4 -1421q0 -12 -5 -19t-10 -8h-5h-101q-2 0 -5 0.5t-8 7.5t-5 19l2 233h-362l-78 -233q-4 -12 -10.5 -18.5t-11.5 -7.5l-5 -1h-100q-2 0 -5 1t-8 7zM324 387h321l12 973zM677 1562 q-6 6 3 23l96 156q8 12 17 18.5t15 6.5l5 1h72l6 -2q3 -8 -12 -24l-160 -182h-35z" />
<glyph unicode="&#xe2;" horiz-adv-x="919" d="M63 8q-5 6 0 19l496 1421q4 12 12 19t15 7l6 1h168h2.5t5.5 -1.5t7.5 -4t6 -8t2.5 -13.5l-4 -1421q0 -12 -5 -19t-10 -8h-5h-101q-2 0 -5 0.5t-8 7.5t-5 19l2 233h-362l-78 -233q-4 -12 -10.5 -18.5t-11.5 -7.5l-5 -1h-100q-2 0 -5 1t-8 7zM324 387h321l12 973zM544 1562 q-5 6 5 23l117 156q20 26 39 26h49q15 0 26 -26l64 -156q3 -13 1 -19t-7 -6l-4 -1h-35l-86 116l-127 -116h-35z" />
<glyph unicode="&#xe3;" horiz-adv-x="921" d="M63 8q-5 6 0 19l496 1421q4 12 12 19t15 7l6 1h168h2.5t5.5 -1.5t7.5 -4t6 -8t2.5 -13.5l-4 -1421q0 -12 -5 -19t-10 -8h-5h-101q-2 0 -5 0.5t-8 7.5t-5 19l2 233h-362l-78 -233q-4 -12 -10.5 -18.5t-11.5 -7.5l-5 -1h-100q-2 0 -5 1t-8 7zM324 387h321l12 973z M487.5 1566.5q-3.5 5.5 10.5 18.5l145 156q12 12 23.5 18.5t16.5 6.5l5 1h25l65 -106l109 106h53l10 -3q7 -6 -10 -23l-145 -156q-11 -12 -22 -18.5t-16 -6.5l-5 -1h-35l-55 112l-109 -112h-53q-3 0 -6 1t-6.5 6.5z" />
<glyph unicode="&#xe4;" horiz-adv-x="905" d="M63 8q-5 6 0 19l496 1421q4 12 12 19t15 7l6 1h168h2.5t5.5 -1.5t7.5 -4t6 -8t2.5 -13.5l-4 -1421q0 -12 -5 -19t-10 -8h-5h-101q-2 0 -5 0.5t-8 7.5t-5 19l2 233h-362l-78 -233q-4 -12 -10.5 -18.5t-11.5 -7.5l-5 -1h-100q-2 0 -5 1t-8 7zM324 387h321l12 973zM434 1636 q7 36 37 61t66 25t56 -25t13 -61q-6 -35 -35.5 -60.5t-64.5 -25.5t-56.5 25.5t-15.5 60.5zM803 1636q7 37 37 61.5t65 24.5q36 0 56.5 -25t13.5 -61q-6 -35 -36 -60.5t-65 -25.5t-56 25.5t-15 60.5z" />
<glyph unicode="&#xe5;" horiz-adv-x="911" d="M63 8q-5 6 0 19l480 1376q-55 55 -39 143q12 77 76.5 132t142.5 55q76 0 121 -55t33 -132q-15 -83 -95 -143l-2 -1376q0 -12 -5 -19t-10 -8h-5h-101q-2 0 -5 0.5t-8 7.5t-5 19l2 233h-362l-78 -233q-4 -12 -10.5 -18.5t-11.5 -7.5l-5 -1h-100q-2 0 -5 1t-8 7zM324 387 h321l12 973zM565 1546q-10 -55 22.5 -90t80.5 -35t92.5 35t54.5 90q9 56 -23.5 90.5t-80.5 34.5t-92.5 -35t-53.5 -90z" />
<glyph unicode="&#xe6;" horiz-adv-x="1175" d="M63 8q-5 6 0 19l496 1421q4 12 12 19t15 7l6 1h653q11 0 17.5 -7.5t3.5 -19.5l-13 -76q-7 -26 -30 -26h-441v-506h279q10 0 16 -7t4 -18l-14 -76q-2 -11 -10.5 -18.5t-18.5 -7.5h-256l-4 -586h240q11 0 18 -7.5t4 -19.5l-12 -73q-7 -27 -31 -27h-338q-2 0 -5 0.5t-8 7.5 t-5 19l2 233h-362l-78 -233q-4 -12 -10.5 -18.5t-11.5 -7.5l-5 -1h-100q-2 0 -5 1t-8 7zM324 387h321l12 973z" />
<glyph unicode="&#xe7;" horiz-adv-x="921" d="M137 207l189 1061q15 90 89 152.5t163 62.5h223q89 0 141 -62t37 -153l-25 -135q-1 -12 -9 -19.5t-19 -7.5h-86q-26 0 -23 27l31 170q3 23 -10 38t-35 15h-271q-24 0 -42 -15t-21 -38l-201 -1139q-5 -22 8.5 -37.5t36.5 -15.5h279q23 0 40.5 15.5t22.5 37.5l47 270 q1 12 10.5 19.5t20.5 7.5h86q26 0 23 -27l-41 -227q-15 -90 -89.5 -153.5t-162.5 -63.5h-100l-21 -29h43q20 0 33 -14.5t10 -34.5l-27 -145q-3 -21 -20.5 -36.5t-38.5 -15.5h-86q-22 0 -34 14.5t-9 34.5l6 27q3 25 29 25h8q10 0 15.5 -7t4.5 -18l-2 -10q-1 -4 2.5 -8t8.5 -4 h47q10 0 14 14l19 111q1 4 -2.5 8t-8.5 4h-47q-10 0 -14 -12l-2 -21h-58l7 39l55 78h-66q-88 0 -140.5 63.5t-37.5 153.5z" />
<glyph unicode="&#xe8;" horiz-adv-x="876" d="M104 27l250 1421q7 27 31 27h559q11 0 18.5 -8t4.5 -19l-13 -76q-3 -12 -12 -19t-20 -7h-449l-88 -506h375q11 0 17 -7.5t5 -17.5l-14 -76q-1 -10 -10.5 -18t-20.5 -8h-375l-104 -586h461q11 0 17 -7.5t3 -19.5l-12 -73q-7 -27 -29 -27h-571q-12 0 -19 7.5t-4 19.5z M555.5 1760q1.5 6 5.5 6l4 1h72q2 0 5 -0.5t9 -7t8 -18.5l43 -156q3 -13 1 -19t-7 -6l-4 -1h-35l-98 182q-5 13 -3.5 19z" />
<glyph unicode="&#xe9;" horiz-adv-x="876" d="M104 27l250 1421q7 27 31 27h559q11 0 18.5 -8t4.5 -19l-13 -76q-3 -12 -12 -19t-20 -7h-449l-88 -506h375q11 0 17 -7.5t5 -17.5l-14 -76q-1 -10 -10.5 -18t-20.5 -8h-375l-104 -586h461q11 0 17 -7.5t3 -19.5l-12 -73q-7 -27 -29 -27h-571q-12 0 -19 7.5t-4 19.5z M657 1562q-5 6 5 23l96 156q7 12 16 18.5t14 6.5l5 1h71l6 -2q3 -8 -12 -24l-160 -182h-34z" />
<glyph unicode="&#xea;" horiz-adv-x="876" d="M104 27l250 1421q7 27 31 27h559q11 0 18.5 -8t4.5 -19l-13 -76q-3 -12 -12 -19t-20 -7h-449l-88 -506h375q11 0 17 -7.5t5 -17.5l-14 -76q-1 -10 -10.5 -18t-20.5 -8h-375l-104 -586h461q11 0 17 -7.5t3 -19.5l-12 -73q-7 -27 -29 -27h-571q-12 0 -19 7.5t-4 19.5z M528 1562q-6 6 4 23l117 156q20 26 39 26h49q16 0 27 -26l63 -156q3 -13 1 -19t-6 -6l-5 -1h-35l-86 116l-127 -116h-34z" />
<glyph unicode="&#xeb;" horiz-adv-x="876" d="M104 27l250 1421q7 27 31 27h559q11 0 18.5 -8t4.5 -19l-13 -76q-3 -12 -12 -19t-20 -7h-449l-88 -506h375q11 0 17 -7.5t5 -17.5l-14 -76q-1 -10 -10.5 -18t-20.5 -8h-375l-104 -586h461q11 0 17 -7.5t3 -19.5l-12 -73q-7 -27 -29 -27h-571q-12 0 -19 7.5t-4 19.5z M420 1636q7 37 37 61.5t65 24.5q36 0 56.5 -25t13.5 -61q-6 -35 -35.5 -60.5t-64.5 -25.5t-56.5 25.5t-15.5 60.5zM788 1636q7 36 37 61t66 25t56.5 -25t13.5 -61q-6 -35 -36 -60.5t-65 -25.5t-56.5 25.5t-15.5 60.5z" />
<glyph unicode="&#xec;" horiz-adv-x="411" d="M104 27l250 1421q7 27 29 27h86q12 0 19 -7.5t4 -19.5l-250 -1421q-7 -27 -31 -27h-86q-11 0 -17.5 7.5t-3.5 19.5zM309.5 1760q1.5 6 5.5 6l4 1h74q2 0 5.5 -0.5t9.5 -7t8 -18.5l43 -156q3 -13 1 -19t-6 -6l-5 -1h-37l-99 182q-5 13 -3.5 19z" />
<glyph unicode="&#xed;" horiz-adv-x="411" d="M104 27l250 1421q7 27 31 27h86q11 0 17.5 -7.5t3.5 -19.5l-250 -1421q-7 -27 -29 -27h-86q-12 0 -19 7.5t-4 19.5zM429 1562q-6 6 3 23l96 156q8 12 17 18.5t15 6.5l5 1h72l6 -2q3 -8 -12 -24l-160 -182h-35z" />
<glyph unicode="&#xee;" horiz-adv-x="413" d="M104 27l250 1421q7 27 31 27h86q11 0 17.5 -7.5t3.5 -19.5l-250 -1421q-7 -27 -29 -27h-86q-12 0 -19 7.5t-4 19.5zM294 1562q-5 6 5 23l117 156q20 26 39 26h49q15 0 26 -26l64 -156q3 -13 1 -19t-7 -6l-4 -1h-35l-86 116l-127 -116h-35z" />
<glyph unicode="&#xef;" horiz-adv-x="419" d="M104 27l250 1421q7 27 31 27h86q11 0 17.5 -7.5t3.5 -19.5l-250 -1421q-7 -27 -29 -27h-86q-12 0 -19 7.5t-4 19.5zM205 1636q7 37 37 61.5t65 24.5q36 0 56.5 -25t13.5 -61q-6 -35 -36 -60.5t-65 -25.5t-56 25.5t-15 60.5zM532 1636q7 36 37 61t66 25t56.5 -25t13.5 -61 q-6 -35 -36 -60.5t-65 -25.5t-56.5 25.5t-15.5 60.5z" />
<glyph unicode="&#xf0;" horiz-adv-x="937" d="M104 27l111 626h-65q-12 0 -18.5 8t-4.5 19l14 76q2 11 10.5 18.5t20.5 7.5h66l116 666q7 27 31 27h422q88 0 140.5 -63t37.5 -152l-184 -1045q-15 -89 -89.5 -152t-162.5 -63h-422q-12 0 -19 7.5t-4 19.5zM258 127h334q23 0 41.5 15.5t21.5 37.5l197 1114 q3 23 -8.5 38.5t-34.5 15.5h-334l-100 -566h67q10 0 16.5 -7.5t4.5 -18.5l-14 -76q-2 -11 -10.5 -19t-18.5 -8h-68z" />
<glyph unicode="&#xf1;" horiz-adv-x="952" d="M104 27l250 1421q7 27 31 27h80q2 0 5 -0.5t9.5 -7.5t9.5 -19l222 -1061l186 1061q7 27 29 27h86q11 0 17 -7.5t3 -19.5l-250 -1421q-7 -27 -28 -27h-74q-2 0 -6 0.5t-11 7.5t-10 19l-227 1056l-186 -1056q-7 -27 -29 -27h-84q-12 0 -19 7.5t-4 19.5zM511.5 1566.5 q-3.5 5.5 10.5 18.5l146 156q12 12 23 18.5t17 6.5l5 1h24l66 -106l108 106h54l10 -3q7 -6 -10 -23l-146 -156q-11 -12 -22 -18.5t-16 -6.5l-5 -1h-35l-55 112l-108 -112h-54q-3 0 -6 1t-6.5 6.5z" />
<glyph unicode="&#xf2;" d="M137 207l189 1061q15 90 89 152.5t163 62.5h235q90 0 142.5 -62.5t37.5 -152.5l-188 -1061q-15 -90 -89.5 -153.5t-164.5 -63.5h-236q-88 0 -140.5 63.5t-37.5 153.5zM268 164q-5 -22 8.5 -37.5t36.5 -15.5h283q23 0 40.5 15.5t22.5 37.5l201 1139q3 23 -9.5 38t-35.5 15 h-283q-24 0 -42 -15t-21 -38zM576.5 1760q1.5 6 5.5 6l4 1h71q2 0 5.5 -0.5t9.5 -7t8 -18.5l43 -156q3 -13 1 -19t-6 -6l-5 -1h-35l-98 182q-5 13 -3.5 19z" />
<glyph unicode="&#xf3;" d="M137 207l189 1061q15 90 89 152.5t163 62.5h235q90 0 142.5 -62.5t37.5 -152.5l-188 -1061q-15 -90 -89.5 -153.5t-164.5 -63.5h-236q-88 0 -140.5 63.5t-37.5 153.5zM268 164q-5 -22 8.5 -37.5t36.5 -15.5h283q23 0 40.5 15.5t22.5 37.5l201 1139q3 23 -9.5 38t-35.5 15 h-283q-24 0 -42 -15t-21 -38zM698 1562q-6 6 4 23l97 156q7 12 16 18.5t14 6.5l5 1h71l6 -2q3 -8 -12 -24l-160 -182h-34z" />
<glyph unicode="&#xf4;" d="M137 207l189 1061q15 90 89 152.5t163 62.5h235q90 0 142.5 -62.5t37.5 -152.5l-188 -1061q-15 -90 -89.5 -153.5t-164.5 -63.5h-236q-88 0 -140.5 63.5t-37.5 153.5zM268 164q-5 -22 8.5 -37.5t36.5 -15.5h283q23 0 40.5 15.5t22.5 37.5l201 1139q3 23 -9.5 38t-35.5 15 h-283q-24 0 -42 -15t-21 -38zM556 1562q-5 6 5 23l117 156q20 26 39 26h49q16 0 27 -26l63 -156q3 -13 1 -19t-7 -6l-4 -1h-35l-86 116l-127 -116h-35z" />
<glyph unicode="&#xf5;" d="M137 207l189 1061q15 90 89 152.5t163 62.5h235q90 0 142.5 -62.5t37.5 -152.5l-188 -1061q-15 -90 -89.5 -153.5t-164.5 -63.5h-236q-88 0 -140.5 63.5t-37.5 153.5zM268 164q-5 -22 8.5 -37.5t36.5 -15.5h283q23 0 40.5 15.5t22.5 37.5l201 1139q3 23 -9.5 38t-35.5 15 h-283q-24 0 -42 -15t-21 -38zM503.5 1566.5q-3.5 5.5 10.5 18.5l145 156q12 12 23.5 18.5t17.5 6.5l5 1h24l66 -106l108 106h53l10 -3q7 -6 -10 -23l-145 -156q-11 -12 -22 -18.5t-16 -6.5l-5 -1h-35l-55 112l-109 -112h-53q-3 0 -6 1t-6.5 6.5z" />
<glyph unicode="&#xf6;" d="M137 207l189 1061q15 90 89 152.5t163 62.5h235q90 0 142.5 -62.5t37.5 -152.5l-188 -1061q-15 -90 -89.5 -153.5t-164.5 -63.5h-236q-88 0 -140.5 63.5t-37.5 153.5zM268 164q-5 -22 8.5 -37.5t36.5 -15.5h283q23 0 40.5 15.5t22.5 37.5l201 1139q3 23 -9.5 38t-35.5 15 h-283q-24 0 -42 -15t-21 -38zM453 1636q7 37 37 61.5t65 24.5q36 0 56.5 -25t13.5 -61q-6 -35 -36 -60.5t-65 -25.5t-56 25.5t-15 60.5zM821 1636q7 36 37 61t66 25t56 -25t13 -61q-6 -35 -35.5 -60.5t-64.5 -25.5t-56.5 25.5t-15.5 60.5z" />
<glyph unicode="&#xf7;" horiz-adv-x="1030" d="M207 680l14 76q2 11 10.5 18.5t20.5 7.5h715q10 0 16 -7.5t4 -18.5l-14 -76q-2 -11 -10.5 -19t-18.5 -8h-715q-12 0 -18 8t-4 19zM463 457q6 37 35.5 61.5t66.5 24.5t57.5 -24.5t14.5 -61.5t-35.5 -62.5t-66.5 -25.5t-57.5 25.5t-14.5 62.5zM555 983q6 36 36.5 61 t67.5 25t56.5 -24.5t13.5 -61.5t-34.5 -62.5t-65.5 -25.5t-58.5 25.5t-15.5 62.5z" />
<glyph unicode="&#xf8;" horiz-adv-x="952" d="M116 -89q-4 6 3 23l55 121q-50 63 -35 152l189 1061q15 90 89 152.5t163 62.5h254l26 57q5 12 13.5 19t14.5 7l5 1h111q2 0 4 -1t4.5 -7t-4.5 -19l-56 -115q59 -62 43 -157l-188 -1061q-15 -90 -89.5 -153.5t-164.5 -63.5h-264l-27 -56q-5 -12 -14.5 -18.5t-15.5 -7.5h-7 h-102zM297 319l477 1037h-239q-24 0 -42.5 -15t-21.5 -38zM342 111h256q23 0 41 15.5t23 37.5l178 1014z" />
<glyph unicode="&#xf9;" horiz-adv-x="950" d="M137 207l219 1241q7 27 31 27h86q11 0 17.5 -7.5t3.5 -19.5l-226 -1284q-5 -22 8.5 -37.5t36.5 -15.5h279q23 0 40.5 15.5t22.5 37.5l226 1284q7 27 30 27h86q12 0 19 -7.5t4 -19.5l-219 -1241q-15 -90 -89.5 -153.5t-162.5 -63.5h-234q-88 0 -140.5 63.5t-37.5 153.5z M578.5 1760q1.5 6 5.5 6l4 1h71q2 0 5.5 -0.5t9.5 -7t8 -18.5l43 -156q3 -13 1 -19t-6 -6l-5 -1h-35l-98 182q-5 13 -3.5 19z" />
<glyph unicode="&#xfa;" horiz-adv-x="950" d="M137 207l219 1241q7 27 31 27h86q11 0 17.5 -7.5t3.5 -19.5l-226 -1284q-5 -22 8.5 -37.5t36.5 -15.5h279q23 0 40.5 15.5t22.5 37.5l226 1284q7 27 30 27h86q12 0 19 -7.5t4 -19.5l-219 -1241q-15 -90 -89.5 -153.5t-162.5 -63.5h-234q-88 0 -140.5 63.5t-37.5 153.5z M691 1562q-5 6 5 23l97 156q7 12 15.5 18.5t13.5 6.5l5 1h74l6 -2q3 -8 -12 -24l-160 -182h-37z" />
<glyph unicode="&#xfb;" horiz-adv-x="950" d="M137 207l219 1241q7 27 31 27h86q11 0 17.5 -7.5t3.5 -19.5l-226 -1284q-5 -22 8.5 -37.5t36.5 -15.5h279q23 0 40.5 15.5t22.5 37.5l226 1284q7 27 30 27h86q12 0 19 -7.5t4 -19.5l-219 -1241q-15 -90 -89.5 -153.5t-162.5 -63.5h-234q-88 0 -140.5 63.5t-37.5 153.5z M558 1562q-5 6 5 23l117 156q20 26 39 26h49q16 0 27 -26l63 -156q3 -13 1 -19t-7 -6l-4 -1h-35l-86 116l-127 -116h-35z" />
<glyph unicode="&#xfc;" horiz-adv-x="950" d="M137 207l219 1241q7 27 31 27h86q11 0 17.5 -7.5t3.5 -19.5l-226 -1284q-5 -22 8.5 -37.5t36.5 -15.5h279q23 0 40.5 15.5t22.5 37.5l226 1284q7 27 30 27h86q12 0 19 -7.5t4 -19.5l-219 -1241q-15 -90 -89.5 -153.5t-162.5 -63.5h-234q-88 0 -140.5 63.5t-37.5 153.5z M449 1636q7 37 37 61.5t65 24.5q36 0 56.5 -25t13.5 -61q-6 -35 -36 -60.5t-65 -25.5t-56 25.5t-15 60.5zM817 1636q7 36 37 61t66 25t56 -25t13 -61q-6 -35 -35.5 -60.5t-64.5 -25.5t-56.5 25.5t-15.5 60.5z" />
<glyph unicode="&#xfd;" horiz-adv-x="874" d="M299 1448q-2 12 1.5 19t7.5 7l5 1h99q2 0 5 -0.5t9 -7.5t8 -19l92 -711l340 711q5 12 13 19t13 7l5 1h98q2 0 4.5 -1t6.5 -7t-2 -19l-449 -926l-86 -495q-7 -27 -31 -27h-84q-11 0 -18 7.5t-4 19.5l86 495zM665 1562q-6 6 3 23l96 156q8 12 17 18.5t15 6.5l5 1h71l6 -2 q3 -8 -12 -24l-159 -182h-35z" />
<glyph unicode="&#xfe;" horiz-adv-x="927" d="M104 27l250 1421q7 27 31 27h86q11 0 17.5 -7.5t3.5 -19.5l-48 -268h312q88 0 140.5 -63t37.5 -152l-80 -453q-17 -89 -91.5 -152t-162.5 -63h-311l-47 -270q-7 -27 -29 -27h-86q-12 0 -19 7.5t-4 19.5zM309 416h334q23 0 41 15.5t23 37.5l94 530q3 22 -9.5 38t-35.5 16 h-334z" />
<glyph unicode="&#xff;" horiz-adv-x="874" d="M299 1448q-2 12 1.5 19t7.5 7l5 1h99q2 0 5 -0.5t9 -7.5t8 -19l92 -711l340 711q5 12 13 19t13 7l5 1h98q2 0 4.5 -1t6.5 -7t-2 -19l-449 -926l-86 -495q-7 -27 -31 -27h-84q-11 0 -18 7.5t-4 19.5l86 495zM414 1636q7 37 37 61.5t65 24.5q36 0 56.5 -25t13.5 -61 q-6 -35 -36 -60.5t-65 -25.5t-56 25.5t-15 60.5zM782 1636q7 36 37 61t66 25t56 -25t13 -61q-6 -35 -35.5 -60.5t-64.5 -25.5t-56.5 25.5t-15.5 60.5z" />
<glyph unicode="&#x152;" horiz-adv-x="1323" d="M137 215l185 1045q15 89 89 152t162 63h820q11 0 17 -7.5t3 -19.5l-12 -76q-7 -26 -31 -26h-393l-88 -506h319q10 0 16.5 -7t4.5 -18l-15 -76q-2 -11 -10 -18.5t-18 -7.5h-320l-104 -586h403q11 0 18.5 -8t4.5 -19l-12 -73q-7 -27 -31 -27h-830q-88 0 -140.5 63 t-37.5 152zM268 182q-3 -22 10.5 -37.5t36.5 -15.5h258q22 0 40.5 15.5t21.5 37.5l194 1102q4 23 -8.5 38t-34.5 15h-258q-23 0 -42 -15t-23 -38z" />
<glyph unicode="&#x153;" horiz-adv-x="1323" d="M137 215l185 1045q15 89 89 152t162 63h820q11 0 17 -7.5t3 -19.5l-12 -76q-7 -26 -31 -26h-393l-88 -506h319q10 0 16.5 -7t4.5 -18l-15 -76q-2 -11 -10 -18.5t-18 -7.5h-320l-104 -586h403q11 0 18.5 -8t4.5 -19l-12 -73q-7 -27 -31 -27h-830q-88 0 -140.5 63 t-37.5 152zM268 182q-3 -22 10.5 -37.5t36.5 -15.5h258q22 0 40.5 15.5t21.5 37.5l194 1102q4 23 -8.5 38t-34.5 15h-258q-23 0 -42 -15t-23 -38z" />
<glyph unicode="&#x178;" horiz-adv-x="874" d="M299 1448q-2 12 1.5 19t7.5 7l5 1h99q2 0 5 -0.5t9 -7.5t8 -19l92 -711l340 711q5 12 13 19t13 7l5 1h98q2 0 4.5 -1t6.5 -7t-2 -19l-449 -926l-86 -495q-7 -27 -31 -27h-84q-11 0 -18 7.5t-4 19.5l86 495zM414 1636q7 37 37 61.5t65 24.5q36 0 56.5 -25t13.5 -61 q-6 -35 -36 -60.5t-65 -25.5t-56 25.5t-15 60.5zM782 1636q7 36 37 61t66 25t56 -25t13 -61q-6 -35 -35.5 -60.5t-64.5 -25.5t-56.5 25.5t-15.5 60.5z" />
<glyph unicode="&#x2c6;" horiz-adv-x="532" d="M280 1562q-5 6 5 23l116 156q20 26 39 26h49q16 0 27 -26l64 -156q3 -13 0.5 -19t-6.5 -6l-5 -1h-34l-86 116l-127 -116h-35z" />
<glyph unicode="&#x2dc;" horiz-adv-x="692" d="M278.5 1566.5q-3.5 5.5 10.5 18.5l145 156q12 12 23.5 18.5t16.5 6.5l5 1h25l65 -106l109 106h53l10 -3q7 -6 -10 -23l-145 -156q-11 -12 -22 -18.5t-16 -6.5l-5 -1h-35l-55 112l-109 -112h-53q-3 0 -6 1t-6.5 6.5z" />
<glyph unicode="&#x2000;" horiz-adv-x="883" />
<glyph unicode="&#x2001;" horiz-adv-x="1767" />
<glyph unicode="&#x2002;" horiz-adv-x="883" />
<glyph unicode="&#x2003;" horiz-adv-x="1767" />
<glyph unicode="&#x2004;" horiz-adv-x="589" />
<glyph unicode="&#x2005;" horiz-adv-x="441" />
<glyph unicode="&#x2006;" horiz-adv-x="294" />
<glyph unicode="&#x2007;" horiz-adv-x="294" />
<glyph unicode="&#x2008;" horiz-adv-x="220" />
<glyph unicode="&#x2009;" horiz-adv-x="353" />
<glyph unicode="&#x200a;" horiz-adv-x="98" />
<glyph unicode="&#x2010;" horiz-adv-x="886" d="M207 680l14 76q2 11 10.5 18.5t20.5 7.5h571q10 0 16.5 -7.5t4.5 -18.5l-15 -76q-2 -11 -10 -19t-18 -8h-572q-12 0 -18 8t-4 19z" />
<glyph unicode="&#x2011;" horiz-adv-x="886" d="M207 680l14 76q2 11 10.5 18.5t20.5 7.5h571q10 0 16.5 -7.5t4.5 -18.5l-15 -76q-2 -11 -10 -19t-18 -8h-572q-12 0 -18 8t-4 19z" />
<glyph unicode="&#x2012;" horiz-adv-x="886" d="M207 680l14 76q2 11 10.5 18.5t20.5 7.5h571q10 0 16.5 -7.5t4.5 -18.5l-15 -76q-2 -11 -10 -19t-18 -8h-572q-12 0 -18 8t-4 19z" />
<glyph unicode="&#x2013;" horiz-adv-x="978" d="M207 680l14 76q2 11 10.5 18.5t20.5 7.5h663q10 0 16.5 -7.5t4.5 -18.5l-14 -76q-2 -11 -10.5 -19t-18.5 -8h-664q-12 0 -18 8t-4 19z" />
<glyph unicode="&#x2014;" horiz-adv-x="1071" d="M207 680l14 76q2 11 10.5 18.5t20.5 7.5h756q10 0 16 -7.5t4 -18.5l-14 -76q-2 -11 -10.5 -19t-18.5 -8h-756q-12 0 -18 8t-4 19z" />
<glyph unicode="&#x2018;" horiz-adv-x="262" d="M227 1198l33 188q7 46 44.5 80.5t78.5 34.5q11 0 17 -8t3 -18l-47 -277q-3 -11 -12.5 -19t-19.5 -8h-78q-10 0 -16 8t-3 19z" />
<glyph unicode="&#x2019;" horiz-adv-x="262" d="M227 1198l47 277q3 11 13 18.5t20 7.5h78q10 0 15.5 -7.5t2.5 -18.5l-32 -189q-7 -46 -44.5 -80.5t-78.5 -34.5q-11 0 -17.5 8.5t-3.5 18.5z" />
<glyph unicode="&#x201a;" horiz-adv-x="284" d="M23 -90l49 276q2 11 11 19t19 8h78q10 0 16.5 -8t4.5 -19l-35 -188q-7 -46 -44.5 -80.5t-78.5 -34.5q-10 0 -16 8t-4 19z" />
<glyph unicode="&#x201c;" horiz-adv-x="428" d="M227 1198l33 188q7 46 44.5 80.5t78.5 34.5q11 0 17 -8t3 -18l-47 -277q-3 -11 -12.5 -19t-19.5 -8h-78q-10 0 -16 8t-3 19zM393 1198l33 188q7 46 44.5 80.5t78.5 34.5q11 0 17 -8t3 -18l-47 -277q-3 -11 -13 -19t-20 -8h-77q-10 0 -16 8t-3 19z" />
<glyph unicode="&#x201d;" horiz-adv-x="428" d="M227 1198l47 277q3 11 13 18.5t20 7.5h78q10 0 15.5 -7.5t2.5 -18.5l-32 -189q-7 -46 -44.5 -80.5t-78.5 -34.5q-11 0 -17.5 8.5t-3.5 18.5zM393 1198l47 277q3 11 13 18.5t20 7.5h78q10 0 15.5 -7.5t2.5 -18.5l-32 -189q-7 -46 -44.5 -80.5t-78.5 -34.5q-11 0 -17.5 8.5 t-3.5 18.5z" />
<glyph unicode="&#x201e;" horiz-adv-x="450" d="M23 -90l49 276q2 11 11 19t19 8h78q10 0 16.5 -8t4.5 -19l-35 -188q-7 -46 -44.5 -80.5t-78.5 -34.5q-10 0 -16 8t-4 19zM188 -90l50 276q2 11 11 19t19 8h78q10 0 16.5 -8t4.5 -19l-35 -188q-7 -46 -44.5 -80.5t-78.5 -34.5q-10 0 -16.5 8t-4.5 19z" />
<glyph unicode="&#x2022;" horiz-adv-x="434" d="M217 698l12 70q3 23 21.5 38t40.5 15h55q22 0 35 -15t10 -38l-12 -70q-4 -22 -23 -37.5t-41 -15.5h-55q-22 0 -34.5 15.5t-8.5 37.5z" />
<glyph unicode="&#x2026;" horiz-adv-x="819" d="M43 27l16 94q1 12 10.5 19t20.5 7h90q11 0 17.5 -7t5.5 -19l-17 -94q-7 -27 -30 -27h-90q-11 0 -18.5 8t-4.5 19zM309 27l17 94q1 12 10 19t20 7h90q11 0 17.5 -7t5.5 -19l-16 -94q-7 -27 -31 -27h-90q-11 0 -18.5 8t-4.5 19zM575 27l17 94q1 12 10.5 19t20.5 7h90 q11 0 17 -7t5 -19l-16 -94q-7 -27 -31 -27h-90q-11 0 -18.5 8t-4.5 19z" />
<glyph unicode="&#x202f;" horiz-adv-x="353" />
<glyph unicode="&#x2039;" horiz-adv-x="462" d="M168 694q-10 28 10 51l191 256q8 11 17.5 17.5t14.5 7.5h5h108q18 0 0 -25l-205 -280l105 -281q4 -13 2.5 -19t-6.5 -7h-4h-109q-19 -1 -29 26z" />
<glyph unicode="&#x203a;" horiz-adv-x="460" d="M114 417q-4 6 7 23l207 281l-107 280q-4 12 -2.5 17.5t5.5 6.5l5 1h109q19 0 29 -25l100 -256q10 -28 -10 -51l-191 -254q-8 -12 -17 -18.5t-15 -7.5h-5h-108z" />
<glyph unicode="&#x205f;" horiz-adv-x="441" />
<glyph unicode="&#x20ac;" horiz-adv-x="911" d="M104 588l15 76q2 11 10.5 18.5t20.5 7.5h65l16 92h-65q-12 0 -18.5 8t-4.5 19l15 76q2 11 10 18.5t20 7.5h66l63 357q15 90 89 152.5t163 62.5h219q90 0 143 -62.5t38 -152.5l-11 -54q-1 -10 -10 -18t-20 -8h-86q-11 0 -17.5 8t-5.5 18l17 89q3 23 -10 38t-35 15h-267 q-24 0 -42 -15t-21 -38l-70 -392h369q10 0 16 -7.5t4 -18.5l-14 -76q-2 -11 -10.5 -19t-18.5 -8h-368l-17 -92h369q10 0 16 -7.5t4 -18.5l-14 -76q-2 -11 -10.5 -19t-18.5 -8h-368l-70 -397q-5 -22 8.5 -37.5t36.5 -15.5h277q22 0 40 15.5t23 37.5l19 104q1 12 9 19.5 t19 7.5h88q11 0 16.5 -7.5t4.5 -19.5l-13 -61q-15 -90 -89 -153.5t-162 -63.5h-230q-88 0 -140.5 63.5t-37.5 153.5l64 354h-66q-12 0 -18.5 8t-4.5 19z" />
<glyph unicode="&#x2122;" horiz-adv-x="1224" d="M340 1421l6 41q3 13 16 13h334q16 0 13 -13l-7 -41q-4 -14 -16 -14h-131l-125 -705q-4 -14 -14 -14h-47q-6 0 -10 4t-3 10l125 705h-129q-6 0 -9.5 4t-2.5 10zM664 702l133 760q3 13 16 13h41q10 -1 14 -13l109 -399l248 399q4 5 8.5 8.5t6.5 3.5l3 1h41q13 0 10 -13 l-133 -760q-3 -14 -14 -14h-47q-14 0 -10 14l104 594l-244 -387l-108 387l-105 -594q-3 -14 -14 -14h-47q-6 0 -9.5 4t-2.5 10z" />
<glyph unicode="&#x25fc;" horiz-adv-x="1474" d="M0 0v1475h1475v-1475h-1475z" />
<glyph unicode="&#xfb01;" horiz-adv-x="1116" d="M104 27l250 1421q7 27 31 27h791q11 0 17 -7.5t3 -19.5l-12 -76q-6 -26 -31 -26h-680l-88 -506h375q11 0 17 -7.5t5 -17.5l-14 -76q-1 -10 -10.5 -18t-20.5 -8h-375l-120 -686q-7 -27 -29 -27h-86q-12 0 -19 7.5t-4 19.5zM809 27l192 1091q2 11 10.5 19t18.5 8h88 q10 0 16.5 -8t4.5 -19l-193 -1091q-7 -27 -28 -27h-89q-11 0 -17 7.5t-3 19.5z" />
<glyph unicode="&#xfb02;" horiz-adv-x="1290" d="M104 27l250 1421q7 27 31 27h735q11 0 17.5 -7.5t3.5 -19.5l-13 -76q-6 -26 -30 -26h-625l-88 -506h283q11 0 17 -7.5t5 -17.5l-14 -76q-1 -10 -10.5 -18t-20.5 -8h-283l-120 -686q-7 -27 -29 -27h-86q-12 0 -19 7.5t-4 19.5zM717 27l192 1091q2 11 10.5 19t18.5 8h88 q10 0 16.5 -8t4.5 -19l-177 -991h293q12 0 19 -7.5t4 -19.5l-12 -73q-7 -27 -31 -27h-406q-11 0 -17 7.5t-3 19.5z" />
<glyph horiz-adv-x="1376" d="M137 207l189 1061q15 90 89 152.5t163 62.5h192q88 0 140.5 -62.5t37.5 -152.5l-18 -99q-1 -12 -9.5 -19t-19.5 -7h-88q-23 0 -20 26l24 134q3 23 -10 38t-35 15h-240q-24 0 -42 -15t-21 -38l-201 -1139q-5 -22 8.5 -37.5t36.5 -15.5h240q22 0 40 15.5t23 37.5l41 233 q1 12 9.5 19.5t19.5 7.5h88q11 0 16.5 -7.5t4.5 -19.5l-35 -190q-15 -90 -89.5 -153.5t-162.5 -63.5h-193q-88 0 -140.5 63.5t-37.5 153.5zM696 598l66 371q1 12 9.5 19t19.5 7h79q24 0 21 -26l-19 -111h330l105 590q7 27 30 27h86q11 0 18.5 -8t4.5 -19l-250 -1421 q-7 -27 -31 -27h-86q-11 0 -18 7.5t-4 19.5l117 667h-330l-19 -96q-1 -12 -9 -19.5t-19 -7.5h-80q-11 0 -16.5 7.5t-4.5 19.5z" />
<glyph horiz-adv-x="1171" d="M104 27l250 1421q7 27 31 27h86q11 0 17.5 -7.5t3.5 -19.5l-234 -1321h727q11 0 18.5 -8t4.5 -19l-13 -73q-7 -27 -30 -27h-838q-12 0 -19 7.5t-4 19.5zM502 356l192 1092q7 27 31 27h86q12 0 19 -7.5t4 -19.5l-175 -991h385q11 0 17.5 -7.5t5.5 -17.5l-14 -76 q-1 -12 -10.5 -19t-20.5 -7h-498q-11 0 -17 7t-5 19z" />
<glyph horiz-adv-x="1404" d="M137 207l189 1061q15 90 89 152.5t163 62.5h229q88 0 140.5 -62.5t37.5 -152.5l-18 -99q-1 -12 -9.5 -19t-19.5 -7h-88q-24 0 -21 26l25 134q3 23 -10 38t-35 15h-277q-24 0 -42 -15t-21 -38l-201 -1139q-5 -22 8.5 -37.5t36.5 -15.5h277q22 0 40 15.5t23 37.5l41 233 q1 12 9.5 19.5t19.5 7.5h88q23 0 20 -27l-34 -190q-15 -90 -89.5 -153.5t-162.5 -63.5h-230q-88 0 -140.5 63.5t-37.5 153.5zM725 580l72 407q7 27 30 27h88q11 0 16.5 -7.5t2.5 -19.5l-14 -86h143l319 547q6 12 14 19t12 7l5 1h103q2 0 4.5 -1t5.5 -7t-6 -19l-355 -610 l105 -811q2 -12 -2 -18.5t-8 -7.5l-5 -1h-102q-2 0 -5 0.5t-8.5 7.5t-6.5 19l-99 745h-137l-35 -192q-1 -12 -9 -19.5t-19 -7.5h-89q-23 0 -20 27z" />
<glyph horiz-adv-x="2000" d="M104 27l250 1421q7 27 31 27h94q23 0 29 -27l182 -746l445 746q5 12 13.5 19t14.5 7l6 1h105q23 0 29 -27l182 -746l444 746q5 12 14 19t15 7l6 1h96q11 0 17.5 -7.5t3.5 -19.5l-250 -1421q-7 -27 -29 -27h-88q-11 0 -17 7.5t-3 19.5l194 1101l-458 -737l-199 737 l-195 -1101q-7 -27 -28 -27h-88q-11 0 -17.5 7.5t-3.5 19.5l195 1101l-459 -737l-199 737l-194 -1101q-7 -27 -29 -27h-86q-12 0 -19 7.5t-4 19.5z" />
<glyph horiz-adv-x="1378" d="M84 27l16 100l705 1221h-461q-12 0 -18.5 7t-3.5 17l12 76q7 27 31 27h571q11 0 17 -7.5t3 -19.5l-16 -100l-702 -1221h239q11 0 17.5 -7.5t3.5 -19.5l-13 -73q-7 -27 -28 -27h-351q-12 0 -18.5 7.5t-3.5 19.5zM596 27l16 100l705 1221h-221q-12 0 -19 7t-4 17l12 76 q7 27 31 27h332q11 0 17 -7.5t3 -19.5l-16 -100l-702 -1221h460q11 0 17.5 -7.5t3.5 -19.5l-12 -73q-7 -27 -29 -27h-572q-12 0 -18.5 7.5t-3.5 19.5z" />
<glyph horiz-adv-x="1277" d="M104 27l250 1421q7 27 31 27h86q11 0 17.5 -7.5t3.5 -19.5l-234 -1321h838q11 0 18 -7.5t4 -19.5l-12 -73q-7 -27 -31 -27h-948q-12 0 -19 7.5t-4 19.5zM530 522l134 746q15 90 89.5 152.5t164.5 62.5h227q90 0 142.5 -62.5t37.5 -152.5l-133 -746q-15 -90 -89.5 -153.5 t-164.5 -63.5h-227q-90 0 -143 63.5t-38 153.5zM664 479q-4 -22 8.5 -37.5t34.5 -15.5h276q22 0 41 15.5t23 37.5l145 824q3 23 -10 38t-35 15h-277q-22 0 -40 -15t-21 -38z" />
<glyph horiz-adv-x="1212" d="M135 27l180 1421q7 27 31 27h84q11 0 18.5 -8t4.5 -19l-156 -1268l381 469l217 -469l291 1268q7 27 31 27h83q12 0 19 -7.5t4 -19.5l-319 -1421q-7 -27 -31 -27h-117q-19 0 -31 27l-186 395l-326 -395q-23 -27 -39 -27h-116q-11 0 -18.5 8t-4.5 19z" />
<glyph horiz-adv-x="937" d="M137 207l189 1061q15 90 89 152.5t163 62.5h229q88 0 140.5 -62.5t37.5 -152.5l-188 -1061q-11 -73 -68 -133l25 -176q1 -12 -2.5 -18.5t-7 -7.5t-9.5 -1h-78q-3 0 -7 0.5t-11 7.5t-8 19l-17 92h-299q-88 0 -140.5 63.5t-37.5 153.5zM268 164q-5 -22 8.5 -37.5 t36.5 -15.5h277q22 0 40 15.5t23 37.5l201 1139q3 23 -10 38t-35 15h-277q-24 0 -42 -15t-21 -38z" />
<glyph horiz-adv-x="866" d="M94 27l17 100l305 528h-158q-12 0 -18 8t-4 19l14 76q2 11 10.5 18.5t20.5 7.5h208l326 564h-461q-12 0 -18.5 7t-3.5 17l12 76q7 27 31 27h571q11 0 17.5 -7.5t3.5 -19.5l-17 -100l-325 -564h153q10 0 16.5 -7.5t4.5 -18.5l-15 -76q-2 -11 -10 -19t-18 -8h-205 l-303 -528h461q11 0 17 -7.5t3 -19.5l-12 -73q-7 -27 -29 -27h-571q-12 0 -19 7.5t-4 19.5z" />
<glyph horiz-adv-x="620" d="M63 27l13 67q4 25 30 25h148q23 0 41.5 16t21.5 39l226 1274q7 27 28 27h86q12 0 19 -7.5t4 -19.5l-217 -1233q-15 -89 -89.5 -152t-162.5 -63h-125q-12 0 -19 7.5t-4 19.5z" />
<glyph horiz-adv-x="1478" d="M104 8q-4 6 2 19l256 616q-55 25 -83.5 79.5t-16.5 121.5l74 416q15 89 89.5 152t162.5 63h760q88 0 140.5 -63t37.5 -152l-74 -416q-12 -68 -58.5 -122t-111.5 -79l39 -616q1 -12 -3 -19t-8 -8h-5h-103q-2 0 -5 0.5t-8.5 7.5t-6.5 19l-41 602h-252l-107 -602 q-7 -27 -28 -27h-86q-12 0 -19 7.5t-4 19.5l107 602h-246l-254 -602q-4 -12 -11.5 -18.5t-12.5 -7.5l-5 -1h-108q-2 0 -4.5 1t-6.5 7zM395 803q-5 -22 7.5 -37.5t35.5 -15.5h334l107 598h-334q-23 0 -42 -16t-22 -38zM909 750h334q23 0 41 15.5t23 37.5l86 491 q3 23 -8.5 38.5t-34.5 15.5h-334z" />
<glyph horiz-adv-x="1492" d="M104 27l250 1421q7 27 31 27h121q2 0 5.5 -0.5t9.5 -7.5t7 -19l170 -1112l197 1112q7 27 31 27h121q2 0 5.5 -0.5t9.5 -7.5t7 -19l170 -1112l197 1112q7 27 28 27h88q11 0 17.5 -7.5t3.5 -19.5l-250 -1421q-7 -27 -29 -27h-112q-2 0 -6 0.5t-10.5 7.5t-8.5 19l-180 1108 l-195 -1108q-7 -27 -28 -27h-113q-2 0 -6 0.5t-10.5 7.5t-8.5 19l-180 1108l-194 -1108q-7 -27 -29 -27h-86q-12 0 -19 7.5t-4 19.5z" />
<glyph horiz-adv-x="1216" d="M104 27l250 1421q7 27 31 27h86q11 0 17.5 -7.5t3.5 -19.5l-234 -1321h801q11 0 18 -7.5t4 -19.5l-12 -73q-7 -27 -31 -27h-911q-12 0 -19 7.5t-4 19.5zM498 332l196 1116q7 27 31 27h561q11 0 17.5 -7.5t3.5 -19.5l-13 -76q-6 -26 -30 -26h-449l-67 -383h374 q10 0 16.5 -8t4.5 -19l-13 -76q-7 -24 -30 -24h-375l-70 -404h459q11 0 17.5 -7t5.5 -17l-15 -76q-2 -11 -11 -19t-19 -8h-572q-10 0 -17 8t-5 19z" />
<glyph horiz-adv-x="1505" d="M299 1372l12 76q7 27 31 27h1221q11 0 18 -7.5t4 -19.5l-12 -76q-7 -24 -31 -24h-840l-233 -1321q-7 -27 -29 -27h-88q-11 0 -17 7.5t-3 19.5l233 1321h-243q-11 0 -18.5 7t-4.5 17zM655 27l193 1091q1 10 10.5 18.5t20.5 8.5h86q10 0 17 -8t5 -19l-78 -444h402l78 444 q2 11 10 19t20 8h86q10 0 17.5 -8t5.5 -19l-193 -1091q-7 -27 -30 -27h-86q-12 0 -19 7.5t-4 19.5l92 520h-401l-92 -520q-7 -27 -31 -27h-86q-11 0 -18.5 8t-4.5 19z" />
<glyph horiz-adv-x="2224" d="M299 1372l12 76q7 27 31 27h1952q11 0 17 -7.5t3 -19.5l-12 -76q-7 -24 -29 -24h-1571l-233 -1321q-7 -27 -29 -27h-88q-11 0 -17 7.5t-3 19.5l233 1321h-243q-11 0 -18.5 7t-4.5 17zM625 27l192 1091q1 10 10.5 18.5t20.5 8.5h86q10 0 17 -8t5 -19l-77 -444h401l78 444 q2 11 10.5 19t20.5 8h86q10 0 17 -8t5 -19l-192 -1091q-7 -27 -31 -27h-86q-12 0 -19 7.5t-4 19.5l92 520h-401l-92 -520q-7 -27 -31 -27h-86q-11 0 -18 7.5t-4 19.5zM1454 27l193 1091q2 11 10 19t18 8h561q10 0 16.5 -8t4.5 -19l-14 -78q-1 -10 -9.5 -17t-19.5 -7h-449 l-59 -342h375q11 0 16 -7.5t2 -17.5l-12 -76q-2 -11 -10.5 -18.5t-18.5 -7.5h-375l-75 -420h458q11 0 18.5 -8t4.5 -19l-12 -73q-7 -27 -31 -27h-571q-11 0 -17.5 7.5t-3.5 19.5z" />
<glyph horiz-adv-x="1456" d="M104 27l250 1421q7 27 31 27h86q11 0 17.5 -7.5t3.5 -19.5l-107 -608h385l107 608q7 27 28 27h88q11 0 17.5 -7.5t3.5 -19.5l-107 -608h383l107 608q7 27 30 27h86q11 0 18.5 -8t4.5 -19l-250 -1421q-7 -27 -31 -27h-86q-11 0 -18 7.5t-4 19.5l121 686h-383l-121 -686 q-7 -27 -29 -27h-88q-11 0 -17 7.5t-3 19.5l121 686h-386l-120 -686q-7 -27 -29 -27h-86q-12 0 -19 7.5t-4 19.5z" />
<glyph horiz-adv-x="1372" d="M127 215l72 410q15 82 84 145q-12 45 -4 92l69 398q15 89 89.5 152t164.5 63h639q89 0 141 -63t37 -152l-69 -398q-8 -46 -37 -92q45 -61 30 -145l-71 -410q-15 -89 -89 -152t-163 -63h-713q-89 0 -142 63t-38 152zM258 174q-3 -23 10 -39t35 -16h311l101 569h-318 q-22 -3 -38 -18t-19 -35zM416 854q-3 -22 7.5 -36.5t29.5 -16.5h280l98 547h-274q-22 0 -41 -16t-22 -38zM754 119h311q22 0 40 16t21 39l82 461q3 20 -8 35t-31 18h-315zM872 801h279q23 1 39.5 16t19.5 37l78 440q3 22 -9.5 38t-33.5 16h-274z" />
<glyph horiz-adv-x="1423" d="M137 207l189 1061q15 90 89 152.5t163 62.5h229q70 0 121 -41q67 41 135 41h229q88 0 140.5 -62.5t37.5 -152.5l-188 -1061q-15 -90 -89.5 -153.5t-162.5 -63.5h-229q-70 0 -123 43q-62 -43 -133 -43h-230q-88 0 -140.5 63.5t-37.5 153.5zM268 164q-5 -22 8.5 -37.5 t36.5 -15.5h258q22 0 41 15.5t23 37.5l201 1145q3 20 -10.5 33.5t-34.5 13.5h-259q-24 0 -42 -15t-21 -38zM772 164q-4 -22 8.5 -37.5t34.5 -15.5h258q23 0 41 15.5t23 37.5l200 1139q3 23 -9.5 38t-35.5 15h-258q-21 0 -39.5 -13.5t-21.5 -33.5z" />
<glyph horiz-adv-x="731" d="M279 1575l18 100q1 10 10.5 18.5t20.5 8.5h96q10 0 16 -8t4 -19l-18 -100q-1 -10 -9.5 -17.5t-19.5 -7.5h-96q-11 0 -17 7.5t-5 17.5zM614 1575l19 100q2 11 10.5 19t18.5 8h96q10 0 17 -8t5 -19l-18 -100q-1 -10 -10.5 -17.5t-20.5 -7.5h-96q-10 0 -16.5 7t-4.5 18z" />
<glyph horiz-adv-x="894" d="M63 8q-5 6 0 19l496 1421q4 12 12 19t15 7l6 1h168h2.5t5.5 -1.5t7.5 -4t6 -8t2.5 -13.5l-4 -1421q0 -12 -5 -19t-10 -8h-5h-101q-2 0 -5 0.5t-8 7.5t-5 19l2 233h-362l-78 -233q-4 -12 -10.5 -18.5t-11.5 -7.5l-5 -1h-100q-2 0 -5 1t-8 7zM324 387h321l12 973zM453 1575 l18 100q1 10 10.5 18.5t20.5 8.5h96q10 0 16 -8t4 -19l-18 -100q-1 -10 -9.5 -17.5t-19.5 -7.5h-96q-11 0 -17 7.5t-5 17.5zM788 1575l19 100q2 11 10.5 19t18.5 8h96q10 0 17 -8t5 -19l-18 -100q-1 -10 -10.5 -17.5t-20.5 -7.5h-96q-10 0 -16.5 7t-4.5 18z" />
<glyph horiz-adv-x="876" d="M104 27l250 1421q7 27 31 27h559q11 0 18.5 -8t4.5 -19l-13 -76q-3 -12 -12 -19t-20 -7h-449l-88 -506h375q11 0 17 -7.5t5 -17.5l-14 -76q-1 -10 -10.5 -18t-20.5 -8h-375l-104 -586h461q11 0 17 -7.5t3 -19.5l-12 -73q-7 -27 -29 -27h-571q-12 0 -19 7.5t-4 19.5z M440 1575l19 100q2 11 11 19t19 8h97q10 0 16 -8t4 -19l-18 -100q-1 -10 -9.5 -17.5t-19.5 -7.5h-96q-11 0 -17.5 7.5t-5.5 17.5zM776 1575l19 100q2 11 10 19t18 8h97q10 0 17 -8t5 -19l-18 -100q-1 -10 -10.5 -17.5t-20.5 -7.5h-96q-10 0 -16.5 7t-4.5 18z" />
<glyph d="M137 207l189 1061q15 90 89 152.5t163 62.5h235q90 0 142.5 -62.5t37.5 -152.5l-188 -1061q-15 -90 -89.5 -153.5t-164.5 -63.5h-236q-88 0 -140.5 63.5t-37.5 153.5zM268 164q-5 -22 8.5 -37.5t36.5 -15.5h283q23 0 40.5 15.5t22.5 37.5l201 1139q3 23 -9.5 38t-35.5 15 h-283q-24 0 -42 -15t-21 -38zM469 1575l18 100q1 10 10.5 18.5t20.5 8.5h96q10 0 16.5 -8t4.5 -19l-19 -100q-2 -11 -10 -18t-18 -7h-96q-11 0 -17.5 7.5t-5.5 17.5zM805 1575l18 100q2 11 10.5 19t18.5 8h96q10 0 17.5 -8t5.5 -19l-19 -100q-1 -10 -10 -17.5t-20 -7.5h-97 q-10 0 -16 7t-4 18z" />
<glyph horiz-adv-x="950" d="M137 207l219 1241q7 27 31 27h86q11 0 17.5 -7.5t3.5 -19.5l-226 -1284q-5 -22 8.5 -37.5t36.5 -15.5h279q23 0 40.5 15.5t22.5 37.5l226 1284q7 27 30 27h86q12 0 19 -7.5t4 -19.5l-219 -1241q-15 -90 -89.5 -153.5t-162.5 -63.5h-234q-88 0 -140.5 63.5t-37.5 153.5z M467 1575l18 100q1 10 10.5 18.5t20.5 8.5h96q10 0 16.5 -8t4.5 -19l-19 -100q-2 -11 -10 -18t-18 -7h-97q-11 0 -17 7.5t-5 17.5zM803 1575l18 100q2 11 10.5 19t18.5 8h96q10 0 17.5 -8t5.5 -19l-19 -100q-1 -10 -10 -17.5t-20 -7.5h-97q-10 0 -16 7t-4 18z" />
<glyph horiz-adv-x="421" d="M104 27l250 1421q7 27 31 27h86q11 0 17.5 -7.5t3.5 -19.5l-250 -1421q-7 -27 -29 -27h-86q-12 0 -19 7.5t-4 19.5zM205 1575l18 100q1 10 10.5 18.5t20.5 8.5h96q10 0 16.5 -8t4.5 -19l-19 -100q-2 -11 -10 -18t-18 -7h-97q-11 0 -17 7.5t-5 17.5zM541 1575l18 100 q2 11 10.5 19t18.5 8h96q10 0 17.5 -8t5.5 -19l-19 -100q-1 -10 -10.5 -17.5t-20.5 -7.5h-96q-10 0 -16 7t-4 18z" />
<glyph horiz-adv-x="874" d="M299 1448q-2 12 1.5 19t7.5 7l5 1h99q2 0 5 -0.5t9 -7.5t8 -19l92 -711l340 711q5 12 13 19t13 7l5 1h98q2 0 4.5 -1t6.5 -7t-2 -19l-449 -926l-86 -495q-7 -27 -31 -27h-84q-11 0 -18 7.5t-4 19.5l86 495zM432 1575l19 100q2 11 11 19t19 8h97q10 0 16 -8t4 -19 l-18 -100q-1 -10 -9.5 -17.5t-19.5 -7.5h-96q-11 0 -17.5 7.5t-5.5 17.5zM768 1575l18 100q2 11 10.5 19t18.5 8h96q10 0 17.5 -8t5.5 -19l-19 -100q-1 -10 -10 -17.5t-20 -7.5h-97q-10 0 -16 7t-4 18z" />
</font>
</defs>
</svg>
