<?xml version="1.0" standalone="no"?>
<!DOCTYPE svg PUBLIC "-//W3C//DTD SVG 1.1//EN" "http://www.w3.org/Graphics/SVG/1.1/DTD/svg11.dtd" >
<svg xmlns="http://www.w3.org/2000/svg" xmlns:xlink="http://www.w3.org/1999/xlink" version="1.1">
<metadata></metadata>
<defs>
<font id="clarkeblack" horiz-adv-x="872" >
<font-face units-per-em="2048" ascent="1638" descent="-410" />
<missing-glyph horiz-adv-x="645" />
<glyph horiz-adv-x="0" />
<glyph horiz-adv-x="682" />
<glyph horiz-adv-x="0" />
<glyph horiz-adv-x="0" />
<glyph unicode="&#xd;" horiz-adv-x="645" />
<glyph unicode=" "  horiz-adv-x="645" />
<glyph unicode="&#x09;" horiz-adv-x="645" />
<glyph unicode="&#xa0;" horiz-adv-x="645" />
<glyph unicode="!" horiz-adv-x="473" d="M113 27v209q0 11 7 18.5t19 7.5h197q10 0 17 -7.5t7 -18.5v-209q0 -12 -6.5 -19.5t-17.5 -7.5h-197q-26 0 -26 27zM113 377v1071q0 27 26 27h197q11 0 17.5 -7.5t6.5 -19.5v-1071q0 -12 -6.5 -19.5t-17.5 -7.5h-197q-26 0 -26 27z" />
<glyph unicode="&#x22;" horiz-adv-x="598" d="M41 1294v181q0 10 8 18t19 8h188q10 0 17.5 -7.5t7.5 -18.5v-181q0 -51 -35 -87t-84 -36q-50 0 -85.5 36t-35.5 87zM317 1294v181q0 10 8 18t19 8h188q10 0 17.5 -7.5t7.5 -18.5v-181q0 -51 -35 -87t-84 -36q-50 0 -85.5 36t-35.5 87z" />
<glyph unicode="#" horiz-adv-x="1275" d="M92 422v186q0 10 8 18.5t19 8.5h155l56 166h-123q-10 0 -17.5 7.5t-7.5 18.5v187q0 11 7.5 18.5t17.5 7.5h176l72 250h239l-73 -250h186l72 250h239l-74 -250h115q10 0 17.5 -7.5t7.5 -18.5v-187q0 -11 -7.5 -18.5t-17.5 -7.5h-170l-55 -166h123q10 0 18 -8t8 -19v-186 q0 -11 -8 -19t-18 -8h-176l-64 -211h-233l61 211h-188l-64 -211h-233l61 211h-102q-11 0 -19 8.5t-8 18.5zM510 635h188l56 166h-189z" />
<glyph unicode="$" horiz-adv-x="825" d="M82 207v227q0 12 8 19.5t19 7.5h196q12 0 19.5 -7.5t7.5 -19.5v-160q0 -22 15.5 -37.5t37.5 -15.5h55q22 0 38 15.5t16 37.5v320q0 22 -16 37.5t-38 15.5h-141q-89 0 -153 63t-64 152v406q0 90 63.5 152.5t153.5 62.5h23v76q0 26 24 26h123q27 0 27 -26v-76h22 q88 0 151.5 -62.5t63.5 -152.5v-135q0 -12 -6.5 -19.5t-17.5 -7.5h-199q-11 0 -18 7.5t-7 19.5v59q0 23 -15.5 38t-37.5 15h-47q-22 0 -37.5 -15t-15.5 -38v-262q0 -22 15.5 -37.5t37.5 -15.5h141q90 0 153.5 -62.5t63.5 -152.5v-455q0 -90 -63.5 -153.5t-153.5 -63.5h-30 v-70q0 -11 -7.5 -17.5t-19.5 -6.5h-123q-10 0 -17 7t-7 17v70h-23q-90 0 -153.5 63.5t-63.5 153.5z" />
<glyph unicode="%" horiz-adv-x="1712" d="M102 897v371q0 90 63.5 152.5t151.5 62.5h175q88 0 151.5 -62.5t63.5 -152.5v-371q0 -89 -63.5 -152t-151.5 -63h-175q-88 0 -151.5 63t-63.5 152zM332 967q0 -23 16 -39.5t39 -16.5h37q22 0 37.5 16.5t15.5 39.5v225q0 23 -15.5 38t-37.5 15h-37q-23 0 -39 -15t-16 -38 v-225zM532.5 8q-2.5 6 2.5 19l389 1421q4 12 12 19t14 7l6 1h222q1 0 2.5 -1t4 -7t-2.5 -19l-396 -1421q-4 -12 -11.5 -19t-12.5 -8h-6h-217q-1 0 -2.5 1t-4 7zM1006 207v371q0 89 63.5 152t151.5 63h174q88 0 151.5 -63t63.5 -152v-371q0 -90 -63.5 -153.5t-151.5 -63.5 h-174q-88 0 -151.5 63.5t-63.5 153.5zM1235 274q0 -22 16 -37.5t39 -15.5h37q22 0 37.5 15.5t15.5 37.5v228q0 22 -15.5 37.5t-37.5 15.5h-37q-23 0 -39 -15.5t-16 -37.5v-228z" />
<glyph unicode="&#x26;" horiz-adv-x="974" d="M72 215v195q0 63 48 150t136 212q-137 288 -137 361v135q0 90 63.5 152.5t151.5 62.5h188q90 0 152.5 -62.5t62.5 -152.5v-121q0 -43 -34 -116t-68.5 -128.5t-102.5 -157.5l74 -153l31 55q13 25 27 25h198q11 0 16 -8t1 -17l-154 -289l176 -331q3 -11 -1.5 -19t-16.5 -8 h-199q-14 0 -33 27q-20 35 -53 92l-63 -119h-246q-89 0 -153 63t-64 152zM322 274q0 -22 15.5 -37.5t37.5 -15.5h31l69 125l-90 170q-63 -112 -63 -166v-76zM367 1151q0 -42 51 -156q71 109 71 152v53q0 22 -15.5 37.5t-37.5 15.5h-14q-23 0 -39 -15.5t-16 -37.5v-49z" />
<glyph unicode="'" horiz-adv-x="321" d="M41 1294v181q0 10 8 18t19 8h188q10 0 17.5 -7.5t7.5 -18.5v-181q0 -51 -35 -87t-84 -36q-50 0 -85.5 36t-35.5 87z" />
<glyph unicode="(" horiz-adv-x="550" d="M113 -33v1522q0 90 63.5 152.5t151.5 62.5h137q10 0 17 -7t7 -18v-223q0 -11 -7 -18.5t-17 -7.5h-49q-23 0 -39.5 -15.5t-16.5 -38.5v-1323q0 -22 16.5 -37.5t39.5 -15.5h49q11 0 17.5 -7.5t6.5 -19.5v-196q0 -11 -7 -19t-17 -8h-137q-88 0 -151.5 63.5t-63.5 153.5z" />
<glyph unicode=")" horiz-adv-x="552" d="M61 -27q0 12 8 19.5t19 7.5h49q23 0 38 15.5t15 37.5v1323q0 23 -15 38.5t-38 15.5h-49q-11 0 -19 8t-8 18v223q0 10 8 17.5t19 7.5h137q88 0 151.5 -62.5t63.5 -152.5v-1522q0 -90 -63.5 -153.5t-151.5 -63.5h-137q-10 0 -18.5 8t-8.5 19v196z" />
<glyph unicode="*" horiz-adv-x="546" d="M63 1286l19 70q7 30 31 18l102 -45q21 -15 18 -33l-10 -34q-8 -19 -33 -19l-108 12q-13 1 -17.5 11t-1.5 20zM121 1137l72 86q16 20 34 8l29 -19q20 -8 10 -34l-39 -103q-9 -23 -34 -10l-64 37q-24 16 -8 35zM213 1448q-3 13 5 20t20 7h71q13 0 21.5 -7t5.5 -20l-19 -109 q-6 -24 -26 -24h-35q-19 0 -25 24zM281 1180q-9 23 10 34l31 17q18 12 34 -8l68 -88q18 -18 -8 -35l-64 -35q-26 -13 -35 10zM315 1296q-5 16 19 31l100 45q24 12 31 -18l18 -70q9 -28 -18 -31l-109 -10q-28 0 -30 19z" />
<glyph unicode="+" horiz-adv-x="806" d="M92 625v186q0 11 7.5 19t19.5 8h166v166q0 10 6.5 17t17.5 7h187q11 0 18.5 -7t7.5 -17v-166h168q10 0 17.5 -8t7.5 -19v-186q0 -11 -7.5 -19t-17.5 -8h-168v-166q0 -12 -7.5 -19t-18.5 -7h-187q-24 0 -24 26v166h-166q-12 0 -19.5 8t-7.5 19z" />
<glyph unicode="," horiz-adv-x="335" d="M41 78v149q0 10 8 17.5t19 7.5h200q11 0 19 -7.5t8 -17.5v-256q0 -52 -28 -80t-79 -28q-7 0 -12.5 6t-5.5 14v107h-39q-38 0 -64 26t-26 62z" />
<glyph unicode="-" horiz-adv-x="806" d="M92 625v186q0 11 7.5 19t19.5 8h571q10 0 17.5 -8t7.5 -19v-186q0 -11 -7.5 -19t-17.5 -8h-571q-12 0 -19.5 8t-7.5 19z" />
<glyph unicode="." horiz-adv-x="335" d="M41 27v200q0 10 8 17.5t19 7.5h200q11 0 19 -7.5t8 -17.5v-200q0 -12 -8 -19.5t-19 -7.5h-200q-11 0 -19 7.5t-8 19.5z" />
<glyph unicode="/" horiz-adv-x="778" d="M62 8q-3 6 1 19l392 1421q4 12 11.5 19t13.5 7l5 1h222q2 0 3.5 -1t4.5 -7t-2 -19l-396 -1421q-4 -12 -12 -18.5t-14 -7.5l-6 -1h-215q-1 0 -3 1t-5 7z" />
<glyph unicode="0" horiz-adv-x="843" d="M92 207v1061q0 90 63.5 152.5t151.5 62.5h230q88 0 151.5 -62.5t63.5 -152.5v-1061q0 -90 -63.5 -153.5t-151.5 -63.5h-230q-88 0 -151.5 63.5t-63.5 153.5zM340 274q0 -22 16 -37.5t39 -15.5h56q22 0 37.5 15.5t15.5 37.5v918q0 23 -15.5 38t-37.5 15h-56q-23 0 -39 -15 t-16 -38v-918z" />
<glyph unicode="1" horiz-adv-x="555" d="M92 1229v117l137 129h187q26 0 26 -27v-1421q0 -27 -26 -27h-197q-11 0 -18.5 7.5t-7.5 19.5v1177h-74q-12 0 -19.5 7t-7.5 18z" />
<glyph unicode="2" horiz-adv-x="808" d="M72 27v211q17 31 45 82.5t99.5 189t126 249t99.5 220t45 145.5v68q0 23 -15.5 38t-37.5 15h-41q-22 0 -37.5 -15t-15.5 -38v-41q0 -12 -7.5 -19.5t-19.5 -7.5h-196q-11 0 -19 7.5t-8 19.5v117q0 90 63.5 152.5t153.5 62.5h213q90 0 152.5 -62.5t62.5 -152.5v-144 q0 -58 -101.5 -279.5t-202.5 -414.5l-101 -192h383q11 0 17.5 -7.5t6.5 -19.5v-184q0 -12 -6.5 -19.5t-17.5 -7.5h-615q-11 0 -18.5 7.5t-7.5 19.5z" />
<glyph unicode="3" horiz-adv-x="817" d="M72 1151v117q0 90 63.5 152.5t151.5 62.5h233q88 0 151.5 -62.5t63.5 -152.5v-383q0 -66 -37 -121q37 -49 37 -117v-440q0 -90 -63.5 -153.5t-151.5 -63.5h-229q-89 0 -152 63t-63 154v119q0 11 7 18.5t17 7.5h199q10 0 17.5 -7.5t7.5 -18.5v-52q0 -22 15.5 -37.5 t37.5 -15.5h55q23 0 38 15.5t15 37.5v316q0 22 -15 37.5t-38 15.5h-51q-21 3 -21 27v186q0 10 8 17.5t19 7.5h45q23 0 38 15.5t15 37.5v258q0 23 -15 38t-38 15h-57q-24 0 -40 -15t-16 -38v-41q0 -12 -6.5 -19.5t-17.5 -7.5h-197q-26 0 -26 27z" />
<glyph unicode="4" horiz-adv-x="761" d="M31 229v213l375 1006q4 12 13.5 19t16.5 7l8 1h203q10 1 17.5 -7t7.5 -20v-1006h33q26 0 26 -26v-187q0 -24 -26 -24h-33v-178q0 -12 -7 -19.5t-18 -7.5h-198q-11 0 -18 7.5t-7 19.5v178h-367q-26 0 -26 24zM266 442h164v496z" />
<glyph unicode="5" horiz-adv-x="823" d="M92 207v227q0 12 7.5 19.5t19.5 7.5h196q11 0 18 -7.5t7 -19.5v-160q0 -22 16 -37.5t39 -15.5h56q22 0 37.5 15.5t15.5 37.5v351q0 22 -15.5 37.5t-37.5 15.5h-328q-10 0 -17.5 8t-7.5 19v743q0 12 7 19.5t18 7.5h559q11 0 19 -7.5t8 -19.5v-186q0 -12 -8 -19.5t-19 -7.5 h-336v-326h191q88 0 151.5 -63.5t63.5 -153.5v-485q0 -90 -63.5 -153.5t-151.5 -63.5h-230q-88 0 -151.5 63.5t-63.5 153.5z" />
<glyph unicode="6" horiz-adv-x="823" d="M92 207v1061q0 90 63.5 152.5t151.5 62.5h209q90 0 152.5 -62.5t62.5 -152.5v-135q0 -12 -6.5 -19.5t-17.5 -7.5h-199q-11 0 -18 7.5t-7 19.5v59q0 23 -15.5 38t-37.5 15h-35q-23 0 -39 -15t-16 -38v-309h197q88 0 151.5 -63t63.5 -152v-461q0 -90 -63.5 -153.5 t-151.5 -63.5h-230q-88 0 -151.5 63.5t-63.5 153.5zM340 274q0 -22 16 -37.5t39 -15.5h56q22 0 37.5 15.5t15.5 37.5v318q0 22 -15.5 37.5t-37.5 15.5h-111v-371z" />
<glyph unicode="7" horiz-adv-x="724" d="M51 1262v186q0 12 7.5 19.5t19.5 7.5h571q11 0 18 -7.5t7 -19.5v-211l-228 -1210q-2 -12 -7.5 -18.5t-10.5 -7.5l-4 -1h-213q-2 0 -5 0.5t-6.5 7.5t-0.5 19l229 1210h-350q-12 0 -19.5 7t-7.5 18z" />
<glyph unicode="8" horiz-adv-x="847" d="M92 207v438q0 71 72 119q-3 0 -10 3t-18 12t-20.5 21.5t-16.5 34.5t-7 48v385q0 90 63.5 152.5t151.5 62.5h234q88 0 151.5 -62.5t63.5 -152.5v-385q0 -27 -7 -49t-16.5 -34.5t-21 -21t-19 -11.5t-10.5 -3q4 -2 9.5 -5t18 -14t22 -23.5t17 -33t7.5 -43.5v-438 q0 -90 -63.5 -153.5t-151.5 -63.5h-234q-88 0 -151.5 63.5t-63.5 153.5zM340 274q0 -22 16 -37.5t39 -15.5h58q23 0 38 15.5t15 37.5v314q0 22 -15 37.5t-38 15.5h-58q-23 0 -39 -15.5t-16 -37.5v-314zM340 932q0 -22 16 -37.5t39 -15.5h64q20 1 33.5 16.5t13.5 36.5v260 q0 23 -15 38t-38 15h-58q-23 0 -39 -15t-16 -38v-260z" />
<glyph unicode="9" horiz-adv-x="823" d="M72 774v494q0 90 63.5 152.5t151.5 62.5h229q88 0 151.5 -62.5t63.5 -152.5v-1061q0 -90 -63.5 -153.5t-151.5 -63.5h-211q-88 0 -151.5 63.5t-63.5 153.5v135q0 12 7.5 19.5t19.5 7.5h196q11 0 18 -7.5t7 -19.5v-59q0 -23 16 -38.5t39 -15.5h37q22 0 37.5 15.5 t15.5 38.5v276h-196q-88 0 -151.5 62.5t-63.5 152.5zM319 850q0 -23 16 -38t40 -15h108v403q0 22 -15.5 37.5t-37.5 15.5h-55q-23 0 -39.5 -15.5t-16.5 -37.5v-350z" />
<glyph unicode=":" horiz-adv-x="397" d="M72 27v200q0 10 7.5 17.5t18.5 7.5h201q11 0 19 -7.5t8 -17.5v-200q0 -12 -8 -19.5t-19 -7.5h-201q-11 0 -18.5 7.5t-7.5 19.5zM72 809v201q0 10 8 18t18 8h201q11 0 19 -8t8 -18v-201q0 -11 -8 -19t-19 -8h-201q-10 0 -18 8t-8 19z" />
<glyph unicode=";" horiz-adv-x="397" d="M72 78v149q0 10 7.5 17.5t18.5 7.5h201q11 0 19 -7.5t8 -17.5v-256q0 -52 -28 -80t-79 -28q-7 0 -12.5 6t-5.5 14v107h-39q-38 0 -64 26t-26 62zM72 809v201q0 10 8 18t18 8h201q11 0 19 -8t8 -18v-201q0 -11 -8 -19t-19 -8h-201q-10 0 -18 8t-8 19z" />
<glyph unicode="&#x3c;" horiz-adv-x="610" d="M57 694q-12 24 0 51l250 424q6 12 14.5 18.5t13.5 7.5l5 1h209q2 0 4 -1t5 -7t-5 -19l-250 -448l250 -451q6 -12 5 -17.5t-5 -6.5h-4h-209q-19 -1 -33 24z" />
<glyph unicode="=" horiz-adv-x="827" d="M102 459v186q0 11 7.5 19t19.5 8h571q10 0 17.5 -8t7.5 -19v-186q0 -11 -7.5 -19t-17.5 -8h-571q-12 0 -19.5 8t-7.5 19zM102 791v186q0 11 7.5 19t19.5 8h571q10 0 17.5 -8t7.5 -19v-186q0 -11 -7.5 -19t-17.5 -8h-571q-12 0 -19.5 8t-7.5 19z" />
<glyph unicode="&#x3e;" horiz-adv-x="612" d="M52 252.5q-3 5.5 5 17.5l250 451l-250 448q-6 13 -5 19t5 7l4 1h209q19 0 35 -27l248 -424q15 -27 0 -51l-248 -424q-7 -11 -16 -17t-14 -7h-5h-209q-2 0 -4 0.5t-5 6z" />
<glyph unicode="?" horiz-adv-x="802" d="M72 1133v135q0 90 63.5 152.5t151.5 62.5h229q88 0 151.5 -62.5t63.5 -152.5v-449q0 -91 -45.5 -147.5t-132.5 -69.5q-53 -7 -53 -53v-172q0 -12 -8 -19.5t-19 -7.5h-197q-11 0 -18.5 7.5t-7.5 19.5v239q0 92 46 150t134 68q23 3 38 17t15 36v305q0 23 -15.5 38t-37.5 15 h-55q-24 0 -40 -15t-16 -38v-59q0 -12 -6.5 -19.5t-17.5 -7.5h-197q-26 0 -26 27zM250 27v209q0 10 8 18t18 8h197q11 0 19 -8t8 -18v-209q0 -12 -8 -19.5t-19 -7.5h-197q-11 0 -18.5 7.5t-7.5 19.5z" />
<glyph unicode="@" horiz-adv-x="1517" d="M113 215v1045q0 89 63.5 152t151.5 63h862q88 0 151.5 -63t63.5 -152v-740q0 -90 -63.5 -153.5t-151.5 -63.5h-100q-60 0 -111 31q-48 -31 -109 -31h-229q-88 0 -151.5 63.5t-63.5 153.5v369q0 89 63.5 152t151.5 63h193q88 0 151.5 -63t63.5 -152v-301q0 -22 15.5 -37.5 t37.5 -15.5q23 0 38 15.5t15 37.5v596q0 22 -15 37.5t-38 15.5h-686q-23 0 -39.5 -15.5t-16.5 -37.5v-899q0 -23 16.5 -39.5t39.5 -16.5h950q11 0 19 -7t8 -17v-178q0 -12 -8 -19.5t-19 -7.5h-1038q-88 0 -151.5 63t-63.5 152zM674 588q0 -22 16 -37.5t39 -15.5h37 q20 0 35 13t18 32v233q0 22 -15.5 37.5t-37.5 15.5h-37q-23 0 -39 -15.5t-16 -37.5v-225z" />
<glyph unicode="A" horiz-adv-x="862" d="M74 27l245 1421q1 12 7.5 19t13.5 7l6 1h170q3 0 7 -0.5t11.5 -7.5t8.5 -19l245 -1421q2 -12 -1.5 -18.5t-8.5 -7.5l-4 -1h-213q-2 0 -5 0.5t-8.5 7.5t-6.5 19l-27 178h-166l-26 -178q-1 -12 -6 -18.5t-10 -7.5l-5 -1h-213q-2 0 -5 0.5t-7 7.5t-2 19zM379 442h106 l-55 545z" />
<glyph unicode="B" horiz-adv-x="868" d="M113 27v1421q0 27 26 27h385q88 0 151.5 -63t63.5 -152v-398q0 -44 -20 -92q57 -64 57 -145v-410q0 -89 -63.5 -152t-151.5 -63h-422q-26 0 -26 27zM360 229h113q23 0 38 16t15 40v295q0 21 -13 35.5t-34 17.5h-119v-404zM360 856h82q21 1 34 16t13 37v275q0 22 -15 37.5 t-38 15.5h-76v-381z" />
<glyph unicode="C" horiz-adv-x="847" d="M102 207v1061q0 90 63.5 152.5t151.5 62.5h224q90 0 152.5 -62.5t62.5 -152.5v-135q0 -12 -7 -19.5t-18 -7.5h-196q-12 0 -19.5 7.5t-7.5 19.5v59q0 23 -15.5 38t-37.5 15h-49q-24 0 -40 -15t-16 -38v-918q0 -22 16.5 -37.5t39.5 -15.5h57q23 0 38 15.5t15 37.5v160 q0 12 8 19.5t19 7.5h196q12 0 19.5 -7.5t7.5 -19.5v-227q0 -90 -63.5 -153.5t-151.5 -63.5h-234q-88 0 -151.5 63.5t-63.5 153.5z" />
<glyph unicode="D" horiz-adv-x="878" d="M113 27v1421q0 27 26 27h422q88 0 151.5 -63t63.5 -152v-1045q0 -89 -63.5 -152t-151.5 -63h-422q-26 0 -26 27zM360 238h113q23 0 38 15.5t15 37.5v893q0 22 -15 37.5t-38 15.5h-113v-999z" />
<glyph unicode="E" horiz-adv-x="817" d="M113 27v1421q0 27 26 27h559q11 0 19 -7.5t8 -19.5v-186q0 -12 -8 -19.5t-19 -7.5h-338v-340h265q11 0 18.5 -7.5t7.5 -17.5v-186q0 -11 -8 -19t-18 -8h-265v-419h351q11 0 17.5 -7.5t6.5 -19.5v-184q0 -12 -6.5 -19.5t-17.5 -7.5h-572q-26 0 -26 27z" />
<glyph unicode="F" horiz-adv-x="786" d="M113 27v1421q0 27 26 27h559q11 0 19 -7.5t8 -19.5v-186q0 -12 -8 -19.5t-19 -7.5h-338v-340h265q11 0 18.5 -7.5t7.5 -17.5v-186q0 -11 -8 -19t-18 -8h-265v-630q0 -12 -6.5 -19.5t-17.5 -7.5h-197q-26 0 -26 27z" />
<glyph unicode="G" horiz-adv-x="858" d="M102 207v1061q0 90 63.5 152.5t151.5 62.5h222q90 0 153.5 -62.5t63.5 -152.5v-135q0 -12 -8 -19.5t-19 -7.5h-197q-26 0 -26 27v59q0 23 -15.5 38t-37.5 15h-47q-24 0 -40 -15t-16 -38v-918q0 -22 16.5 -37.5t39.5 -15.5h57q23 0 38 15.5t15 37.5v205h-59q-11 0 -19 7.5 t-8 19.5v184q0 12 8 19.5t19 7.5h282q12 0 19.5 -7.5t7.5 -19.5v-483q0 -90 -63.5 -153.5t-151.5 -63.5h-234q-88 0 -151.5 63.5t-63.5 153.5z" />
<glyph unicode="H" horiz-adv-x="903" d="M113 27v1421q0 27 26 27h197q11 0 17.5 -7.5t6.5 -19.5v-553h183v553q0 12 6.5 19.5t17.5 7.5h199q11 0 18 -7.5t7 -19.5v-1421q0 -12 -7 -19.5t-18 -7.5h-199q-11 0 -17.5 7.5t-6.5 19.5v630h-183v-630q0 -12 -6.5 -19.5t-17.5 -7.5h-197q-26 0 -26 27z" />
<glyph unicode="I" horiz-adv-x="473" d="M113 27v1421q0 27 26 27h197q11 0 17.5 -7.5t6.5 -19.5v-1421q0 -12 -6.5 -19.5t-17.5 -7.5h-197q-26 0 -26 27z" />
<glyph unicode="J" horiz-adv-x="823" d="M51 207v227q0 12 7.5 19.5t19.5 7.5h192q11 0 19 -7.5t8 -19.5v-160q0 -22 15 -37.5t38 -15.5h60q22 0 37.5 15.5t15.5 37.5v1174q0 12 6.5 19.5t17.5 7.5h199q11 0 18 -7.5t7 -19.5v-1241q0 -90 -63.5 -153.5t-151.5 -63.5h-230q-88 0 -151.5 63.5t-63.5 153.5z" />
<glyph unicode="K" horiz-adv-x="839" d="M113 27v1421q0 27 26 27h197q11 0 17.5 -7.5t6.5 -19.5v-498l175 498q4 12 11 19t12 7l5 1h211q2 0 4.5 -1t7 -7t-1.5 -19l-231 -619l231 -802q3 -12 0 -19t-8 -8h-4h-211q-2 0 -5 0.5t-10 7.5t-11 19l-136 442l-39 -125v-317q0 -12 -6.5 -19.5t-17.5 -7.5h-197 q-26 0 -26 27z" />
<glyph unicode="L" horiz-adv-x="796" d="M113 27v1421q0 27 26 27h197q11 0 17.5 -7.5t6.5 -19.5v-1210h351q11 0 17.5 -7.5t6.5 -19.5v-184q0 -12 -6.5 -19.5t-17.5 -7.5h-572q-26 0 -26 27z" />
<glyph unicode="M" horiz-adv-x="1157" d="M113 27v1421q0 27 26 27h189q22 0 32 -27l220 -557l219 557q4 12 11.5 19t13.5 7l5 1h191q11 0 17.5 -7.5t6.5 -19.5v-1421q0 -12 -6.5 -19.5t-17.5 -7.5h-199q-11 0 -17.5 7.5t-6.5 19.5v757l-217 -563l-220 563v-757q0 -12 -6.5 -19.5t-17.5 -7.5h-197q-26 0 -26 27z " />
<glyph unicode="N" horiz-adv-x="903" d="M113 27v1421q0 27 26 27h195q2 0 5.5 -0.5t10.5 -7.5t10 -19l183 -627v627q0 12 6.5 19.5t17.5 7.5h199q11 0 18 -7.5t7 -19.5v-1421q0 -12 -7 -19.5t-18 -7.5h-186q-21 0 -29 27l-191 604v-604q0 -12 -6.5 -19.5t-17.5 -7.5h-197q-26 0 -26 27z" />
<glyph unicode="O" d="M102 207v1061q0 90 63.5 152.5t151.5 62.5h236q90 0 153.5 -62.5t63.5 -152.5v-1061q0 -90 -63.5 -153.5t-153.5 -63.5h-236q-88 0 -151.5 63.5t-63.5 153.5zM350 274q0 -22 16.5 -37.5t39.5 -15.5h61q23 0 38 15.5t15 37.5v918q0 23 -15 38t-38 15h-61q-24 0 -40 -15 t-16 -38v-918z" />
<glyph unicode="P" horiz-adv-x="868" d="M113 27v1421q0 27 26 27h422q88 0 151.5 -63t63.5 -152v-472q0 -89 -63.5 -152t-151.5 -63h-201v-546q0 -12 -6.5 -19.5t-17.5 -7.5h-197q-26 0 -26 27zM360 803h113q23 0 38 15.5t15 37.5v328q0 22 -15 37.5t-38 15.5h-113v-434z" />
<glyph unicode="Q" d="M102 207v1061q0 90 63.5 152.5t151.5 62.5h236q90 0 153.5 -62.5t63.5 -152.5v-1061q0 -90 -63.5 -153.5t-153.5 -63.5h-10v-129q0 -12 -7.5 -19.5t-19.5 -7.5h-162q-11 0 -17.5 7.5t-6.5 19.5v129h-13q-88 0 -151.5 63.5t-63.5 153.5zM350 274q0 -22 16.5 -37.5 t39.5 -15.5h61q23 0 38 15.5t15 37.5v918q0 23 -15 38t-38 15h-61q-24 0 -40 -15t-16 -38v-918z" />
<glyph unicode="R" d="M113 27v1421q0 27 26 27h422q88 0 151.5 -63t63.5 -152v-472q0 -67 -37.5 -121t-97.5 -79l147 -561q3 -13 0.5 -19t-7.5 -7l-5 -1h-213q-2 0 -5 0.5t-9.5 7.5t-9.5 19l-144 546h-35v-546q0 -12 -6.5 -19.5t-17.5 -7.5h-197q-26 0 -26 27zM360 803h113q23 0 38 15.5 t15 37.5v328q0 22 -15 37.5t-38 15.5h-113v-434z" />
<glyph unicode="S" horiz-adv-x="827" d="M82 207v227q0 12 8 19.5t19 7.5h196q12 0 19.5 -7.5t7.5 -19.5v-160q0 -22 15.5 -37.5t37.5 -15.5h59q22 0 38 15.5t16 37.5v320q0 22 -16 37.5t-38 15.5h-145q-89 0 -153 63t-64 152v406q0 90 63.5 152.5t153.5 62.5h223q88 0 151.5 -62.5t63.5 -152.5v-135 q0 -27 -26 -27h-197q-11 0 -19 7.5t-8 19.5v59q0 23 -15 38t-38 15h-49q-22 0 -37.5 -15t-15.5 -38v-262q0 -22 15.5 -37.5t37.5 -15.5h145q90 0 152.5 -62.5t62.5 -152.5v-455q0 -91 -63 -154t-152 -63h-231q-90 0 -153.5 63.5t-63.5 153.5z" />
<glyph unicode="T" horiz-adv-x="823" d="M72 1262v186q0 12 7.5 19.5t18.5 7.5h627q11 0 19 -7.5t8 -19.5v-186q0 -10 -8 -17.5t-19 -7.5h-190v-1210q0 -12 -7 -19.5t-18 -7.5h-199q-11 0 -17.5 7.5t-6.5 19.5v1210h-189q-11 0 -18.5 7.5t-7.5 17.5z" />
<glyph unicode="U" horiz-adv-x="888" d="M113 207v1241q0 27 26 27h197q11 0 17.5 -7.5t6.5 -19.5v-1174q0 -22 16.5 -37.5t39.5 -15.5h57q23 0 38 15.5t15 37.5v1174q0 12 8 19.5t19 7.5h197q26 0 26 -27v-1241q0 -90 -63.5 -153.5t-151.5 -63.5h-233q-88 0 -151.5 63.5t-63.5 153.5z" />
<glyph unicode="V" horiz-adv-x="864" d="M74 1448q-1 12 3 19t9 7l4 1h211q2 0 5.5 -0.5t9.5 -7.5t8 -19l108 -887l109 887q2 12 7.5 19t9.5 7l5 1h211q2 0 5 -0.5t8 -7.5t4 -19l-246 -1421q-2 -12 -9 -19t-14 -8h-6h-168q-25 0 -29 27z" />
<glyph unicode="W" horiz-adv-x="1343" d="M74 1448q-1 12 3 19t9 7l4 1h211q2 0 5.5 -0.5t9.5 -7.5t8 -19l108 -887l127 887q2 12 7.5 19t10.5 7l5 1h182q2 0 5 -0.5t9 -7.5t8 -19l127 -887l109 887q2 12 7.5 19t10.5 7l4 1h211q2 0 5 -0.5t7.5 -7.5t2.5 -19l-244 -1421q-2 -12 -9 -19t-13 -8h-7h-170q-2 0 -6 0.5 t-11 7.5t-9 19l-129 741l-127 -741q-2 -12 -9 -19t-14 -8h-6h-168q-25 0 -29 27z" />
<glyph unicode="X" horiz-adv-x="794" d="M52.5 8q-2.5 6 2.5 19l207 743l-188 678q-3 13 -2.5 19t3.5 7l3 1h221q25 0 33 -27l65 -274l68 274q3 12 10.5 19t14.5 7l6 1h221q1 0 2.5 -1t4.5 -7t-1 -19l-193 -678l211 -743q2 -13 1 -19t-4 -7l-3 -1h-215q-25 0 -33 27l-90 344l-90 -344q-4 -12 -11.5 -19t-13.5 -8 h-6h-217q-1 0 -2.5 1t-4 7z" />
<glyph unicode="Y" horiz-adv-x="813" d="M54.5 1467q2.5 6 7.5 7l4 1h213q2 0 5 -0.5t9 -7.5t8 -19l107 -576l104 576q3 12 9 19t11 7l5 1h211q2 0 5 -0.5t6.5 -7.5t0.5 -19l-230 -987v-434q0 -27 -26 -27h-195q-11 0 -18.5 7.5t-7.5 19.5v434l-228 987q-3 13 -0.5 19z" />
<glyph unicode="Z" horiz-adv-x="806" d="M92 27v211l387 999h-360q-12 0 -19.5 7t-7.5 18v186q0 12 7.5 19.5t19.5 7.5h571q11 0 18 -7.5t7 -19.5v-211l-383 -999h358q11 0 18 -7.5t7 -19.5v-184q0 -12 -7 -19.5t-18 -7.5h-571q-12 0 -19.5 7.5t-7.5 19.5z" />
<glyph unicode="[" horiz-adv-x="550" d="M113 -205v1884q0 11 7 18t19 7h326q10 0 17 -7t7 -18v-186q0 -11 -7 -19t-17 -8h-105v-1466h105q11 0 17.5 -7.5t6.5 -19.5v-178q0 -11 -7 -18.5t-17 -7.5h-326q-12 0 -19 7.5t-7 18.5z" />
<glyph unicode="\" horiz-adv-x="778" d="M62.5 1467q1.5 6 4.5 7l3 1h221q25 0 31 -27l391 -1421q3 -13 2 -19t-5 -7l-3 -1h-215q-25 0 -31 27l-398 1421q-2 13 -0.5 19z" />
<glyph unicode="]" horiz-adv-x="552" d="M61 -27q0 12 8 19.5t19 7.5h102v1466h-102q-10 0 -18.5 8t-8.5 19v186q0 10 8 17.5t19 7.5h326q12 0 19 -7t7 -18v-1884q0 -11 -7 -18.5t-19 -7.5h-326q-11 0 -19 8t-8 18v178z" />
<glyph unicode="^" horiz-adv-x="684" d="M83.5 1474q-3.5 6 2.5 19l125 248q5 12 13 18.5t13 6.5l5 1h200q17 1 29 -26l127 -248q4 -13 2.5 -19t-6.5 -7l-4 -1h-129l-121 148l-119 -148h-127q-2 0 -4.5 1t-6 7z" />
<glyph unicode="_" horiz-adv-x="950" d="M72 27v184q0 27 26 27h756q11 0 18 -7.5t7 -19.5v-184q0 -12 -7 -19.5t-18 -7.5h-756q-26 0 -26 27z" />
<glyph unicode="`" horiz-adv-x="423" d="M90 1741q-16 25 0 26h148q18 1 28 -26l70 -156q5 -13 3.5 -19t-5.5 -6l-4 -1h-111z" />
<glyph unicode="a" horiz-adv-x="862" d="M74 27l245 1421q1 12 7.5 19t13.5 7l6 1h170q3 0 7 -0.5t11.5 -7.5t8.5 -19l245 -1421q2 -12 -1.5 -18.5t-8.5 -7.5l-4 -1h-213q-2 0 -5 0.5t-8.5 7.5t-6.5 19l-27 178h-166l-26 -178q-1 -12 -6 -18.5t-10 -7.5l-5 -1h-213q-2 0 -5 0.5t-7 7.5t-2 19zM379 442h106 l-55 545z" />
<glyph unicode="b" horiz-adv-x="868" d="M113 27v1421q0 27 26 27h385q88 0 151.5 -63t63.5 -152v-398q0 -44 -20 -92q57 -64 57 -145v-410q0 -89 -63.5 -152t-151.5 -63h-422q-26 0 -26 27zM360 229h113q23 0 38 16t15 40v295q0 21 -13 35.5t-34 17.5h-119v-404zM360 856h82q21 1 34 16t13 37v275q0 22 -15 37.5 t-38 15.5h-76v-381z" />
<glyph unicode="c" horiz-adv-x="847" d="M102 207v1061q0 90 63.5 152.5t151.5 62.5h224q90 0 152.5 -62.5t62.5 -152.5v-135q0 -12 -7 -19.5t-18 -7.5h-196q-12 0 -19.5 7.5t-7.5 19.5v59q0 23 -15.5 38t-37.5 15h-49q-24 0 -40 -15t-16 -38v-918q0 -22 16.5 -37.5t39.5 -15.5h57q23 0 38 15.5t15 37.5v160 q0 12 8 19.5t19 7.5h196q12 0 19.5 -7.5t7.5 -19.5v-227q0 -90 -63.5 -153.5t-151.5 -63.5h-234q-88 0 -151.5 63.5t-63.5 153.5z" />
<glyph unicode="d" horiz-adv-x="878" d="M113 27v1421q0 27 26 27h422q88 0 151.5 -63t63.5 -152v-1045q0 -89 -63.5 -152t-151.5 -63h-422q-26 0 -26 27zM360 238h113q23 0 38 15.5t15 37.5v893q0 22 -15 37.5t-38 15.5h-113v-999z" />
<glyph unicode="e" horiz-adv-x="817" d="M113 27v1421q0 27 26 27h559q11 0 19 -7.5t8 -19.5v-186q0 -12 -8 -19.5t-19 -7.5h-338v-340h265q11 0 18.5 -7.5t7.5 -17.5v-186q0 -11 -8 -19t-18 -8h-265v-419h351q11 0 17.5 -7.5t6.5 -19.5v-184q0 -12 -6.5 -19.5t-17.5 -7.5h-572q-26 0 -26 27z" />
<glyph unicode="f" horiz-adv-x="786" d="M113 27v1421q0 27 26 27h559q11 0 19 -7.5t8 -19.5v-186q0 -12 -8 -19.5t-19 -7.5h-338v-340h265q11 0 18.5 -7.5t7.5 -17.5v-186q0 -11 -8 -19t-18 -8h-265v-630q0 -12 -6.5 -19.5t-17.5 -7.5h-197q-26 0 -26 27z" />
<glyph unicode="g" horiz-adv-x="858" d="M102 207v1061q0 90 63.5 152.5t151.5 62.5h222q90 0 153.5 -62.5t63.5 -152.5v-135q0 -12 -8 -19.5t-19 -7.5h-197q-26 0 -26 27v59q0 23 -15.5 38t-37.5 15h-47q-24 0 -40 -15t-16 -38v-918q0 -22 16.5 -37.5t39.5 -15.5h57q23 0 38 15.5t15 37.5v205h-59q-11 0 -19 7.5 t-8 19.5v184q0 12 8 19.5t19 7.5h282q12 0 19.5 -7.5t7.5 -19.5v-483q0 -90 -63.5 -153.5t-151.5 -63.5h-234q-88 0 -151.5 63.5t-63.5 153.5z" />
<glyph unicode="h" horiz-adv-x="903" d="M113 27v1421q0 27 26 27h197q11 0 17.5 -7.5t6.5 -19.5v-553h183v553q0 12 6.5 19.5t17.5 7.5h199q11 0 18 -7.5t7 -19.5v-1421q0 -12 -7 -19.5t-18 -7.5h-199q-11 0 -17.5 7.5t-6.5 19.5v630h-183v-630q0 -12 -6.5 -19.5t-17.5 -7.5h-197q-26 0 -26 27z" />
<glyph unicode="i" horiz-adv-x="473" d="M113 27v1421q0 27 26 27h197q11 0 17.5 -7.5t6.5 -19.5v-1421q0 -12 -6.5 -19.5t-17.5 -7.5h-197q-26 0 -26 27z" />
<glyph unicode="j" horiz-adv-x="823" d="M51 207v227q0 12 7.5 19.5t19.5 7.5h192q11 0 19 -7.5t8 -19.5v-160q0 -22 15 -37.5t38 -15.5h60q22 0 37.5 15.5t15.5 37.5v1174q0 12 6.5 19.5t17.5 7.5h199q11 0 18 -7.5t7 -19.5v-1241q0 -90 -63.5 -153.5t-151.5 -63.5h-230q-88 0 -151.5 63.5t-63.5 153.5z" />
<glyph unicode="k" horiz-adv-x="839" d="M113 27v1421q0 27 26 27h197q11 0 17.5 -7.5t6.5 -19.5v-498l175 498q4 12 11 19t12 7l5 1h211q2 0 4.5 -1t7 -7t-1.5 -19l-231 -619l231 -802q3 -12 0 -19t-8 -8h-4h-211q-2 0 -5 0.5t-10 7.5t-11 19l-136 442l-39 -125v-317q0 -12 -6.5 -19.5t-17.5 -7.5h-197 q-26 0 -26 27z" />
<glyph unicode="l" horiz-adv-x="796" d="M113 27v1421q0 27 26 27h197q11 0 17.5 -7.5t6.5 -19.5v-1210h351q11 0 17.5 -7.5t6.5 -19.5v-184q0 -12 -6.5 -19.5t-17.5 -7.5h-572q-26 0 -26 27z" />
<glyph unicode="m" horiz-adv-x="1157" d="M113 27v1421q0 27 26 27h189q22 0 32 -27l220 -557l219 557q4 12 11.5 19t13.5 7l5 1h191q11 0 17.5 -7.5t6.5 -19.5v-1421q0 -12 -6.5 -19.5t-17.5 -7.5h-199q-11 0 -17.5 7.5t-6.5 19.5v757l-217 -563l-220 563v-757q0 -12 -6.5 -19.5t-17.5 -7.5h-197q-26 0 -26 27z " />
<glyph unicode="n" horiz-adv-x="903" d="M113 27v1421q0 27 26 27h195q2 0 5.5 -0.5t10.5 -7.5t10 -19l183 -627v627q0 12 6.5 19.5t17.5 7.5h199q11 0 18 -7.5t7 -19.5v-1421q0 -12 -7 -19.5t-18 -7.5h-186q-21 0 -29 27l-191 604v-604q0 -12 -6.5 -19.5t-17.5 -7.5h-197q-26 0 -26 27z" />
<glyph unicode="o" d="M102 207v1061q0 90 63.5 152.5t151.5 62.5h236q90 0 153.5 -62.5t63.5 -152.5v-1061q0 -90 -63.5 -153.5t-153.5 -63.5h-236q-88 0 -151.5 63.5t-63.5 153.5zM350 274q0 -22 16.5 -37.5t39.5 -15.5h61q23 0 38 15.5t15 37.5v918q0 23 -15 38t-38 15h-61q-24 0 -40 -15 t-16 -38v-918z" />
<glyph unicode="p" horiz-adv-x="868" d="M113 27v1421q0 27 26 27h422q88 0 151.5 -63t63.5 -152v-472q0 -89 -63.5 -152t-151.5 -63h-201v-546q0 -12 -6.5 -19.5t-17.5 -7.5h-197q-26 0 -26 27zM360 803h113q23 0 38 15.5t15 37.5v328q0 22 -15 37.5t-38 15.5h-113v-434z" />
<glyph unicode="q" d="M102 207v1061q0 90 63.5 152.5t151.5 62.5h236q90 0 153.5 -62.5t63.5 -152.5v-1061q0 -90 -63.5 -153.5t-153.5 -63.5h-10v-129q0 -12 -7.5 -19.5t-19.5 -7.5h-162q-11 0 -17.5 7.5t-6.5 19.5v129h-13q-88 0 -151.5 63.5t-63.5 153.5zM350 274q0 -22 16.5 -37.5 t39.5 -15.5h61q23 0 38 15.5t15 37.5v918q0 23 -15 38t-38 15h-61q-24 0 -40 -15t-16 -38v-918z" />
<glyph unicode="r" d="M113 27v1421q0 27 26 27h422q88 0 151.5 -63t63.5 -152v-472q0 -67 -37.5 -121t-97.5 -79l147 -561q3 -13 0.5 -19t-7.5 -7l-5 -1h-213q-2 0 -5 0.5t-9.5 7.5t-9.5 19l-144 546h-35v-546q0 -12 -6.5 -19.5t-17.5 -7.5h-197q-26 0 -26 27zM360 803h113q23 0 38 15.5 t15 37.5v328q0 22 -15 37.5t-38 15.5h-113v-434z" />
<glyph unicode="s" horiz-adv-x="827" d="M82 207v227q0 12 8 19.5t19 7.5h196q12 0 19.5 -7.5t7.5 -19.5v-160q0 -22 15.5 -37.5t37.5 -15.5h59q22 0 38 15.5t16 37.5v320q0 22 -16 37.5t-38 15.5h-145q-89 0 -153 63t-64 152v406q0 90 63.5 152.5t153.5 62.5h223q88 0 151.5 -62.5t63.5 -152.5v-135 q0 -27 -26 -27h-197q-11 0 -19 7.5t-8 19.5v59q0 23 -15 38t-38 15h-49q-22 0 -37.5 -15t-15.5 -38v-262q0 -22 15.5 -37.5t37.5 -15.5h145q90 0 152.5 -62.5t62.5 -152.5v-455q0 -91 -63 -154t-152 -63h-231q-90 0 -153.5 63.5t-63.5 153.5z" />
<glyph unicode="t" horiz-adv-x="823" d="M72 1262v186q0 12 7.5 19.5t18.5 7.5h627q11 0 19 -7.5t8 -19.5v-186q0 -10 -8 -17.5t-19 -7.5h-190v-1210q0 -12 -7 -19.5t-18 -7.5h-199q-11 0 -17.5 7.5t-6.5 19.5v1210h-189q-11 0 -18.5 7.5t-7.5 17.5z" />
<glyph unicode="u" horiz-adv-x="888" d="M113 207v1241q0 27 26 27h197q11 0 17.5 -7.5t6.5 -19.5v-1174q0 -22 16.5 -37.5t39.5 -15.5h57q23 0 38 15.5t15 37.5v1174q0 12 8 19.5t19 7.5h197q26 0 26 -27v-1241q0 -90 -63.5 -153.5t-151.5 -63.5h-233q-88 0 -151.5 63.5t-63.5 153.5z" />
<glyph unicode="v" horiz-adv-x="864" d="M74 1448q-1 12 3 19t9 7l4 1h211q2 0 5.5 -0.5t9.5 -7.5t8 -19l108 -887l109 887q2 12 7.5 19t9.5 7l5 1h211q2 0 5 -0.5t8 -7.5t4 -19l-246 -1421q-2 -12 -9 -19t-14 -8h-6h-168q-25 0 -29 27z" />
<glyph unicode="w" horiz-adv-x="1343" d="M74 1448q-1 12 3 19t9 7l4 1h211q2 0 5.5 -0.5t9.5 -7.5t8 -19l108 -887l127 887q2 12 7.5 19t10.5 7l5 1h182q2 0 5 -0.5t9 -7.5t8 -19l127 -887l109 887q2 12 7.5 19t10.5 7l4 1h211q2 0 5 -0.5t7.5 -7.5t2.5 -19l-244 -1421q-2 -12 -9 -19t-13 -8h-7h-170q-2 0 -6 0.5 t-11 7.5t-9 19l-129 741l-127 -741q-2 -12 -9 -19t-14 -8h-6h-168q-25 0 -29 27z" />
<glyph unicode="x" horiz-adv-x="794" d="M52.5 8q-2.5 6 2.5 19l207 743l-188 678q-3 13 -2.5 19t3.5 7l3 1h221q25 0 33 -27l65 -274l68 274q3 12 10.5 19t14.5 7l6 1h221q1 0 2.5 -1t4.5 -7t-1 -19l-193 -678l211 -743q2 -13 1 -19t-4 -7l-3 -1h-215q-25 0 -33 27l-90 344l-90 -344q-4 -12 -11.5 -19t-13.5 -8 h-6h-217q-1 0 -2.5 1t-4 7z" />
<glyph unicode="y" horiz-adv-x="813" d="M54.5 1467q2.5 6 7.5 7l4 1h213q2 0 5 -0.5t9 -7.5t8 -19l107 -576l104 576q3 12 9 19t11 7l5 1h211q2 0 5 -0.5t6.5 -7.5t0.5 -19l-230 -987v-434q0 -27 -26 -27h-195q-11 0 -18.5 7.5t-7.5 19.5v434l-228 987q-3 13 -0.5 19z" />
<glyph unicode="z" horiz-adv-x="806" d="M92 27v211l387 999h-360q-12 0 -19.5 7t-7.5 18v186q0 12 7.5 19.5t19.5 7.5h571q11 0 18 -7.5t7 -19.5v-211l-383 -999h358q11 0 18 -7.5t7 -19.5v-184q0 -12 -7 -19.5t-18 -7.5h-571q-12 0 -19.5 7.5t-7.5 19.5z" />
<glyph unicode="{" horiz-adv-x="653" d="M102 721l148 287v481q0 90 63.5 152.5t153.5 62.5h98q12 0 19.5 -7t7.5 -18v-223q0 -11 -7.5 -18.5t-19.5 -7.5h-12q-22 0 -37.5 -15.5t-15.5 -38.5v-368l-154 -287l154 -287v-381q0 -22 15.5 -37.5t37.5 -15.5h12q12 0 19.5 -7.5t7.5 -19.5v-196q0 -11 -7.5 -19 t-19.5 -8h-98q-90 0 -153.5 63.5t-63.5 153.5v467z" />
<glyph unicode="|" horiz-adv-x="473" d="M113 -186v1847q0 11 7 18t19 7h197q10 0 17 -7t7 -18v-1847q0 -11 -7 -19t-17 -8h-197q-12 0 -19 8t-7 19z" />
<glyph unicode="}" horiz-adv-x="653" d="M61 -27q0 12 8 19.5t19 7.5h12q23 0 38.5 15.5t15.5 37.5v381l153 287l-153 287v368q0 23 -15.5 38.5t-38.5 15.5h-12q-11 0 -19 8t-8 18v223q0 10 8 17.5t19 7.5h100q88 0 151.5 -62.5t63.5 -152.5v-481l148 -287l-148 -287v-467q0 -90 -63.5 -153.5t-151.5 -63.5h-100 q-10 0 -18.5 8t-8.5 19v196z" />
<glyph unicode="~" horiz-adv-x="880" d="M73.5 753.5q3.5 11.5 12.5 16.5l160 92q9 6 19 3.5t16 -11.5l6 -12q11 -19 31.5 -25t39.5 4l101 58q76 43 163.5 20t131.5 -98l49 -90q6 -9 3.5 -19t-11.5 -16l-162 -94q-24 -8 -37 14q-11 19 -33 25.5t-41 -5.5l-98 -55q-78 -44 -164 -20.5t-131 98.5l-53 92 q-6 11 -2.5 22.5z" />
<glyph unicode="&#xa1;" horiz-adv-x="473" d="M113 27v1071q0 26 26 26h197q24 0 24 -26v-1071q0 -12 -6.5 -19.5t-17.5 -7.5h-197q-26 0 -26 27zM113 1239v209q0 27 26 27h197q11 0 17.5 -7.5t6.5 -19.5v-209q0 -11 -7 -19t-17 -8h-197q-12 0 -19 8t-7 19z" />
<glyph unicode="&#xa2;" horiz-adv-x="843" d="M102 311v836q0 89 63.5 152t151.5 63h23v86q0 12 7.5 19.5t19.5 7.5h122q11 0 19 -7.5t8 -19.5v-86h21q89 0 153 -63t64 -152v-137q0 -10 -8 -17.5t-19 -7.5h-197q-11 0 -18.5 7.5t-7.5 17.5v61q0 22 -15.5 37.5t-37.5 15.5h-45q-23 0 -39.5 -15.5t-16.5 -37.5v-692 q0 -22 16.5 -37.5t39.5 -15.5h55q22 0 37.5 15.5t15.5 37.5v162q0 10 7 17t18 7h198q11 0 18 -7t7 -17v-230q0 -89 -63.5 -152t-151.5 -63h-33v-69q0 -12 -8 -19.5t-19 -7.5h-122q-11 0 -19 7.5t-8 19.5v69h-21q-88 0 -151.5 63t-63.5 152z" />
<glyph unicode="&#xa3;" horiz-adv-x="907" d="M72 0v229h12q23 0 38 16t15 40v313h-39q-12 0 -19 8t-7 19v186q0 11 7 19t19 8h39v430q0 90 63.5 152.5t153.5 62.5h219q88 0 151.5 -62.5t63.5 -152.5v-135q0 -27 -26 -27h-197q-11 0 -17.5 7.5t-6.5 19.5v59q0 23 -16 38t-40 15h-45q-22 0 -37.5 -15t-15.5 -38v-354 h283q10 0 17 -8t7 -19v-186q0 -11 -7 -19t-17 -8h-283v-369h145q21 0 37 13.5t17 33.5q4 27 26 27h197q11 0 19 -8.5t8 -18.5v-61q0 -89 -64 -152t-154 -63h-546z" />
<glyph unicode="&#xa4;" horiz-adv-x="919" d="M92 507q0 11 8 19l52 52q-5 17 -5 45v190q0 25 5 43l-52 51q-8 7 -8 18t8 19l133 131q19 19 37 0l52 -51q24 4 40 4h193q15 0 43 -4l51 51q7 7 18 7t19 -7l131 -133q19 -18 0 -37l-51 -51q4 -28 4 -41v-190q0 -15 -4 -43l53 -54q16 -16 -2 -34l-131 -134q-8 -8 -19 -8 t-18 8l-51 52q-14 -4 -43 -4h-193q-28 0 -40 4l-54 -54q-16 -16 -35 2l-133 131q-8 7 -8 18zM395 690q0 -22 16.5 -37.5t39.5 -15.5h18q22 0 37.5 15.5t15.5 37.5v47q0 23 -15.5 38.5t-37.5 15.5h-18q-23 0 -39.5 -15.5t-16.5 -38.5v-47z" />
<glyph unicode="&#xa5;" horiz-adv-x="854" d="M75 1467q2 6 7 7l4 1h213q2 0 5.5 -0.5t9.5 -7.5t8 -19l106 -576l104 576q3 12 9 19t11 7l5 1h211q2 0 5 -0.5t6.5 -7.5t0.5 -19l-168 -721h99q12 0 19 -8t7 -19v-186q0 -11 -7 -19t-19 -8h-154l-6 -26v-66h160q12 0 19 -7.5t7 -18.5v-187q0 -11 -7 -18.5t-19 -7.5h-160 v-129q0 -12 -7.5 -19.5t-19.5 -7.5h-194q-11 0 -19 7.5t-8 19.5v129h-164q-10 0 -17 7.5t-7 18.5v187q0 11 7 18.5t17 7.5h164v66l-6 26h-158q-10 0 -17 8t-7 19v186q0 11 7 19t17 8h103l-166 721q-3 13 -1 19z" />
<glyph unicode="&#xa6;" horiz-adv-x="473" d="M113 -186v778q0 24 26 24h197q10 0 17 -7t7 -17v-778q0 -11 -7 -19t-17 -8h-197q-12 0 -19 8t-7 19zM113 844v817q0 11 7 18t19 7h197q10 0 17 -7t7 -18v-817q0 -11 -7 -18t-17 -7h-197q-12 0 -19 7t-7 18z" />
<glyph unicode="&#xa7;" horiz-adv-x="888" d="M82 1067v238q0 90 63.5 152.5t151.5 62.5h256q90 0 153.5 -62.5t63.5 -152.5v-136q0 -12 -8 -19t-19 -7h-196q-11 0 -19 7t-8 19v60q0 23 -15.5 38t-37.5 15h-82q-23 0 -39 -15t-16 -38v-131q0 -20 13.5 -35.5t33.5 -18.5h176q89 0 153 -63t64 -152v-186q0 -45 -20 -90 q57 -64 57 -145v-238q0 -90 -63.5 -153.5t-153.5 -63.5h-256q-88 0 -151.5 63.5t-63.5 153.5v135q0 27 26 27h197q11 0 18 -7.5t7 -19.5v-59q0 -23 16 -38t39 -15h82q22 0 37.5 15t15.5 38v131q0 20 -9.5 35.5t-29.5 15.5h-186q-88 0 -151.5 63t-63.5 152v186q0 45 20 93 q-55 61 -55 145zM367 711q0 -22 15 -38t38 -16h47q26 0 39.5 16t13.5 36v45q0 22 -15.5 37.5t-37.5 15.5h-47q-23 0 -38 -15.5t-15 -37.5v-43z" />
<glyph unicode="&#xa8;" horiz-adv-x="788" d="M82 1665q0 57 41 96t98 39t97 -39t40 -96q0 -59 -40 -100t-97 -41t-98 41.5t-41 99.5zM430 1665q0 57 41 96t98 39t97.5 -39t40.5 -96q0 -58 -40.5 -99.5t-97.5 -41.5t-98 41.5t-41 99.5z" />
<glyph unicode="&#xa9;" horiz-adv-x="1597" d="M72 737q0 204 95.5 375.5t263 271t368.5 99.5q152 0 287 -58.5t231.5 -158.5t152.5 -238t56 -291q0 -204 -95 -375t-262.5 -270.5t-369.5 -99.5q-201 0 -368.5 99.5t-263 270.5t-95.5 375zM305 737q0 -141 64 -258.5t177.5 -185.5t252.5 -68q212 0 353.5 148.5 t141.5 363.5t-141.5 363.5t-353.5 148.5q-139 0 -252.5 -68t-177.5 -185.5t-64 -258.5zM625 446v570q0 46 33.5 80t82.5 34h115q49 0 83 -34t34 -80v-64q0 -11 -7.5 -17.5t-19.5 -6.5h-80q-11 0 -18.5 7t-7.5 17v23q0 12 -8.5 20.5t-20.5 8.5h-27q-11 0 -18.5 -8.5 t-7.5 -20.5v-494q0 -11 8 -19.5t18 -8.5h33q12 0 20.5 8.5t8.5 19.5v76q0 11 7 18t19 7h78q11 0 19 -7.5t8 -17.5v-111q0 -47 -34 -80.5t-81 -33.5h-121q-49 0 -82.5 33t-33.5 81z" />
<glyph unicode="&#xaa;" horiz-adv-x="522" d="M53 713l129 735q2 12 7.5 19t10.5 7l5 1h112q2 0 5.5 -0.5t9.5 -7.5t8 -19l129 -735q2 -11 -1.5 -17.5t-7.5 -7.5h-5h-97q-2 0 -5 0.5t-9 7t-8 17.5l-14 84h-121l-15 -84q-2 -11 -7.5 -17.5t-10.5 -7.5h-4h-96q-2 0 -5 0.5t-7.5 7t-2.5 17.5zM219 924h84l-41 307z" />
<glyph unicode="&#xab;" horiz-adv-x="827" d="M59 694q-16 26 0 51l146 256q6 11 14.5 17.5t13.5 7.5h5h219q2 0 4 -1t5 -6.5t-5 -17.5l-156 -280l156 -281q6 -13 5 -19t-5 -7h-4h-219q-19 -1 -33 26zM367 694q-16 26 0 51l145 256q7 11 16 17.5t14 7.5h5h219q2 0 4 -1t4.5 -6.5t-6.5 -17.5l-156 -280l156 -281 q7 -13 6.5 -19t-4.5 -7h-4h-219q-19 -1 -35 26z" />
<glyph unicode="&#xac;" horiz-adv-x="1007" d="M92 625v186q0 11 7.5 19t19.5 8h772q10 0 17 -8t7 -19v-379q0 -26 -24 -26h-186q-11 0 -19 7t-8 19v166h-559q-12 0 -19.5 8t-7.5 19z" />
<glyph unicode="&#xad;" horiz-adv-x="806" d="M92 625v186q0 11 7.5 19t19.5 8h571q10 0 17.5 -8t7.5 -19v-186q0 -11 -7.5 -19t-17.5 -8h-571q-12 0 -19.5 8t-7.5 19z" />
<glyph unicode="&#xae;" horiz-adv-x="1597" d="M72 737q0 204 95.5 375.5t263 271t368.5 99.5q152 0 287 -58.5t231.5 -158.5t152.5 -238t56 -291q0 -204 -95 -375t-262.5 -270.5t-369.5 -99.5q-201 0 -368.5 99.5t-263 270.5t-95.5 375zM305 737q0 -141 64 -258.5t177.5 -185.5t252.5 -68q212 0 353.5 148.5 t141.5 363.5t-141.5 363.5t-353.5 148.5q-139 0 -252.5 -68t-177.5 -185.5t-64 -258.5zM631 362v736q0 26 24 26h215q46 0 79.5 -33.5t33.5 -80.5v-262q0 -35 -20.5 -64t-53.5 -41l76 -281q3 -12 1 -17.5t-6 -6.5h-5h-94q-19 -1 -27 24l-74 273h-18v-273q0 -10 -8 -17 t-19 -7h-80q-11 0 -17.5 7t-6.5 17zM762 774h61q12 0 21.5 8.5t9.5 20.5v168q0 11 -9.5 19.5t-21.5 8.5h-61v-225z" />
<glyph unicode="&#xaf;" horiz-adv-x="786" d="M82 1585v82q0 12 7.5 19.5t19.5 7.5h571q11 0 18 -7.5t7 -19.5v-82q0 -11 -7.5 -18.5t-17.5 -7.5h-571q-12 0 -19.5 7.5t-7.5 18.5z" />
<glyph unicode="&#xb0;" horiz-adv-x="516" d="M72 1405q0 77 54 131.5t132 54.5q76 0 131 -54.5t55 -131.5q0 -78 -54.5 -132t-131.5 -54q-78 0 -132 54t-54 132zM207 1405q0 -19 12.5 -35t38.5 -16t38.5 16t12.5 35t-12.5 35t-38.5 16t-38.5 -16t-12.5 -35z" />
<glyph unicode="&#xb1;" horiz-adv-x="806" d="M92 252v186q0 11 7.5 19t19.5 8h571q10 0 17.5 -8t7.5 -19v-186q0 -10 -7.5 -17.5t-17.5 -7.5h-571q-12 0 -19.5 7t-7.5 18zM92 772v186q0 11 7.5 19t19.5 8h166v166q0 11 7 18t17 7h187q11 0 18.5 -7.5t7.5 -17.5v-166h168q10 0 17.5 -8t7.5 -19v-186q0 -11 -7.5 -19 t-17.5 -8h-168v-165q0 -12 -7.5 -19.5t-18.5 -7.5h-187q-11 0 -17.5 7.5t-6.5 19.5v165h-166q-12 0 -19.5 8t-7.5 19z" />
<glyph unicode="&#xb2;" horiz-adv-x="581" d="M113 700v115q9 16 24 44t53.5 101.5t68 133.5t53.5 118t24 78v37q0 11 -9 20t-22 9h-18q-13 0 -22 -9t-9 -20v-24q0 -5 -4 -9t-10 -4h-105q-6 0 -11 4t-5 9v67q0 45 35.5 79t81.5 34h116q46 0 80.5 -33.5t34.5 -79.5v-80q0 -31 -54.5 -150t-108.5 -222l-54 -103h203 q6 0 10 -4.5t4 -9.5v-101q0 -12 -14 -12h-330q-12 0 -12 12z" />
<glyph unicode="&#xb3;" horiz-adv-x="581" d="M113 1305v63q0 48 33.5 81.5t82.5 33.5h123q47 0 82 -34t35 -81v-205q0 -35 -20 -65q20 -30 20 -64v-235q0 -49 -34.5 -83t-82.5 -34h-121q-49 0 -82.5 33.5t-33.5 83.5v63q0 12 14 12h104q15 0 15 -12v-26q0 -12 8 -21.5t20 -9.5h29q12 0 20.5 9.5t8.5 21.5v168 q0 12 -8.5 20t-20.5 8h-26q-11 0 -11 12v103q0 14 15 14h22q12 0 20.5 8.5t8.5 20.5v137q0 12 -8.5 20.5t-20.5 8.5h-31q-12 0 -20 -8.5t-8 -20.5v-22q0 -5 -4.5 -9t-10.5 -4h-106q-4 0 -8 4t-4 9z" />
<glyph unicode="&#xb4;" horiz-adv-x="423" d="M86 1562q-5 6 2 23l70 156q4 12 11 18.5t12 6.5l5 1h146l7 -3q4 -6 -7 -23l-129 -182h-109z" />
<glyph unicode="&#xb5;" horiz-adv-x="888" d="M113 -281v1729q0 27 26 27h197q11 0 17.5 -7.5t6.5 -19.5v-1174q0 -22 16.5 -37.5t39.5 -15.5h57q23 0 38 15.5t15 37.5v1174q0 12 8 19.5t19 7.5h197q26 0 26 -27v-1421q0 -12 -6.5 -19.5t-17.5 -7.5h-392v-281q0 -26 -24 -26h-197q-26 0 -26 26z" />
<glyph unicode="&#xb6;" horiz-adv-x="1208" d="M113 807v453q0 89 63.5 152t151.5 63h741q11 0 19 -7.5t8 -19.5v-186q0 -10 -8 -17.5t-19 -7.5h-25v-1210q0 -12 -6.5 -19.5t-17.5 -7.5h-199q-11 0 -17.5 7.5t-6.5 19.5v1210h-62v-1210q0 -12 -6.5 -19.5t-17.5 -7.5h-199q-11 0 -18 7.5t-7 19.5v565h-159 q-88 0 -151.5 63t-63.5 152z" />
<glyph unicode="&#xb7;" horiz-adv-x="397" d="M72 616v203q0 10 7.5 17.5t18.5 7.5h201q11 0 19 -7.5t8 -17.5v-203q0 -10 -8 -17t-19 -7h-201q-11 0 -18.5 7t-7.5 17z" />
<glyph unicode="&#xb8;" horiz-adv-x="389" d="M82 -106l61 114h123l-35 -65h25q20 0 35.5 -14.5t15.5 -34.5v-146q0 -21 -15 -36t-36 -15h-125q-20 0 -34.5 14.5t-14.5 36.5v25q0 11 7.5 18.5t19.5 7.5h41q10 0 18 -7.5t8 -18.5q0 -5 4 -9t8 -4h11q4 0 8 4t4 9v92q0 14 -12 14h-11q-12 0 -12 -14v-10h-94v39z" />
<glyph unicode="&#xb9;" horiz-adv-x="413" d="M113 1343v64l73 68h101q5 0 9.5 -4.5t4.5 -8.5v-762q0 -12 -14 -12h-107q-14 0 -14 12v629h-41q-12 0 -12 14z" />
<glyph unicode="&#xba;" horiz-adv-x="477" d="M61 797v569q0 46 34.5 80.5t80.5 34.5h125q46 0 80.5 -34.5t34.5 -80.5v-569q0 -47 -34.5 -81t-80.5 -34h-125q-46 0 -80.5 34t-34.5 81zM195 831q0 -11 7.5 -19.5t18.5 -8.5h33q13 0 22 8.5t9 19.5v494q0 12 -9 20.5t-22 8.5h-33q-12 0 -19 -8.5t-7 -20.5v-494z" />
<glyph unicode="&#xbb;" horiz-adv-x="827" d="M52 1018.5q1 5.5 5 6.5l4 1h220q18 0 32 -25l146 -256q19 -25 0 -51l-146 -254q-6 -12 -14 -18.5t-13 -7.5h-5h-220l-7 3q-6 6 3 23l158 281l-158 280q-6 12 -5 17.5zM360 1018.5q1 5.5 5 6.5l4 1h219q19 0 33 -25l147 -256q16 -25 0 -51l-147 -254q-6 -12 -14.5 -18.5 t-13.5 -7.5h-5h-219l-7 3q-6 6 3 23l157 281l-157 280q-6 12 -5 17.5z" />
<glyph unicode="&#xbc;" horiz-adv-x="1216" d="M113 1343v64l73 68h101q5 0 9.5 -4.5t4.5 -8.5v-762q0 -12 -14 -12h-107q-14 0 -14 12v629h-41q-12 0 -12 14zM166.5 100q-3.5 6 3.5 19l600 1218q6 12 14.5 18.5t13.5 7.5l5 1h184q2 0 4 -1t5 -7t-5 -19l-606 -1218q-5 -12 -13 -18.5t-13 -7.5l-5 -1h-178q-2 0 -4 1 t-5.5 7zM729 123v113l201 536q1 6 6.5 9.5t10.5 4.5h5h107q14 0 14 -14v-536h17q14 0 14 -15v-98q0 -12 -14 -12h-17v-97q0 -14 -14 -14h-107q-5 0 -9.5 4t-4.5 10v97h-193q-16 0 -16 12zM858 236h86v284z" />
<glyph unicode="&#xbd;" horiz-adv-x="1296" d="M113 1343v64l73 68h101q5 0 9.5 -4.5t4.5 -8.5v-762q0 -12 -14 -12h-107q-14 0 -14 12v629h-41q-12 0 -12 14zM160.5 100q-3.5 6 3.5 19l602 1218q5 12 13 18.5t13 7.5l5 1h202q2 0 4.5 -1t6 -7t-3.5 -19l-609 -1218q-5 -12 -12.5 -18.5t-12.5 -7.5l-5 -1h-197q-2 0 -4 1 t-5.5 7zM827 12v115q9 16 24 44t54 101.5t68.5 133.5t53.5 118t24 78v37q0 11 -8.5 21t-20.5 10h-21q-12 0 -21 -10t-9 -21v-23q0 -14 -15 -14h-104q-14 0 -14 14v66q0 47 34 81t80 34h117q47 0 81 -34t34 -81v-80q0 -31 -54 -150t-108 -222l-53 -103h202q4 0 8.5 -4.5 t4.5 -9.5v-101q0 -4 -4 -8t-9 -4h-331q-5 0 -9 4t-4 8z" />
<glyph unicode="&#xbe;" horiz-adv-x="1310" d="M113 1305v63q0 48 33.5 81.5t82.5 33.5h123q47 0 82 -34t35 -81v-205q0 -35 -20 -65q20 -30 20 -64v-235q0 -49 -34.5 -83t-82.5 -34h-121q-49 0 -82.5 33.5t-33.5 83.5v63q0 12 14 12h104q15 0 15 -12v-26q0 -12 8 -21.5t20 -9.5h29q12 0 20.5 9.5t8.5 21.5v168 q0 12 -8.5 20t-20.5 8h-26q-11 0 -11 12v103q0 14 15 14h22q12 0 20.5 8.5t8.5 20.5v137q0 12 -8.5 20.5t-20.5 8.5h-31q-12 0 -20 -8.5t-8 -20.5v-22q0 -5 -4.5 -9t-10.5 -4h-106q-4 0 -8 4t-4 9zM266.5 100q-3.5 6 3.5 19l602 1218q5 12 13 18.5t13 7.5l5 1h184 q2 0 4.5 -1t6 -7t-3.5 -19l-607 -1218q-6 -12 -14 -18.5t-13 -7.5l-5 -1h-179q-2 0 -4 1t-5.5 7zM823 123v113l201 536q1 6 6.5 9.5t11.5 4.5h5h106q14 0 14 -14v-536h17q14 0 14 -15v-98q0 -12 -14 -12h-17v-97q0 -14 -14 -14h-106q-5 0 -10 4t-5 10v97h-192q-17 0 -17 12z M950 236h88v284z" />
<glyph unicode="&#xbf;" horiz-adv-x="802" d="M72 207v448q0 91 45.5 147.5t132.5 69.5q24 2 38.5 16.5t14.5 37.5v172q0 12 8 19t19 7h196q11 0 19 -7t8 -19v-242q0 -91 -46 -148t-132 -67q-24 -3 -40 -17.5t-16 -35.5v-305q0 -23 16.5 -38.5t39.5 -15.5h55q22 0 37.5 15.5t15.5 38.5v59q0 12 7 19.5t18 7.5h199 q11 0 17.5 -7.5t6.5 -19.5v-135q0 -90 -63.5 -153.5t-151.5 -63.5h-229q-88 0 -151.5 63.5t-63.5 153.5zM303 1239v209q0 12 8 19.5t19 7.5h196q11 0 19 -7.5t8 -19.5v-209q0 -11 -8.5 -19t-18.5 -8h-196q-10 0 -18.5 8t-8.5 19z" />
<glyph unicode="&#xc0;" horiz-adv-x="862" d="M74 27l245 1421q1 12 7.5 19t13.5 7l6 1h170q3 0 7 -0.5t11.5 -7.5t8.5 -19l245 -1421q2 -12 -1.5 -18.5t-8.5 -7.5l-4 -1h-213q-2 0 -5 0.5t-8.5 7.5t-6.5 19l-27 178h-166l-26 -178q-1 -12 -6 -18.5t-10 -7.5l-5 -1h-213q-2 0 -5 0.5t-7 7.5t-2 19zM233 1741 q-16 25 0 26h146q19 1 31 -26l69 -156q4 -13 2.5 -19t-5.5 -6l-5 -1h-109zM379 442h106l-55 545z" />
<glyph unicode="&#xc1;" horiz-adv-x="862" d="M74 27l245 1421q1 12 7.5 19t13.5 7l6 1h170q3 0 7 -0.5t11.5 -7.5t8.5 -19l245 -1421q2 -12 -1.5 -18.5t-8.5 -7.5l-4 -1h-213q-2 0 -5 0.5t-8.5 7.5t-6.5 19l-27 178h-166l-26 -178q-1 -12 -6 -18.5t-10 -7.5l-5 -1h-213q-2 0 -5 0.5t-7 7.5t-2 19zM376.5 1568 q-0.5 3 0 7t2.5 10l70 156q5 12 12.5 18.5t12.5 6.5l5 1h146l7 -3q4 -6 -7 -23l-129 -182h-109h-1q-1 0 -2.5 0.5t-3 1.5t-2.5 2.5t-1.5 4.5zM379 442h106l-55 545z" />
<glyph unicode="&#xc2;" horiz-adv-x="862" d="M74 27l245 1421q1 12 7.5 19t13.5 7l6 1h170q3 0 7 -0.5t11.5 -7.5t8.5 -19l245 -1421q2 -12 -1.5 -18.5t-8.5 -7.5l-4 -1h-213q-2 0 -5 0.5t-8.5 7.5t-6.5 19l-27 178h-166l-26 -178q-1 -12 -6 -18.5t-10 -7.5l-5 -1h-213q-2 0 -5 0.5t-7 7.5t-2 19zM247.5 1568 q-0.5 3 0 7t2.5 10l69 156q5 12 13 18.5t13 6.5l5 1h164q19 1 29 -26l71 -156q4 -13 2.5 -19t-6.5 -6l-4 -1h-110l-66 92l-63 -92h-109h-1q-1 0 -2.5 0.5t-3 1.5t-2.5 2.5t-1.5 4.5zM379 442h106l-55 545z" />
<glyph unicode="&#xc3;" horiz-adv-x="862" d="M74 27l245 1421q1 12 7.5 19t13.5 7l6 1h170q3 0 7 -0.5t11.5 -7.5t8.5 -19l245 -1421q2 -12 -1.5 -18.5t-8.5 -7.5l-4 -1h-213q-2 0 -5 0.5t-8.5 7.5t-6.5 19l-27 178h-166l-26 -178q-1 -12 -6 -18.5t-10 -7.5l-5 -1h-213q-2 0 -5 0.5t-7 7.5t-2 19zM206 1562q-6 6 1 23 l69 156q4 12 11.5 18.5t12.5 6.5l5 1h119q20 0 35 -26l41 -60l59 86h111l8 -3q6 -6 -2 -23l-70 -156q-4 -12 -11 -18.5t-12 -6.5l-5 -1h-129l-66 92l-61 -92h-109zM379 442h106l-55 545z" />
<glyph unicode="&#xc4;" horiz-adv-x="862" d="M74 27l245 1421q1 12 7.5 19t13.5 7l6 1h170q3 0 7 -0.5t11.5 -7.5t8.5 -19l245 -1421q2 -12 -1.5 -18.5t-8.5 -7.5l-4 -1h-213q-2 0 -5 0.5t-8.5 7.5t-6.5 19l-27 178h-166l-26 -178q-1 -12 -6 -18.5t-10 -7.5l-5 -1h-213q-2 0 -5 0.5t-7 7.5t-2 19zM119 1665 q0 57 41 96t100 39q57 0 96 -39t39 -96q0 -59 -39 -100t-96 -41q-58 0 -99.5 41t-41.5 100zM379 442h106l-55 545zM467 1665q0 57 41 96t100 39q57 0 96 -39t39 -96q0 -59 -39 -100t-96 -41q-58 0 -99.5 41t-41.5 100z" />
<glyph unicode="&#xc5;" horiz-adv-x="862" d="M74 27l235 1376q-65 52 -65 143q0 77 54 132t132 55q76 0 130 -55t54 -132q0 -88 -63 -141l237 -1378q2 -12 -1.5 -18.5t-8.5 -7.5l-4 -1h-213q-2 0 -5 0.5t-8.5 7.5t-6.5 19l-27 178h-166l-26 -178q-1 -12 -6 -18.5t-10 -7.5l-5 -1h-213q-2 0 -5 0.5t-7 7.5t-2 19z M379 442h106l-55 545zM387 1546q0 -20 13 -31.5t30 -11.5q15 0 28 11.5t13 31.5t-13 31.5t-28 11.5q-17 0 -30 -11.5t-13 -31.5z" />
<glyph unicode="&#xc6;" horiz-adv-x="1118" d="M74 27l245 1421q1 12 7.5 19t13.5 7l6 1h653q11 0 18 -7.5t7 -19.5v-150q0 -12 -7 -19t-18 -7h-426l68 -395h285q10 0 17 -7t7 -18v-150q0 -11 -7 -18.5t-17 -7.5h-250l82 -475h252q11 0 18.5 -7.5t7.5 -19.5v-147q0 -12 -7.5 -19.5t-18.5 -7.5h-412q-2 0 -5 0.5 t-8.5 7.5t-6.5 19l-35 196h-224l-34 -196q-1 -12 -6 -18.5t-10 -7.5l-5 -1h-176q-2 0 -5 0.5t-7 7.5t-2 19zM379 461h106l-55 526z" />
<glyph unicode="&#xc7;" horiz-adv-x="847" d="M102 207v1061q0 90 63.5 152.5t151.5 62.5h224q90 0 152.5 -62.5t62.5 -152.5v-135q0 -12 -7 -19.5t-18 -7.5h-196q-12 0 -19.5 7.5t-7.5 19.5v59q0 23 -15.5 38t-37.5 15h-49q-24 0 -40 -15t-16 -38v-918q0 -22 16.5 -37.5t39.5 -15.5h57q23 0 38 15.5t15 37.5v160 q0 12 8 19.5t19 7.5h196q12 0 19.5 -7.5t7.5 -19.5v-227q0 -90 -63.5 -153.5t-151.5 -63.5h-66l-24 -47h24q22 0 37 -14.5t15 -34.5v-146q0 -22 -15 -36.5t-37 -14.5h-123q-22 0 -35.5 14.5t-13.5 36.5v25q0 11 7.5 18.5t17.5 7.5h43q10 0 17.5 -7.5t7.5 -18.5q0 -5 4 -9 t10 -4h8q6 0 10 4t4 9v92q0 14 -14 14h-8q-14 0 -14 -14v-10h-93v39l52 96h-48q-88 0 -151.5 63.5t-63.5 153.5z" />
<glyph unicode="&#xc8;" horiz-adv-x="817" d="M113 27v1421q0 27 26 27h559q11 0 19 -7.5t8 -19.5v-186q0 -12 -8 -19.5t-19 -7.5h-338v-340h265q11 0 18.5 -7.5t7.5 -17.5v-186q0 -11 -8 -19t-18 -8h-265v-419h351q11 0 17.5 -7.5t6.5 -19.5v-184q0 -12 -6.5 -19.5t-17.5 -7.5h-572q-26 0 -26 27zM227 1741 q-16 25 0 26h146q18 1 28 -26l70 -156q5 -13 3.5 -19t-5.5 -6l-4 -1h-109z" />
<glyph unicode="&#xc9;" horiz-adv-x="817" d="M113 27v1421q0 27 26 27h559q11 0 19 -7.5t8 -19.5v-186q0 -12 -8 -19.5t-19 -7.5h-338v-340h265q11 0 18.5 -7.5t7.5 -17.5v-186q0 -11 -8 -19t-18 -8h-265v-419h351q11 0 17.5 -7.5t6.5 -19.5v-184q0 -12 -6.5 -19.5t-17.5 -7.5h-572q-26 0 -26 27zM354.5 1572 q0.5 5 3.5 13l70 156q4 12 11.5 18.5t12.5 6.5l5 1h145l7 -3q4 -6 -7 -23l-129 -182h-108h-2t-3.5 1.5t-4 4t-1 7.5z" />
<glyph unicode="&#xca;" horiz-adv-x="817" d="M113 27v1421q0 27 26 27h559q11 0 19 -7.5t8 -19.5v-186q0 -12 -8 -19.5t-19 -7.5h-338v-340h265q11 0 18.5 -7.5t7.5 -17.5v-186q0 -11 -8 -19t-18 -8h-265v-419h351q11 0 17.5 -7.5t6.5 -19.5v-184q0 -12 -6.5 -19.5t-17.5 -7.5h-572q-26 0 -26 27zM229 1566.5 q-4 5.5 2 18.5l72 156q4 12 11.5 18.5t12.5 6.5l5 1h164q18 1 30 -26l70 -156q4 -13 2.5 -19t-6.5 -6l-4 -1h-111l-63 92l-66 -92h-108q-2 0 -4.5 1t-6.5 6.5z" />
<glyph unicode="&#xcb;" horiz-adv-x="825" d="M113 1665q0 57 41 96t98 39t97 -39t40 -96q0 -59 -40 -100t-97 -41t-98 41.5t-41 99.5zM121 27v1421q0 12 6.5 19.5t17.5 7.5h562q11 0 17.5 -7.5t6.5 -19.5v-186q0 -12 -6.5 -19.5t-17.5 -7.5h-338v-340h264q10 0 17 -7t7 -18v-186q0 -11 -7 -19t-17 -8h-264v-419h348 q11 0 18.5 -7.5t7.5 -19.5v-184q0 -12 -7.5 -19.5t-18.5 -7.5h-572q-11 0 -17.5 7.5t-6.5 19.5zM461 1665q0 57 41 96t98 39t97 -39t40 -96q0 -59 -40 -100t-97 -41t-98 41.5t-41 99.5z" />
<glyph unicode="&#xcc;" horiz-adv-x="473" d="M41 1741q-16 25 0 26h147q19 1 29 -26l70 -156q5 -13 3.5 -19t-5.5 -6l-4 -1h-111zM113 27v1421q0 12 6.5 19.5t17.5 7.5h199q11 0 17.5 -7.5t6.5 -19.5v-1421q0 -12 -6.5 -19.5t-17.5 -7.5h-199q-11 0 -17.5 7.5t-6.5 19.5z" />
<glyph unicode="&#xcd;" horiz-adv-x="473" d="M113 27v1421q0 27 26 27h197q11 0 17.5 -7.5t6.5 -19.5v-1421q0 -12 -6.5 -19.5t-17.5 -7.5h-197q-26 0 -26 27zM182 1566.5q-4 5.5 2 18.5l70 156q5 12 13 18.5t13 6.5l5 1h145l7 -3q4 -6 -7 -23l-129 -182h-108q-2 0 -4.5 1t-6.5 6.5z" />
<glyph unicode="&#xce;" horiz-adv-x="473" d="M52.5 1568q-0.5 3 0 7t2.5 10l70 156q5 12 13 18.5t13 6.5l5 1h163q19 1 29 -26l72 -156q4 -13 2.5 -19t-6.5 -6l-4 -1h-111l-65 92l-64 -92h-109h-1q-1 0 -2.5 0.5t-3 1.5t-2.5 2.5t-1.5 4.5zM113 27v1421q0 12 7.5 19.5t18.5 7.5h197q11 0 18.5 -7.5t7.5 -19.5v-1421 q0 -12 -7.5 -19.5t-18.5 -7.5h-197q-11 0 -18.5 7.5t-7.5 19.5z" />
<glyph unicode="&#xcf;" horiz-adv-x="473" d="M-61 1665q0 57 41 96t98 39t97 -39t40 -96q0 -59 -40 -100t-97 -41t-98 41.5t-41 99.5zM113 27v1421q0 12 7.5 19.5t18.5 7.5h197q26 0 26 -27v-1421q0 -27 -26 -27h-197q-11 0 -18.5 7.5t-7.5 19.5zM260 1665q0 57 40 96t99 39q57 0 97.5 -39t40.5 -96 q0 -58 -40.5 -99.5t-97.5 -41.5q-58 0 -98.5 41t-40.5 100z" />
<glyph unicode="&#xd0;" horiz-adv-x="878" d="M20 625v186q0 11 7.5 19t19.5 8h66v610q0 27 26 27h422q88 0 151.5 -63t63.5 -152v-1045q0 -89 -63.5 -152t-151.5 -63h-422q-26 0 -26 27v571h-66q-12 0 -19.5 8t-7.5 19zM360 238h113q23 0 38 15.5t15 37.5v893q0 22 -15 37.5t-38 15.5h-113v-399h50q10 0 17 -8t7 -19 v-186q0 -11 -7 -19t-17 -8h-50v-360z" />
<glyph unicode="&#xd1;" horiz-adv-x="903" d="M113 27v1421q0 27 26 27h195q2 0 5.5 -0.5t10.5 -7.5t10 -19l183 -627v627q0 12 6.5 19.5t17.5 7.5h199q11 0 18 -7.5t7 -19.5v-1421q0 -12 -7 -19.5t-18 -7.5h-186q-21 0 -29 27l-191 604v-604q0 -12 -6.5 -19.5t-17.5 -7.5h-197q-26 0 -26 27zM224 1562q-6 6 1 23 l70 156q4 12 11.5 18.5t12.5 6.5l5 1h118q20 0 35 -26l41 -60l62 86h108l8 -3q6 -6 -2 -23l-69 -156q-4 -12 -11.5 -18.5t-12.5 -6.5l-5 -1h-129l-66 92l-59 -92h-111z" />
<glyph unicode="&#xd2;" d="M102 207v1061q0 90 63.5 152.5t151.5 62.5h236q90 0 153.5 -62.5t63.5 -152.5v-1061q0 -90 -63.5 -153.5t-153.5 -63.5h-236q-88 0 -151.5 63.5t-63.5 153.5zM240 1741q-16 25 0 26h145q19 1 29 -26l69 -156q5 -13 3.5 -19t-5.5 -6l-4 -1h-108zM350 274q0 -22 16.5 -37.5 t39.5 -15.5h61q23 0 38 15.5t15 37.5v918q0 23 -15 38t-38 15h-61q-24 0 -40 -15t-16 -38v-918z" />
<glyph unicode="&#xd3;" d="M102 207v1061q0 90 63.5 152.5t151.5 62.5h236q90 0 153.5 -62.5t63.5 -152.5v-1061q0 -90 -63.5 -153.5t-153.5 -63.5h-236q-88 0 -151.5 63.5t-63.5 153.5zM350 274q0 -22 16.5 -37.5t39.5 -15.5h61q23 0 38 15.5t15 37.5v918q0 23 -15 38t-38 15h-61q-24 0 -40 -15 t-16 -38v-918zM384.5 1568q-0.5 3 0 7t2.5 10l72 156q4 12 11 18.5t12 6.5l5 1h146l7 -3q4 -6 -7 -23l-129 -182h-109h-1q-1 0 -2.5 0.5t-3 1.5t-2.5 2.5t-1.5 4.5z" />
<glyph unicode="&#xd4;" d="M102 207v1061q0 90 63.5 152.5t151.5 62.5h236q90 0 153.5 -62.5t63.5 -152.5v-1061q0 -90 -63.5 -153.5t-153.5 -63.5h-236q-88 0 -151.5 63.5t-63.5 153.5zM247.5 1568q-0.5 3 0 7t2.5 10l69 156q5 12 13 18.5t13 6.5l5 1h164q19 1 29 -26l69 -156q5 -13 3.5 -19 t-5.5 -6l-4 -1h-110l-66 92l-63 -92h-109h-1q-1 0 -2.5 0.5t-3 1.5t-2.5 2.5t-1.5 4.5zM350 274q0 -22 16.5 -37.5t39.5 -15.5h61q23 0 38 15.5t15 37.5v918q0 23 -15 38t-38 15h-61q-24 0 -40 -15t-16 -38v-918z" />
<glyph unicode="&#xd5;" d="M102 207v1061q0 90 63.5 152.5t151.5 62.5h236q90 0 153.5 -62.5t63.5 -152.5v-1061q0 -90 -63.5 -153.5t-153.5 -63.5h-236q-88 0 -151.5 63.5t-63.5 153.5zM208.5 1568q-0.5 3 0 7t2.5 10l70 156q5 12 12.5 18.5t12.5 6.5l5 1h117q20 0 35 -26l41 -60l61 86h109h1 q1 0 2.5 -0.5t3 -1.5t2.5 -2.5t1.5 -4.5t0 -7t-2.5 -10l-72 -156q-4 -12 -11 -18.5t-12 -6.5l-5 -1h-129l-66 92l-59 -92h-109h-1q-1 0 -2.5 0.5t-3 1.5t-2.5 2.5t-1.5 4.5zM350 274q0 -22 16.5 -37.5t39.5 -15.5h61q23 0 38 15.5t15 37.5v918q0 23 -15 38t-38 15h-61 q-24 0 -40 -15t-16 -38v-918z" />
<glyph unicode="&#xd6;" d="M102 207v1061q0 90 63.5 152.5t151.5 62.5h236q90 0 153.5 -62.5t63.5 -152.5v-1061q0 -90 -63.5 -153.5t-153.5 -63.5h-236q-88 0 -151.5 63.5t-63.5 153.5zM123 1665q0 57 40 96t99 39q57 0 97 -39t40 -96q0 -59 -40 -100t-97 -41q-58 0 -98.5 41t-40.5 100zM350 274 q0 -22 16.5 -37.5t39.5 -15.5h61q23 0 38 15.5t15 37.5v918q0 23 -15 38t-38 15h-61q-24 0 -40 -15t-16 -38v-918zM471 1665q0 57 41 96t98 39t97.5 -39t40.5 -96q0 -58 -40.5 -99.5t-97.5 -41.5t-98 41.5t-41 99.5z" />
<glyph unicode="&#xd7;" horiz-adv-x="796" d="M75 1080q1 6 6 6l5 1h236q18 1 32 -26l43 -80l47 80q5 12 13 18.5t13 6.5l5 1h236h1q1 0 3 -0.5t3.5 -1.5t3 -2.5t1.5 -4.5t-1.5 -7t-4.5 -10l-185 -330l187 -336q6 -13 4.5 -19t-5.5 -6l-5 -1h-230q-14 -1 -32 26l-54 90l-51 -90q-7 -12 -15 -18.5t-12 -6.5l-4 -1h-231 l-8 3q-6 6 4 23l184 336l-182 330q-8 13 -7 19z" />
<glyph unicode="&#xd8;" horiz-adv-x="864" d="M102 207v1061q0 90 63.5 152.5t151.5 62.5h164l17 57q3 12 10.5 19t13.5 7l6 1h222q1 0 2.5 -1t4.5 -7t-1 -19l-37 -143q43 -59 43 -129v-1061q0 -90 -63.5 -153.5t-151.5 -63.5h-172l-13 -56q-4 -12 -11.5 -18.5t-12.5 -7.5h-6h-217l-5 3q-4 6 1 23l34 144 q-43 55 -43 129zM350 936l74 309h-18q-24 0 -40 -15t-16 -38v-256zM432 221h29q22 0 37.5 15.5t15.5 37.5v279z" />
<glyph unicode="&#xd9;" horiz-adv-x="888" d="M113 207v1241q0 27 26 27h197q11 0 17.5 -7.5t6.5 -19.5v-1174q0 -22 16.5 -37.5t39.5 -15.5h57q23 0 38 15.5t15 37.5v1174q0 12 8 19.5t19 7.5h197q26 0 26 -27v-1241q0 -90 -63.5 -153.5t-151.5 -63.5h-233q-88 0 -151.5 63.5t-63.5 153.5zM250 1741q-16 25 0 26h145 q19 1 29 -26l70 -156q5 -13 3.5 -19t-5.5 -6l-5 -1h-108z" />
<glyph unicode="&#xda;" horiz-adv-x="888" d="M113 207v1241q0 27 26 27h197q11 0 17.5 -7.5t6.5 -19.5v-1174q0 -22 16.5 -37.5t39.5 -15.5h57q23 0 38 15.5t15 37.5v1174q0 12 8 19.5t19 7.5h197q26 0 26 -27v-1241q0 -90 -63.5 -153.5t-151.5 -63.5h-233q-88 0 -151.5 63.5t-63.5 153.5zM390 1562q-6 6 1 23l70 156 q4 12 11 18.5t12 6.5l5 1h148l7 -3q4 -6 -7 -23l-129 -182h-111z" />
<glyph unicode="&#xdb;" horiz-adv-x="888" d="M113 207v1241q0 27 26 27h197q11 0 17.5 -7.5t6.5 -19.5v-1174q0 -22 16.5 -37.5t39.5 -15.5h57q23 0 38 15.5t15 37.5v1174q0 12 8 19.5t19 7.5h197q26 0 26 -27v-1241q0 -90 -63.5 -153.5t-151.5 -63.5h-233q-88 0 -151.5 63.5t-63.5 153.5zM260 1562q-6 6 2 23l70 156 q4 12 11 18.5t12 6.5l5 1h166q19 1 29 -26l70 -156q5 -13 3.5 -19t-6.5 -6l-4 -1h-110l-66 92l-63 -92h-111z" />
<glyph unicode="&#xdc;" horiz-adv-x="888" d="M113 207v1241q0 27 26 27h197q11 0 17.5 -7.5t6.5 -19.5v-1174q0 -22 16.5 -37.5t39.5 -15.5h57q23 0 38 15.5t15 37.5v1174q0 12 8 19.5t19 7.5h197q26 0 26 -27v-1241q0 -90 -63.5 -153.5t-151.5 -63.5h-233q-88 0 -151.5 63.5t-63.5 153.5zM131 1665q0 57 41 96t98 39 t97.5 -39t40.5 -96q0 -58 -40.5 -99.5t-97.5 -41.5t-98 41.5t-41 99.5zM479 1665q0 57 41 96t98 39t97.5 -39t40.5 -96q0 -58 -40.5 -99.5t-97.5 -41.5t-98 41.5t-41 99.5z" />
<glyph unicode="&#xdd;" horiz-adv-x="813" d="M54.5 1467q2.5 6 7.5 7l4 1h213q2 0 5 -0.5t9 -7.5t8 -19l107 -576l104 576q3 12 9 19t11 7l5 1h211q2 0 5 -0.5t6.5 -7.5t0.5 -19l-230 -987v-434q0 -27 -26 -27h-195q-11 0 -18.5 7.5t-7.5 19.5v434l-228 987q-3 13 -0.5 19zM354 1566.5q-4 5.5 2 18.5l72 156 q4 12 11.5 18.5t12.5 6.5l5 1h145l7 -3q4 -6 -7 -23l-129 -182h-108q-2 0 -4.5 1t-6.5 6.5z" />
<glyph unicode="&#xde;" horiz-adv-x="878" d="M113 27v1421q0 27 26 27h197q11 0 17.5 -7.5t6.5 -19.5v-268h201q88 0 151.5 -63t63.5 -152v-453q0 -89 -63.5 -152t-151.5 -63h-201v-270q0 -12 -6.5 -19.5t-17.5 -7.5h-197q-26 0 -26 27zM360 526h113q23 0 38 16t15 38v309q0 22 -15 37.5t-38 15.5h-113v-416z" />
<glyph unicode="&#xdf;" horiz-adv-x="864" d="M113 27v1233q0 89 63.5 152t151.5 63h383q11 0 17.5 -7.5t6.5 -19.5v-211l-127 -424q71 -17 117.5 -75t46.5 -134v-397q0 -90 -63.5 -153.5t-151.5 -63.5h-61q-10 0 -17.5 7.5t-7.5 18.5v168q22 0 37.5 16t15.5 38v290q0 23 -15.5 38.5t-37.5 15.5h-61q-11 0 -19 8t-8 18 v193l125 436h-92q-23 0 -39.5 -15.5t-16.5 -37.5v-1157q0 -12 -6.5 -19.5t-17.5 -7.5h-197q-26 0 -26 27z" />
<glyph unicode="&#xe0;" horiz-adv-x="862" d="M74 27l245 1421q1 12 7.5 19t13.5 7l6 1h170q3 0 7 -0.5t11.5 -7.5t8.5 -19l245 -1421q2 -12 -1.5 -18.5t-8.5 -7.5l-4 -1h-213q-2 0 -5 0.5t-8.5 7.5t-6.5 19l-27 178h-166l-26 -178q-1 -12 -6 -18.5t-10 -7.5l-5 -1h-213q-2 0 -5 0.5t-7 7.5t-2 19zM233 1741 q-16 25 0 26h146q19 1 31 -26l69 -156q4 -13 2.5 -19t-5.5 -6l-5 -1h-109zM379 442h106l-55 545z" />
<glyph unicode="&#xe1;" horiz-adv-x="862" d="M74 27l245 1421q1 12 7.5 19t13.5 7l6 1h170q3 0 7 -0.5t11.5 -7.5t8.5 -19l245 -1421q2 -12 -1.5 -18.5t-8.5 -7.5l-4 -1h-213q-2 0 -5 0.5t-8.5 7.5t-6.5 19l-27 178h-166l-26 -178q-1 -12 -6 -18.5t-10 -7.5l-5 -1h-213q-2 0 -5 0.5t-7 7.5t-2 19zM376.5 1568 q-0.5 3 0 7t2.5 10l70 156q5 12 12.5 18.5t12.5 6.5l5 1h146l7 -3q4 -6 -7 -23l-129 -182h-109h-1q-1 0 -2.5 0.5t-3 1.5t-2.5 2.5t-1.5 4.5zM379 442h106l-55 545z" />
<glyph unicode="&#xe2;" horiz-adv-x="862" d="M74 27l245 1421q1 12 7.5 19t13.5 7l6 1h170q3 0 7 -0.5t11.5 -7.5t8.5 -19l245 -1421q2 -12 -1.5 -18.5t-8.5 -7.5l-4 -1h-213q-2 0 -5 0.5t-8.5 7.5t-6.5 19l-27 178h-166l-26 -178q-1 -12 -6 -18.5t-10 -7.5l-5 -1h-213q-2 0 -5 0.5t-7 7.5t-2 19zM247.5 1568 q-0.5 3 0 7t2.5 10l69 156q5 12 13 18.5t13 6.5l5 1h164q19 1 29 -26l71 -156q4 -13 2.5 -19t-6.5 -6l-4 -1h-110l-66 92l-63 -92h-109h-1q-1 0 -2.5 0.5t-3 1.5t-2.5 2.5t-1.5 4.5zM379 442h106l-55 545z" />
<glyph unicode="&#xe3;" horiz-adv-x="862" d="M74 27l245 1421q1 12 7.5 19t13.5 7l6 1h170q3 0 7 -0.5t11.5 -7.5t8.5 -19l245 -1421q2 -12 -1.5 -18.5t-8.5 -7.5l-4 -1h-213q-2 0 -5 0.5t-8.5 7.5t-6.5 19l-27 178h-166l-26 -178q-1 -12 -6 -18.5t-10 -7.5l-5 -1h-213q-2 0 -5 0.5t-7 7.5t-2 19zM206 1562q-6 6 1 23 l69 156q4 12 11.5 18.5t12.5 6.5l5 1h119q20 0 35 -26l41 -60l59 86h111l8 -3q6 -6 -2 -23l-70 -156q-4 -12 -11 -18.5t-12 -6.5l-5 -1h-129l-66 92l-61 -92h-109zM379 442h106l-55 545z" />
<glyph unicode="&#xe4;" horiz-adv-x="862" d="M74 27l245 1421q1 12 7.5 19t13.5 7l6 1h170q3 0 7 -0.5t11.5 -7.5t8.5 -19l245 -1421q2 -12 -1.5 -18.5t-8.5 -7.5l-4 -1h-213q-2 0 -5 0.5t-8.5 7.5t-6.5 19l-27 178h-166l-26 -178q-1 -12 -6 -18.5t-10 -7.5l-5 -1h-213q-2 0 -5 0.5t-7 7.5t-2 19zM119 1665 q0 57 41 96t100 39q57 0 96 -39t39 -96q0 -59 -39 -100t-96 -41q-58 0 -99.5 41t-41.5 100zM379 442h106l-55 545zM467 1665q0 57 41 96t100 39q57 0 96 -39t39 -96q0 -59 -39 -100t-96 -41q-58 0 -99.5 41t-41.5 100z" />
<glyph unicode="&#xe5;" horiz-adv-x="862" d="M74 27l235 1376q-65 52 -65 143q0 77 54 132t132 55q76 0 130 -55t54 -132q0 -88 -63 -141l237 -1378q2 -12 -1.5 -18.5t-8.5 -7.5l-4 -1h-213q-2 0 -5 0.5t-8.5 7.5t-6.5 19l-27 178h-166l-26 -178q-1 -12 -6 -18.5t-10 -7.5l-5 -1h-213q-2 0 -5 0.5t-7 7.5t-2 19z M379 442h106l-55 545zM387 1546q0 -20 13 -31.5t30 -11.5q15 0 28 11.5t13 31.5t-13 31.5t-28 11.5q-17 0 -30 -11.5t-13 -31.5z" />
<glyph unicode="&#xe6;" horiz-adv-x="1118" d="M74 27l245 1421q1 12 7.5 19t13.5 7l6 1h653q11 0 18 -7.5t7 -19.5v-186q0 -12 -7 -19.5t-18 -7.5h-419l57 -340h289q10 0 17 -7t7 -18v-186q0 -11 -7 -19t-17 -8h-246l72 -419h258q11 0 18.5 -7.5t7.5 -19.5v-184q0 -12 -7.5 -19.5t-18.5 -7.5h-449q-2 0 -5 0.5 t-8.5 7.5t-6.5 19l-27 196h-166l-26 -196q-1 -12 -6 -18.5t-10 -7.5l-5 -1h-213q-2 0 -5 0.5t-7 7.5t-2 19zM379 461h106l-55 526z" />
<glyph unicode="&#xe7;" horiz-adv-x="847" d="M102 207v1061q0 90 63.5 152.5t151.5 62.5h224q90 0 152.5 -62.5t62.5 -152.5v-135q0 -12 -7 -19.5t-18 -7.5h-196q-12 0 -19.5 7.5t-7.5 19.5v59q0 23 -15.5 38t-37.5 15h-49q-24 0 -40 -15t-16 -38v-918q0 -22 16.5 -37.5t39.5 -15.5h57q23 0 38 15.5t15 37.5v160 q0 12 8 19.5t19 7.5h196q12 0 19.5 -7.5t7.5 -19.5v-227q0 -90 -63.5 -153.5t-151.5 -63.5h-66l-24 -47h24q22 0 37 -14.5t15 -34.5v-146q0 -22 -15 -36.5t-37 -14.5h-123q-22 0 -35.5 14.5t-13.5 36.5v25q0 11 7.5 18.5t17.5 7.5h43q10 0 17.5 -7.5t7.5 -18.5q0 -5 4 -9 t10 -4h8q6 0 10 4t4 9v92q0 14 -14 14h-8q-14 0 -14 -14v-10h-93v39l52 96h-48q-88 0 -151.5 63.5t-63.5 153.5z" />
<glyph unicode="&#xe8;" horiz-adv-x="817" d="M113 27v1421q0 27 26 27h559q11 0 19 -7.5t8 -19.5v-186q0 -12 -8 -19.5t-19 -7.5h-338v-340h265q11 0 18.5 -7.5t7.5 -17.5v-186q0 -11 -8 -19t-18 -8h-265v-419h351q11 0 17.5 -7.5t6.5 -19.5v-184q0 -12 -6.5 -19.5t-17.5 -7.5h-572q-26 0 -26 27zM227 1741 q-16 25 0 26h146q18 1 28 -26l70 -156q5 -13 3.5 -19t-5.5 -6l-4 -1h-109z" />
<glyph unicode="&#xe9;" horiz-adv-x="817" d="M113 27v1421q0 27 26 27h559q11 0 19 -7.5t8 -19.5v-186q0 -12 -8 -19.5t-19 -7.5h-338v-340h265q11 0 18.5 -7.5t7.5 -17.5v-186q0 -11 -8 -19t-18 -8h-265v-419h351q11 0 17.5 -7.5t6.5 -19.5v-184q0 -12 -6.5 -19.5t-17.5 -7.5h-572q-26 0 -26 27zM356.5 1572 q0.5 5 3.5 13l70 156q4 12 11.5 18.5t12.5 6.5l5 1h145l7 -3q4 -6 -7 -23l-129 -182h-108h-2t-3.5 1.5t-4 4t-1 7.5z" />
<glyph unicode="&#xea;" horiz-adv-x="817" d="M113 27v1421q0 27 26 27h559q11 0 19 -7.5t8 -19.5v-186q0 -12 -8 -19.5t-19 -7.5h-338v-340h265q11 0 18.5 -7.5t7.5 -17.5v-186q0 -11 -8 -19t-18 -8h-265v-419h351q11 0 17.5 -7.5t6.5 -19.5v-184q0 -12 -6.5 -19.5t-17.5 -7.5h-572q-26 0 -26 27zM229 1566.5 q-4 5.5 2 18.5l72 156q4 12 11.5 18.5t12.5 6.5l5 1h164q18 1 30 -26l70 -156q4 -13 2.5 -19t-6.5 -6l-4 -1h-111l-63 92l-66 -92h-108q-2 0 -4.5 1t-6.5 6.5z" />
<glyph unicode="&#xeb;" horiz-adv-x="825" d="M113 1665q0 57 41 96t98 39t97 -39t40 -96q0 -59 -40 -100t-97 -41t-98 41.5t-41 99.5zM121 27v1421q0 12 6.5 19.5t17.5 7.5h562q11 0 17.5 -7.5t6.5 -19.5v-186q0 -12 -6.5 -19.5t-17.5 -7.5h-338v-340h264q10 0 17 -7t7 -18v-186q0 -11 -7 -19t-17 -8h-264v-419h348 q11 0 18.5 -7.5t7.5 -19.5v-184q0 -12 -7.5 -19.5t-18.5 -7.5h-572q-11 0 -17.5 7.5t-6.5 19.5zM461 1665q0 57 41 96t98 39t97 -39t40 -96q0 -59 -40 -100t-97 -41t-98 41.5t-41 99.5z" />
<glyph unicode="&#xec;" horiz-adv-x="473" d="M41 1741q-16 25 0 26h147q19 1 29 -26l70 -156q5 -13 3.5 -19t-5.5 -6l-4 -1h-111zM113 27v1421q0 12 6.5 19.5t17.5 7.5h199q11 0 17.5 -7.5t6.5 -19.5v-1421q0 -12 -6.5 -19.5t-17.5 -7.5h-199q-11 0 -17.5 7.5t-6.5 19.5z" />
<glyph unicode="&#xed;" horiz-adv-x="473" d="M113 27v1421q0 27 26 27h197q11 0 17.5 -7.5t6.5 -19.5v-1421q0 -12 -6.5 -19.5t-17.5 -7.5h-197q-26 0 -26 27zM182 1566.5q-4 5.5 2 18.5l70 156q5 12 13 18.5t13 6.5l5 1h145l7 -3q4 -6 -7 -23l-129 -182h-108q-2 0 -4.5 1t-6.5 6.5z" />
<glyph unicode="&#xee;" horiz-adv-x="473" d="M52.5 1568q-0.5 3 0 7t2.5 10l70 156q5 12 13 18.5t13 6.5l5 1h163q19 1 29 -26l72 -156q4 -13 2.5 -19t-6.5 -6l-4 -1h-111l-65 92l-64 -92h-109h-1q-1 0 -2.5 0.5t-3 1.5t-2.5 2.5t-1.5 4.5zM113 27v1421q0 12 7.5 19.5t18.5 7.5h197q11 0 18.5 -7.5t7.5 -19.5v-1421 q0 -12 -7.5 -19.5t-18.5 -7.5h-197q-11 0 -18.5 7.5t-7.5 19.5z" />
<glyph unicode="&#xef;" horiz-adv-x="473" d="M-61 1665q0 57 41 96t98 39t97 -39t40 -96q0 -59 -40 -100t-97 -41t-98 41.5t-41 99.5zM113 27v1421q0 12 7.5 19.5t18.5 7.5h197q26 0 26 -27v-1421q0 -27 -26 -27h-197q-11 0 -18.5 7.5t-7.5 19.5zM260 1665q0 57 40 96t99 39q57 0 97.5 -39t40.5 -96 q0 -58 -40.5 -99.5t-97.5 -41.5q-58 0 -98.5 41t-40.5 100z" />
<glyph unicode="&#xf0;" horiz-adv-x="878" d="M20 625v186q0 11 7.5 19t19.5 8h66v610q0 27 26 27h422q88 0 151.5 -63t63.5 -152v-1045q0 -89 -63.5 -152t-151.5 -63h-422q-26 0 -26 27v571h-66q-12 0 -19.5 8t-7.5 19zM360 238h113q23 0 38 15.5t15 37.5v893q0 22 -15 37.5t-38 15.5h-113v-399h50q10 0 17 -8t7 -19 v-186q0 -11 -7 -19t-17 -8h-50v-360z" />
<glyph unicode="&#xf1;" horiz-adv-x="903" d="M113 27v1421q0 27 26 27h195q2 0 5.5 -0.5t10.5 -7.5t10 -19l183 -627v627q0 12 6.5 19.5t17.5 7.5h199q11 0 18 -7.5t7 -19.5v-1421q0 -12 -7 -19.5t-18 -7.5h-186q-21 0 -29 27l-191 604v-604q0 -12 -6.5 -19.5t-17.5 -7.5h-197q-26 0 -26 27zM224 1562q-6 6 1 23 l70 156q4 12 11.5 18.5t12.5 6.5l5 1h118q20 0 35 -26l41 -60l62 86h108l8 -3q6 -6 -2 -23l-69 -156q-4 -12 -11.5 -18.5t-12.5 -6.5l-5 -1h-129l-66 92l-59 -92h-111z" />
<glyph unicode="&#xf2;" d="M102 207v1061q0 90 63.5 152.5t151.5 62.5h236q90 0 153.5 -62.5t63.5 -152.5v-1061q0 -90 -63.5 -153.5t-153.5 -63.5h-236q-88 0 -151.5 63.5t-63.5 153.5zM240 1741q-16 25 0 26h145q19 1 29 -26l69 -156q5 -13 3.5 -19t-5.5 -6l-4 -1h-108zM350 274q0 -22 16.5 -37.5 t39.5 -15.5h61q23 0 38 15.5t15 37.5v918q0 23 -15 38t-38 15h-61q-24 0 -40 -15t-16 -38v-918z" />
<glyph unicode="&#xf3;" d="M102 207v1061q0 90 63.5 152.5t151.5 62.5h236q90 0 153.5 -62.5t63.5 -152.5v-1061q0 -90 -63.5 -153.5t-153.5 -63.5h-236q-88 0 -151.5 63.5t-63.5 153.5zM350 274q0 -22 16.5 -37.5t39.5 -15.5h61q23 0 38 15.5t15 37.5v918q0 23 -15 38t-38 15h-61q-24 0 -40 -15 t-16 -38v-918zM384.5 1568q-0.5 3 0 7t2.5 10l72 156q4 12 11 18.5t12 6.5l5 1h146l7 -3q4 -6 -7 -23l-129 -182h-109h-1q-1 0 -2.5 0.5t-3 1.5t-2.5 2.5t-1.5 4.5z" />
<glyph unicode="&#xf4;" d="M102 207v1061q0 90 63.5 152.5t151.5 62.5h236q90 0 153.5 -62.5t63.5 -152.5v-1061q0 -90 -63.5 -153.5t-153.5 -63.5h-236q-88 0 -151.5 63.5t-63.5 153.5zM247.5 1568q-0.5 3 0 7t2.5 10l69 156q5 12 13 18.5t13 6.5l5 1h164q19 1 29 -26l69 -156q5 -13 3.5 -19 t-5.5 -6l-4 -1h-110l-66 92l-63 -92h-109h-1q-1 0 -2.5 0.5t-3 1.5t-2.5 2.5t-1.5 4.5zM350 274q0 -22 16.5 -37.5t39.5 -15.5h61q23 0 38 15.5t15 37.5v918q0 23 -15 38t-38 15h-61q-24 0 -40 -15t-16 -38v-918z" />
<glyph unicode="&#xf5;" d="M102 207v1061q0 90 63.5 152.5t151.5 62.5h236q90 0 153.5 -62.5t63.5 -152.5v-1061q0 -90 -63.5 -153.5t-153.5 -63.5h-236q-88 0 -151.5 63.5t-63.5 153.5zM208.5 1568q-0.5 3 0 7t2.5 10l70 156q5 12 12.5 18.5t12.5 6.5l5 1h117q20 0 35 -26l41 -60l61 86h109h1 q1 0 2.5 -0.5t3 -1.5t2.5 -2.5t1.5 -4.5t0 -7t-2.5 -10l-72 -156q-4 -12 -11 -18.5t-12 -6.5l-5 -1h-129l-66 92l-59 -92h-109h-1q-1 0 -2.5 0.5t-3 1.5t-2.5 2.5t-1.5 4.5zM350 274q0 -22 16.5 -37.5t39.5 -15.5h61q23 0 38 15.5t15 37.5v918q0 23 -15 38t-38 15h-61 q-24 0 -40 -15t-16 -38v-918z" />
<glyph unicode="&#xf6;" d="M102 207v1061q0 90 63.5 152.5t151.5 62.5h236q90 0 153.5 -62.5t63.5 -152.5v-1061q0 -90 -63.5 -153.5t-153.5 -63.5h-236q-88 0 -151.5 63.5t-63.5 153.5zM123 1665q0 57 40 96t99 39q57 0 97 -39t40 -96q0 -59 -40 -100t-97 -41q-58 0 -98.5 41t-40.5 100zM350 274 q0 -22 16.5 -37.5t39.5 -15.5h61q23 0 38 15.5t15 37.5v918q0 23 -15 38t-38 15h-61q-24 0 -40 -15t-16 -38v-918zM471 1665q0 57 41 96t98 39t97.5 -39t40.5 -96q0 -58 -40.5 -99.5t-97.5 -41.5t-98 41.5t-41 99.5z" />
<glyph unicode="&#xf7;" horiz-adv-x="950" d="M92 625v186q0 11 7.5 19t19.5 8h715q10 0 17 -8t7 -19v-186q0 -11 -7 -19t-17 -8h-715q-12 0 -19.5 8t-7.5 19zM324 397q0 61 44.5 104.5t106.5 43.5q61 0 104.5 -43.5t43.5 -104.5q0 -62 -43.5 -105.5t-104.5 -43.5q-62 0 -106.5 44t-44.5 105zM324 1042 q0 61 44.5 104.5t106.5 43.5q61 0 104.5 -43t43.5 -105t-43.5 -105.5t-104.5 -43.5q-62 0 -106.5 44t-44.5 105z" />
<glyph unicode="&#xf8;" horiz-adv-x="864" d="M102 207v1061q0 90 63.5 152.5t151.5 62.5h164l17 57q3 12 10.5 19t13.5 7l6 1h222q1 0 2.5 -1t4.5 -7t-1 -19l-37 -143q43 -59 43 -129v-1061q0 -90 -63.5 -153.5t-151.5 -63.5h-172l-13 -56q-4 -12 -11.5 -18.5t-12.5 -7.5h-6h-217l-5 3q-4 6 1 23l34 144 q-43 55 -43 129zM350 936l74 309h-18q-24 0 -40 -15t-16 -38v-256zM432 221h29q22 0 37.5 15.5t15.5 37.5v279z" />
<glyph unicode="&#xf9;" horiz-adv-x="888" d="M113 207v1241q0 27 26 27h197q11 0 17.5 -7.5t6.5 -19.5v-1174q0 -22 16.5 -37.5t39.5 -15.5h57q23 0 38 15.5t15 37.5v1174q0 12 8 19.5t19 7.5h197q26 0 26 -27v-1241q0 -90 -63.5 -153.5t-151.5 -63.5h-233q-88 0 -151.5 63.5t-63.5 153.5zM250 1741q-16 25 0 26h145 q19 1 29 -26l70 -156q5 -13 3.5 -19t-5.5 -6l-5 -1h-108z" />
<glyph unicode="&#xfa;" horiz-adv-x="892" d="M113 207v1241q0 27 26 27h197q11 0 17.5 -7.5t6.5 -19.5v-1174q0 -22 16.5 -37.5t39.5 -15.5h61q23 0 38 15.5t15 37.5v1174q0 12 8 19.5t19 7.5h197q11 0 18.5 -7.5t7.5 -19.5v-1241q0 -90 -63.5 -153.5t-153.5 -63.5h-235q-88 0 -151.5 63.5t-63.5 153.5zM392 1562 q-6 6 1 23l70 156q4 12 11.5 18.5t12.5 6.5l5 1h145l7 -3q4 -6 -7 -23l-129 -182h-109z" />
<glyph unicode="&#xfb;" horiz-adv-x="888" d="M113 207v1241q0 27 26 27h197q11 0 17.5 -7.5t6.5 -19.5v-1174q0 -22 16.5 -37.5t39.5 -15.5h57q23 0 38 15.5t15 37.5v1174q0 12 8 19.5t19 7.5h197q26 0 26 -27v-1241q0 -90 -63.5 -153.5t-151.5 -63.5h-233q-88 0 -151.5 63.5t-63.5 153.5zM260 1562q-6 6 2 23l70 156 q4 12 11 18.5t12 6.5l5 1h166q19 1 29 -26l70 -156q5 -13 3.5 -19t-6.5 -6l-4 -1h-110l-66 92l-63 -92h-111z" />
<glyph unicode="&#xfc;" horiz-adv-x="888" d="M113 207v1241q0 27 26 27h197q11 0 17.5 -7.5t6.5 -19.5v-1174q0 -22 16.5 -37.5t39.5 -15.5h57q23 0 38 15.5t15 37.5v1174q0 12 8 19.5t19 7.5h197q26 0 26 -27v-1241q0 -90 -63.5 -153.5t-151.5 -63.5h-233q-88 0 -151.5 63.5t-63.5 153.5zM131 1665q0 57 41 96t98 39 t97.5 -39t40.5 -96q0 -58 -40.5 -99.5t-97.5 -41.5t-98 41.5t-41 99.5zM479 1665q0 57 41 96t98 39t97.5 -39t40.5 -96q0 -58 -40.5 -99.5t-97.5 -41.5t-98 41.5t-41 99.5z" />
<glyph unicode="&#xfd;" horiz-adv-x="813" d="M54.5 1467q2.5 6 7.5 7l4 1h213q2 0 5 -0.5t9 -7.5t8 -19l107 -576l104 576q3 12 9 19t11 7l5 1h211q2 0 5 -0.5t6.5 -7.5t0.5 -19l-230 -987v-434q0 -27 -26 -27h-195q-11 0 -18.5 7.5t-7.5 19.5v434l-228 987q-3 13 -0.5 19zM354 1566.5q-4 5.5 2 18.5l72 156 q4 12 11.5 18.5t12.5 6.5l5 1h145l7 -3q4 -6 -7 -23l-129 -182h-108q-2 0 -4.5 1t-6.5 6.5z" />
<glyph unicode="&#xfe;" horiz-adv-x="878" d="M113 27v1421q0 27 26 27h197q11 0 17.5 -7.5t6.5 -19.5v-268h201q88 0 151.5 -63t63.5 -152v-453q0 -89 -63.5 -152t-151.5 -63h-201v-270q0 -12 -6.5 -19.5t-17.5 -7.5h-197q-26 0 -26 27zM360 526h113q23 0 38 16t15 38v309q0 22 -15 37.5t-38 15.5h-113v-416z" />
<glyph unicode="&#xff;" horiz-adv-x="813" d="M54.5 1467q2.5 6 7.5 7l4 1h213q2 0 5 -0.5t9 -7.5t8 -19l107 -576l104 576q3 12 9 19t11 7l5 1h211q2 0 5 -0.5t6.5 -7.5t0.5 -19l-230 -987v-434q0 -27 -26 -27h-195q-11 0 -18.5 7.5t-7.5 19.5v434l-228 987q-3 13 -0.5 19zM96 1665q0 57 40.5 96t99.5 39q57 0 97 -39 t40 -96q0 -59 -40 -100t-97 -41q-58 0 -99 41t-41 100zM444 1665q0 57 40.5 96t99.5 39q57 0 97 -39t40 -96q0 -59 -40 -100t-97 -41q-58 0 -99 41t-41 100z" />
<glyph unicode="&#x152;" horiz-adv-x="1255" d="M102 215v1045q0 89 63.5 152t151.5 63h820q11 0 17.5 -7.5t6.5 -19.5v-186q0 -12 -6.5 -19.5t-17.5 -7.5h-357v-340h283q10 0 17 -7t7 -18v-186q0 -11 -7 -19t-17 -8h-283v-419h367q11 0 19 -7.5t8 -19.5v-184q0 -12 -8 -19.5t-19 -7.5h-830q-88 0 -151.5 63t-63.5 152z M350 283q0 -23 16.5 -38.5t39.5 -15.5h73q22 0 37.5 15.5t15.5 38.5v903q0 22 -15.5 37.5t-37.5 15.5h-73q-23 0 -39.5 -15.5t-16.5 -37.5v-903z" />
<glyph unicode="&#x153;" horiz-adv-x="1255" d="M102 215v1045q0 89 63.5 152t151.5 63h820q11 0 17.5 -7.5t6.5 -19.5v-186q0 -12 -6.5 -19.5t-17.5 -7.5h-357v-340h283q10 0 17 -7t7 -18v-186q0 -11 -7 -19t-17 -8h-283v-419h367q11 0 19 -7.5t8 -19.5v-184q0 -12 -8 -19.5t-19 -7.5h-830q-88 0 -151.5 63t-63.5 152z M350 283q0 -23 16.5 -38.5t39.5 -15.5h73q22 0 37.5 15.5t15.5 38.5v903q0 22 -15.5 37.5t-37.5 15.5h-73q-23 0 -39.5 -15.5t-16.5 -37.5v-903z" />
<glyph unicode="&#x178;" horiz-adv-x="813" d="M54.5 1467q2.5 6 7.5 7l4 1h213q2 0 5 -0.5t9 -7.5t8 -19l107 -576l104 576q3 12 9 19t11 7l5 1h211q2 0 5 -0.5t6.5 -7.5t0.5 -19l-230 -987v-434q0 -27 -26 -27h-195q-11 0 -18.5 7.5t-7.5 19.5v434l-228 987q-3 13 -0.5 19zM96 1665q0 57 40.5 96t99.5 39q57 0 97 -39 t40 -96q0 -59 -40 -100t-97 -41q-58 0 -99 41t-41 100zM444 1665q0 57 40.5 96t99.5 39q57 0 97 -39t40 -96q0 -59 -40 -100t-97 -41q-58 0 -99 41t-41 100z" />
<glyph unicode="&#x2c6;" horiz-adv-x="526" d="M86 1562q-5 6 2 23l70 156q4 12 11 18.5t12 6.5l5 1h164q19 1 31 -26l70 -156q4 -13 2 -19t-7 -6l-4 -1h-110l-64 92l-65 -92h-109z" />
<glyph unicode="&#x2dc;" horiz-adv-x="645" d="M86 1562q-5 6 2 23l70 156q4 12 11 18.5t12 6.5l5 1h119q20 0 35 -26l41 -60l61 86h109l7 -3q7 -6 -1 -23l-70 -156q-4 -12 -11 -18.5t-12 -6.5l-5 -1h-129l-66 92l-61 -92h-109z" />
<glyph unicode="&#x2000;" horiz-adv-x="900" />
<glyph unicode="&#x2001;" horiz-adv-x="1800" />
<glyph unicode="&#x2002;" horiz-adv-x="900" />
<glyph unicode="&#x2003;" horiz-adv-x="1800" />
<glyph unicode="&#x2004;" horiz-adv-x="600" />
<glyph unicode="&#x2005;" horiz-adv-x="450" />
<glyph unicode="&#x2006;" horiz-adv-x="300" />
<glyph unicode="&#x2007;" horiz-adv-x="300" />
<glyph unicode="&#x2008;" horiz-adv-x="225" />
<glyph unicode="&#x2009;" horiz-adv-x="360" />
<glyph unicode="&#x200a;" horiz-adv-x="100" />
<glyph unicode="&#x2010;" horiz-adv-x="806" d="M92 625v186q0 11 7.5 19t19.5 8h571q10 0 17.5 -8t7.5 -19v-186q0 -11 -7.5 -19t-17.5 -8h-571q-12 0 -19.5 8t-7.5 19z" />
<glyph unicode="&#x2011;" horiz-adv-x="806" d="M92 625v186q0 11 7.5 19t19.5 8h571q10 0 17.5 -8t7.5 -19v-186q0 -11 -7.5 -19t-17.5 -8h-571q-12 0 -19.5 8t-7.5 19z" />
<glyph unicode="&#x2012;" horiz-adv-x="806" d="M92 625v186q0 11 7.5 19t19.5 8h571q10 0 17.5 -8t7.5 -19v-186q0 -11 -7.5 -19t-17.5 -8h-571q-12 0 -19.5 8t-7.5 19z" />
<glyph unicode="&#x2013;" horiz-adv-x="899" d="M92 625v186q0 11 7.5 19t19.5 8h663q10 0 17.5 -8t7.5 -19v-186q0 -11 -7.5 -19t-17.5 -8h-663q-12 0 -19.5 8t-7.5 19z" />
<glyph unicode="&#x2014;" horiz-adv-x="991" d="M92 625v186q0 11 7.5 19t19.5 8h755q10 0 17.5 -8t7.5 -19v-186q0 -11 -7.5 -19t-17.5 -8h-755q-12 0 -19.5 8t-7.5 19z" />
<glyph unicode="&#x2018;" horiz-adv-x="321" d="M41 1198v180q0 51 35.5 87t85.5 36h94q10 0 17.5 -7.5t7.5 -18.5v-277q0 -11 -7.5 -19t-17.5 -8h-188q-10 0 -18.5 8.5t-8.5 18.5z" />
<glyph unicode="&#x2019;" horiz-adv-x="321" d="M41 1198v277q0 10 8 18t19 8h188q10 0 17.5 -7.5t7.5 -18.5v-181q0 -51 -35 -87t-84 -36h-94q-10 0 -18.5 8.5t-8.5 18.5z" />
<glyph unicode="&#x201a;" horiz-adv-x="321" d="M41 -96v276q0 10 8.5 18.5t18.5 8.5h188q10 0 17.5 -8t7.5 -19v-180q0 -50 -35 -85.5t-84 -35.5h-94q-11 0 -19 7.5t-8 17.5z" />
<glyph unicode="&#x201c;" horiz-adv-x="598" d="M41 1198v180q0 51 35.5 87t85.5 36h94q10 0 17.5 -7.5t7.5 -18.5v-277q0 -11 -7.5 -19t-17.5 -8h-188q-10 0 -18.5 8.5t-8.5 18.5zM317 1198v180q0 51 35.5 87t85.5 36h94q10 0 17.5 -7.5t7.5 -18.5v-277q0 -11 -7.5 -19t-17.5 -8h-188q-10 0 -18.5 8.5t-8.5 18.5z" />
<glyph unicode="&#x201d;" horiz-adv-x="598" d="M41 1198v277q0 10 8 18t19 8h188q10 0 17.5 -7.5t7.5 -18.5v-181q0 -51 -35 -87t-84 -36h-94q-10 0 -18.5 8.5t-8.5 18.5zM317 1198v277q0 10 8 18t19 8h188q10 0 17.5 -7.5t7.5 -18.5v-181q0 -51 -35 -87t-84 -36h-94q-10 0 -18.5 8.5t-8.5 18.5z" />
<glyph unicode="&#x201e;" horiz-adv-x="598" d="M41 -96v276q0 10 8.5 18.5t18.5 8.5h188q10 0 17.5 -8t7.5 -19v-180q0 -50 -35 -85.5t-84 -35.5h-94q-11 0 -19 7.5t-8 17.5zM317 -96v276q0 10 8.5 18.5t18.5 8.5h188q10 0 17.5 -8t7.5 -19v-180q0 -50 -35 -85.5t-84 -35.5h-94q-11 0 -19 7.5t-8 17.5z" />
<glyph unicode="&#x2022;" horiz-adv-x="415" d="M72 643v180q0 23 15.5 38.5t37.5 15.5h166q22 0 37.5 -15.5t15.5 -38.5v-180q0 -22 -15.5 -37.5t-37.5 -15.5h-166q-22 0 -37.5 15.5t-15.5 37.5z" />
<glyph unicode="&#x2026;" horiz-adv-x="1124" d="M41 27v200q0 10 8 17.5t19 7.5h200q11 0 19 -7.5t8 -17.5v-200q0 -12 -8 -19.5t-19 -7.5h-200q-11 0 -19 7.5t-8 19.5zM436 27v200q0 11 7.5 18t19.5 7h201q10 0 17 -7t7 -18v-200q0 -12 -6.5 -19.5t-17.5 -7.5h-201q-12 0 -19.5 7.5t-7.5 19.5zM831 27v200q0 11 7.5 18 t17.5 7h201q12 0 19 -7t7 -18v-200q0 -27 -26 -27h-201q-11 0 -18 7.5t-7 19.5z" />
<glyph unicode="&#x202f;" horiz-adv-x="360" />
<glyph unicode="&#x2039;" horiz-adv-x="518" d="M59 694q-16 26 0 51l146 256q6 11 14.5 17.5t13.5 7.5h5h219q2 0 4 -1t5 -6.5t-5 -17.5l-156 -280l156 -281q6 -13 5 -19t-5 -7h-4h-219q-19 -1 -33 26z" />
<glyph unicode="&#x203a;" horiz-adv-x="520" d="M52 1018.5q1 5.5 5 6.5l4 1h220q18 0 32 -25l146 -256q19 -25 0 -51l-146 -254q-6 -12 -14 -18.5t-13 -7.5h-5h-220l-7 3q-6 6 3 23l158 281l-158 280q-6 12 -5 17.5z" />
<glyph unicode="&#x205f;" horiz-adv-x="450" />
<glyph unicode="&#x20ac;" horiz-adv-x="854" d="M20 496v186q0 11 7.5 19t19.5 8h66v55h-66q-12 0 -19.5 8t-7.5 19v186q0 11 7.5 19t19.5 8h66v264q0 90 63.5 152.5t151.5 62.5h219q90 0 153.5 -62.5t63.5 -152.5v-90q0 -10 -8 -18.5t-19 -8.5h-196q-11 0 -19 8.5t-8 18.5v14q0 23 -15.5 38t-37.5 15h-45q-24 0 -40 -15 t-16 -38v-188h258q10 0 17.5 -8t7.5 -19v-186q0 -11 -7.5 -19t-17.5 -8h-258v-55h258q10 0 17.5 -8t7.5 -19v-186q0 -11 -7.5 -19t-17.5 -8h-258v-195q0 -22 16.5 -37.5t39.5 -15.5h55q22 0 37.5 15.5t15.5 37.5v31q0 12 7 19.5t18 7.5h199q11 0 17.5 -7.5t6.5 -19.5v-98 q0 -90 -63.5 -153.5t-151.5 -63.5h-229q-88 0 -151.5 63.5t-63.5 153.5v262h-66q-12 0 -19.5 8t-7.5 19z" />
<glyph unicode="&#x2122;" horiz-adv-x="1175" d="M113 1374v74q0 27 26 27h312q11 0 17.5 -7.5t6.5 -19.5v-74q0 -10 -6.5 -17t-17.5 -7h-91v-637q0 -10 -7.5 -17.5t-18.5 -7.5h-82q-10 0 -17.5 7t-7.5 18v637h-88q-26 0 -26 24zM565 713v702v33q0 12 8 19.5t19 7.5h72q18 0 28 -27l123 -326l121 326q4 12 11.5 19t12.5 7 l5 1h73q11 0 18 -7.5t7 -19.5v-33v-702q0 -11 -7.5 -18t-17.5 -7h-71q-12 0 -19.5 7t-7.5 18v403l-125 -313l-127 313v-403q0 -10 -7.5 -17.5t-18.5 -7.5h-70q-11 0 -19 7.5t-8 17.5z" />
<glyph unicode="&#x25fc;" horiz-adv-x="1474" d="M0 0v1475h1475v-1475h-1475z" />
<glyph unicode="&#xfb01;" horiz-adv-x="1122" d="M113 27v1421q0 27 26 27h846q11 0 18 -7.5t7 -19.5v-186q0 -12 -7 -19.5t-18 -7.5h-625v-340h265q11 0 18.5 -7.5t7.5 -17.5v-186q0 -11 -8 -19t-18 -8h-265v-630q0 -12 -6.5 -19.5t-17.5 -7.5h-197q-26 0 -26 27zM762 27v1091q0 11 7 19t17 8h199q10 0 17.5 -8t7.5 -19 v-1091q0 -12 -7 -19.5t-18 -7.5h-199q-11 0 -17.5 7.5t-6.5 19.5z" />
<glyph unicode="&#xfb02;" horiz-adv-x="1280" d="M113 27v1421q0 27 26 27h754q11 0 18 -7.5t7 -19.5v-186q0 -12 -7 -19.5t-18 -7.5h-533v-340h172q11 0 19 -7.5t8 -17.5v-186q0 -10 -8.5 -18.5t-18.5 -8.5h-172v-630q0 -12 -6.5 -19.5t-17.5 -7.5h-197q-26 0 -26 27zM670 27v1091q0 11 7 19t17 8h199q10 0 17.5 -8 t7.5 -19v-880h274q12 0 19.5 -7.5t7.5 -19.5v-184q0 -12 -7.5 -19.5t-19.5 -7.5h-498q-11 0 -17.5 7.5t-6.5 19.5z" />
<glyph horiz-adv-x="1341" d="M102 207v1061q0 90 63.5 152.5t151.5 62.5h248q88 0 151.5 -62.5t63.5 -152.5v-99q0 -26 -24 -26h-199q-11 0 -18 7t-7 19v23q0 23 -15.5 38t-37.5 15h-73q-24 0 -40 -15t-16 -38v-918q0 -22 16.5 -37.5t39.5 -15.5h73q22 0 37.5 15.5t15.5 37.5v123q0 12 7 19.5t18 7.5 h199q11 0 17.5 -7.5t6.5 -19.5v-190q0 -90 -63.5 -153.5t-151.5 -63.5h-248q-88 0 -151.5 63.5t-63.5 153.5zM532 598v371q0 12 7 19t18 7h199q24 0 24 -26v-74h199v553q0 12 8 19.5t19 7.5h196q11 0 19 -7.5t8 -19.5v-1421q0 -12 -8 -19.5t-19 -7.5h-196q-11 0 -19 7.5 t-8 19.5v630h-199v-59q0 -12 -6.5 -19.5t-17.5 -7.5h-199q-11 0 -18 7.5t-7 19.5z" />
<glyph horiz-adv-x="1095" d="M113 27v1421q0 27 26 27h197q11 0 17.5 -7.5t6.5 -19.5v-1210h617q11 0 19 -7.5t8 -19.5v-184q0 -12 -8 -19.5t-19 -7.5h-838q-26 0 -26 27zM453 356v1092q0 12 7.5 19.5t18.5 7.5h197q26 0 26 -27v-881h275q11 0 19 -7t8 -17v-187q0 -12 -8 -19t-19 -7h-498 q-11 0 -18.5 7t-7.5 19z" />
<glyph horiz-adv-x="1312" d="M102 207v1061q0 90 63.5 152.5t151.5 62.5h248q88 0 151.5 -62.5t63.5 -152.5v-99q0 -26 -24 -26h-199q-11 0 -18 7t-7 19v60q0 23 -15.5 38t-37.5 15h-73q-24 0 -40 -15t-16 -38v-991q0 -22 16.5 -38t39.5 -16h73q22 0 37.5 16t15.5 38v159q0 12 7 19.5t18 7.5h199 q11 0 17.5 -7.5t6.5 -19.5v-190q0 -90 -63.5 -153.5t-151.5 -63.5h-248q-88 0 -151.5 63.5t-63.5 153.5zM532 580v407q0 12 7 19.5t18 7.5h199q11 0 17.5 -7.5t6.5 -19.5v-129l230 590q4 12 10.5 19t11.5 7l4 1h213q2 0 4.5 -1t6.5 -7t-3 -19l-247 -610l247 -811 q3 -13 1 -19t-6 -7l-5 -1h-213q-2 0 -5 0.5t-9.5 7.5t-9.5 19l-230 786v-233q0 -12 -6.5 -19.5t-17.5 -7.5h-199q-11 0 -18 7.5t-7 19.5z" />
<glyph horiz-adv-x="1841" d="M113 27v1421q0 27 26 27h189q22 0 32 -27l220 -557l219 557q4 12 11.5 19t13.5 7l5 1h183q22 0 30 -27l222 -557l219 557q4 12 11.5 19t13.5 7l5 1h191q11 0 18 -7.5t7 -19.5v-1421q0 -12 -7 -19.5t-18 -7.5h-199q-11 0 -17.5 7.5t-6.5 19.5v757l-217 -563l-220 563v-757 q0 -12 -6.5 -19.5t-17.5 -7.5h-199q-11 0 -17.5 7.5t-6.5 19.5v757l-217 -563l-220 563v-757q0 -12 -6.5 -19.5t-17.5 -7.5h-197q-26 0 -26 27z" />
<glyph horiz-adv-x="1300" d="M92 27v211l387 999h-360q-12 0 -19.5 7t-7.5 18v186q0 12 7.5 19.5t19.5 7.5h571q11 0 18 -7.5t7 -19.5v-211l-383 -999h137q11 0 18 -7.5t7 -19.5v-184q0 -12 -7 -19.5t-18 -7.5h-350q-12 0 -19.5 7.5t-7.5 19.5zM586 27v211l387 999h-121q-11 0 -19 7.5t-8 17.5v186 q0 12 8 19.5t19 7.5h332q11 0 17.5 -7.5t6.5 -19.5v-211l-383 -999h359q11 0 17.5 -7.5t6.5 -19.5v-184q0 -12 -6.5 -19.5t-17.5 -7.5h-572q-11 0 -18.5 7.5t-7.5 19.5z" />
<glyph horiz-adv-x="1226" d="M113 27v1421q0 27 26 27h197q11 0 17.5 -7.5t6.5 -19.5v-1210h727q11 0 19 -7.5t8 -19.5v-184q0 -12 -8 -19.5t-19 -7.5h-948q-26 0 -26 27zM453 522v746q0 90 63.5 152.5t153.5 62.5h227q90 0 153.5 -62.5t63.5 -152.5v-746q0 -90 -63.5 -153.5t-153.5 -63.5h-227 q-90 0 -153.5 63.5t-63.5 153.5zM702 590q0 -22 16 -37.5t38 -15.5h55q22 0 37.5 15.5t15.5 37.5v602q0 23 -15.5 38t-37.5 15h-55q-22 0 -38 -15t-16 -38v-602z" />
<glyph horiz-adv-x="1148" d="M72 1448q0 27 26 27h197q11 0 17.5 -7.5t6.5 -19.5l56 -942l200 426l199 -426l55 942q0 12 7 19.5t18 7.5h199q11 0 17.5 -7.5t6.5 -19.5l-69 -1421q0 -12 -7 -19.5t-18 -7.5h-195q-18 2 -30 27l-183 358l-182 -358q-6 -11 -14.5 -18t-13.5 -8l-5 -1h-192q-11 0 -19 7.5 t-8 19.5z" />
<glyph horiz-adv-x="868" d="M102 207v1061q0 90 63.5 152.5t151.5 62.5h230q88 0 151.5 -62.5t63.5 -152.5v-1061q0 -76 -45 -133l57 -176q2 -13 1 -19t-4 -7l-3 -1h-197q-24 0 -32 27l-33 92h-189q-88 0 -151.5 63.5t-63.5 153.5zM350 274q0 -22 16.5 -37.5t39.5 -15.5h55q22 0 37.5 15.5t15.5 37.5 v918q0 23 -15.5 38t-37.5 15h-55q-24 0 -40 -15t-16 -38v-918z" />
<glyph horiz-adv-x="786" d="M82 27v211l139 360h-76q-12 0 -19 8t-7 19v186q0 11 7 19t19 8h168l156 399h-360q-12 0 -19.5 7t-7.5 18v186q0 12 7.5 19.5t19.5 7.5h571q11 0 18 -7.5t7 -19.5v-211l-154 -399h92q10 0 17.5 -8t7.5 -19v-186q0 -11 -7.5 -19t-17.5 -8h-184l-137 -360h358q11 0 18 -7.5 t7 -19.5v-184q0 -12 -7 -19.5t-18 -7.5h-571q-12 0 -19.5 7.5t-7.5 19.5z" />
<glyph horiz-adv-x="569" d="M72 27v178q0 24 26 24h56q23 0 39 16.5t16 39.5v1163q0 12 6.5 19.5t17.5 7.5h197q12 0 19.5 -7.5t7.5 -19.5v-1233q0 -89 -63.5 -152t-151.5 -63h-144q-26 0 -26 27z" />
<glyph horiz-adv-x="1263" d="M83.5 8q-4.5 6 0.5 19l147 561q-60 25 -97.5 79t-37.5 121v472q0 89 63.5 152t151.5 63h641q88 0 151.5 -63t63.5 -152v-472q0 -67 -37.5 -121t-97.5 -79l148 -561q3 -13 0 -19t-8 -7l-5 -1h-211q-2 0 -5.5 0.5t-10.5 7.5t-10 19l-144 546h-30v-546q0 -3 -1 -8t-1 -7 q-8 -12 -19 -12h-4h-199h-8q-2 2 -4 2l-4 4l-2 2l-4 4l-2 4v7v4v546h-31l-143 -546q-2 -12 -8 -18.5t-12 -7.5l-5 -1h-213q-2 0 -5 1t-7.5 7zM346 856q0 -22 15 -37.5t38 -15.5h109v434h-109q-23 0 -38 -15.5t-15 -37.5v-328zM756 803h108q23 0 39.5 15.5t16.5 37.5v328 q0 22 -16.5 37.5t-39.5 15.5h-108v-434z" />
<glyph horiz-adv-x="1333" d="M113 27v1421q0 27 26 27h195q2 0 5.5 -0.5t10.5 -7.5t10 -19l183 -627v627q0 12 6.5 19.5t17.5 7.5h197q2 0 6 -0.5t11 -7.5t10 -19l180 -627v627q0 12 7.5 19.5t18.5 7.5h197q11 0 19 -7.5t8 -19.5v-1421q0 -12 -8 -19.5t-19 -7.5h-186q-2 0 -6 0.5t-11 7.5t-10 19 l-190 604v-604q0 -12 -7 -19.5t-18 -7.5h-186q-21 0 -29 27l-191 604v-604q0 -12 -6.5 -19.5t-17.5 -7.5h-197q-26 0 -26 27z" />
<glyph horiz-adv-x="1159" d="M113 27v1421q0 27 26 27h197q11 0 17.5 -7.5t6.5 -19.5v-1210h691q11 0 18.5 -7.5t7.5 -19.5v-184q0 -12 -7.5 -19.5t-18.5 -7.5h-912q-26 0 -26 27zM453 332v1116q0 12 7.5 19.5t18.5 7.5h561q11 0 18 -7.5t7 -19.5v-186q0 -12 -7 -19.5t-18 -7.5h-338v-217h265 q10 0 17 -8t7 -19v-186q0 -11 -7 -18t-17 -7h-265v-237h349q11 0 18.5 -7.5t7.5 -17.5v-186q0 -11 -8 -19t-18 -8h-572q-10 0 -18 8t-8 19z" />
<glyph horiz-adv-x="1437" d="M72 1262v186q0 12 7.5 19.5t18.5 7.5h1200q11 0 19 -7.5t8 -19.5v-186q0 -10 -8 -17.5t-19 -7.5h-763v-1210q0 -12 -7 -19.5t-18 -7.5h-199q-11 0 -17.5 7.5t-6.5 19.5v1210h-189q-11 0 -18.5 7.5t-7.5 17.5zM645 27v1091q0 10 8.5 18.5t18.5 8.5h196q10 0 18.5 -8.5 t8.5 -18.5v-389h180v389q0 11 7.5 19t19.5 8h196q10 0 18.5 -8.5t8.5 -18.5v-1091q0 -12 -8 -19.5t-19 -7.5h-196q-12 0 -19.5 7.5t-7.5 19.5v465h-180v-465q0 -12 -8 -19.5t-19 -7.5h-196q-11 0 -19 7.5t-8 19.5z" />
<glyph horiz-adv-x="2158" d="M72 1262v186q0 12 7.5 19.5t18.5 7.5h1942q11 0 17.5 -7.5t6.5 -19.5v-186q0 -11 -7 -18t-17 -7h-1505v-1210q0 -12 -7 -19.5t-18 -7.5h-199q-11 0 -17.5 7.5t-6.5 19.5v1210h-189q-11 0 -18.5 7.5t-7.5 17.5zM645 27v1091q0 10 8.5 18.5t18.5 8.5h196q10 0 18.5 -8.5 t8.5 -18.5v-389h180v389q0 11 7.5 19t19.5 8h196q10 0 18.5 -8.5t8.5 -18.5v-1091q0 -12 -8 -19.5t-19 -7.5h-196q-12 0 -19.5 7.5t-7.5 19.5v465h-180v-465q0 -12 -8 -19.5t-19 -7.5h-196q-11 0 -19 7.5t-8 19.5zM1454 27v1091q0 11 7.5 19t17.5 8h561q10 0 17 -8t7 -19 v-188q0 -11 -7 -18t-17 -7h-338v-176h264q11 0 18 -7t7 -17v-187q0 -11 -7.5 -18.5t-17.5 -7.5h-264v-254h348q11 0 19 -7.5t8 -19.5v-184q0 -12 -8 -19.5t-19 -7.5h-571q-11 0 -18 7.5t-7 19.5z" />
<glyph horiz-adv-x="1370" d="M113 27v1421q0 27 26 27h197q11 0 17.5 -7.5t6.5 -19.5v-553h201v553q0 12 7 19.5t18 7.5h198q11 0 18 -7.5t7 -19.5v-553h199v553q0 12 7.5 19.5t18.5 7.5h197q11 0 18.5 -7.5t7.5 -19.5v-1421q0 -12 -7.5 -19.5t-18.5 -7.5h-197q-11 0 -18.5 7.5t-7.5 19.5v630h-199 v-630q0 -12 -7 -19.5t-18 -7.5h-198q-11 0 -18 7.5t-7 19.5v630h-201v-630q0 -12 -6.5 -19.5t-17.5 -7.5h-197q-26 0 -26 27z" />
<glyph horiz-adv-x="1292" d="M92 215v410q0 80 58 145q-21 51 -21 92v398q0 89 64 152t153 63h602q89 0 152 -63t63 -152v-398q0 -51 -20 -92q57 -60 57 -145v-410q0 -89 -63 -152t-152 -63h-676q-89 0 -153 63t-64 152zM342 285q0 -23 15.5 -39.5t37.5 -16.5h127v404h-133q-20 -3 -33.5 -18 t-13.5 -35v-295zM379 909q0 -22 13.5 -36.5t33.5 -16.5h96v381h-90q-22 0 -37.5 -15.5t-15.5 -37.5v-275zM772 229h127q22 0 37.5 16.5t15.5 39.5v295q0 20 -13.5 35t-35.5 18h-131v-404zM772 856h94q22 1 35.5 16t13.5 37v275q0 22 -15.5 37.5t-37.5 15.5h-90v-381z" />
<glyph horiz-adv-x="1312" d="M102 207v1061q0 90 63.5 152.5t151.5 62.5h230q60 0 108 -31q51 31 111 31h229q88 0 151.5 -62.5t63.5 -152.5v-1061q0 -90 -63.5 -153.5t-151.5 -63.5h-229q-62 0 -111 30q-47 -30 -108 -30h-230q-88 0 -151.5 63.5t-63.5 153.5zM350 274q0 -22 16.5 -37.5t39.5 -15.5 h73q22 0 37.5 15.5t15.5 37.5v918q0 23 -15.5 38t-37.5 15h-73q-24 0 -40 -15t-16 -38v-918zM780 274q0 -22 16 -37.5t38 -15.5h73q23 0 38.5 15.5t15.5 37.5v918q0 23 -15.5 38t-38.5 15h-73q-20 0 -35.5 -13.5t-18.5 -33.5v-924z" />
<glyph horiz-adv-x="669" d="M82 1575v178q0 11 7 18t17 7h175q9 0 16.5 -7.5t7.5 -17.5v-178q0 -10 -7.5 -17.5t-16.5 -7.5h-175q-10 0 -17 7t-7 18zM365 1575v178q0 10 6.5 17.5t15.5 7.5h176q9 0 17 -7.5t8 -17.5v-178q0 -10 -8 -17.5t-17 -7.5h-176q-9 0 -15.5 7.5t-6.5 17.5z" />
<glyph horiz-adv-x="862" d="M74 27l245 1421q1 12 7.5 19t13.5 7l6 1h170q3 0 7 -0.5t11.5 -7.5t8.5 -19l245 -1421q2 -12 -1.5 -18.5t-8.5 -7.5l-4 -1h-213q-2 0 -5 0.5t-8.5 7.5t-6.5 19l-27 178h-166l-26 -178q-1 -12 -6 -18.5t-10 -7.5l-5 -1h-213q-2 0 -5 0.5t-7 7.5t-2 19zM178 1575v178 q0 10 8 17.5t17 7.5h174q10 0 17 -7t7 -18v-178q0 -11 -7 -18t-17 -7h-174q-9 0 -17 7.5t-8 17.5zM379 442h106l-55 545zM461 1575v178q0 11 7 18t17 7h174q9 0 17 -7.5t8 -17.5v-178q0 -10 -8 -17.5t-17 -7.5h-174q-10 0 -17 7t-7 18z" />
<glyph horiz-adv-x="811" d="M72 207v1061q0 90 63.5 152.5t151.5 62.5h235q90 0 153.5 -62.5t63.5 -152.5v-1061q0 -90 -63.5 -153.5t-153.5 -63.5h-235q-88 0 -151.5 63.5t-63.5 153.5zM154 1575v178q0 10 6.5 17.5t15.5 7.5h176q9 0 16 -7.5t7 -17.5v-178q0 -10 -7 -17.5t-16 -7.5h-176 q-9 0 -15.5 7.5t-6.5 17.5zM319 274q0 -22 16.5 -37.5t39.5 -15.5h61q23 0 38 15.5t15 37.5v918q0 23 -15 38t-38 15h-61q-24 0 -40 -15t-16 -38v-918zM434 1575v178q0 10 8 17.5t17 7.5h174q10 0 17 -7t7 -18v-178q0 -11 -7 -18t-17 -7h-174q-9 0 -17 7.5t-8 17.5z" />
<glyph horiz-adv-x="888" d="M113 207v1241q0 27 26 27h197q11 0 17.5 -7.5t6.5 -19.5v-1174q0 -22 16.5 -37.5t39.5 -15.5h57q23 0 38 15.5t15 37.5v1174q0 12 8 19.5t19 7.5h197q26 0 26 -27v-1241q0 -90 -63.5 -153.5t-151.5 -63.5h-233q-88 0 -151.5 63.5t-63.5 153.5zM193 1575v178 q0 10 6.5 17.5t15.5 7.5h176q9 0 17 -7.5t8 -17.5v-178q0 -10 -8 -17.5t-17 -7.5h-176q-9 0 -15.5 7.5t-6.5 17.5zM473 1575v178q0 10 8 17.5t17 7.5h176q9 0 15.5 -7.5t6.5 -17.5v-178q0 -10 -6.5 -17.5t-15.5 -7.5h-176q-9 0 -17 7.5t-8 17.5z" />
<glyph horiz-adv-x="817" d="M113 27v1421q0 27 26 27h559q11 0 19 -7.5t8 -19.5v-186q0 -12 -8 -19.5t-19 -7.5h-338v-340h265q11 0 18.5 -7.5t7.5 -17.5v-186q0 -11 -8 -19t-18 -8h-265v-419h351q11 0 17.5 -7.5t6.5 -19.5v-184q0 -12 -6.5 -19.5t-17.5 -7.5h-572q-26 0 -26 27zM166 1575v178 q0 11 7 18t17 7h175q10 0 17 -7t7 -18v-178q0 -11 -7 -18t-17 -7h-175q-10 0 -17 7t-7 18zM449 1575v178q0 10 6.5 17.5t15.5 7.5h176q9 0 17 -7.5t8 -17.5v-178q0 -10 -8 -17.5t-17 -7.5h-176q-9 0 -15.5 7.5t-6.5 17.5z" />
<glyph horiz-adv-x="473" d="M-16 1575v178q0 11 7 18t17 7h174q9 0 17 -7.5t8 -17.5v-178q0 -10 -8 -17.5t-17 -7.5h-174q-10 0 -17 7t-7 18zM113 27v1421q0 27 26 27h197q11 0 17.5 -7.5t6.5 -19.5v-1421q0 -12 -6.5 -19.5t-17.5 -7.5h-197q-26 0 -26 27zM266 1575v178q0 10 7 17.5t16 7.5h176 q9 0 16.5 -7.5t7.5 -17.5v-178q0 -10 -7.5 -17.5t-16.5 -7.5h-176q-9 0 -16 7.5t-7 17.5z" />
<glyph horiz-adv-x="813" d="M54.5 1467q2.5 6 7.5 7l4 1h213q2 0 5 -0.5t9 -7.5t8 -19l107 -576l104 576q3 12 9 19t11 7l5 1h211q2 0 5 -0.5t6.5 -7.5t0.5 -19l-230 -987v-434q0 -27 -26 -27h-195q-11 0 -18.5 7.5t-7.5 19.5v434l-228 987q-3 13 -0.5 19zM154 1575v178q0 10 7.5 17.5t16.5 7.5h176 q9 0 16 -7.5t7 -17.5v-178q0 -10 -7 -17.5t-16 -7.5h-176q-9 0 -16.5 7.5t-7.5 17.5zM436 1575v178q0 10 8 17.5t17 7.5h174q10 0 17 -7t7 -18v-178q0 -11 -7 -18t-17 -7h-174q-9 0 -17 7.5t-8 17.5z" />
</font>
</defs>
</svg>
