<?xml version="1.0" standalone="no"?>
<!DOCTYPE svg PUBLIC "-//W3C//DTD SVG 1.1//EN" "http://www.w3.org/Graphics/SVG/1.1/DTD/svg11.dtd" >
<svg xmlns="http://www.w3.org/2000/svg" xmlns:xlink="http://www.w3.org/1999/xlink" version="1.1">
<metadata></metadata>
<defs>
<font id="clarkelight" horiz-adv-x="933" >
<font-face units-per-em="2048" ascent="1638" descent="-410" />
<missing-glyph horiz-adv-x="645" />
<glyph horiz-adv-x="0" />
<glyph horiz-adv-x="682" />
<glyph horiz-adv-x="0" />
<glyph horiz-adv-x="0" />
<glyph unicode="&#xd;" horiz-adv-x="645" />
<glyph unicode=" "  horiz-adv-x="645" />
<glyph unicode="&#x09;" horiz-adv-x="645" />
<glyph unicode="&#xa0;" horiz-adv-x="645" />
<glyph unicode="!" horiz-adv-x="421" d="M143 27v92q0 10 7 17t18 7h86q11 0 18 -7t7 -17v-92q0 -12 -7 -19.5t-18 -7.5h-86q-11 0 -18 7.5t-7 19.5zM143 258v1190q0 12 7 19.5t18 7.5h86q11 0 18 -7.5t7 -19.5v-1190q0 -12 -7 -19.5t-18 -7.5h-86q-11 0 -18 7.5t-7 19.5z" />
<glyph unicode="&#x22;" horiz-adv-x="456" d="M72 1255v220q0 11 8 18.5t18 7.5h78q10 0 17.5 -7.5t7.5 -18.5v-220q0 -41 -17 -62.5t-47 -21.5t-47.5 22t-17.5 62zM256 1255v220q0 10 8 18t19 8h77q10 0 17.5 -7.5t7.5 -18.5v-220q0 -41 -16.5 -62.5t-46.5 -21.5t-48 22t-18 62z" />
<glyph unicode="#" horiz-adv-x="1337" d="M123 477v76q0 11 8.5 19t18.5 8h200l74 276h-186q-10 0 -17.5 8t-7.5 19v75q0 11 7.5 19t17.5 8h221l82 305h129l-84 -305h297l82 305h129l-84 -305h180q10 0 17 -8t7 -19v-75q0 -11 -7 -19t-17 -8h-215l-76 -276h188q11 0 19 -8t8 -19v-76q0 -10 -8 -18t-19 -8h-223 l-71 -267h-123l69 267h-299l-71 -267h-123l69 267h-165q-11 0 -19 8t-8 18zM475 580h299l74 276h-297z" />
<glyph unicode="$" horiz-adv-x="886" d="M113 207v227q0 12 7.5 19.5t18.5 7.5h86q12 0 19.5 -7.5t7.5 -19.5v-270q0 -22 15.5 -37.5t37.5 -15.5h277q22 0 37.5 15.5t15.5 37.5v485q0 22 -15.5 37.5t-37.5 15.5h-252q-89 0 -153 63.5t-64 152.5v350q0 90 63.5 152.5t153.5 62.5h59v76q0 12 7 19t18 7h49 q26 0 26 -26v-76h60q88 0 151.5 -62.5t63.5 -152.5v-135q0 -12 -7 -19.5t-18 -7.5h-88q-11 0 -17.5 7.5t-6.5 19.5v170q0 23 -16 38t-38 15h-268q-22 0 -37.5 -15t-15.5 -38v-429q0 -22 15.5 -37.5t37.5 -15.5h252q90 0 153.5 -62.5t63.5 -152.5v-399q0 -90 -63.5 -153.5 t-153.5 -63.5h-68v-70q0 -24 -26 -24h-49q-11 0 -18 7t-7 17v70h-59q-90 0 -153.5 63.5t-63.5 153.5z" />
<glyph unicode="%" horiz-adv-x="1736" d="M133 897v371q0 90 63.5 152.5t151.5 62.5h174q88 0 151.5 -62.5t63.5 -152.5v-371q0 -89 -63.5 -152t-151.5 -63h-174q-88 0 -151.5 63t-63.5 152zM270 856q0 -23 16.5 -39t39.5 -16h221q22 0 37.5 16t15.5 39v447q0 23 -15.5 38t-37.5 15h-221q-24 0 -40 -15t-16 -38 v-447zM581.5 8q-2.5 6 2.5 19l389 1421q4 12 12 19t15 7l6 1h110q1 0 2.5 -1t4 -7t-2.5 -19l-395 -1421q-4 -12 -11.5 -19t-13.5 -8h-6h-106q-1 0 -2.5 1t-4 7zM963 207v371q0 89 63.5 152t151.5 63h174q88 0 151.5 -63t63.5 -152v-371q0 -90 -63.5 -153.5t-151.5 -63.5 h-174q-88 0 -151.5 63.5t-63.5 153.5zM1100 164q0 -22 16 -37.5t39 -15.5h221q22 0 38 15.5t16 37.5v448q0 22 -16 38t-38 16h-221q-23 0 -39 -16t-16 -38v-448z" />
<glyph unicode="&#x26;" horiz-adv-x="980" d="M102 215v213q0 27 21 67t46.5 74t75 97.5t79.5 105.5q-28 57 -70 139t-62 122t-36.5 84t-16.5 71v80q0 90 63.5 152.5t153.5 62.5h123q90 0 152.5 -62.5t62.5 -152.5v-80q0 -70 -210 -367l-27 -39l157 -315l97 180q13 25 26 25h82q11 0 16 -8t1 -17l-160 -299l164 -321 q5 -11 -1 -19t-18 -8h-86q-20 0 -35 27q-39 73 -96 186l-112 -213h-173q-89 0 -153 63t-64 152zM242 174q0 -23 15.5 -39t37.5 -16h139l111 211q-104 200 -168 334q-28 -43 -66 -95t-53.5 -77.5t-15.5 -45.5v-272zM279 1171q0 -11 5.5 -28t18.5 -45t25.5 -53.5t36.5 -72.5 t41 -83q151 219 151 276v146q0 22 -15.5 37.5t-37.5 15.5h-172q-22 0 -37.5 -15.5t-15.5 -37.5v-140z" />
<glyph unicode="'" horiz-adv-x="272" d="M72 1255v220q0 11 8 18.5t18 7.5h78q10 0 17.5 -7.5t7.5 -18.5v-220q0 -41 -17 -62.5t-47 -21.5t-47.5 22t-17.5 62z" />
<glyph unicode="(" horiz-adv-x="612" d="M143 23v1429q0 90 63.5 152.5t151.5 62.5h138q10 0 17 -7t7 -18v-75q0 -11 -7 -19t-17 -8h-160q-23 0 -39 -15t-16 -38v-1507q0 -22 16 -38t39 -16h160q24 0 24 -26v-68q0 -11 -7 -19t-17 -8h-138q-88 0 -151.5 64t-63.5 154z" />
<glyph unicode=")" horiz-adv-x="612" d="M92 -100q0 12 7 19t18 7h159q23 0 39.5 16t16.5 38v1507q0 23 -16 38t-40 15h-159q-10 0 -17.5 8t-7.5 19v75q0 10 7 17.5t18 7.5h137q88 0 151.5 -62.5t63.5 -152.5v-1429q0 -90 -63.5 -154t-151.5 -64h-137q-10 0 -17.5 8t-7.5 19v68z" />
<glyph unicode="*" horiz-adv-x="600" d="M94 1300l8 35q3 13 12 19t21 0l101 -43q23 -16 18 -31q-5 -21 -31 -18l-110 8q-13 0 -17.5 9t-1.5 21zM170 1133l70 84q20 20 34 8q18 -9 11 -35l-37 -103q-11 -23 -37 -10l-33 19q-27 18 -8 37zM256 1448q-3 13 5.5 20t21.5 7h36q12 0 20 -7t5 -20l-18 -109 q-6 -24 -25 -24q-21 0 -27 24zM315 1190q-7 26 11 35q16 10 34 -8l72 -84q17 -19 -10 -37l-33 -19q-26 -13 -35 10zM346 1280q-5 17 19 31l100 45q12 6 20 0t11 -19l10 -34q3 -12 -1.5 -21.5t-17.5 -9.5l-110 -10q-27 0 -31 18z" />
<glyph unicode="+" horiz-adv-x="868" d="M123 680v76q0 11 7.5 18.5t19.5 7.5h221v222q0 10 6.5 17t17.5 7h76q11 0 19 -7t8 -17v-222h223q10 0 17 -7.5t7 -18.5v-76q0 -11 -7 -19t-17 -8h-223v-221q0 -12 -8 -19t-19 -7h-76q-24 0 -24 26v221h-221q-12 0 -19.5 8t-7.5 19z" />
<glyph unicode="," horiz-adv-x="286" d="M72 63v58q0 12 7.5 19t18.5 7h90q11 0 19 -7t8 -19v-123q0 -94 -53 -94q-19 0 -19 20v66q-71 0 -71 73z" />
<glyph unicode="-" horiz-adv-x="868" d="M123 680v76q0 11 7.5 18.5t19.5 7.5h571q10 0 17 -7.5t7 -18.5v-76q0 -11 -7 -19t-17 -8h-571q-12 0 -19.5 8t-7.5 19z" />
<glyph unicode="." horiz-adv-x="286" d="M72 27v94q0 12 7.5 19t18.5 7h90q11 0 19 -7t8 -19v-94q0 -12 -8 -19.5t-19 -7.5h-90q-11 0 -18.5 7.5t-7.5 19.5z" />
<glyph unicode="/" horiz-adv-x="729" d="M93 8q-3 6 1 19l391 1421q4 12 11.5 19t13.5 7l6 1h111q2 0 3.5 -1t4.5 -7t-2 -19l-395 -1421q-4 -12 -12 -19t-14 -8h-7h-105q-1 0 -2.5 1t-4.5 7z" />
<glyph unicode="0" horiz-adv-x="905" d="M123 207v1061q0 90 63.5 152.5t151.5 62.5h229q88 0 151.5 -62.5t63.5 -152.5v-1061q0 -90 -63.5 -153.5t-151.5 -63.5h-229q-88 0 -151.5 63.5t-63.5 153.5zM260 164q0 -22 16 -37.5t39 -15.5h277q22 0 37.5 15.5t15.5 37.5v1139q0 23 -15.5 38t-37.5 15h-277 q-23 0 -39 -15t-16 -38v-1139z" />
<glyph unicode="1" horiz-adv-x="518" d="M123 1339v7l137 129h88q12 0 19.5 -7.5t7.5 -19.5v-1421q0 -12 -7.5 -19.5t-19.5 -7.5h-86q-11 0 -18.5 7.5t-7.5 19.5v1288h-86q-12 0 -19.5 6.5t-7.5 17.5z" />
<glyph unicode="2" horiz-adv-x="870" d="M102 27v100q21 34 57 92t126.5 211.5t160 277.5t126.5 242.5t57 155.5v197q0 23 -16 38t-38 15h-262q-22 0 -37.5 -15t-15.5 -38v-152q0 -12 -7.5 -19.5t-19.5 -7.5h-86q-11 0 -18.5 7.5t-7.5 19.5v117q0 90 63.5 152.5t153.5 62.5h213q90 0 152.5 -62.5t62.5 -152.5 v-162q0 -58 -129 -303t-258 -461l-129 -215h493q11 0 18 -7.5t7 -19.5v-73q0 -12 -7 -19.5t-18 -7.5h-614q-11 0 -19 7.5t-8 19.5z" />
<glyph unicode="3" horiz-adv-x="878" d="M102 1151v117q0 90 63.5 152.5t151.5 62.5h234q88 0 151.5 -62.5t63.5 -152.5v-387q0 -67 -37 -119q37 -52 37 -119v-436q0 -90 -63.5 -153.5t-151.5 -63.5h-229q-90 0 -153 63t-63 154v119q0 11 7.5 18.5t17.5 7.5h88q10 0 17.5 -7.5t7.5 -18.5v-162q0 -22 15.5 -37.5 t37.5 -15.5h276q23 0 38.5 15.5t15.5 37.5v477q0 23 -15.5 38t-38.5 15h-124q-9 1 -15 9.5t-6 17.5v76q0 10 8 17t19 7h118q23 0 38.5 15.5t15.5 37.5v429q0 23 -15.5 38t-38.5 15h-278q-23 0 -39 -15t-16 -38v-152q0 -12 -7 -19.5t-18 -7.5h-86q-12 0 -19.5 7.5t-7.5 19.5z " />
<glyph unicode="4" horiz-adv-x="823" d="M61 303v103l412 1042q4 12 11 19t12 7l4 1h118q10 1 17.5 -7t7.5 -20v-1042h92q12 0 19.5 -7.5t7.5 -19.5v-76q0 -11 -7.5 -17.5t-19.5 -6.5h-92v-252q0 -12 -7 -19.5t-18 -7.5h-88q-11 0 -17.5 7.5t-6.5 19.5v252h-418q-12 0 -19.5 6.5t-7.5 17.5zM186 406h326v831z" />
<glyph unicode="5" horiz-adv-x="884" d="M123 207v227q0 12 7.5 19.5t19.5 7.5h86q11 0 17.5 -7.5t6.5 -19.5v-270q0 -22 16 -37.5t39 -15.5h277q22 0 37.5 15.5t15.5 37.5v516q0 22 -15.5 37.5t-37.5 15.5h-438q-10 0 -17.5 8t-7.5 19v688q0 12 7 19.5t18 7.5h559q11 0 18.5 -7.5t7.5 -19.5v-76q0 -12 -7.5 -19 t-18.5 -7h-447v-492h301q88 0 151.5 -63.5t63.5 -153.5v-430q0 -90 -63.5 -153.5t-151.5 -63.5h-229q-88 0 -151.5 63.5t-63.5 153.5z" />
<glyph unicode="6" horiz-adv-x="884" d="M123 207v1061q0 90 63.5 152.5t151.5 62.5h209q90 0 152.5 -62.5t62.5 -152.5v-135q0 -12 -7 -19.5t-18 -7.5h-88q-11 0 -17.5 7.5t-6.5 19.5v170q0 23 -16 38t-38 15h-256q-23 0 -39 -15t-16 -38v-476h307q88 0 151.5 -63t63.5 -152v-405q0 -90 -63.5 -153.5 t-151.5 -63.5h-229q-88 0 -151.5 63.5t-63.5 153.5zM260 164q0 -22 16 -37.5t39 -15.5h277q22 0 37.5 15.5t15.5 37.5v483q0 22 -15.5 37.5t-37.5 15.5h-332v-536z" />
<glyph unicode="7" horiz-adv-x="786" d="M82 1372v76q0 12 7.5 19.5t19.5 7.5h571q11 0 18 -7.5t7 -19.5v-100l-310 -1321q-3 -12 -9 -19t-10 -8h-5h-86q-2 0 -5.5 0.5t-8 7.5t-1.5 19l314 1321h-475q-12 0 -19.5 6.5t-7.5 17.5z" />
<glyph unicode="8" horiz-adv-x="909" d="M123 207v438q0 71 72 119q-3 0 -10 3t-18 12t-20.5 21.5t-16.5 34.5t-7 48v385q0 90 63.5 152.5t151.5 62.5h233q88 0 151.5 -62.5t63.5 -152.5v-385q0 -27 -7 -49t-16.5 -34.5t-20.5 -21t-18.5 -11.5t-10.5 -3q4 -2 9.5 -5t17.5 -14t21.5 -23.5t17 -33t7.5 -43.5v-438 q0 -90 -63.5 -153.5t-151.5 -63.5h-233q-88 0 -151.5 63.5t-63.5 153.5zM260 164q0 -22 16 -37.5t39 -15.5h279q23 0 38 15.5t15 37.5v479q0 22 -15 37.5t-38 15.5h-279q-23 0 -39 -15.5t-16 -37.5v-479zM260 877q0 -22 16 -38t39 -16h285q20 1 33.5 17t13.5 37v426 q0 23 -15 38t-38 15h-279q-23 0 -39 -15t-16 -38v-426z" />
<glyph unicode="9" horiz-adv-x="884" d="M102 829v439q0 90 63.5 152.5t151.5 62.5h230q88 0 151.5 -62.5t63.5 -152.5v-1061q0 -90 -63.5 -153.5t-151.5 -63.5h-211q-88 0 -151.5 63.5t-63.5 153.5v135q0 27 26 27h86q11 0 18 -7.5t7 -19.5v-170q0 -23 16 -38t39 -15h258q22 0 38 15t16 38v442h-308 q-88 0 -151.5 62.5t-63.5 152.5zM240 795q0 -23 16 -38.5t39 -15.5h330v570q0 22 -16 37.5t-38 15.5h-276q-23 0 -39 -15.5t-16 -37.5v-516z" />
<glyph unicode=":" horiz-adv-x="344" d="M102 27v90q0 12 8 19t19 7h86q11 0 19 -7t8 -19v-90q0 -12 -8 -19.5t-19 -7.5h-86q-11 0 -19 7.5t-8 19.5zM102 920v90q0 12 8 19t19 7h86q11 0 19 -7t8 -19v-90q0 -12 -8 -19.5t-19 -7.5h-86q-11 0 -19 7.5t-8 19.5z" />
<glyph unicode=";" horiz-adv-x="344" d="M102 63v54q0 12 8 19t19 7h86q11 0 19 -7t8 -19v-119q0 -94 -49 -94q-19 0 -19 20v66q-30 0 -51 16.5t-21 56.5zM102 920v90q0 12 8 19t19 7h86q11 0 19 -7t8 -19v-90q0 -12 -8 -19.5t-19 -7.5h-86q-11 0 -19 7.5t-8 19.5z" />
<glyph unicode="&#x3c;" horiz-adv-x="567" d="M90 694q-16 26 0 51l250 424q6 12 14.5 18.5t13.5 7.5l5 1h102q2 0 4 -1t5 -7t-5 -19l-262 -448l262 -451q6 -12 5 -17.5t-5 -6.5h-4h-102q-19 -1 -33 24z" />
<glyph unicode="=" horiz-adv-x="888" d="M133 551v76q0 11 7.5 18.5t19.5 7.5h571q10 0 17.5 -7.5t7.5 -18.5v-76q0 -11 -7.5 -19t-17.5 -8h-571q-12 0 -19.5 8t-7.5 19zM133 809v76q0 11 7.5 18.5t19.5 7.5h571q10 0 17.5 -7.5t7.5 -18.5v-76q0 -11 -7.5 -19t-17.5 -8h-571q-12 0 -19.5 8t-7.5 19z" />
<glyph unicode="&#x3e;" horiz-adv-x="567" d="M83 252.5q-3 5.5 5 17.5l262 451l-262 448q-6 13 -5 19t5 7l4 1h103q18 0 32 -27l250 -424q16 -25 0 -51l-250 -424q-6 -11 -14 -17t-13 -7h-5h-103q-2 0 -4 0.5t-5 6z" />
<glyph unicode="?" horiz-adv-x="860" d="M102 1133v135q0 90 63.5 152.5t151.5 62.5h224q90 0 153.5 -62.5t63.5 -152.5v-437q0 -89 -64 -152t-153 -63h-2q-22 0 -38 -15.5t-16 -37.5v-305q0 -12 -6.5 -19.5t-17.5 -7.5h-86q-11 0 -18 7.5t-7 19.5v262q0 90 62.5 152.5t152.5 62.5q22 0 37.5 15.5t15.5 37.5v515 q0 23 -15.5 38t-37.5 15h-270q-23 0 -38 -15t-15 -38v-170q0 -12 -8 -19.5t-19 -7.5h-86q-12 0 -19.5 7.5t-7.5 19.5zM350 27v92q0 10 7 17t18 7h86q11 0 17.5 -6.5t6.5 -17.5v-92q0 -12 -6.5 -19.5t-17.5 -7.5h-86q-11 0 -18 7.5t-7 19.5z" />
<glyph unicode="@" horiz-adv-x="1579" d="M143 215v1045q0 89 63.5 152t151.5 63h863q88 0 151.5 -63t63.5 -152v-758q0 -90 -63.5 -153.5t-151.5 -63.5h-91q-60 0 -110 30q-47 -30 -109 -30h-229q-88 0 -151.5 63.5t-63.5 153.5v368q0 89 63.5 152t151.5 63h229q88 0 151.5 -63t63.5 -152v-411q0 -23 19 -38 t53 -15h27q35 0 53 15t18 38v835q0 22 -15 38t-38 16h-907q-23 0 -39 -16t-16 -38v-1120q0 -23 16 -39t39 -16h1061q11 0 18.5 -7.5t7.5 -17.5v-67q0 -12 -7.5 -19.5t-18.5 -7.5h-1039q-88 0 -151.5 63t-63.5 152zM606 459q0 -22 16.5 -37.5t39.5 -15.5h274q20 0 35 13 t18 32v454q0 22 -15.5 37.5t-37.5 15.5h-274q-23 0 -39.5 -15.5t-16.5 -37.5v-446z" />
<glyph unicode="A" horiz-adv-x="925" d="M104 27l246 1421q2 12 9 19t13 7l7 1h168q24 0 28 -27l246 -1421q2 -12 -2 -18.5t-9 -7.5l-5 -1h-100q-2 0 -5.5 0.5t-9.5 7.5t-8 19l-39 233h-362l-37 -233q-2 -12 -7.5 -18.5t-10.5 -7.5l-5 -1h-100q-2 0 -5.5 0.5t-8.5 7.5t-3 19zM301 387h322l-160 973z" />
<glyph unicode="B" horiz-adv-x="929" d="M143 27v1421q0 12 7.5 19.5t19.5 7.5h385q88 0 151.5 -63t63.5 -152v-398q0 -44 -20 -92q57 -64 57 -145v-410q0 -89 -63.5 -152t-151.5 -63h-422q-12 0 -19.5 7.5t-7.5 19.5zM281 119h333q23 0 38.5 16t15.5 39v461q0 21 -13 35.5t-34 17.5h-340v-569zM281 801h303 q21 1 34 16t13 37v440q0 22 -15 38t-38 16h-297v-547z" />
<glyph unicode="C" horiz-adv-x="909" d="M133 207v1061q0 90 63.5 152.5t151.5 62.5h223q90 0 152.5 -62.5t62.5 -152.5v-135q0 -12 -6.5 -19.5t-17.5 -7.5h-86q-12 0 -19.5 7.5t-7.5 19.5v170q0 23 -15.5 38t-37.5 15h-270q-24 0 -40 -15t-16 -38v-1139q0 -22 16.5 -37.5t39.5 -15.5h278q23 0 38 15.5t15 37.5 v270q0 12 8 19.5t19 7.5h86q12 0 19.5 -7.5t7.5 -19.5v-227q0 -90 -63.5 -153.5t-151.5 -63.5h-234q-88 0 -151.5 63.5t-63.5 153.5z" />
<glyph unicode="D" horiz-adv-x="940" d="M143 27v1421q0 12 7.5 19.5t19.5 7.5h422q88 0 151.5 -63t63.5 -152v-1045q0 -89 -63.5 -152t-151.5 -63h-422q-12 0 -19.5 7.5t-7.5 19.5zM281 127h333q23 0 38.5 15.5t15.5 37.5v1114q0 22 -15.5 38t-38.5 16h-333v-1221z" />
<glyph unicode="E" horiz-adv-x="878" d="M143 27v1421q0 12 7.5 19.5t19.5 7.5h559q11 0 19 -7.5t8 -19.5v-76q0 -12 -8 -19t-19 -7h-448v-506h374q11 0 19 -7.5t8 -17.5v-76q0 -10 -8 -18t-19 -8h-374v-586h460q11 0 18 -7.5t7 -19.5v-73q0 -12 -7 -19.5t-18 -7.5h-571q-12 0 -19.5 7.5t-7.5 19.5z" />
<glyph unicode="F" horiz-adv-x="847" d="M143 27v1421q0 12 7.5 19.5t19.5 7.5h559q11 0 19 -7.5t8 -19.5v-76q0 -12 -8 -19t-19 -7h-448v-506h374q11 0 19 -7.5t8 -17.5v-76q0 -10 -8 -18t-19 -8h-374v-686q0 -12 -7 -19.5t-18 -7.5h-86q-12 0 -19.5 7.5t-7.5 19.5z" />
<glyph unicode="G" horiz-adv-x="915" d="M133 207v1061q0 90 63.5 152.5t151.5 62.5h217q90 0 153.5 -62.5t63.5 -152.5v-135q0 -12 -7.5 -19.5t-18.5 -7.5h-86q-11 0 -19 7.5t-8 19.5v170q0 23 -15 38t-38 15h-264q-24 0 -40 -15t-16 -38v-1139q0 -22 16.5 -37.5t39.5 -15.5h276q22 0 37.5 15.5t15.5 37.5v426 h-190q-11 0 -19 7t-8 19v74q0 12 8 19.5t19 7.5h303q11 0 18 -7.5t7 -19.5v-483q0 -90 -63.5 -153.5t-151.5 -63.5h-230q-88 0 -151.5 63.5t-63.5 153.5z" />
<glyph unicode="H" horiz-adv-x="964" d="M143 27v1421q0 12 7.5 19.5t19.5 7.5h86q11 0 18 -7.5t7 -19.5v-608h403v608q0 12 7 19.5t18 7.5h88q11 0 17.5 -7.5t6.5 -19.5v-1421q0 -12 -6.5 -19.5t-17.5 -7.5h-88q-11 0 -18 7.5t-7 19.5v686h-403v-686q0 -12 -7 -19.5t-18 -7.5h-86q-12 0 -19.5 7.5t-7.5 19.5z " />
<glyph unicode="I" horiz-adv-x="423" d="M143 27v1421q0 12 7.5 19.5t19.5 7.5h86q11 0 18 -7.5t7 -19.5v-1421q0 -12 -7 -19.5t-18 -7.5h-86q-12 0 -19.5 7.5t-7.5 19.5z" />
<glyph unicode="J" horiz-adv-x="864" d="M82 207v227q0 12 7.5 19.5t19.5 7.5h81q11 0 19 -7.5t8 -19.5v-270q0 -22 15 -37.5t38 -15.5h260q22 0 38 15.5t16 37.5v1284q0 12 6.5 19.5t17.5 7.5h88q11 0 18 -7.5t7 -19.5v-1241q0 -90 -63.5 -153.5t-151.5 -63.5h-209q-88 0 -151.5 63.5t-63.5 153.5z" />
<glyph unicode="K" d="M143 27v1421q0 12 7.5 19.5t19.5 7.5h86q11 0 18 -7.5t7 -19.5v-692l397 692q14 27 33 27h94q3 0 6 -1t8 -7t-4 -19l-317 -569l350 -852q4 -13 1.5 -19t-7.5 -7l-6 -1h-105q-14 0 -26 27l-302 702l-122 -197v-505q0 -12 -7 -19.5t-18 -7.5h-86q-12 0 -19.5 7.5t-7.5 19.5 z" />
<glyph unicode="L" horiz-adv-x="858" d="M143 27v1421q0 12 7.5 19.5t19.5 7.5h86q11 0 18 -7.5t7 -19.5v-1321h460q11 0 18 -7.5t7 -19.5v-73q0 -12 -7 -19.5t-18 -7.5h-571q-12 0 -19.5 7.5t-7.5 19.5z" />
<glyph unicode="M" horiz-adv-x="1218" d="M143 27v1421q0 12 7.5 19.5t19.5 7.5h74q22 0 32 -27l334 -746l334 746q5 12 13 19t13 7l5 1h76q11 0 17.5 -7.5t6.5 -19.5v-1421q0 -12 -6.5 -19.5t-17.5 -7.5h-86q-11 0 -18 7.5t-7 19.5v1110l-330 -723l-331 723v-1110q0 -12 -7 -19.5t-18 -7.5h-84q-12 0 -19.5 7.5 t-7.5 19.5z" />
<glyph unicode="N" horiz-adv-x="964" d="M143 27v1421q0 12 7.5 19.5t19.5 7.5h80q19 0 29 -27l407 -1061v1061q0 12 7 19.5t18 7.5h86q11 0 17.5 -7.5t6.5 -19.5v-1421q0 -12 -6.5 -19.5t-17.5 -7.5h-74q-21 0 -31 27l-413 1056v-1056q0 -12 -7 -19.5t-18 -7.5h-84q-12 0 -19.5 7.5t-7.5 19.5z" />
<glyph unicode="O" d="M133 207v1061q0 90 63.5 152.5t151.5 62.5h236q90 0 153.5 -62.5t63.5 -152.5v-1061q0 -90 -63.5 -153.5t-153.5 -63.5h-236q-88 0 -151.5 63.5t-63.5 153.5zM270 164q0 -22 16.5 -37.5t39.5 -15.5h282q23 0 38.5 15.5t15.5 37.5v1139q0 23 -15.5 38t-38.5 15h-282 q-24 0 -40 -15t-16 -38v-1139z" />
<glyph unicode="P" horiz-adv-x="929" d="M143 27v1421q0 12 7.5 19.5t19.5 7.5h422q88 0 151.5 -63t63.5 -152v-414q0 -89 -63.5 -152t-151.5 -63h-311v-604q0 -12 -7 -19.5t-18 -7.5h-86q-12 0 -19.5 7.5t-7.5 19.5zM281 745h333q23 0 38.5 16t15.5 38v495q0 22 -15.5 38t-38.5 16h-333v-603z" />
<glyph unicode="Q" d="M133 207v1061q0 90 63.5 152.5t151.5 62.5h236q90 0 153.5 -62.5t63.5 -152.5v-1061q0 -90 -63.5 -153.5t-153.5 -63.5h-47v-129q0 -12 -7.5 -19.5t-19.5 -7.5h-88q-11 0 -18 7.5t-7 19.5v129h-49q-88 0 -151.5 63.5t-63.5 153.5zM270 164q0 -22 16.5 -37.5t39.5 -15.5 h282q23 0 38.5 15.5t15.5 37.5v1139q0 23 -15.5 38t-38.5 15h-282q-24 0 -40 -15t-16 -38v-1139z" />
<glyph unicode="R" d="M143 27v1421q0 12 7.5 19.5t19.5 7.5h422q88 0 151.5 -63t63.5 -152v-416q0 -67 -37.5 -121.5t-97.5 -79.5l147 -616q3 -12 0 -19t-7 -8h-5h-111q-2 0 -5 0.5t-9.5 7.5t-9.5 19l-148 602h-243v-602q0 -12 -7 -19.5t-18 -7.5h-86q-12 0 -19.5 7.5t-7.5 19.5zM281 750h333 q23 0 38.5 15.5t15.5 37.5v491q0 22 -15.5 38t-38.5 16h-333v-598z" />
<glyph unicode="S" horiz-adv-x="888" d="M113 207v227q0 12 7.5 19.5t18.5 7.5h86q12 0 19.5 -7.5t7.5 -19.5v-270q0 -22 15.5 -37.5t37.5 -15.5h281q22 0 37.5 15.5t15.5 37.5v485q0 22 -15.5 37.5t-37.5 15.5h-256q-89 0 -153 63.5t-64 152.5v350q0 90 63.5 152.5t153.5 62.5h223q88 0 151.5 -62.5t63.5 -152.5 v-135q0 -12 -7.5 -19.5t-19.5 -7.5h-86q-11 0 -18.5 7.5t-7.5 19.5v170q0 23 -15.5 38t-38.5 15h-270q-22 0 -37.5 -15t-15.5 -38v-429q0 -22 15.5 -37.5t37.5 -15.5h256q90 0 152.5 -62.5t62.5 -152.5v-399q0 -91 -63 -154t-152 -63h-231q-90 0 -153.5 63.5t-63.5 153.5z " />
<glyph unicode="T" horiz-adv-x="884" d="M102 1372v76q0 12 8 19.5t19 7.5h627q11 0 18.5 -7.5t7.5 -19.5v-76q0 -10 -7.5 -17t-18.5 -7h-248v-1321q0 -12 -7 -19.5t-18 -7.5h-84q-11 0 -17.5 7.5t-6.5 19.5v1321h-246q-11 0 -19 7t-8 17z" />
<glyph unicode="U" horiz-adv-x="950" d="M143 207v1241q0 12 7.5 19.5t19.5 7.5h86q11 0 18 -7.5t7 -19.5v-1284q0 -22 16 -37.5t39 -15.5h278q23 0 38.5 15.5t15.5 37.5v1284q0 12 7.5 19.5t18.5 7.5h86q12 0 19.5 -7.5t7.5 -19.5v-1241q0 -90 -63.5 -153.5t-151.5 -63.5h-234q-88 0 -151.5 63.5t-63.5 153.5z " />
<glyph unicode="V" horiz-adv-x="925" d="M104 1448q-2 12 2.5 19t9.5 7l5 1h100q2 0 5.5 -0.5t9.5 -7.5t8 -19l219 -1333l219 1333q2 12 7.5 19t10.5 7l5 1h100q2 0 5.5 -0.5t8 -7.5t2.5 -19l-246 -1421q-2 -12 -9 -19t-13 -8h-6h-168q-25 0 -29 27z" />
<glyph unicode="W" horiz-adv-x="1431" d="M104 1448q-2 12 2.5 19t9.5 7l5 1h100q2 0 5.5 -0.5t9.5 -7.5t8 -19l219 -1333l188 1333q2 12 7.5 19t10.5 7l5 1h84q2 0 5 -0.5t9 -7.5t8 -19l189 -1333l219 1333q2 12 7.5 19t10.5 7l4 1h101q2 0 5.5 -0.5t8 -7.5t2.5 -19l-246 -1421q-2 -12 -9 -18.5t-13 -7.5l-6 -1 h-166q-25 0 -29 27l-143 989l-142 -989q-2 -12 -9 -19t-13 -8h-6h-166q-25 0 -29 27z" />
<glyph unicode="X" horiz-adv-x="858" d="M84.5 8q-4.5 6 1.5 19l260 733l-246 688q-3 13 -0.5 19t6.5 7l5 1h108q19 0 29 -27l180 -512l182 512q4 12 11.5 19t12.5 7l5 1h109q2 0 4.5 -1t6.5 -7t-1 -19l-246 -688l260 -733q4 -13 2 -19t-7 -7l-5 -1h-105q-18 0 -28 27l-201 557l-199 -557q-4 -12 -11 -18.5 t-12 -7.5l-5 -1h-105q-2 0 -4.5 1t-7 7z" />
<glyph unicode="Y" horiz-adv-x="874" d="M85 1467q2 6 7 7l4 1h99q2 0 5 -0.5t10 -7.5t11 -19l217 -711l215 711q4 12 10.5 19t11.5 7l5 1h98q2 0 5 -0.5t7 -7.5t1 -19l-285 -926v-495q0 -12 -7.5 -19.5t-19.5 -7.5h-84q-11 0 -18.5 7.5t-7.5 19.5v495l-283 926q-3 13 -1 19z" />
<glyph unicode="Z" horiz-adv-x="868" d="M123 27v100l487 1221h-460q-12 0 -19.5 6.5t-7.5 17.5v76q0 12 7.5 19.5t19.5 7.5h571q11 0 17.5 -7.5t6.5 -19.5v-100l-485 -1221h461q11 0 17.5 -7.5t6.5 -19.5v-73q0 -12 -6.5 -19.5t-17.5 -7.5h-571q-12 0 -19.5 7.5t-7.5 19.5z" />
<glyph unicode="[" horiz-adv-x="573" d="M143 -168v1810q0 11 7.5 18t19.5 7h287q10 0 17 -7t7 -18v-75q0 -11 -7 -19t-17 -8h-176v-1614h176q24 0 24 -26v-68q0 -11 -7 -19t-17 -8h-287q-12 0 -19.5 8t-7.5 19z" />
<glyph unicode="\" horiz-adv-x="729" d="M93 1467q1 6 4 7l3 1h111q25 0 31 -27l391 -1421q3 -13 2 -19t-5 -7l-3 -1h-105q-24 0 -30 27l-398 1421q-2 13 -1 19z" />
<glyph unicode="]" horiz-adv-x="573" d="M92 -100q0 12 7 19t18 7h176v1614h-176q-10 0 -17.5 8t-7.5 19v75q0 10 7 17.5t18 7.5h286q12 0 19.5 -7t7.5 -18v-1810q0 -11 -7.5 -19t-19.5 -8h-286q-10 0 -17.5 8t-7.5 19v68z" />
<glyph unicode="^" horiz-adv-x="606" d="M115 1474q-4 6 4 19l125 248q5 12 12.5 18.5t12.5 6.5l5 1h58q16 1 28 -26l127 -248q6 -13 4 -19t-7 -7l-5 -1h-37l-141 185l-139 -185h-35q-2 0 -5 1t-7 7z" />
<glyph unicode="_" horiz-adv-x="1011" d="M102 27v73q0 12 7.5 19.5t19.5 7.5h756q11 0 17.5 -7.5t6.5 -19.5v-73q0 -12 -6.5 -19.5t-17.5 -7.5h-756q-12 0 -19.5 7.5t-7.5 19.5z" />
<glyph unicode="`" horiz-adv-x="411" d="M121 1741q-16 25 0 26h74q18 1 28 -26l70 -156q5 -13 3.5 -19t-5.5 -6l-4 -1h-37z" />
<glyph unicode="a" horiz-adv-x="925" d="M104 27l246 1421q2 12 9 19t13 7l7 1h168q24 0 28 -27l246 -1421q2 -12 -2 -18.5t-9 -7.5l-5 -1h-100q-2 0 -5.5 0.5t-9.5 7.5t-8 19l-39 233h-362l-37 -233q-2 -12 -7.5 -18.5t-10.5 -7.5l-5 -1h-100q-2 0 -5.5 0.5t-8.5 7.5t-3 19zM301 387h322l-160 973z" />
<glyph unicode="b" horiz-adv-x="929" d="M143 27v1421q0 12 7.5 19.5t19.5 7.5h385q88 0 151.5 -63t63.5 -152v-398q0 -44 -20 -92q57 -64 57 -145v-410q0 -89 -63.5 -152t-151.5 -63h-422q-12 0 -19.5 7.5t-7.5 19.5zM281 119h333q23 0 38.5 16t15.5 39v461q0 21 -13 35.5t-34 17.5h-340v-569zM281 801h303 q21 1 34 16t13 37v440q0 22 -15 38t-38 16h-297v-547z" />
<glyph unicode="c" horiz-adv-x="909" d="M133 207v1061q0 90 63.5 152.5t151.5 62.5h223q90 0 152.5 -62.5t62.5 -152.5v-135q0 -12 -6.5 -19.5t-17.5 -7.5h-86q-12 0 -19.5 7.5t-7.5 19.5v170q0 23 -15.5 38t-37.5 15h-270q-24 0 -40 -15t-16 -38v-1139q0 -22 16.5 -37.5t39.5 -15.5h278q23 0 38 15.5t15 37.5 v270q0 12 8 19.5t19 7.5h86q12 0 19.5 -7.5t7.5 -19.5v-227q0 -90 -63.5 -153.5t-151.5 -63.5h-234q-88 0 -151.5 63.5t-63.5 153.5z" />
<glyph unicode="d" horiz-adv-x="940" d="M143 27v1421q0 12 7.5 19.5t19.5 7.5h422q88 0 151.5 -63t63.5 -152v-1045q0 -89 -63.5 -152t-151.5 -63h-422q-12 0 -19.5 7.5t-7.5 19.5zM281 127h333q23 0 38.5 15.5t15.5 37.5v1114q0 22 -15.5 38t-38.5 16h-333v-1221z" />
<glyph unicode="e" horiz-adv-x="899" d="M143 27v1421q0 12 7.5 19.5t19.5 7.5h559q11 0 19 -7.5t8 -19.5v-76q0 -12 -8 -19t-19 -7h-448v-506h374q11 0 19 -7.5t8 -17.5v-76q0 -10 -8 -18t-19 -8h-374v-586h460q11 0 18 -7.5t7 -19.5v-73q0 -12 -7 -19.5t-18 -7.5h-571q-12 0 -19.5 7.5t-7.5 19.5z" />
<glyph unicode="f" horiz-adv-x="847" d="M143 27v1421q0 12 7.5 19.5t19.5 7.5h559q11 0 19 -7.5t8 -19.5v-76q0 -12 -8 -19t-19 -7h-448v-506h374q11 0 19 -7.5t8 -17.5v-76q0 -10 -8 -18t-19 -8h-374v-686q0 -12 -7 -19.5t-18 -7.5h-86q-12 0 -19.5 7.5t-7.5 19.5z" />
<glyph unicode="g" horiz-adv-x="915" d="M133 207v1061q0 90 63.5 152.5t151.5 62.5h217q90 0 153.5 -62.5t63.5 -152.5v-135q0 -12 -7.5 -19.5t-18.5 -7.5h-86q-11 0 -19 7.5t-8 19.5v170q0 23 -15 38t-38 15h-264q-24 0 -40 -15t-16 -38v-1139q0 -22 16.5 -37.5t39.5 -15.5h276q22 0 37.5 15.5t15.5 37.5v426 h-190q-11 0 -19 7t-8 19v74q0 12 8 19.5t19 7.5h303q11 0 18 -7.5t7 -19.5v-483q0 -90 -63.5 -153.5t-151.5 -63.5h-230q-88 0 -151.5 63.5t-63.5 153.5z" />
<glyph unicode="h" horiz-adv-x="964" d="M143 27v1421q0 12 7.5 19.5t19.5 7.5h86q11 0 18 -7.5t7 -19.5v-608h403v608q0 12 7 19.5t18 7.5h88q11 0 17.5 -7.5t6.5 -19.5v-1421q0 -12 -6.5 -19.5t-17.5 -7.5h-88q-11 0 -18 7.5t-7 19.5v686h-403v-686q0 -12 -7 -19.5t-18 -7.5h-86q-12 0 -19.5 7.5t-7.5 19.5z " />
<glyph unicode="i" horiz-adv-x="423" d="M143 27v1421q0 12 7.5 19.5t19.5 7.5h86q11 0 18 -7.5t7 -19.5v-1421q0 -12 -7 -19.5t-18 -7.5h-86q-12 0 -19.5 7.5t-7.5 19.5z" />
<glyph unicode="j" horiz-adv-x="864" d="M82 207v227q0 12 7.5 19.5t19.5 7.5h81q11 0 19 -7.5t8 -19.5v-270q0 -22 15 -37.5t38 -15.5h260q22 0 38 15.5t16 37.5v1284q0 12 6.5 19.5t17.5 7.5h88q11 0 18 -7.5t7 -19.5v-1241q0 -90 -63.5 -153.5t-151.5 -63.5h-209q-88 0 -151.5 63.5t-63.5 153.5z" />
<glyph unicode="k" d="M143 27v1421q0 12 7.5 19.5t19.5 7.5h86q11 0 18 -7.5t7 -19.5v-692l397 692q14 27 33 27h94q3 0 6 -1t8 -7t-4 -19l-317 -569l350 -852q4 -13 1.5 -19t-7.5 -7l-6 -1h-105q-14 0 -26 27l-302 702l-122 -197v-505q0 -12 -7 -19.5t-18 -7.5h-86q-12 0 -19.5 7.5t-7.5 19.5 z" />
<glyph unicode="l" horiz-adv-x="858" d="M143 27v1421q0 12 7.5 19.5t19.5 7.5h86q11 0 18 -7.5t7 -19.5v-1321h460q11 0 18 -7.5t7 -19.5v-73q0 -12 -7 -19.5t-18 -7.5h-571q-12 0 -19.5 7.5t-7.5 19.5z" />
<glyph unicode="m" horiz-adv-x="1218" d="M143 27v1421q0 12 7.5 19.5t19.5 7.5h74q22 0 32 -27l334 -746l334 746q5 12 13 19t13 7l5 1h76q11 0 17.5 -7.5t6.5 -19.5v-1421q0 -12 -6.5 -19.5t-17.5 -7.5h-86q-11 0 -18 7.5t-7 19.5v1110l-330 -723l-331 723v-1110q0 -12 -7 -19.5t-18 -7.5h-84q-12 0 -19.5 7.5 t-7.5 19.5z" />
<glyph unicode="n" horiz-adv-x="964" d="M143 27v1421q0 12 7.5 19.5t19.5 7.5h80q19 0 29 -27l407 -1061v1061q0 12 7 19.5t18 7.5h86q11 0 17.5 -7.5t6.5 -19.5v-1421q0 -12 -6.5 -19.5t-17.5 -7.5h-74q-21 0 -31 27l-413 1056v-1056q0 -12 -7 -19.5t-18 -7.5h-84q-12 0 -19.5 7.5t-7.5 19.5z" />
<glyph unicode="o" d="M133 207v1061q0 90 63.5 152.5t151.5 62.5h236q90 0 153.5 -62.5t63.5 -152.5v-1061q0 -90 -63.5 -153.5t-153.5 -63.5h-236q-88 0 -151.5 63.5t-63.5 153.5zM270 164q0 -22 16.5 -37.5t39.5 -15.5h282q23 0 38.5 15.5t15.5 37.5v1139q0 23 -15.5 38t-38.5 15h-282 q-24 0 -40 -15t-16 -38v-1139z" />
<glyph unicode="p" horiz-adv-x="929" d="M143 27v1421q0 12 7.5 19.5t19.5 7.5h422q88 0 151.5 -63t63.5 -152v-414q0 -89 -63.5 -152t-151.5 -63h-311v-604q0 -12 -7 -19.5t-18 -7.5h-86q-12 0 -19.5 7.5t-7.5 19.5zM281 745h333q23 0 38.5 16t15.5 38v495q0 22 -15.5 38t-38.5 16h-333v-603z" />
<glyph unicode="q" d="M133 207v1061q0 90 63.5 152.5t151.5 62.5h236q90 0 153.5 -62.5t63.5 -152.5v-1061q0 -90 -63.5 -153.5t-153.5 -63.5h-47v-129q0 -12 -7.5 -19.5t-19.5 -7.5h-88q-11 0 -18 7.5t-7 19.5v129h-49q-88 0 -151.5 63.5t-63.5 153.5zM270 164q0 -22 16.5 -37.5t39.5 -15.5 h282q23 0 38.5 15.5t15.5 37.5v1139q0 23 -15.5 38t-38.5 15h-282q-24 0 -40 -15t-16 -38v-1139z" />
<glyph unicode="r" d="M143 27v1421q0 12 7.5 19.5t19.5 7.5h422q88 0 151.5 -63t63.5 -152v-416q0 -67 -37.5 -121.5t-97.5 -79.5l147 -616q3 -12 0 -19t-7 -8h-5h-111q-2 0 -5 0.5t-9.5 7.5t-9.5 19l-148 602h-243v-602q0 -12 -7 -19.5t-18 -7.5h-86q-12 0 -19.5 7.5t-7.5 19.5zM281 750h333 q23 0 38.5 15.5t15.5 37.5v491q0 22 -15.5 38t-38.5 16h-333v-598z" />
<glyph unicode="s" horiz-adv-x="888" d="M113 207v227q0 12 7.5 19.5t18.5 7.5h86q12 0 19.5 -7.5t7.5 -19.5v-270q0 -22 15.5 -37.5t37.5 -15.5h281q22 0 37.5 15.5t15.5 37.5v485q0 22 -15.5 37.5t-37.5 15.5h-256q-89 0 -153 63.5t-64 152.5v350q0 90 63.5 152.5t153.5 62.5h223q88 0 151.5 -62.5t63.5 -152.5 v-135q0 -12 -7.5 -19.5t-19.5 -7.5h-86q-11 0 -18.5 7.5t-7.5 19.5v170q0 23 -15.5 38t-38.5 15h-270q-22 0 -37.5 -15t-15.5 -38v-429q0 -22 15.5 -37.5t37.5 -15.5h256q90 0 152.5 -62.5t62.5 -152.5v-399q0 -91 -63 -154t-152 -63h-231q-90 0 -153.5 63.5t-63.5 153.5z " />
<glyph unicode="t" horiz-adv-x="884" d="M102 1372v76q0 12 8 19.5t19 7.5h627q11 0 18.5 -7.5t7.5 -19.5v-76q0 -10 -7.5 -17t-18.5 -7h-248v-1321q0 -12 -7 -19.5t-18 -7.5h-84q-11 0 -17.5 7.5t-6.5 19.5v1321h-246q-11 0 -19 7t-8 17z" />
<glyph unicode="u" horiz-adv-x="950" d="M143 207v1241q0 12 7.5 19.5t19.5 7.5h86q11 0 18 -7.5t7 -19.5v-1284q0 -22 16 -37.5t39 -15.5h278q23 0 38.5 15.5t15.5 37.5v1284q0 12 7.5 19.5t18.5 7.5h86q12 0 19.5 -7.5t7.5 -19.5v-1241q0 -90 -63.5 -153.5t-151.5 -63.5h-234q-88 0 -151.5 63.5t-63.5 153.5z " />
<glyph unicode="v" horiz-adv-x="925" d="M104 1448q-2 12 2.5 19t9.5 7l5 1h100q2 0 5.5 -0.5t9.5 -7.5t8 -19l219 -1333l219 1333q2 12 7.5 19t10.5 7l5 1h100q2 0 5.5 -0.5t8 -7.5t2.5 -19l-246 -1421q-2 -12 -9 -19t-13 -8h-6h-168q-25 0 -29 27z" />
<glyph unicode="w" horiz-adv-x="1431" d="M104 1448q-2 12 2.5 19t9.5 7l5 1h100q2 0 5.5 -0.5t9.5 -7.5t8 -19l219 -1333l188 1333q2 12 7.5 19t10.5 7l5 1h84q2 0 5 -0.5t9 -7.5t8 -19l189 -1333l219 1333q2 12 7.5 19t10.5 7l4 1h101q2 0 5.5 -0.5t8 -7.5t2.5 -19l-246 -1421q-2 -12 -9 -18.5t-13 -7.5l-6 -1 h-166q-25 0 -29 27l-143 989l-142 -989q-2 -12 -9 -19t-13 -8h-6h-166q-25 0 -29 27z" />
<glyph unicode="x" horiz-adv-x="858" d="M84.5 8q-4.5 6 1.5 19l260 733l-246 688q-3 13 -0.5 19t6.5 7l5 1h108q19 0 29 -27l180 -512l182 512q4 12 11.5 19t12.5 7l5 1h109q2 0 4.5 -1t6.5 -7t-1 -19l-246 -688l260 -733q4 -13 2 -19t-7 -7l-5 -1h-105q-18 0 -28 27l-201 557l-199 -557q-4 -12 -11 -18.5 t-12 -7.5l-5 -1h-105q-2 0 -4.5 1t-7 7z" />
<glyph unicode="y" horiz-adv-x="874" d="M85 1467q2 6 7 7l4 1h99q2 0 5 -0.5t10 -7.5t11 -19l217 -711l215 711q4 12 10.5 19t11.5 7l5 1h98q2 0 5 -0.5t7 -7.5t1 -19l-285 -926v-495q0 -12 -7.5 -19.5t-19.5 -7.5h-84q-11 0 -18.5 7.5t-7.5 19.5v495l-283 926q-3 13 -1 19z" />
<glyph unicode="z" horiz-adv-x="868" d="M123 27v100l487 1221h-460q-12 0 -19.5 6.5t-7.5 17.5v76q0 12 7.5 19.5t19.5 7.5h571q11 0 17.5 -7.5t6.5 -19.5v-100l-485 -1221h461q11 0 17.5 -7.5t6.5 -19.5v-73q0 -12 -6.5 -19.5t-17.5 -7.5h-571q-12 0 -19.5 7.5t-7.5 19.5z" />
<glyph unicode="{" horiz-adv-x="641" d="M133 721l111 287v444q0 90 63.5 152.5t153.5 62.5h61q12 0 19.5 -7t7.5 -18v-75q0 -11 -7.5 -19t-19.5 -8h-86q-22 0 -37.5 -15t-15.5 -38v-479l-102 -287l102 -287v-454q0 -22 15.5 -38t37.5 -16h86q27 0 27 -26v-68q0 -11 -7.5 -19t-19.5 -8h-61q-89 0 -153 63.5 t-64 154.5v411z" />
<glyph unicode="|" horiz-adv-x="423" d="M143 -186v1847q0 11 7.5 18t19.5 7h86q10 0 17.5 -7t7.5 -18v-1847q0 -11 -7.5 -19t-17.5 -8h-86q-12 0 -19.5 8t-7.5 19z" />
<glyph unicode="}" horiz-adv-x="641" d="M92 -100q0 26 27 26h86q22 0 37.5 16t15.5 38v454l102 287l-102 287v479q0 23 -15.5 38t-37.5 15h-86q-12 0 -19.5 8t-7.5 19v75q0 11 7.5 18t19.5 7h61q90 0 153.5 -62.5t63.5 -152.5v-444l111 -287l-111 -287v-411q0 -91 -63.5 -154.5t-153.5 -63.5h-61q-12 0 -19.5 8 t-7.5 19v68z" />
<glyph unicode="~" horiz-adv-x="944" d="M105.5 748.5q2.5 10.5 11.5 15.5l65 39q9 5 20 1.5t17 -13.5l37 -66q12 -20 34.5 -26t39.5 6l196 112q75 43 162.5 20t130.5 -98l17 -28q12 -22 -9 -35l-67 -41q-7 -3 -18 0.5t-15 11.5l-35 55q-12 21 -33 27.5t-41 -4.5l-194 -113q-77 -45 -163 -22t-130 100l-22 37 q-6 11 -3.5 21.5z" />
<glyph unicode="&#xa1;" horiz-adv-x="421" d="M143 27v1190q0 12 7 19t18 7h86q11 0 18 -7t7 -19v-1190q0 -12 -7 -19.5t-18 -7.5h-86q-11 0 -18 7.5t-7 19.5zM143 1356v92q0 12 7 19.5t18 7.5h86q11 0 18 -7.5t7 -19.5v-92q0 -10 -7.5 -17.5t-17.5 -7.5h-86q-10 0 -17.5 7.5t-7.5 17.5z" />
<glyph unicode="&#xa2;" horiz-adv-x="905" d="M133 311v836q0 89 63.5 152t151.5 63h60v86q0 27 26 27h49q11 0 19 -7.5t8 -19.5v-86h57q89 0 153 -63t64 -152v-137q0 -10 -7.5 -17.5t-18.5 -7.5h-86q-11 0 -19 7.5t-8 17.5v172q0 22 -15.5 37.5t-37.5 15.5h-266q-23 0 -39.5 -15.5t-16.5 -37.5v-914q0 -22 16.5 -37.5 t39.5 -15.5h276q22 0 37.5 15.5t15.5 37.5v273q0 10 7 17t18 7h88q11 0 18 -7t7 -17v-230q0 -89 -63.5 -152t-151.5 -63h-70v-69q0 -12 -8 -19.5t-19 -7.5h-49q-11 0 -18.5 7.5t-7.5 19.5v69h-58q-88 0 -151.5 63t-63.5 152z" />
<glyph unicode="&#xa3;" horiz-adv-x="968" d="M102 0v119h13q23 0 38 16t15 39v479h-39q-12 0 -19.5 8t-7.5 19v76q0 11 7.5 18.5t19.5 7.5h39v486q0 90 63.5 152.5t153.5 62.5h219q88 0 151.5 -62.5t63.5 -152.5v-135q0 -27 -26 -27h-86q-11 0 -18 7.5t-7 19.5v188q0 23 -16 38t-39 15h-267q-22 0 -37.5 -15 t-15.5 -38v-539h393q10 0 17.5 -7.5t7.5 -18.5v-76q0 -11 -7.5 -19t-17.5 -8h-393v-534h383q37 0 37 28v56q0 11 7.5 18.5t19.5 7.5h86q10 0 18 -7.5t8 -18.5v-25q0 -86 -61.5 -132t-155.5 -46h-547z" />
<glyph unicode="&#xa4;" horiz-adv-x="905" d="M134 470.5q0 11.5 7 18.5l39 39q-28 42 -28 95v170q0 26 7 49.5t14 33.5l7 11l-37 37q-9 9 -8.5 21t8.5 20l56 53q16 16 34 -2l39 -37q40 29 95 29h172q24 0 47.5 -7t35.5 -15l11 -7l39 37q18 18 35 2l55 -53q8 -8 8.5 -20t-8.5 -21l-37 -37q29 -35 29 -94v-170 q0 -24 -7 -47.5t-15 -35.5l-7 -12l39 -39q8 -7 8 -18.5t-8 -17.5l-53 -56q-8 -8 -20 -8.5t-21 8.5l-37 37q-33 -28 -94 -28h-172q-27 0 -51 7t-34 14l-10 7l-36 -37q-9 -9 -21 -8.5t-20 8.5l-54 56q-7 6 -7 17.5zM291 580q0 -22 15.5 -38t37.5 -16h217q22 0 37.5 16t15.5 38 v247q1 24 -14 38t-39 16h-217q-24 -2 -39 -16t-14 -38v-247z" />
<glyph unicode="&#xa5;" horiz-adv-x="915" d="M85 1467q2 6 7 7l4 1h99q2 0 5 -0.5t10 -7.5t11 -19l217 -711l215 711q4 12 10.5 19t11.5 7l5 1h98q2 0 5 -0.5t7 -7.5t1 -19l-250 -813h200q12 0 19.5 -8t7.5 -19v-76q0 -11 -7.5 -18.5t-19.5 -7.5h-235v-129h235q12 0 19.5 -8t7.5 -19v-76q0 -11 -7.5 -18.5t-19.5 -7.5 h-235v-221q0 -12 -7.5 -19.5t-19.5 -7.5h-84q-11 0 -18.5 7.5t-7.5 19.5v221h-199q-10 0 -17.5 7.5t-7.5 18.5v76q0 11 7.5 19t17.5 8h199v129h-199q-10 0 -17.5 7.5t-7.5 18.5v76q0 11 7.5 19t17.5 8h164l-248 813q-3 13 -1 19z" />
<glyph unicode="&#xa6;" horiz-adv-x="423" d="M143 -186v778q0 11 7.5 17.5t19.5 6.5h86q11 0 18 -7t7 -17v-778q0 -11 -7.5 -19t-17.5 -8h-86q-12 0 -19.5 8t-7.5 19zM143 844v817q0 11 7.5 18t19.5 7h86q10 0 17.5 -7t7.5 -18v-817q0 -10 -7.5 -17.5t-17.5 -7.5h-86q-12 0 -19.5 7t-7.5 18z" />
<glyph unicode="&#xa7;" horiz-adv-x="950" d="M113 1067v238q0 90 63.5 152.5t151.5 62.5h256q90 0 153.5 -62.5t63.5 -152.5v-136q0 -12 -8 -19t-19 -7h-86q-11 0 -18.5 7t-7.5 19v170q0 23 -16 38.5t-38 15.5h-303q-23 0 -39 -15.5t-16 -38.5v-241q0 -20 13.5 -35.5t33.5 -18.5h287q89 0 153 -63t64 -152v-186 q0 -43 -21 -90q58 -65 58 -145v-238q0 -90 -63.5 -153.5t-153.5 -63.5h-256q-88 0 -151.5 63.5t-63.5 153.5v135q0 27 26 27h86q11 0 18 -7.5t7 -19.5v-133q0 -23 16 -38t39 -15h303q22 0 37.5 15t15.5 38v205q0 37 -39 51h-297q-88 0 -151.5 63t-63.5 152v186q0 42 21 93 q-55 61 -55 145zM287 598q0 -22 15 -36.5t38 -14.5h283q39 0 39 51v266q0 22 -16 38t-38 16h-268q-23 0 -38 -16t-15 -38v-266z" />
<glyph unicode="&#xa8;" horiz-adv-x="765" d="M113 1636q0 36 25 61t61 25t61 -25t25 -61q0 -35 -25.5 -60.5t-60.5 -25.5t-60.5 25.5t-25.5 60.5zM481 1636q0 36 25 61t61 25t61 -25t25 -61q0 -35 -25.5 -60.5t-60.5 -25.5t-60.5 25.5t-25.5 60.5z" />
<glyph unicode="&#xa9;" horiz-adv-x="1658" d="M102 737q0 204 95.5 375.5t263 271t368.5 99.5q152 0 287 -58.5t231.5 -158.5t152.5 -238t56 -291q0 -204 -95 -375t-262.5 -270.5t-369.5 -99.5q-201 0 -368.5 99.5t-263 270.5t-95.5 375zM225 737q0 -133 47 -249t127.5 -197.5t192 -128.5t237.5 -47q127 0 239 47 t193 128.5t128 197.5t47 249q0 177 -80 320t-219 223t-308 80q-126 0 -237.5 -47t-192 -129t-127.5 -198t-47 -249zM651 449v567q0 47 34 80.5t81 33.5h119q47 0 80.5 -33.5t33.5 -80.5v-74q0 -14 -12 -14h-47q-14 0 -14 14v92q0 12 -8.5 20.5t-20.5 8.5h-143 q-12 0 -21.5 -8.5t-9.5 -20.5v-608q0 -12 9.5 -20.5t21.5 -8.5h149q12 0 19.5 8.5t7.5 20.5v143q0 6 4.5 10.5t9.5 4.5h47q6 0 10.5 -4.5t4.5 -10.5v-120q0 -49 -34.5 -83t-80.5 -34h-125q-48 0 -81.5 34t-33.5 83z" />
<glyph unicode="&#xaa;" horiz-adv-x="548" d="M78 702l131 760q1 5 5 8.5t8 3.5l3 1h90q13 -1 15 -13l131 -760q1 -6 -1 -9.5t-4 -4.5h-3h-54q-10 0 -12 14l-20 125h-195l-18 -125q-2 -6 -5 -9.5t-5 -4.5h-3h-53q-1 0 -3 0.5t-5 4t-2 9.5zM182 895h172l-84 520z" />
<glyph unicode="&#xab;" horiz-adv-x="667" d="M90 694q-16 26 0 51l146 256q6 11 14 17.5t13 7.5h5h109q2 0 4 -1t5 -6.5t-5 -17.5l-156 -280l156 -281q6 -13 5 -19t-5 -7h-4h-109q-18 -1 -32 26zM287 694q-16 26 0 51l145 256q7 11 16 17.5t14 7.5h5h108q2 0 4.5 -1t5 -6.5t-6.5 -17.5l-156 -280l156 -281 q7 -13 6.5 -19t-4.5 -7h-5h-108q-19 -1 -35 26z" />
<glyph unicode="&#xac;" horiz-adv-x="1069" d="M123 698v76q0 11 7.5 19t19.5 8h772q10 0 17 -8t7 -19v-342q0 -26 -24 -26h-76q-11 0 -19 7t-8 19v240h-669q-12 0 -19.5 7.5t-7.5 18.5z" />
<glyph unicode="&#xad;" horiz-adv-x="868" d="M123 680v76q0 11 7.5 18.5t19.5 7.5h571q10 0 17 -7.5t7 -18.5v-76q0 -11 -7 -19t-17 -8h-571q-12 0 -19.5 8t-7.5 19z" />
<glyph unicode="&#xae;" horiz-adv-x="1658" d="M102 737q0 204 95.5 375.5t263 271t368.5 99.5q152 0 287 -58.5t231.5 -158.5t152.5 -238t56 -291q0 -204 -95 -375t-262.5 -270.5t-369.5 -99.5q-201 0 -368.5 99.5t-263 270.5t-95.5 375zM225 737q0 -133 47 -249t127.5 -197.5t192 -128.5t237.5 -47q127 0 239 47 t193 128.5t128 197.5t47 249q0 177 -80 320t-219 223t-308 80q-126 0 -237.5 -47t-192 -129t-127.5 -198t-47 -249zM662 352v760q0 12 14 12h225q47 0 81 -33.5t34 -80.5v-222q0 -36 -20 -65t-52 -41l80 -330q1 -6 -1 -9.5t-5 -4.5h-2h-58q-10 0 -14 14l-78 322h-131v-322 q0 -14 -12 -14h-47q-14 0 -14 14zM735 737h178q12 0 20.5 9t8.5 20v262q0 12 -8.5 20.5t-20.5 8.5h-178v-320z" />
<glyph unicode="&#xaf;" horiz-adv-x="847" d="M113 1604v8q0 26 26 26h572q24 0 24 -26v-8q0 -11 -7 -19t-17 -8h-572q-12 0 -19 8t-7 19z" />
<glyph unicode="&#xb0;" horiz-adv-x="577" d="M102 1405q0 77 54.5 131.5t132.5 54.5q77 0 131.5 -54.5t54.5 -131.5q0 -78 -54.5 -132t-131.5 -54q-78 0 -132.5 54t-54.5 132zM141 1405q0 -61 41.5 -104.5t106.5 -43.5t106 43t41 105q0 61 -41 104t-106 43t-106.5 -43t-41.5 -104z" />
<glyph unicode="&#xb1;" horiz-adv-x="868" d="M123 289v76q0 11 7.5 18.5t19.5 7.5h571q10 0 17 -7.5t7 -18.5v-76q0 -11 -7 -18t-17 -7h-571q-12 0 -19.5 7t-7.5 18zM123 827v76q0 11 7.5 19t19.5 8h221v221q0 11 7 18t17 7h76q11 0 19 -7.5t8 -17.5v-221h223q10 0 17 -8t7 -19v-76q0 -11 -7 -18.5t-17 -7.5h-223 v-221q0 -12 -8 -19.5t-19 -7.5h-76q-11 0 -17.5 7.5t-6.5 19.5v221h-221q-12 0 -19.5 7.5t-7.5 18.5z" />
<glyph unicode="&#xb2;" horiz-adv-x="643" d="M139 696v54q11 18 30 49t67.5 113t85.5 148t67.5 129t30.5 83v106q0 12 -8.5 20.5t-20.5 8.5h-139q-12 0 -20.5 -8.5t-8.5 -20.5v-82q0 -14 -14 -14h-47q-12 0 -12 14v64q0 47 33.5 81t80.5 34h115q47 0 81 -34t34 -81v-88q0 -31 -69 -161.5t-139 -245.5l-69 -115h264 q13 0 13 -15v-39q0 -14 -13 -14h-327q-15 0 -15 14z" />
<glyph unicode="&#xb3;" horiz-adv-x="641" d="M139 1296v64q0 47 34 81t81 34h125q46 0 80.5 -34t34.5 -81v-207q0 -36 -21 -63q21 -27 21 -64v-233q0 -49 -34.5 -83t-80.5 -34h-123q-48 0 -81.5 34t-33.5 83v63q0 14 13 14h47q14 0 14 -14v-86q0 -12 8 -20.5t19 -8.5h149q12 0 19.5 8.5t7.5 20.5v254q0 12 -7.5 20.5 t-19.5 8.5h-67q-11 4 -11 14v41q0 5 4.5 8.5t10.5 3.5h63q12 0 19.5 9t7.5 20v229q0 12 -7.5 20.5t-19.5 8.5h-149q-12 0 -21.5 -8.5t-9.5 -20.5v-82q0 -14 -12 -14h-45q-15 0 -15 14z" />
<glyph unicode="&#xb4;" horiz-adv-x="448" d="M154 1562q-5 6 2 23l69 156q4 12 11.5 18.5t12.5 6.5l5 1h72l7 -3q4 -6 -7 -23l-129 -182h-35z" />
<glyph unicode="&#xb5;" horiz-adv-x="950" d="M143 -281v1729q0 12 7.5 19.5t19.5 7.5h86q11 0 18 -7.5t7 -19.5v-1290q1 -20 17 -33.5t38 -13.5h278q23 0 38.5 15.5t15.5 37.5v1284q0 12 7.5 19.5t18.5 7.5h86q12 0 19.5 -7.5t7.5 -19.5v-1421q0 -12 -7 -19.5t-18 -7.5h-501v-281q0 -12 -7 -19t-18 -7h-86 q-27 0 -27 26z" />
<glyph unicode="&#xb6;" horiz-adv-x="1148" d="M143 844v416q0 89 63.5 152t151.5 63h631q11 0 19 -7.5t8 -19.5v-113q0 -10 -8 -17t-19 -7h-24v-1284q0 -12 -7 -19.5t-18 -7.5h-88q-11 0 -18 7.5t-7 19.5v1284h-61v-1284q0 -12 -7 -19.5t-18 -7.5h-88q-11 0 -17.5 7.5t-6.5 19.5v602h-271q-88 0 -151.5 63t-63.5 152z " />
<glyph unicode="&#xb7;" horiz-adv-x="348" d="M102 670v94q0 12 8 19.5t19 7.5h90q11 0 19 -7.5t8 -19.5v-94q0 -12 -8 -19.5t-19 -7.5h-90q-11 0 -19 7.5t-8 19.5z" />
<glyph unicode="&#xb8;" horiz-adv-x="413" d="M113 -88l61 115h68l-35 -66h43q20 0 35.5 -14.5t15.5 -34.5v-145q0 -21 -15.5 -36.5t-35.5 -15.5h-86q-22 0 -36.5 14.5t-14.5 34.5v27q0 25 24 25h8q10 0 17.5 -7t7.5 -18v-10q0 -5 4 -8.5t8 -3.5h47q5 0 9 4t4 10v111q0 4 -4 8t-9 4h-47q-4 0 -8 -4t-4 -8v-21h-57v39z " />
<glyph unicode="&#xb9;" horiz-adv-x="421" d="M139 1403v4l74 68h47q14 0 14 -13v-760q0 -14 -14 -14h-47q-5 0 -9.5 4t-4.5 10v689h-45q-15 0 -15 12z" />
<glyph unicode="&#xba;" horiz-adv-x="520" d="M78 793v567q0 47 34 81t81 34h124q47 0 82 -34t35 -81v-567q0 -49 -34.5 -83t-82.5 -34h-124q-48 0 -81.5 34t-33.5 83zM150 770q0 -12 9 -20.5t21 -8.5h152q12 0 19 8.5t7 20.5v608q0 12 -7 20.5t-19 8.5h-152q-12 0 -21 -8.5t-9 -20.5v-608z" />
<glyph unicode="&#xbb;" horiz-adv-x="667" d="M83.5 1018.5q0.5 5.5 4.5 6.5l4 1h109q19 0 35 -25l145 -256q16 -25 0 -51l-145 -254q-7 -12 -16 -18.5t-14 -7.5h-5h-109l-7 3q-5 6 5 23l156 281l-156 280q-7 12 -6.5 17.5zM282 1018.5q1 5.5 5 6.5l4 1h108q19 0 33 -25l146 -256q16 -25 0 -51l-146 -254 q-6 -12 -14.5 -18.5t-13.5 -7.5h-5h-108l-7 3q-6 6 3 23l155 281l-155 280q-6 12 -5 17.5z" />
<glyph unicode="&#xbc;" horiz-adv-x="1159" d="M139 1403v4l74 68h47q14 0 14 -13v-760q0 -14 -14 -14h-47q-5 0 -9.5 4t-4.5 10v689h-45q-15 0 -15 12zM172.5 100q-3.5 6 3.5 19l600 1218q6 12 14.5 18.5t13.5 7.5l5 1h74q2 0 4 -1t5 -7t-5 -19l-606 -1218q-5 -12 -13 -18.5t-13 -7.5l-5 -1h-68q-2 0 -4 1t-5.5 7z M637 162v55l219 557q2 5 5.5 8t6.5 4h2h64q6 1 10 -2.5t4 -9.5v-557h49q15 0 15 -14v-41q0 -12 -15 -12h-49v-136q0 -14 -14 -14h-47q-5 0 -9 4t-4 10v136h-223q-14 0 -14 12zM705 217h174v445z" />
<glyph unicode="&#xbd;" horiz-adv-x="1257" d="M139 1403v4l74 68h47q14 0 14 -13v-760q0 -14 -14 -14h-47q-5 0 -9.5 4t-4.5 10v689h-45q-15 0 -15 12zM172.5 100q-3.5 6 3.5 19l600 1218q6 12 14.5 18.5t13.5 7.5l5 1h74q2 0 4 -1t5 -7t-5 -19l-606 -1218q-5 -12 -13 -18.5t-13 -7.5l-5 -1h-68q-2 0 -4 1t-5.5 7z M754 14v54q11 18 30 49t67.5 113t85 148t67 129t30.5 83v106q0 12 -8 20.5t-20 8.5h-140q-12 0 -20 -8.5t-8 -20.5v-82q0 -14 -15 -14h-47q-12 0 -12 14v64q0 47 34 81t81 34h114q47 0 81 -34t34 -81v-88q0 -31 -69 -161.5t-139 -245.5l-69 -115h265q12 0 12 -15v-39 q0 -14 -12 -14h-328q-14 0 -14 14z" />
<glyph unicode="&#xbe;" horiz-adv-x="1341" d="M139 1296v64q0 47 34 81t81 34h125q46 0 80.5 -34t34.5 -81v-207q0 -36 -21 -63q21 -27 21 -64v-233q0 -49 -34.5 -83t-80.5 -34h-123q-48 0 -81.5 34t-33.5 83v63q0 14 13 14h47q14 0 14 -14v-86q0 -12 8 -20.5t19 -8.5h149q12 0 19.5 8.5t7.5 20.5v254q0 12 -7.5 20.5 t-19.5 8.5h-67q-11 4 -11 14v41q0 5 4.5 8.5t10.5 3.5h63q12 0 19.5 9t7.5 20v229q0 12 -7.5 20.5t-19.5 8.5h-149q-12 0 -21.5 -8.5t-9.5 -20.5v-82q0 -14 -12 -14h-45q-15 0 -15 14zM354.5 100q-3.5 6 3.5 19l600 1218q6 12 14.5 18.5t13.5 7.5l5 1h74q2 0 4 -1t5 -7 t-5 -19l-606 -1218q-5 -12 -13 -18.5t-13 -7.5l-5 -1h-67q-2 0 -4.5 1t-6 7zM819 162v55l219 557q2 5 5.5 8t6.5 4h3h63q6 1 10 -2.5t4 -9.5v-557h50q14 0 14 -14v-41q0 -12 -14 -12h-50v-136q0 -14 -14 -14h-47q-12 0 -12 14v136h-223q-15 0 -15 12zM887 217h174v445z" />
<glyph unicode="&#xbf;" horiz-adv-x="860" d="M102 215v436q0 89 64 152t153 63h3q22 0 37.5 16t15.5 38v305q0 26 24 26h86q11 0 18 -7t7 -19v-262q0 -90 -62.5 -152.5t-152.5 -62.5q-22 0 -37.5 -16t-15.5 -38v-514q0 -23 15.5 -38t37.5 -15h270q23 0 38 15t15 38v170q0 12 8 19.5t19 7.5h86q12 0 19.5 -7.5 t7.5 -19.5v-135q0 -90 -63.5 -152.5t-151.5 -62.5h-224q-90 0 -153.5 62.5t-63.5 152.5zM375 1364v92q0 12 6.5 19.5t17.5 7.5h86q11 0 18 -7.5t7 -19.5v-92q0 -10 -7 -17.5t-18 -7.5h-86q-10 0 -17 7t-7 18z" />
<glyph unicode="&#xc0;" horiz-adv-x="923" d="M104 27l246 1421q2 12 9 19t13 7l7 1h168q24 0 28 -27l246 -1421q2 -12 -2 -18.5t-9 -7.5l-5 -1h-100q-2 0 -5.5 0.5t-9.5 7.5t-8 19l-39 233h-362l-37 -233q-2 -12 -7.5 -18.5t-10.5 -7.5l-5 -1h-100q-2 0 -5.5 0.5t-8.5 7.5t-3 19zM301 387h322l-160 973zM301 1741 q-16 25 0 26h72q18 1 30 -26l70 -156q4 -13 2.5 -19t-5.5 -6l-5 -1h-35z" />
<glyph unicode="&#xc1;" horiz-adv-x="923" d="M104 27l246 1421q2 12 9 19t13 7l7 1h168q24 0 28 -27l246 -1421q2 -12 -2 -18.5t-9 -7.5l-5 -1h-100q-2 0 -5.5 0.5t-9.5 7.5t-8 19l-39 233h-362l-37 -233q-2 -12 -7.5 -18.5t-10.5 -7.5l-5 -1h-100q-2 0 -5.5 0.5t-8.5 7.5t-3 19zM301 387h322l-160 973zM444 1566.5 q-4 5.5 2 18.5l70 156q5 12 13 18.5t13 6.5l5 1h71l7 -3q4 -6 -7 -23l-129 -182h-34q-2 0 -4.5 1t-6.5 6.5z" />
<glyph unicode="&#xc2;" horiz-adv-x="923" d="M104 27l246 1421q2 12 9 19t13 7l7 1h168q24 0 28 -27l246 -1421q2 -12 -2 -18.5t-9 -7.5l-5 -1h-100q-2 0 -5.5 0.5t-9.5 7.5t-8 19l-39 233h-362l-37 -233q-2 -12 -7.5 -18.5t-10.5 -7.5l-5 -1h-100q-2 0 -5.5 0.5t-8.5 7.5t-3 19zM301 387h322l-160 973zM311.5 1572 q0.5 5 3.5 13l91 156q16 26 32 26h49q17 0 33 -26l90 -156q5 -13 3.5 -19t-5.5 -6l-4 -1h-35l-106 116l-107 -116h-34h-2t-3.5 1.5t-4 4t-1 7.5z" />
<glyph unicode="&#xc3;" horiz-adv-x="923" d="M104 27l246 1421q2 12 9 19t13 7l7 1h168q24 0 28 -27l246 -1421q2 -12 -2 -18.5t-9 -7.5l-5 -1h-100q-2 0 -5.5 0.5t-9.5 7.5t-8 19l-39 233h-362l-37 -233q-2 -12 -7.5 -18.5t-10.5 -7.5l-5 -1h-100q-2 0 -5.5 0.5t-8.5 7.5t-3 19zM256.5 1566.5q-4.5 5.5 7.5 18.5 l119 156q9 12 18.5 18.5t14.5 6.5l6 1h24l84 -106l91 106h53q3 0 6 -1t7.5 -6.5t-7.5 -18.5l-119 -156q-9 -12 -18.5 -18.5t-14.5 -6.5l-6 -1h-35l-73 112l-90 -112h-54q-3 0 -6 1t-7.5 6.5zM301 387h322l-160 973z" />
<glyph unicode="&#xc4;" horiz-adv-x="923" d="M104 27l246 1421q2 12 9 19t13 7l7 1h168q24 0 28 -27l246 -1421q2 -12 -2 -18.5t-9 -7.5l-5 -1h-100q-2 0 -5.5 0.5t-9.5 7.5t-8 19l-39 233h-362l-37 -233q-2 -12 -7.5 -18.5t-10.5 -7.5l-5 -1h-100q-2 0 -5.5 0.5t-8.5 7.5t-3 19zM193 1636q0 36 25 61t61 25t61 -25 t25 -61q0 -35 -25.5 -60.5t-60.5 -25.5t-60.5 25.5t-25.5 60.5zM301 387h322l-160 973zM561 1636q0 36 25 61t61 25t61 -25t25 -61q0 -35 -25.5 -60.5t-60.5 -25.5t-60.5 25.5t-25.5 60.5z" />
<glyph unicode="&#xc5;" horiz-adv-x="923" d="M104 27l238 1376q-66 56 -66 143q0 77 54.5 132t132.5 55q76 0 131 -55t55 -132q0 -86 -67 -143l239 -1376q2 -12 -2 -18.5t-9 -7.5l-5 -1h-100q-2 0 -5.5 0.5t-9.5 7.5t-8 19l-39 233h-362l-37 -233q-2 -12 -7.5 -18.5t-10.5 -7.5l-5 -1h-100q-2 0 -5.5 0.5t-8.5 7.5 t-3 19zM301 387h322l-160 973zM338 1546q0 -55 38.5 -90t86.5 -35t86.5 35t38.5 90t-38.5 90t-86.5 35t-86.5 -35t-38.5 -90z" />
<glyph unicode="&#xc6;" horiz-adv-x="1181" d="M104 27l246 1421q2 12 9 19t13 7l7 1h653q11 0 18 -7.5t7 -19.5v-76q0 -12 -7 -19t-18 -7h-440l88 -506h278q10 0 17.5 -7t7.5 -18v-76q0 -11 -7.5 -18.5t-17.5 -7.5h-256l101 -586h239q11 0 19 -7.5t8 -19.5v-73q0 -12 -8 -19.5t-19 -7.5h-337q-2 0 -5.5 0.5t-9.5 7.5 t-8 19l-39 233h-362l-37 -233q-2 -12 -7.5 -18.5t-10.5 -7.5l-5 -1h-100q-2 0 -5.5 0.5t-8.5 7.5t-3 19zM301 387h322l-160 973z" />
<glyph unicode="&#xc7;" horiz-adv-x="909" d="M133 207v1061q0 90 63.5 152.5t151.5 62.5h223q90 0 152.5 -62.5t62.5 -152.5v-135q0 -12 -6.5 -19.5t-17.5 -7.5h-86q-12 0 -19.5 7.5t-7.5 19.5v170q0 23 -15.5 38t-37.5 15h-270q-24 0 -40 -15t-16 -38v-1139q0 -22 16.5 -37.5t39.5 -15.5h278q23 0 38 15.5t15 37.5 v270q0 12 8 19.5t19 7.5h86q12 0 19.5 -7.5t7.5 -19.5v-227q0 -90 -63.5 -153.5t-151.5 -63.5h-101l-14 -29h43q20 0 35.5 -14.5t15.5 -34.5v-145q0 -21 -15.5 -36.5t-35.5 -15.5h-86q-22 0 -36.5 14.5t-14.5 34.5v27q0 25 24 25h9q10 0 17 -7t7 -18v-10q0 -5 4 -8.5t8 -3.5 h47q5 0 9 4t4 10v111q0 4 -4 8t-9 4h-47q-4 0 -8 -4t-4 -8v-21h-57v39l41 78h-66q-88 0 -151.5 63.5t-63.5 153.5z" />
<glyph unicode="&#xc8;" horiz-adv-x="878" d="M143 27v1421q0 12 7.5 19.5t19.5 7.5h559q11 0 19 -7.5t8 -19.5v-76q0 -12 -8 -19t-19 -7h-448v-506h374q11 0 19 -7.5t8 -17.5v-76q0 -10 -8 -18t-19 -8h-374v-586h460q11 0 18 -7.5t7 -19.5v-73q0 -12 -7 -19.5t-18 -7.5h-571q-12 0 -19.5 7.5t-7.5 19.5zM297 1741 q-16 25 0 26h72q18 1 28 -26l70 -156q5 -13 3.5 -19t-5.5 -6l-4 -1h-35z" />
<glyph unicode="&#xc9;" horiz-adv-x="878" d="M143 27v1421q0 12 7.5 19.5t19.5 7.5h559q11 0 19 -7.5t8 -19.5v-76q0 -12 -8 -19t-19 -7h-448v-506h374q11 0 19 -7.5t8 -17.5v-76q0 -10 -8 -18t-19 -8h-374v-586h460q11 0 18 -7.5t7 -19.5v-73q0 -12 -7 -19.5t-18 -7.5h-571q-12 0 -19.5 7.5t-7.5 19.5zM424 1562 q-6 6 2 23l70 156q4 12 11 18.5t12 6.5l5 1h72l7 -3q4 -6 -7 -23l-129 -182h-35z" />
<glyph unicode="&#xca;" horiz-adv-x="878" d="M143 27v1421q0 12 7.5 19.5t19.5 7.5h559q11 0 19 -7.5t8 -19.5v-76q0 -12 -8 -19t-19 -7h-448v-506h374q11 0 19 -7.5t8 -17.5v-76q0 -10 -8 -18t-19 -8h-374v-586h460q11 0 18 -7.5t7 -19.5v-73q0 -12 -7 -19.5t-18 -7.5h-571q-12 0 -19.5 7.5t-7.5 19.5zM296 1562 q-6 6 1 23l90 156q16 26 33 26h49q17 0 33 -26l90 -156q5 -13 3.5 -19t-5.5 -6l-4 -1h-35l-107 116l-106 -116h-35z" />
<glyph unicode="&#xcb;" horiz-adv-x="878" d="M143 27v1421q0 12 7.5 19.5t19.5 7.5h559q11 0 19 -7.5t8 -19.5v-76q0 -12 -8 -19t-19 -7h-448v-506h374q11 0 19 -7.5t8 -17.5v-76q0 -10 -8 -18t-19 -8h-374v-586h460q11 0 18 -7.5t7 -19.5v-73q0 -12 -7 -19.5t-18 -7.5h-571q-12 0 -19.5 7.5t-7.5 19.5zM176 1636 q0 36 25 61t61 25t61 -25t25 -61q0 -35 -25.5 -60.5t-60.5 -25.5t-60.5 25.5t-25.5 60.5zM545 1636q0 36 25 61t61 25t61 -25t25 -61q0 -35 -25.5 -60.5t-60.5 -25.5t-60.5 25.5t-25.5 60.5z" />
<glyph unicode="&#xcc;" horiz-adv-x="423" d="M51 1741q-16 25 0 26h74q19 1 29 -26l69 -156q5 -13 3.5 -19t-5.5 -6l-4 -1h-37zM143 27v1421q0 12 7 19.5t18 7.5h86q12 0 19.5 -7.5t7.5 -19.5v-1421q0 -12 -7.5 -19.5t-19.5 -7.5h-86q-11 0 -18 7.5t-7 19.5z" />
<glyph unicode="&#xcd;" horiz-adv-x="423" d="M143 27v1421q0 12 7.5 19.5t19.5 7.5h86q11 0 18 -7.5t7 -19.5v-1421q0 -12 -7 -19.5t-18 -7.5h-86q-12 0 -19.5 7.5t-7.5 19.5zM194.5 1568q-0.5 3 0 7t2.5 10l69 156q5 12 13 18.5t13 6.5l5 1h72l7 -3q4 -6 -7 -23l-129 -182h-35h-1q-1 0 -2.5 0.5t-3 1.5t-2.5 2.5 t-1.5 4.5z" />
<glyph unicode="&#xce;" horiz-adv-x="423" d="M59.5 1572q0.5 5 3.5 13l91 156q16 26 32 26h50q16 0 32 -26l90 -156q5 -13 3.5 -19t-5.5 -6l-4 -1h-35l-106 116l-107 -116h-34h-2t-3.5 1.5t-4 4t-1 7.5zM143 27v1421q0 12 7.5 19.5t19.5 7.5h86q11 0 18 -7.5t7 -19.5v-1421q0 -12 -7 -19.5t-18 -7.5h-86 q-12 0 -19.5 7.5t-7.5 19.5z" />
<glyph unicode="&#xcf;" horiz-adv-x="423" d="M-39 1636q0 36 25 61t61 25t61 -25t25 -61q0 -35 -25.5 -60.5t-60.5 -25.5t-60.5 25.5t-25.5 60.5zM143 27v1421q0 12 7.5 19.5t19.5 7.5h86q11 0 18 -7.5t7 -19.5v-1421q0 -12 -7 -19.5t-18 -7.5h-86q-12 0 -19.5 7.5t-7.5 19.5zM289 1636q0 36 25 61t61 25t61 -25 t25 -61q0 -35 -25.5 -60.5t-60.5 -25.5t-60.5 25.5t-25.5 60.5z" />
<glyph unicode="&#xd0;" horiz-adv-x="940" d="M51 680v76q0 11 7.5 18.5t19.5 7.5h65v666q0 12 7.5 19.5t19.5 7.5h422q88 0 151.5 -63t63.5 -152v-1045q0 -89 -63.5 -152t-151.5 -63h-422q-12 0 -19.5 7.5t-7.5 19.5v626h-65q-12 0 -19.5 8t-7.5 19zM281 127h333q23 0 38.5 15.5t15.5 37.5v1114q0 22 -15.5 38 t-38.5 16h-333v-566h67q10 0 17.5 -7.5t7.5 -18.5v-76q0 -11 -7.5 -19t-17.5 -8h-67v-526z" />
<glyph unicode="&#xd1;" horiz-adv-x="964" d="M143 27v1421q0 12 7.5 19.5t19.5 7.5h80q19 0 29 -27l407 -1061v1061q0 12 7 19.5t18 7.5h86q11 0 17.5 -7.5t6.5 -19.5v-1421q0 -12 -6.5 -19.5t-17.5 -7.5h-74q-21 0 -31 27l-413 1056v-1056q0 -12 -7 -19.5t-18 -7.5h-84q-12 0 -19.5 7.5t-7.5 19.5zM279.5 1566.5 q-4.5 5.5 7.5 18.5l119 156q9 12 18.5 18.5t14.5 6.5l5 1h25l84 -106l90 106h53q3 0 6 -1t7.5 -6.5t-7.5 -18.5l-118 -156q-9 -12 -18.5 -18.5t-15.5 -6.5l-5 -1h-35l-74 112l-90 -112h-53q-3 0 -6 1t-7.5 6.5z" />
<glyph unicode="&#xd2;" d="M133 207v1061q0 90 63.5 152.5t151.5 62.5h236q90 0 153.5 -62.5t63.5 -152.5v-1061q0 -90 -63.5 -153.5t-153.5 -63.5h-236q-88 0 -151.5 63.5t-63.5 153.5zM270 164q0 -22 16.5 -37.5t39.5 -15.5h282q23 0 38.5 15.5t15.5 37.5v1139q0 23 -15.5 38t-38.5 15h-282 q-24 0 -40 -15t-16 -38v-1139zM305 1741q-16 25 0 26h72q19 1 29 -26l69 -156q5 -13 3.5 -19t-5.5 -6l-4 -1h-35z" />
<glyph unicode="&#xd3;" d="M133 207v1061q0 90 63.5 152.5t151.5 62.5h236q90 0 153.5 -62.5t63.5 -152.5v-1061q0 -90 -63.5 -153.5t-153.5 -63.5h-236q-88 0 -151.5 63.5t-63.5 153.5zM270 164q0 -22 16.5 -37.5t39.5 -15.5h282q23 0 38.5 15.5t15.5 37.5v1139q0 23 -15.5 38t-38.5 15h-282 q-24 0 -40 -15t-16 -38v-1139zM454 1562q-6 6 1 23l69 156q4 12 11.5 18.5t12.5 6.5l5 1h72l7 -3q4 -6 -7 -23l-129 -182h-35z" />
<glyph unicode="&#xd4;" d="M133 207v1061q0 90 63.5 152.5t151.5 62.5h236q90 0 153.5 -62.5t63.5 -152.5v-1061q0 -90 -63.5 -153.5t-153.5 -63.5h-236q-88 0 -151.5 63.5t-63.5 153.5zM270 164q0 -22 16.5 -37.5t39.5 -15.5h282q23 0 38.5 15.5t15.5 37.5v1139q0 23 -15.5 38t-38.5 15h-282 q-24 0 -40 -15t-16 -38v-1139zM312 1562q-6 6 1 23l90 156q16 26 33 26h49q17 0 33 -26l90 -156q5 -13 3.5 -19t-5.5 -6l-4 -1h-35l-106 116l-107 -116h-35z" />
<glyph unicode="&#xd5;" d="M133 207v1061q0 90 63.5 152.5t151.5 62.5h236q90 0 153.5 -62.5t63.5 -152.5v-1061q0 -90 -63.5 -153.5t-153.5 -63.5h-236q-88 0 -151.5 63.5t-63.5 153.5zM258.5 1566.5q-4.5 5.5 7.5 18.5l119 156q9 12 18.5 18.5t14.5 6.5l6 1h25l83 -106l91 106h53q3 0 6 -1 t7.5 -6.5t-7.5 -18.5l-119 -156q-9 -12 -18.5 -18.5t-14.5 -6.5l-6 -1h-35l-73 112l-90 -112h-54q-3 0 -6 1t-7.5 6.5zM270 164q0 -22 16.5 -37.5t39.5 -15.5h282q23 0 38.5 15.5t15.5 37.5v1139q0 23 -15.5 38t-38.5 15h-282q-24 0 -40 -15t-16 -38v-1139z" />
<glyph unicode="&#xd6;" d="M133 207v1061q0 90 63.5 152.5t151.5 62.5h236q90 0 153.5 -62.5t63.5 -152.5v-1061q0 -90 -63.5 -153.5t-153.5 -63.5h-236q-88 0 -151.5 63.5t-63.5 153.5zM197 1636q0 36 25 61t61 25t61 -25t25 -61q0 -35 -25.5 -60.5t-60.5 -25.5t-60.5 25.5t-25.5 60.5zM270 164 q0 -22 16.5 -37.5t39.5 -15.5h282q23 0 38.5 15.5t15.5 37.5v1139q0 23 -15.5 38t-38.5 15h-282q-24 0 -40 -15t-16 -38v-1139zM565 1636q0 36 25 61t61 25t61 -25t25 -61q0 -35 -25.5 -60.5t-60.5 -25.5t-60.5 25.5t-25.5 60.5z" />
<glyph unicode="&#xd7;" horiz-adv-x="837" d="M106 372q-6 6 5 23l229 342l-219 324q-8 13 -6.5 19t7.5 6l5 1h119q17 1 35 -26l137 -207l139 207q8 12 16.5 18.5t13.5 6.5l5 1h119h2.5t4.5 -1.5t4.5 -4t0.5 -7.5t-6 -13l-219 -324l229 -342q8 -13 7 -19t-6 -6l-5 -1h-115q-17 -1 -35 26l-155 228l-154 -228 q-8 -12 -17 -18.5t-13 -6.5l-5 -1h-114z" />
<glyph unicode="&#xd8;" horiz-adv-x="925" d="M133 207v1061q0 90 63.5 152.5t151.5 62.5h254l16 57q4 12 11 19t13 7l5 1h111q2 0 4 -1t5.5 -7t-1.5 -19l-35 -115q70 -63 70 -157v-1061q0 -90 -63.5 -153.5t-153.5 -63.5h-265l-16 -56q-4 -12 -12 -18.5t-15 -7.5h-6h-102l-7 3q-6 6 -1 23l35 121q-62 62 -62 152z M270 319l295 1037h-239q-24 0 -40 -15t-16 -38v-984zM352 111h256q23 0 38.5 15.5t15.5 37.5v1014z" />
<glyph unicode="&#xd9;" horiz-adv-x="950" d="M143 207v1241q0 12 7.5 19.5t19.5 7.5h86q11 0 18 -7.5t7 -19.5v-1284q0 -22 16 -37.5t39 -15.5h278q23 0 38.5 15.5t15.5 37.5v1284q0 12 7.5 19.5t18.5 7.5h86q12 0 19.5 -7.5t7.5 -19.5v-1241q0 -90 -63.5 -153.5t-151.5 -63.5h-234q-88 0 -151.5 63.5t-63.5 153.5z M317 1741q-16 25 0 26h72q19 1 29 -26l69 -156q5 -13 3.5 -19t-5.5 -6l-4 -1h-35z" />
<glyph unicode="&#xda;" horiz-adv-x="950" d="M143 207v1241q0 12 7.5 19.5t19.5 7.5h86q11 0 18 -7.5t7 -19.5v-1284q0 -22 16 -37.5t39 -15.5h278q23 0 38.5 15.5t15.5 37.5v1284q0 12 7.5 19.5t18.5 7.5h86q12 0 19.5 -7.5t7.5 -19.5v-1241q0 -90 -63.5 -153.5t-151.5 -63.5h-234q-88 0 -151.5 63.5t-63.5 153.5z M458 1562q-6 6 1 23l69 156q4 12 11.5 18.5t12.5 6.5l5 1h74l7 -3q4 -6 -7 -23l-129 -182h-37z" />
<glyph unicode="&#xdb;" horiz-adv-x="950" d="M143 207v1241q0 12 7.5 19.5t19.5 7.5h86q11 0 18 -7.5t7 -19.5v-1284q0 -22 16 -37.5t39 -15.5h278q23 0 38.5 15.5t15.5 37.5v1284q0 12 7.5 19.5t18.5 7.5h86q12 0 19.5 -7.5t7.5 -19.5v-1241q0 -90 -63.5 -153.5t-151.5 -63.5h-234q-88 0 -151.5 63.5t-63.5 153.5z M324 1562q-6 6 2 23l90 156q16 26 33 26h49q16 0 32 -26l91 -156q5 -13 3.5 -19t-6.5 -6l-4 -1h-34l-107 116l-106 -116h-35z" />
<glyph unicode="&#xdc;" horiz-adv-x="950" d="M143 207v1241q0 12 7.5 19.5t19.5 7.5h86q11 0 18 -7.5t7 -19.5v-1284q0 -22 16 -37.5t39 -15.5h278q23 0 38.5 15.5t15.5 37.5v1284q0 12 7.5 19.5t18.5 7.5h86q12 0 19.5 -7.5t7.5 -19.5v-1241q0 -90 -63.5 -153.5t-151.5 -63.5h-234q-88 0 -151.5 63.5t-63.5 153.5z M203 1636q0 36 25 61t61 25t61 -25t25 -61q0 -35 -25.5 -60.5t-60.5 -25.5t-60.5 25.5t-25.5 60.5zM571 1636q0 36 25 61t61 25t61 -25t25 -61q0 -35 -25.5 -60.5t-60.5 -25.5t-60.5 25.5t-25.5 60.5z" />
<glyph unicode="&#xdd;" horiz-adv-x="874" d="M85 1467q2 6 7 7l4 1h99q2 0 5 -0.5t10 -7.5t11 -19l217 -711l215 711q4 12 10.5 19t11.5 7l5 1h98q2 0 5 -0.5t7 -7.5t1 -19l-285 -926v-495q0 -12 -7.5 -19.5t-19.5 -7.5h-84q-11 0 -18.5 7.5t-7.5 19.5v495l-283 926q-3 13 -1 19zM427.5 1568q-0.5 3 0 7t2.5 10 l70 156q5 12 12.5 18.5t12.5 6.5l5 1h72l7 -3q4 -6 -7 -23l-129 -182h-35h-1q-1 0 -2.5 0.5t-3 1.5t-2.5 2.5t-1.5 4.5z" />
<glyph unicode="&#xde;" horiz-adv-x="940" d="M143 27v1421q0 12 7.5 19.5t19.5 7.5h86q11 0 18 -7.5t7 -19.5v-268h311q88 0 151.5 -63t63.5 -152v-453q0 -89 -63.5 -152t-151.5 -63h-311v-270q0 -12 -7 -19.5t-18 -7.5h-86q-12 0 -19.5 7.5t-7.5 19.5zM281 416h333q23 0 38.5 15.5t15.5 37.5v530q0 22 -15.5 38 t-38.5 16h-333v-637z" />
<glyph unicode="&#xdf;" horiz-adv-x="925" d="M143 27v1233q0 89 63.5 152t151.5 63h383q11 0 18 -7.5t7 -19.5v-92l-127 -561q71 -17 117.5 -75t46.5 -134v-379q0 -90 -63.5 -153.5t-151.5 -63.5h-37q-11 0 -19 8t-8 18v68q0 12 8 19.5t19 7.5h61q22 0 38 15.5t16 37.5v457q0 23 -16 38t-38 15h-80q-10 0 -18 8t-8 18 v82l125 566h-295q-23 0 -39 -16t-16 -38v-1267q0 -12 -7 -19.5t-18 -7.5h-86q-12 0 -19.5 7.5t-7.5 19.5z" />
<glyph unicode="&#xe0;" horiz-adv-x="923" d="M104 27l246 1421q2 12 9 19t13 7l7 1h168q24 0 28 -27l246 -1421q2 -12 -2 -18.5t-9 -7.5l-5 -1h-100q-2 0 -5.5 0.5t-9.5 7.5t-8 19l-39 233h-362l-37 -233q-2 -12 -7.5 -18.5t-10.5 -7.5l-5 -1h-100q-2 0 -5.5 0.5t-8.5 7.5t-3 19zM301 387h322l-160 973zM301 1741 q-16 25 0 26h72q18 1 30 -26l70 -156q4 -13 2.5 -19t-5.5 -6l-5 -1h-35z" />
<glyph unicode="&#xe1;" horiz-adv-x="923" d="M104 27l246 1421q2 12 9 19t13 7l7 1h168q24 0 28 -27l246 -1421q2 -12 -2 -18.5t-9 -7.5l-5 -1h-100q-2 0 -5.5 0.5t-9.5 7.5t-8 19l-39 233h-362l-37 -233q-2 -12 -7.5 -18.5t-10.5 -7.5l-5 -1h-100q-2 0 -5.5 0.5t-8.5 7.5t-3 19zM301 387h322l-160 973zM444 1566.5 q-4 5.5 2 18.5l70 156q5 12 13 18.5t13 6.5l5 1h71l7 -3q4 -6 -7 -23l-129 -182h-34q-2 0 -4.5 1t-6.5 6.5z" />
<glyph unicode="&#xe2;" horiz-adv-x="923" d="M104 27l246 1421q2 12 9 19t13 7l7 1h168q24 0 28 -27l246 -1421q2 -12 -2 -18.5t-9 -7.5l-5 -1h-100q-2 0 -5.5 0.5t-9.5 7.5t-8 19l-39 233h-362l-37 -233q-2 -12 -7.5 -18.5t-10.5 -7.5l-5 -1h-100q-2 0 -5.5 0.5t-8.5 7.5t-3 19zM301 387h322l-160 973zM311.5 1572 q0.5 5 3.5 13l91 156q16 26 32 26h49q17 0 33 -26l90 -156q5 -13 3.5 -19t-5.5 -6l-4 -1h-35l-106 116l-107 -116h-34h-2t-3.5 1.5t-4 4t-1 7.5z" />
<glyph unicode="&#xe3;" horiz-adv-x="923" d="M104 27l246 1421q2 12 9 19t13 7l7 1h168q24 0 28 -27l246 -1421q2 -12 -2 -18.5t-9 -7.5l-5 -1h-100q-2 0 -5.5 0.5t-9.5 7.5t-8 19l-39 233h-362l-37 -233q-2 -12 -7.5 -18.5t-10.5 -7.5l-5 -1h-100q-2 0 -5.5 0.5t-8.5 7.5t-3 19zM256.5 1566.5q-4.5 5.5 7.5 18.5 l119 156q9 12 18.5 18.5t14.5 6.5l6 1h24l84 -106l91 106h53q3 0 6 -1t7.5 -6.5t-7.5 -18.5l-119 -156q-9 -12 -18.5 -18.5t-14.5 -6.5l-6 -1h-35l-73 112l-90 -112h-54q-3 0 -6 1t-7.5 6.5zM301 387h322l-160 973z" />
<glyph unicode="&#xe4;" horiz-adv-x="923" d="M104 27l246 1421q2 12 9 19t13 7l7 1h168q24 0 28 -27l246 -1421q2 -12 -2 -18.5t-9 -7.5l-5 -1h-100q-2 0 -5.5 0.5t-9.5 7.5t-8 19l-39 233h-362l-37 -233q-2 -12 -7.5 -18.5t-10.5 -7.5l-5 -1h-100q-2 0 -5.5 0.5t-8.5 7.5t-3 19zM193 1636q0 36 25 61t61 25t61 -25 t25 -61q0 -35 -25.5 -60.5t-60.5 -25.5t-60.5 25.5t-25.5 60.5zM301 387h322l-160 973zM561 1636q0 36 25 61t61 25t61 -25t25 -61q0 -35 -25.5 -60.5t-60.5 -25.5t-60.5 25.5t-25.5 60.5z" />
<glyph unicode="&#xe5;" horiz-adv-x="923" d="M104 27l238 1376q-66 56 -66 143q0 77 54.5 132t132.5 55q76 0 131 -55t55 -132q0 -86 -67 -143l239 -1376q2 -12 -2 -18.5t-9 -7.5l-5 -1h-100q-2 0 -5.5 0.5t-9.5 7.5t-8 19l-39 233h-362l-37 -233q-2 -12 -7.5 -18.5t-10.5 -7.5l-5 -1h-100q-2 0 -5.5 0.5t-8.5 7.5 t-3 19zM301 387h322l-160 973zM338 1546q0 -55 38.5 -90t86.5 -35t86.5 35t38.5 90t-38.5 90t-86.5 35t-86.5 -35t-38.5 -90z" />
<glyph unicode="&#xe6;" horiz-adv-x="1181" d="M104 27l246 1421q2 12 9 19t13 7l7 1h653q11 0 18 -7.5t7 -19.5v-76q0 -12 -7 -19t-18 -7h-440l88 -506h278q10 0 17.5 -7t7.5 -18v-76q0 -11 -7.5 -18.5t-17.5 -7.5h-256l101 -586h239q11 0 19 -7.5t8 -19.5v-73q0 -12 -8 -19.5t-19 -7.5h-337q-2 0 -5.5 0.5t-9.5 7.5 t-8 19l-39 233h-362l-37 -233q-2 -12 -7.5 -18.5t-10.5 -7.5l-5 -1h-100q-2 0 -5.5 0.5t-8.5 7.5t-3 19zM301 387h322l-160 973z" />
<glyph unicode="&#xe7;" horiz-adv-x="909" d="M133 207v1061q0 90 63.5 152.5t151.5 62.5h223q90 0 152.5 -62.5t62.5 -152.5v-135q0 -12 -6.5 -19.5t-17.5 -7.5h-86q-12 0 -19.5 7.5t-7.5 19.5v170q0 23 -15.5 38t-37.5 15h-270q-24 0 -40 -15t-16 -38v-1139q0 -22 16.5 -37.5t39.5 -15.5h278q23 0 38 15.5t15 37.5 v270q0 12 8 19.5t19 7.5h86q12 0 19.5 -7.5t7.5 -19.5v-227q0 -90 -63.5 -153.5t-151.5 -63.5h-101l-14 -29h43q20 0 35.5 -14.5t15.5 -34.5v-145q0 -21 -15.5 -36.5t-35.5 -15.5h-86q-22 0 -36.5 14.5t-14.5 34.5v27q0 25 24 25h9q10 0 17 -7t7 -18v-10q0 -5 4 -8.5t8 -3.5 h47q5 0 9 4t4 10v111q0 4 -4 8t-9 4h-47q-4 0 -8 -4t-4 -8v-21h-57v39l41 78h-66q-88 0 -151.5 63.5t-63.5 153.5z" />
<glyph unicode="&#xe8;" horiz-adv-x="878" d="M143 27v1421q0 12 7.5 19.5t19.5 7.5h559q11 0 19 -7.5t8 -19.5v-76q0 -12 -8 -19t-19 -7h-448v-506h374q11 0 19 -7.5t8 -17.5v-76q0 -10 -8 -18t-19 -8h-374v-586h460q11 0 18 -7.5t7 -19.5v-73q0 -12 -7 -19.5t-18 -7.5h-571q-12 0 -19.5 7.5t-7.5 19.5zM297 1741 q-16 25 0 26h72q18 1 28 -26l70 -156q5 -13 3.5 -19t-5.5 -6l-4 -1h-35z" />
<glyph unicode="&#xe9;" horiz-adv-x="878" d="M143 27v1421q0 12 7.5 19.5t19.5 7.5h559q11 0 19 -7.5t8 -19.5v-76q0 -12 -8 -19t-19 -7h-448v-506h374q11 0 19 -7.5t8 -17.5v-76q0 -10 -8 -18t-19 -8h-374v-586h460q11 0 18 -7.5t7 -19.5v-73q0 -12 -7 -19.5t-18 -7.5h-571q-12 0 -19.5 7.5t-7.5 19.5zM424 1562 q-6 6 2 23l70 156q4 12 11 18.5t12 6.5l5 1h72l7 -3q4 -6 -7 -23l-129 -182h-35z" />
<glyph unicode="&#xea;" horiz-adv-x="878" d="M143 27v1421q0 12 7.5 19.5t19.5 7.5h559q11 0 19 -7.5t8 -19.5v-76q0 -12 -8 -19t-19 -7h-448v-506h374q11 0 19 -7.5t8 -17.5v-76q0 -10 -8 -18t-19 -8h-374v-586h460q11 0 18 -7.5t7 -19.5v-73q0 -12 -7 -19.5t-18 -7.5h-571q-12 0 -19.5 7.5t-7.5 19.5zM296 1562 q-6 6 1 23l90 156q16 26 33 26h49q17 0 33 -26l90 -156q5 -13 3.5 -19t-5.5 -6l-4 -1h-35l-107 116l-106 -116h-35z" />
<glyph unicode="&#xeb;" horiz-adv-x="878" d="M143 27v1421q0 12 7.5 19.5t19.5 7.5h559q11 0 19 -7.5t8 -19.5v-76q0 -12 -8 -19t-19 -7h-448v-506h374q11 0 19 -7.5t8 -17.5v-76q0 -10 -8 -18t-19 -8h-374v-586h460q11 0 18 -7.5t7 -19.5v-73q0 -12 -7 -19.5t-18 -7.5h-571q-12 0 -19.5 7.5t-7.5 19.5zM176 1636 q0 36 25 61t61 25t61 -25t25 -61q0 -35 -25.5 -60.5t-60.5 -25.5t-60.5 25.5t-25.5 60.5zM545 1636q0 36 25 61t61 25t61 -25t25 -61q0 -35 -25.5 -60.5t-60.5 -25.5t-60.5 25.5t-25.5 60.5z" />
<glyph unicode="&#xec;" horiz-adv-x="423" d="M51 1741q-16 25 0 26h74q19 1 29 -26l69 -156q5 -13 3.5 -19t-5.5 -6l-4 -1h-37zM143 27v1421q0 12 7 19.5t18 7.5h86q12 0 19.5 -7.5t7.5 -19.5v-1421q0 -12 -7.5 -19.5t-19.5 -7.5h-86q-11 0 -18 7.5t-7 19.5z" />
<glyph unicode="&#xed;" horiz-adv-x="423" d="M143 27v1421q0 12 7.5 19.5t19.5 7.5h86q11 0 18 -7.5t7 -19.5v-1421q0 -12 -7 -19.5t-18 -7.5h-86q-12 0 -19.5 7.5t-7.5 19.5zM194.5 1568q-0.5 3 0 7t2.5 10l69 156q5 12 13 18.5t13 6.5l5 1h72l7 -3q4 -6 -7 -23l-129 -182h-35h-1q-1 0 -2.5 0.5t-3 1.5t-2.5 2.5 t-1.5 4.5z" />
<glyph unicode="&#xee;" horiz-adv-x="423" d="M59.5 1572q0.5 5 3.5 13l91 156q16 26 32 26h50q16 0 32 -26l90 -156q5 -13 3.5 -19t-5.5 -6l-4 -1h-35l-106 116l-107 -116h-34h-2t-3.5 1.5t-4 4t-1 7.5zM143 27v1421q0 12 7.5 19.5t19.5 7.5h86q11 0 18 -7.5t7 -19.5v-1421q0 -12 -7 -19.5t-18 -7.5h-86 q-12 0 -19.5 7.5t-7.5 19.5z" />
<glyph unicode="&#xef;" horiz-adv-x="423" d="M-39 1636q0 36 25 61t61 25t61 -25t25 -61q0 -35 -25.5 -60.5t-60.5 -25.5t-60.5 25.5t-25.5 60.5zM143 27v1421q0 12 7.5 19.5t19.5 7.5h86q11 0 18 -7.5t7 -19.5v-1421q0 -12 -7 -19.5t-18 -7.5h-86q-12 0 -19.5 7.5t-7.5 19.5zM289 1636q0 36 25 61t61 25t61 -25 t25 -61q0 -35 -25.5 -60.5t-60.5 -25.5t-60.5 25.5t-25.5 60.5z" />
<glyph unicode="&#xf0;" horiz-adv-x="940" d="M51 680v76q0 11 7.5 18.5t19.5 7.5h65v666q0 12 7.5 19.5t19.5 7.5h422q88 0 151.5 -63t63.5 -152v-1045q0 -89 -63.5 -152t-151.5 -63h-422q-12 0 -19.5 7.5t-7.5 19.5v626h-65q-12 0 -19.5 8t-7.5 19zM281 127h333q23 0 38.5 15.5t15.5 37.5v1114q0 22 -15.5 38 t-38.5 16h-333v-566h67q10 0 17.5 -7.5t7.5 -18.5v-76q0 -11 -7.5 -19t-17.5 -8h-67v-526z" />
<glyph unicode="&#xf1;" horiz-adv-x="964" d="M143 27v1421q0 12 7.5 19.5t19.5 7.5h80q19 0 29 -27l407 -1061v1061q0 12 7 19.5t18 7.5h86q11 0 17.5 -7.5t6.5 -19.5v-1421q0 -12 -6.5 -19.5t-17.5 -7.5h-74q-21 0 -31 27l-413 1056v-1056q0 -12 -7 -19.5t-18 -7.5h-84q-12 0 -19.5 7.5t-7.5 19.5zM279.5 1566.5 q-4.5 5.5 7.5 18.5l119 156q9 12 18.5 18.5t14.5 6.5l5 1h25l84 -106l90 106h53q3 0 6 -1t7.5 -6.5t-7.5 -18.5l-118 -156q-9 -12 -18.5 -18.5t-15.5 -6.5l-5 -1h-35l-74 112l-90 -112h-53q-3 0 -6 1t-7.5 6.5z" />
<glyph unicode="&#xf2;" d="M133 207v1061q0 90 63.5 152.5t151.5 62.5h236q90 0 153.5 -62.5t63.5 -152.5v-1061q0 -90 -63.5 -153.5t-153.5 -63.5h-236q-88 0 -151.5 63.5t-63.5 153.5zM270 164q0 -22 16.5 -37.5t39.5 -15.5h282q23 0 38.5 15.5t15.5 37.5v1139q0 23 -15.5 38t-38.5 15h-282 q-24 0 -40 -15t-16 -38v-1139zM305 1741q-16 25 0 26h72q19 1 29 -26l69 -156q5 -13 3.5 -19t-5.5 -6l-4 -1h-35z" />
<glyph unicode="&#xf3;" d="M133 207v1061q0 90 63.5 152.5t151.5 62.5h236q90 0 153.5 -62.5t63.5 -152.5v-1061q0 -90 -63.5 -153.5t-153.5 -63.5h-236q-88 0 -151.5 63.5t-63.5 153.5zM270 164q0 -22 16.5 -37.5t39.5 -15.5h282q23 0 38.5 15.5t15.5 37.5v1139q0 23 -15.5 38t-38.5 15h-282 q-24 0 -40 -15t-16 -38v-1139zM454 1562q-6 6 1 23l69 156q4 12 11.5 18.5t12.5 6.5l5 1h72l7 -3q4 -6 -7 -23l-129 -182h-35z" />
<glyph unicode="&#xf4;" d="M133 207v1061q0 90 63.5 152.5t151.5 62.5h236q90 0 153.5 -62.5t63.5 -152.5v-1061q0 -90 -63.5 -153.5t-153.5 -63.5h-236q-88 0 -151.5 63.5t-63.5 153.5zM270 164q0 -22 16.5 -37.5t39.5 -15.5h282q23 0 38.5 15.5t15.5 37.5v1139q0 23 -15.5 38t-38.5 15h-282 q-24 0 -40 -15t-16 -38v-1139zM312 1562q-6 6 1 23l90 156q16 26 33 26h49q17 0 33 -26l90 -156q5 -13 3.5 -19t-5.5 -6l-4 -1h-35l-106 116l-107 -116h-35z" />
<glyph unicode="&#xf5;" d="M133 207v1061q0 90 63.5 152.5t151.5 62.5h236q90 0 153.5 -62.5t63.5 -152.5v-1061q0 -90 -63.5 -153.5t-153.5 -63.5h-236q-88 0 -151.5 63.5t-63.5 153.5zM258.5 1566.5q-4.5 5.5 7.5 18.5l119 156q9 12 18.5 18.5t14.5 6.5l6 1h25l83 -106l91 106h53q3 0 6 -1 t7.5 -6.5t-7.5 -18.5l-119 -156q-9 -12 -18.5 -18.5t-14.5 -6.5l-6 -1h-35l-73 112l-90 -112h-54q-3 0 -6 1t-7.5 6.5zM270 164q0 -22 16.5 -37.5t39.5 -15.5h282q23 0 38.5 15.5t15.5 37.5v1139q0 23 -15.5 38t-38.5 15h-282q-24 0 -40 -15t-16 -38v-1139z" />
<glyph unicode="&#xf6;" d="M133 207v1061q0 90 63.5 152.5t151.5 62.5h236q90 0 153.5 -62.5t63.5 -152.5v-1061q0 -90 -63.5 -153.5t-153.5 -63.5h-236q-88 0 -151.5 63.5t-63.5 153.5zM197 1636q0 36 25 61t61 25t61 -25t25 -61q0 -35 -25.5 -60.5t-60.5 -25.5t-60.5 25.5t-25.5 60.5zM270 164 q0 -22 16.5 -37.5t39.5 -15.5h282q23 0 38.5 15.5t15.5 37.5v1139q0 23 -15.5 38t-38.5 15h-282q-24 0 -40 -15t-16 -38v-1139zM565 1636q0 36 25 61t61 25t61 -25t25 -61q0 -35 -25.5 -60.5t-60.5 -25.5t-60.5 25.5t-25.5 60.5z" />
<glyph unicode="&#xf7;" horiz-adv-x="1011" d="M123 680v76q0 11 7.5 18.5t19.5 7.5h714q10 0 17.5 -7.5t7.5 -18.5v-76q0 -11 -7.5 -19t-17.5 -8h-714q-12 0 -19.5 8t-7.5 19zM418 457q0 37 25.5 61.5t62.5 24.5t61.5 -24.5t24.5 -61.5t-24.5 -62.5t-61.5 -25.5t-62.5 25.5t-25.5 62.5zM418 983q0 37 25.5 61.5 t62.5 24.5t61.5 -24.5t24.5 -61.5t-24.5 -62.5t-61.5 -25.5t-62.5 25.5t-25.5 62.5z" />
<glyph unicode="&#xf8;" horiz-adv-x="925" d="M133 207v1061q0 90 63.5 152.5t151.5 62.5h254l16 57q4 12 11 19t13 7l5 1h111q2 0 4 -1t5.5 -7t-1.5 -19l-35 -115q70 -63 70 -157v-1061q0 -90 -63.5 -153.5t-153.5 -63.5h-265l-16 -56q-4 -12 -12 -18.5t-15 -7.5h-6h-102l-7 3q-6 6 -1 23l35 121q-62 62 -62 152z M270 319l295 1037h-239q-24 0 -40 -15t-16 -38v-984zM352 111h256q23 0 38.5 15.5t15.5 37.5v1014z" />
<glyph unicode="&#xf9;" horiz-adv-x="950" d="M143 207v1241q0 12 7.5 19.5t19.5 7.5h86q11 0 18 -7.5t7 -19.5v-1284q0 -22 16 -37.5t39 -15.5h278q23 0 38.5 15.5t15.5 37.5v1284q0 12 7.5 19.5t18.5 7.5h86q12 0 19.5 -7.5t7.5 -19.5v-1241q0 -90 -63.5 -153.5t-151.5 -63.5h-234q-88 0 -151.5 63.5t-63.5 153.5z M317 1741q-16 25 0 26h72q19 1 29 -26l69 -156q5 -13 3.5 -19t-5.5 -6l-4 -1h-35z" />
<glyph unicode="&#xfa;" horiz-adv-x="950" d="M143 207v1241q0 12 7.5 19.5t19.5 7.5h86q11 0 18 -7.5t7 -19.5v-1284q0 -22 16 -37.5t39 -15.5h278q23 0 38.5 15.5t15.5 37.5v1284q0 12 7.5 19.5t18.5 7.5h86q12 0 19.5 -7.5t7.5 -19.5v-1241q0 -90 -63.5 -153.5t-151.5 -63.5h-234q-88 0 -151.5 63.5t-63.5 153.5z M458 1562q-6 6 1 23l69 156q4 12 11.5 18.5t12.5 6.5l5 1h74l7 -3q4 -6 -7 -23l-129 -182h-37z" />
<glyph unicode="&#xfb;" horiz-adv-x="950" d="M143 207v1241q0 12 7.5 19.5t19.5 7.5h86q11 0 18 -7.5t7 -19.5v-1284q0 -22 16 -37.5t39 -15.5h278q23 0 38.5 15.5t15.5 37.5v1284q0 12 7.5 19.5t18.5 7.5h86q12 0 19.5 -7.5t7.5 -19.5v-1241q0 -90 -63.5 -153.5t-151.5 -63.5h-234q-88 0 -151.5 63.5t-63.5 153.5z M324 1562q-6 6 2 23l90 156q16 26 33 26h49q16 0 32 -26l91 -156q5 -13 3.5 -19t-6.5 -6l-4 -1h-34l-107 116l-106 -116h-35z" />
<glyph unicode="&#xfc;" horiz-adv-x="950" d="M143 207v1241q0 12 7.5 19.5t19.5 7.5h86q11 0 18 -7.5t7 -19.5v-1284q0 -22 16 -37.5t39 -15.5h278q23 0 38.5 15.5t15.5 37.5v1284q0 12 7.5 19.5t18.5 7.5h86q12 0 19.5 -7.5t7.5 -19.5v-1241q0 -90 -63.5 -153.5t-151.5 -63.5h-234q-88 0 -151.5 63.5t-63.5 153.5z M203 1636q0 36 25 61t61 25t61 -25t25 -61q0 -35 -25.5 -60.5t-60.5 -25.5t-60.5 25.5t-25.5 60.5zM571 1636q0 36 25 61t61 25t61 -25t25 -61q0 -35 -25.5 -60.5t-60.5 -25.5t-60.5 25.5t-25.5 60.5z" />
<glyph unicode="&#xfd;" horiz-adv-x="874" d="M85 1467q2 6 7 7l4 1h99q2 0 5 -0.5t10 -7.5t11 -19l217 -711l215 711q4 12 10.5 19t11.5 7l5 1h98q2 0 5 -0.5t7 -7.5t1 -19l-285 -926v-495q0 -12 -7.5 -19.5t-19.5 -7.5h-84q-11 0 -18.5 7.5t-7.5 19.5v495l-283 926q-3 13 -1 19zM427.5 1568q-0.5 3 0 7t2.5 10 l70 156q5 12 12.5 18.5t12.5 6.5l5 1h72l7 -3q4 -6 -7 -23l-129 -182h-35h-1q-1 0 -2.5 0.5t-3 1.5t-2.5 2.5t-1.5 4.5z" />
<glyph unicode="&#xfe;" horiz-adv-x="940" d="M143 27v1421q0 12 7.5 19.5t19.5 7.5h86q11 0 18 -7.5t7 -19.5v-268h311q88 0 151.5 -63t63.5 -152v-453q0 -89 -63.5 -152t-151.5 -63h-311v-270q0 -12 -7 -19.5t-18 -7.5h-86q-12 0 -19.5 7.5t-7.5 19.5zM281 416h333q23 0 38.5 15.5t15.5 37.5v530q0 22 -15.5 38 t-38.5 16h-333v-637z" />
<glyph unicode="&#xff;" horiz-adv-x="874" d="M85 1467q2 6 7 7l4 1h99q2 0 5 -0.5t10 -7.5t11 -19l217 -711l215 711q4 12 10.5 19t11.5 7l5 1h98q2 0 5 -0.5t7 -7.5t1 -19l-285 -926v-495q0 -12 -7.5 -19.5t-19.5 -7.5h-84q-11 0 -18.5 7.5t-7.5 19.5v495l-283 926q-3 13 -1 19zM168 1636q0 36 25 61t61 25t61 -25 t25 -61q0 -35 -25.5 -60.5t-60.5 -25.5t-60.5 25.5t-25.5 60.5zM537 1636q0 36 25 61t61 25t61 -25t25 -61q0 -35 -25.5 -60.5t-60.5 -25.5t-60.5 25.5t-25.5 60.5z" />
<glyph unicode="&#x152;" horiz-adv-x="1316" d="M133 215v1045q0 89 63.5 152t151.5 63h819q11 0 18 -7.5t7 -19.5v-76q0 -12 -7 -19t-18 -7h-393v-506h320q10 0 17 -7t7 -18v-76q0 -11 -7 -18.5t-17 -7.5h-320v-586h404q11 0 18.5 -7.5t7.5 -19.5v-73q0 -12 -7.5 -19.5t-18.5 -7.5h-830q-88 0 -151.5 63t-63.5 152z M270 182q0 -22 16.5 -37.5t39.5 -15.5h258q22 0 37.5 15.5t15.5 37.5v1102q0 23 -15.5 38t-37.5 15h-258q-24 0 -40 -15t-16 -38v-1102z" />
<glyph unicode="&#x153;" horiz-adv-x="1316" d="M133 215v1045q0 89 63.5 152t151.5 63h819q11 0 18 -7.5t7 -19.5v-76q0 -12 -7 -19t-18 -7h-393v-506h320q10 0 17 -7t7 -18v-76q0 -11 -7 -18.5t-17 -7.5h-320v-586h404q11 0 18.5 -7.5t7.5 -19.5v-73q0 -12 -7.5 -19.5t-18.5 -7.5h-830q-88 0 -151.5 63t-63.5 152z M270 182q0 -22 16.5 -37.5t39.5 -15.5h258q22 0 37.5 15.5t15.5 37.5v1102q0 23 -15.5 38t-37.5 15h-258q-24 0 -40 -15t-16 -38v-1102z" />
<glyph unicode="&#x178;" horiz-adv-x="874" d="M85 1467q2 6 7 7l4 1h99q2 0 5 -0.5t10 -7.5t11 -19l217 -711l215 711q4 12 10.5 19t11.5 7l5 1h98q2 0 5 -0.5t7 -7.5t1 -19l-285 -926v-495q0 -12 -7.5 -19.5t-19.5 -7.5h-84q-11 0 -18.5 7.5t-7.5 19.5v495l-283 926q-3 13 -1 19zM168 1636q0 36 25 61t61 25t61 -25 t25 -61q0 -35 -25.5 -60.5t-60.5 -25.5t-60.5 25.5t-25.5 60.5zM537 1636q0 36 25 61t61 25t61 -25t25 -61q0 -35 -25.5 -60.5t-60.5 -25.5t-60.5 25.5t-25.5 60.5z" />
<glyph unicode="&#x2c6;" horiz-adv-x="532" d="M118 1562q-7 6 1 23l90 156q16 26 33 26h49q17 0 33 -26l90 -156q5 -13 3.5 -19t-5.5 -6l-4 -1h-35l-107 116l-106 -116h-35z" />
<glyph unicode="&#x2dc;" horiz-adv-x="632" d="M101.5 1566.5q-4.5 5.5 7.5 18.5l118 156q9 12 18.5 18.5t14.5 6.5l6 1h25l84 -106l90 106h53q3 0 6 -1t7.5 -6.5t-7.5 -18.5l-118 -156q-9 -12 -18.5 -18.5t-15.5 -6.5l-5 -1h-35l-74 112l-90 -112h-53q-3 0 -6 1t-7.5 6.5z" />
<glyph unicode="&#x2000;" horiz-adv-x="883" />
<glyph unicode="&#x2001;" horiz-adv-x="1767" />
<glyph unicode="&#x2002;" horiz-adv-x="883" />
<glyph unicode="&#x2003;" horiz-adv-x="1767" />
<glyph unicode="&#x2004;" horiz-adv-x="589" />
<glyph unicode="&#x2005;" horiz-adv-x="441" />
<glyph unicode="&#x2006;" horiz-adv-x="294" />
<glyph unicode="&#x2007;" horiz-adv-x="294" />
<glyph unicode="&#x2008;" horiz-adv-x="220" />
<glyph unicode="&#x2009;" horiz-adv-x="353" />
<glyph unicode="&#x200a;" horiz-adv-x="98" />
<glyph unicode="&#x2010;" horiz-adv-x="868" d="M123 680v76q0 11 7.5 18.5t19.5 7.5h571q10 0 17 -7.5t7 -18.5v-76q0 -11 -7 -19t-17 -8h-571q-12 0 -19.5 8t-7.5 19z" />
<glyph unicode="&#x2011;" horiz-adv-x="868" d="M123 680v76q0 11 7.5 18.5t19.5 7.5h571q10 0 17 -7.5t7 -18.5v-76q0 -11 -7 -19t-17 -8h-571q-12 0 -19.5 8t-7.5 19z" />
<glyph unicode="&#x2012;" horiz-adv-x="868" d="M123 680v76q0 11 7.5 18.5t19.5 7.5h571q10 0 17 -7.5t7 -18.5v-76q0 -11 -7 -19t-17 -8h-571q-12 0 -19.5 8t-7.5 19z" />
<glyph unicode="&#x2013;" horiz-adv-x="960" d="M123 680v76q0 11 7.5 18.5t19.5 7.5h663q10 0 17.5 -7.5t7.5 -18.5v-76q0 -11 -7.5 -19t-17.5 -8h-663q-12 0 -19.5 8t-7.5 19z" />
<glyph unicode="&#x2014;" horiz-adv-x="1052" d="M123 680v76q0 11 7.5 18.5t19.5 7.5h755q10 0 17.5 -7.5t7.5 -18.5v-76q0 -11 -7.5 -19t-17.5 -8h-755q-12 0 -19.5 8t-7.5 19z" />
<glyph unicode="&#x2018;" horiz-adv-x="272" d="M72 1198v188q0 46 30.5 80.5t71.5 34.5q11 0 19 -8t8 -18v-277q0 -10 -8.5 -18.5t-18.5 -8.5h-78q-10 0 -17 8t-7 19z" />
<glyph unicode="&#x2019;" horiz-adv-x="272" d="M72 1198v277q0 11 8 18.5t18 7.5h78q10 0 17.5 -7.5t7.5 -18.5v-189q0 -46 -31 -80.5t-72 -34.5q-10 0 -18 8t-8 19z" />
<glyph unicode="&#x201a;" horiz-adv-x="272" d="M72 -90v276q0 11 8 19t18 8h78q10 0 17.5 -8t7.5 -19v-188q0 -46 -31 -80.5t-72 -34.5q-10 0 -18 8t-8 19z" />
<glyph unicode="&#x201c;" horiz-adv-x="438" d="M72 1198v188q0 46 30.5 80.5t71.5 34.5q11 0 19 -8t8 -18v-277q0 -10 -8.5 -18.5t-18.5 -8.5h-78q-10 0 -17 8t-7 19zM238 1198v188q0 46 30.5 80.5t71.5 34.5q11 0 19 -8t8 -18v-277q0 -10 -8.5 -18.5t-18.5 -8.5h-78q-10 0 -17 8t-7 19z" />
<glyph unicode="&#x201d;" horiz-adv-x="438" d="M72 1198v277q0 11 8 18.5t18 7.5h78q10 0 17.5 -7.5t7.5 -18.5v-189q0 -46 -31 -80.5t-72 -34.5q-10 0 -18 8t-8 19zM238 1198v277q0 11 8 18.5t18 7.5h78q10 0 17.5 -7.5t7.5 -18.5v-189q0 -46 -31 -80.5t-72 -34.5q-10 0 -18 8t-8 19z" />
<glyph unicode="&#x201e;" horiz-adv-x="438" d="M72 -90v276q0 11 8 19t18 8h78q10 0 17.5 -8t7.5 -19v-188q0 -46 -31 -80.5t-72 -34.5q-10 0 -18 8t-8 19zM238 -90v276q0 11 8 19t18 8h78q10 0 17.5 -8t7.5 -19v-188q0 -46 -31 -80.5t-72 -34.5q-10 0 -18 8t-8 19z" />
<glyph unicode="&#x2022;" horiz-adv-x="366" d="M102 698v70q0 23 16 38t38 15h55q22 0 37.5 -15t15.5 -38v-70q0 -22 -15.5 -37.5t-37.5 -15.5h-55q-22 0 -38 15.5t-16 37.5z" />
<glyph unicode="&#x2026;" horiz-adv-x="819" d="M72 27v94q0 12 7.5 19t18.5 7h90q11 0 19 -7t8 -19v-94q0 -12 -8 -19.5t-19 -7.5h-90q-11 0 -18.5 7.5t-7.5 19.5zM338 27v94q0 12 8 19t19 7h90q11 0 18.5 -7t7.5 -19v-94q0 -12 -7.5 -19.5t-18.5 -7.5h-90q-11 0 -19 7.5t-8 19.5zM604 27v94q0 12 8 19t19 7h90 q11 0 19 -7t8 -19v-94q0 -12 -8 -19.5t-19 -7.5h-90q-11 0 -19 7.5t-8 19.5z" />
<glyph unicode="&#x202f;" horiz-adv-x="353" />
<glyph unicode="&#x2039;" horiz-adv-x="468" d="M90 694q-16 26 0 51l146 256q6 11 14 17.5t13 7.5h5h109q2 0 4 -1t5 -6.5t-5 -17.5l-156 -280l156 -281q6 -13 5 -19t-5 -7h-4h-109q-18 -1 -32 26z" />
<glyph unicode="&#x203a;" horiz-adv-x="468" d="M83 1018.5q1 5.5 5 6.5l4 1h109q18 0 32 -25l146 -256q16 -25 0 -51l-146 -254q-6 -12 -14 -18.5t-13 -7.5h-5h-109l-7 3q-6 6 3 23l156 281l-156 280q-6 12 -5 17.5z" />
<glyph unicode="&#x205f;" horiz-adv-x="441" />
<glyph unicode="&#x20ac;" horiz-adv-x="915" d="M51 588v76q0 11 7.5 18.5t19.5 7.5h65v92h-65q-12 0 -19.5 8t-7.5 19v76q0 11 7.5 18.5t19.5 7.5h65v357q0 90 63.5 152.5t151.5 62.5h220q90 0 153.5 -62.5t63.5 -152.5v-54q0 -10 -8 -18t-19 -8h-86q-11 0 -19 8t-8 18v89q0 23 -15.5 38t-37.5 15h-266q-23 0 -39 -15 t-16 -38v-392h368q10 0 17.5 -7.5t7.5 -18.5v-76q0 -11 -7.5 -19t-17.5 -8h-368v-92h368q10 0 17.5 -7.5t7.5 -18.5v-76q0 -11 -7.5 -19t-17.5 -8h-368v-397q0 -22 16 -37.5t39 -15.5h276q22 0 38 15.5t16 37.5v104q0 12 6.5 19.5t17.5 7.5h88q11 0 18 -7.5t7 -19.5v-61 q0 -90 -63.5 -153.5t-151.5 -63.5h-230q-88 0 -151.5 63.5t-63.5 153.5v354h-65q-12 0 -19.5 8t-7.5 19z" />
<glyph unicode="&#x2122;" horiz-adv-x="1236" d="M139 1421v41q0 13 15 13h333q15 0 15 -13v-41q0 -14 -15 -14h-131v-705q0 -14 -12 -14h-47q-14 0 -14 14v705h-129q-15 0 -15 14zM590 702v760q0 13 14 13h41q11 -1 17 -13l178 -399l178 399q3 5 7 8.5t7 3.5l2 1h41q12 0 12 -13v-760q0 -14 -12 -14h-47q-12 0 -12 14 v594l-176 -387l-176 387v-594q0 -6 -4 -10t-9 -4h-47q-14 0 -14 14z" />
<glyph unicode="&#x25fc;" horiz-adv-x="1474" d="M0 0v1475h1475v-1475h-1475z" />
<glyph unicode="&#xfb01;" horiz-adv-x="1128" d="M143 27v1421q0 12 7.5 19.5t19.5 7.5h791q11 0 17.5 -7.5t6.5 -19.5v-76q0 -26 -24 -26h-680v-506h374q11 0 19 -7.5t8 -17.5v-76q0 -10 -8 -18t-19 -8h-374v-686q0 -12 -7 -19.5t-18 -7.5h-86q-12 0 -19.5 7.5t-7.5 19.5zM848 27v1091q0 11 7 19t17 8h89q10 0 17 -8 t7 -19v-1091q0 -12 -6.5 -19.5t-17.5 -7.5h-89q-11 0 -17.5 7.5t-6.5 19.5z" />
<glyph unicode="&#xfb02;" horiz-adv-x="1304" d="M143 27v1421q0 12 7.5 19.5t19.5 7.5h735q11 0 18 -7.5t7 -19.5v-76q0 -12 -7 -19t-18 -7h-624v-506h282q11 0 19 -7.5t8 -17.5v-76q0 -10 -8 -18t-19 -8h-282v-686q0 -12 -7 -19.5t-18 -7.5h-86q-12 0 -19.5 7.5t-7.5 19.5zM756 27v1091q0 11 7 19t17 8h88q10 0 17.5 -8 t7.5 -19v-991h293q26 0 26 -27v-73q0 -27 -26 -27h-406q-11 0 -17.5 7.5t-6.5 19.5z" />
<glyph horiz-adv-x="1366" d="M133 207v1061q0 90 63.5 152.5t151.5 62.5h193q88 0 151.5 -62.5t63.5 -152.5v-99q0 -12 -7 -19t-18 -7h-88q-11 0 -18 7t-7 19v134q0 23 -15.5 38t-37.5 15h-239q-24 0 -40 -15t-16 -38v-1139q0 -22 16.5 -37.5t39.5 -15.5h239q22 0 37.5 15.5t15.5 37.5v233 q0 12 7 19.5t18 7.5h88q11 0 18 -7.5t7 -19.5v-190q0 -90 -63.5 -153.5t-151.5 -63.5h-193q-88 0 -151.5 63.5t-63.5 153.5zM618 598v371q0 12 7 19t18 7h88q11 0 18 -7t7 -19v-111h327v590q0 12 8 19.5t19 7.5h86q11 0 19 -7.5t8 -19.5v-1421q0 -12 -8 -19.5t-19 -7.5h-86 q-11 0 -19 7.5t-8 19.5v667h-327v-96q0 -12 -7 -19.5t-18 -7.5h-88q-11 0 -18 7.5t-7 19.5z" />
<glyph horiz-adv-x="1157" d="M143 27v1421q0 12 7.5 19.5t19.5 7.5h86q11 0 18 -7.5t7 -19.5v-1321h727q11 0 18.5 -7.5t7.5 -19.5v-73q0 -12 -7.5 -19.5t-18.5 -7.5h-838q-12 0 -19.5 7.5t-7.5 19.5zM483 356v1092q0 12 8 19.5t19 7.5h86q12 0 19.5 -7.5t7.5 -19.5v-991h385q11 0 18.5 -7.5 t7.5 -17.5v-76q0 -12 -7.5 -19t-18.5 -7h-498q-11 0 -19 7t-8 19z" />
<glyph horiz-adv-x="1382" d="M133 207v1061q0 90 63.5 152.5t151.5 62.5h230q88 0 151.5 -62.5t63.5 -152.5v-99q0 -12 -7 -19t-18 -7h-88q-11 0 -18 7t-7 19v134q0 23 -15.5 38t-37.5 15h-276q-24 0 -40 -15t-16 -38v-1139q0 -22 16.5 -37.5t39.5 -15.5h276q22 0 37.5 15.5t15.5 37.5v233 q0 12 7 19.5t18 7.5h88q11 0 18 -7.5t7 -19.5v-190q0 -90 -63.5 -153.5t-151.5 -63.5h-230q-88 0 -151.5 63.5t-63.5 153.5zM655 580v407q0 12 7 19.5t18 7.5h88q11 0 18 -7.5t7 -19.5v-86h143l223 547q4 12 11 19t12 7l4 1h102q2 0 4.5 -1t6.5 -7t-3 -19l-247 -610 l247 -811q3 -13 1 -19t-7 -7l-4 -1h-102q-2 0 -5.5 0.5t-10 7.5t-9.5 19l-229 745h-137v-192q0 -12 -7 -19.5t-18 -7.5h-88q-11 0 -18 7.5t-7 19.5z" />
<glyph horiz-adv-x="2013" d="M143 27v1421q0 12 7.5 19.5t19.5 7.5h94q23 0 33 -27l313 -746l314 746q4 12 11.5 19t12.5 7l6 1h105q23 0 33 -27l313 -746l313 746q4 12 11.5 19t13.5 7l6 1h96q11 0 18 -7.5t7 -19.5v-1421q0 -12 -7 -19.5t-18 -7.5h-88q-11 0 -17.5 7.5t-6.5 19.5v1101l-328 -737 l-330 737v-1101q0 -12 -6.5 -19.5t-17.5 -7.5h-88q-11 0 -18 7.5t-7 19.5v1101l-328 -737l-329 737v-1101q0 -12 -7 -19.5t-18 -7.5h-86q-12 0 -19.5 7.5t-7.5 19.5z" />
<glyph horiz-adv-x="1380" d="M123 27v100l487 1221h-460q-12 0 -19.5 6.5t-7.5 17.5v76q0 12 7.5 19.5t19.5 7.5h571q11 0 17.5 -7.5t6.5 -19.5v-100l-485 -1221h240q11 0 17.5 -7.5t6.5 -19.5v-73q0 -12 -6.5 -19.5t-17.5 -7.5h-350q-12 0 -19.5 7.5t-7.5 19.5zM635 27v100l487 1221h-221 q-12 0 -19.5 6.5t-7.5 17.5v76q0 12 7.5 19.5t19.5 7.5h332q11 0 17.5 -7.5t6.5 -19.5v-100l-485 -1221h461q11 0 17.5 -7.5t6.5 -19.5v-73q0 -12 -6.5 -19.5t-17.5 -7.5h-571q-12 0 -19.5 7.5t-7.5 19.5z" />
<glyph horiz-adv-x="1288" d="M143 27v1421q0 12 7.5 19.5t19.5 7.5h86q11 0 18 -7.5t7 -19.5v-1321h837q11 0 19 -7.5t8 -19.5v-73q0 -12 -8 -19.5t-19 -7.5h-948q-12 0 -19.5 7.5t-7.5 19.5zM483 522v746q0 90 63.5 152.5t153.5 62.5h228q90 0 153.5 -62.5t63.5 -152.5v-746q0 -90 -63.5 -153.5 t-153.5 -63.5h-228q-90 0 -153.5 63.5t-63.5 153.5zM623 479q0 -22 15.5 -37.5t37.5 -15.5h276q22 0 38 15.5t16 37.5v824q0 23 -16 38t-38 15h-276q-22 0 -37.5 -15t-15.5 -38v-824z" />
<glyph horiz-adv-x="1210" d="M102 1448q0 12 7.5 19.5t19.5 7.5h84q11 0 19 -7.5t8 -19.5l67 -1268l299 469l299 -469l68 1268q0 12 7.5 19.5t18.5 7.5h84q12 0 19.5 -7.5t7.5 -19.5l-70 -1421q0 -12 -7.5 -19.5t-18.5 -7.5h-117q-19 0 -35 27l-256 395l-256 -395q-18 -27 -35 -27h-116q-11 0 -19 7.5 t-8 19.5z" />
<glyph horiz-adv-x="929" d="M133 207v1061q0 90 63.5 152.5t151.5 62.5h230q88 0 151.5 -62.5t63.5 -152.5v-1061q0 -76 -45 -133l55 -176q5 -13 2 -19t-5.5 -7t-8.5 -1h-78q-25 0 -33 27l-33 92h-299q-88 0 -151.5 63.5t-63.5 153.5zM270 164q0 -22 16.5 -37.5t39.5 -15.5h276q22 0 37.5 15.5 t15.5 37.5v1139q0 23 -15.5 38t-37.5 15h-276q-24 0 -40 -15t-16 -38v-1139z" />
<glyph horiz-adv-x="847" d="M123 27v100l211 528h-158q-12 0 -19 8t-7 19v76q0 11 7 18.5t19 7.5h209l225 564h-460q-12 0 -19.5 6.5t-7.5 17.5v76q0 12 7.5 19.5t19.5 7.5h571q11 0 17.5 -7.5t6.5 -19.5v-100l-225 -564h154q10 0 17 -7.5t7 -18.5v-76q0 -11 -7 -19t-17 -8h-205l-209 -528h461 q11 0 17.5 -7.5t6.5 -19.5v-73q0 -12 -6.5 -19.5t-17.5 -7.5h-571q-12 0 -19.5 7.5t-7.5 19.5z" />
<glyph horiz-adv-x="612" d="M102 27v67q0 11 7.5 18t19.5 7h147q23 0 39.5 16t16.5 39v1274q0 12 6.5 19.5t17.5 7.5h86q12 0 19.5 -7.5t7.5 -19.5v-1233q0 -89 -63.5 -152t-151.5 -63h-125q-12 0 -19.5 7.5t-7.5 19.5z" />
<glyph horiz-adv-x="1398" d="M88 27l148 616q-60 25 -98 79.5t-38 121.5v416q0 89 63.5 152t151.5 63h760q88 0 151.5 -63t63.5 -152v-416q0 -67 -37.5 -121.5t-97.5 -79.5l148 -616q3 -12 -0.5 -18.5t-8.5 -7.5l-4 -1h-108q-2 0 -5.5 0.5t-10 7.5t-9.5 19l-147 602h-246v-602q0 -12 -7 -19.5 t-18 -7.5h-86q-26 0 -26 27v602h-246l-148 -602q-3 -12 -9 -18.5t-10 -7.5l-5 -1h-109q-2 0 -5 0.5t-6.5 7.5t-0.5 19zM240 803q0 -22 15 -37.5t38 -15.5h334v598h-334q-23 0 -38 -16t-15 -38v-491zM764 750h334q23 0 38 15.5t15 37.5v491q0 22 -15 38t-38 16h-334v-598z " />
<glyph horiz-adv-x="1505" d="M143 27v1421q0 12 7.5 19.5t19.5 7.5h121q2 0 5.5 -0.5t10.5 -7.5t10 -19l367 -1112v1112q0 12 7.5 19.5t19.5 7.5h120q2 0 6 -0.5t11 -7.5t10 -19l367 -1112v1112q0 12 6.5 19.5t17.5 7.5h88q11 0 18 -7.5t7 -19.5v-1421q0 -12 -7 -19.5t-18 -7.5h-112q-21 0 -29 27 l-375 1108v-1108q0 -12 -6.5 -19.5t-17.5 -7.5h-113q-21 0 -29 27l-374 1108v-1108q0 -12 -7 -19.5t-18 -7.5h-86q-12 0 -19.5 7.5t-7.5 19.5z" />
<glyph horiz-adv-x="1220" d="M143 27v1421q0 12 7.5 19.5t19.5 7.5h86q11 0 18 -7.5t7 -19.5v-1321h800q11 0 19 -7.5t8 -19.5v-73q0 -12 -8 -19.5t-19 -7.5h-911q-12 0 -19.5 7.5t-7.5 19.5zM483 332v1116q0 12 8 19.5t19 7.5h561q11 0 18 -7.5t7 -19.5v-76q0 -12 -7 -19t-18 -7h-448v-383h374 q10 0 17.5 -8t7.5 -19v-76q0 -10 -7 -17t-18 -7h-374v-404h458q11 0 19 -7t8 -17v-76q0 -10 -8 -18.5t-19 -8.5h-571q-10 0 -18.5 8.5t-8.5 18.5z" />
<glyph horiz-adv-x="1509" d="M102 1372v76q0 12 8 19.5t19 7.5h1221q11 0 18.5 -7.5t7.5 -19.5v-76q0 -10 -7.5 -17t-18.5 -7h-840v-1321q0 -12 -7 -19.5t-18 -7.5h-88q-11 0 -17.5 7.5t-6.5 19.5v1321h-244q-11 0 -19 7t-8 17zM696 27v1091q0 10 8 18.5t19 8.5h86q11 0 19 -8.5t8 -18.5v-444h401v444 q0 11 7.5 19t19.5 8h86q10 0 18 -8t8 -19v-1091q0 -12 -7.5 -19.5t-18.5 -7.5h-86q-12 0 -19.5 7.5t-7.5 19.5v520h-401v-520q0 -12 -8 -19.5t-19 -7.5h-86q-11 0 -19 7.5t-8 19.5z" />
<glyph horiz-adv-x="2230" d="M102 1372v76q0 12 8 19.5t19 7.5h1952q11 0 17.5 -7.5t6.5 -19.5v-76q0 -10 -6.5 -17t-17.5 -7h-1571v-1321q0 -12 -7 -19.5t-18 -7.5h-88q-11 0 -17.5 7.5t-6.5 19.5v1321h-244q-11 0 -19 7t-8 17zM666 27v1091q0 11 8 19t18 8h86q10 0 18.5 -8.5t8.5 -18.5v-444h401 v444q0 11 7.5 19t19.5 8h86q11 0 19 -8.5t8 -18.5v-1091q0 -12 -8 -19.5t-19 -7.5h-86q-12 0 -19.5 7.5t-7.5 19.5v520h-401v-520q0 -12 -8 -19.5t-19 -7.5h-86q-11 0 -18.5 7.5t-7.5 19.5zM1495 27v1091q0 11 7.5 19t17.5 8h561q10 0 17 -8t7 -19v-78q0 -10 -6.5 -17 t-17.5 -7h-449v-342h375q11 0 18 -7t7 -18v-76q0 -11 -7.5 -18.5t-17.5 -7.5h-375v-420h459q11 0 19 -7.5t8 -19.5v-73q0 -12 -8 -19.5t-19 -7.5h-571q-11 0 -18 7.5t-7 19.5z" />
<glyph horiz-adv-x="1468" d="M143 27v1421q0 12 7.5 19.5t19.5 7.5h86q11 0 18 -7.5t7 -19.5v-608h385v608q0 12 6.5 19.5t17.5 7.5h88q11 0 18 -7.5t7 -19.5v-608h383v608q0 12 7.5 19.5t18.5 7.5h86q11 0 19 -7.5t8 -19.5v-1421q0 -12 -8 -19.5t-19 -7.5h-86q-11 0 -18.5 7.5t-7.5 19.5v686h-383 v-686q0 -12 -7 -19.5t-18 -7.5h-88q-11 0 -17.5 7.5t-6.5 19.5v686h-385v-686q0 -12 -7 -19.5t-18 -7.5h-86q-12 0 -19.5 7.5t-7.5 19.5z" />
<glyph horiz-adv-x="1390" d="M123 215v410q0 81 57 145q-20 48 -20 92v398q0 89 64 152t153 63h639q89 0 152 -63t63 -152v-398q0 -48 -21 -92q58 -61 58 -145v-410q0 -89 -63 -152t-152 -63h-713q-89 0 -153 63t-64 152zM262 174q0 -23 15.5 -39t37.5 -16h312v569h-318q-20 -3 -33.5 -18t-13.5 -35 v-461zM299 854q0 -22 13.5 -36.5t33.5 -16.5h281v547h-275q-22 0 -37.5 -16t-15.5 -38v-440zM766 119h311q22 0 37.5 16t15.5 39v461q0 20 -13.5 35t-35.5 18h-315v-569zM766 801h278q22 2 36 16.5t14 36.5v440q0 22 -16 38t-38 16h-274v-547z" />
<glyph horiz-adv-x="1411" d="M133 207v1061q0 90 63.5 152.5t151.5 62.5h230q70 0 127 -41q61 41 129 41h229q88 0 151.5 -62.5t63.5 -152.5v-1061q0 -90 -63.5 -153.5t-151.5 -63.5h-229q-70 0 -129 43q-56 -43 -127 -43h-230q-88 0 -151.5 63.5t-63.5 153.5zM270 164q0 -22 16.5 -37.5t39.5 -15.5 h258q22 0 37.5 15.5t15.5 37.5v1145q0 20 -16 33.5t-37 13.5h-258q-24 0 -40 -15t-16 -38v-1139zM774 164q0 -22 15.5 -37.5t37.5 -15.5h258q23 0 38.5 15.5t15.5 37.5v1139q0 23 -15.5 38t-38.5 15h-258q-21 0 -37 -13.5t-16 -33.5v-1145z" />
<glyph horiz-adv-x="708" d="M113 1575v100q0 11 8 19t18 8h97q10 0 17 -8t7 -19v-100q0 -11 -7 -18t-17 -7h-97q-11 0 -18.5 7.5t-7.5 17.5zM449 1575v100q0 11 7 19t17 8h96q11 0 19 -8t8 -19v-100q0 -10 -8 -17.5t-19 -7.5h-96q-10 0 -17 7t-7 18z" />
<glyph horiz-adv-x="923" d="M104 27l246 1421q2 12 9 19t13 7l7 1h168q24 0 28 -27l246 -1421q2 -12 -2 -18.5t-9 -7.5l-5 -1h-100q-2 0 -5.5 0.5t-9.5 7.5t-8 19l-39 233h-362l-37 -233q-2 -12 -7.5 -18.5t-10.5 -7.5l-5 -1h-100q-2 0 -5.5 0.5t-8.5 7.5t-3 19zM221 1575v100q0 11 8.5 19t18.5 8h96 q10 0 17.5 -8t7.5 -19v-100q0 -11 -7.5 -18t-17.5 -7h-96q-11 0 -19 7.5t-8 17.5zM301 387h322l-160 973zM557 1575v100q0 11 7.5 19t17.5 8h96q10 0 18.5 -8t8.5 -19v-100q0 -10 -8 -17.5t-19 -7.5h-96q-10 0 -17.5 7t-7.5 18z" />
<glyph horiz-adv-x="878" d="M143 27v1421q0 12 7.5 19.5t19.5 7.5h559q11 0 19 -7.5t8 -19.5v-76q0 -12 -8 -19t-19 -7h-448v-506h374q11 0 19 -7.5t8 -17.5v-76q0 -10 -8 -18t-19 -8h-374v-586h460q11 0 18 -7.5t7 -19.5v-73q0 -12 -7 -19.5t-18 -7.5h-571q-12 0 -19.5 7.5t-7.5 19.5zM207 1575v100 q0 11 8 19t18 8h97q10 0 17 -8t7 -19v-100q0 -11 -7 -18t-17 -7h-97q-11 0 -18.5 7.5t-7.5 17.5zM543 1575v100q0 11 7 19t17 8h97q10 0 18 -8t8 -19v-100q0 -10 -7.5 -17.5t-18.5 -7.5h-97q-10 0 -17 7t-7 18z" />
<glyph d="M133 207v1061q0 90 63.5 152.5t151.5 62.5h236q90 0 153.5 -62.5t63.5 -152.5v-1061q0 -90 -63.5 -153.5t-153.5 -63.5h-236q-88 0 -151.5 63.5t-63.5 153.5zM223 1575v100q0 11 8.5 19t18.5 8h96q10 0 17.5 -8t7.5 -19v-100q0 -11 -7.5 -18t-17.5 -7h-96q-11 0 -19 7.5 t-8 17.5zM270 164q0 -22 16.5 -37.5t39.5 -15.5h282q23 0 38.5 15.5t15.5 37.5v1139q0 23 -15.5 38t-38.5 15h-282q-24 0 -40 -15t-16 -38v-1139zM559 1575v100q0 11 7.5 19t17.5 8h96q10 0 18.5 -8t8.5 -19v-100q0 -10 -8 -17.5t-19 -7.5h-96q-10 0 -17.5 7t-7.5 18z" />
<glyph horiz-adv-x="950" d="M143 207v1241q0 12 7.5 19.5t19.5 7.5h86q11 0 18 -7.5t7 -19.5v-1284q0 -22 16 -37.5t39 -15.5h278q23 0 38.5 15.5t15.5 37.5v1284q0 12 7.5 19.5t18.5 7.5h86q12 0 19.5 -7.5t7.5 -19.5v-1241q0 -90 -63.5 -153.5t-151.5 -63.5h-234q-88 0 -151.5 63.5t-63.5 153.5z M231 1575v100q0 11 8.5 19t18.5 8h96q10 0 17.5 -8t7.5 -19v-100q0 -11 -7.5 -18t-17.5 -7h-96q-11 0 -19 7.5t-8 17.5zM567 1575v100q0 11 7.5 19t17.5 8h96q10 0 18.5 -8t8.5 -19v-100q0 -10 -8 -17.5t-19 -7.5h-96q-10 0 -17.5 7t-7.5 18z" />
<glyph horiz-adv-x="423" d="M-29 1575v100q0 11 8.5 19t18.5 8h96q10 0 17.5 -8t7.5 -19v-100q0 -11 -7.5 -18t-17.5 -7h-96q-11 0 -19 7.5t-8 17.5zM143 27v1421q0 12 7.5 19.5t19.5 7.5h86q11 0 18 -7.5t7 -19.5v-1421q0 -12 -7 -19.5t-18 -7.5h-86q-12 0 -19.5 7.5t-7.5 19.5zM307 1575v100 q0 11 7.5 19t17.5 8h96q10 0 18.5 -8t8.5 -19v-100q0 -10 -8 -17.5t-19 -7.5h-96q-10 0 -17.5 7t-7.5 18z" />
<glyph horiz-adv-x="874" d="M85 1467q2 6 7 7l4 1h99q2 0 5 -0.5t10 -7.5t11 -19l217 -711l215 711q4 12 10.5 19t11.5 7l5 1h98q2 0 5 -0.5t7 -7.5t1 -19l-285 -926v-495q0 -12 -7.5 -19.5t-19.5 -7.5h-84q-11 0 -18.5 7.5t-7.5 19.5v495l-283 926q-3 13 -1 19zM197 1575v100q0 11 8 19t18 8h96 q10 0 17.5 -8t7.5 -19v-100q0 -11 -7 -18t-18 -7h-96q-11 0 -18.5 7.5t-7.5 17.5zM532 1575v100q0 11 7.5 19t17.5 8h96q11 0 19 -8t8 -19v-100q0 -10 -8 -17.5t-19 -7.5h-96q-11 0 -18 7t-7 18z" />
</font>
</defs>
</svg>
