<?xml version="1.0" encoding="utf-8"?>
<!-- Generator: Adobe Illustrator 18.0.0, SVG Export Plug-In . SVG Version: 6.00 Build 0)  -->
<!DOCTYPE svg PUBLIC "-//W3C//DTD SVG 1.1//EN" "http://www.w3.org/Graphics/SVG/1.1/DTD/svg11.dtd">
<svg version="1.1" id="Layer_1" xmlns="http://www.w3.org/2000/svg" xmlns:xlink="http://www.w3.org/1999/xlink" x="0px" y="0px"
	 viewBox="0 0 377.8 105.3" enable-background="new 0 0 377.8 105.3" xml:space="preserve">
<g>
	<polygon fill="#FFFFFF" points="377.8,42.2 335.7,42.2 335.7,0 314.7,0 314.7,42.2 272.5,42.2 272.5,63.2 314.7,63.2 314.7,105.3 
		335.7,105.3 335.7,63.2 377.8,63.2 	"/>
	<g>
		<rect y="0" fill="#FFFFFF" width="21" height="105.3"/>
	</g>
	<polygon fill="#FFFFFF" points="183.8,17 183.8,0 162.8,0 162.8,17 101.3,17 101.3,88.9 122.3,88.9 122.3,38 162.8,38 162.8,105.3 
		183.8,105.3 183.8,38 224.2,38 224.2,88.9 245.2,88.9 245.2,17 	"/>
	<g>
		<circle fill="#FFFFFF" cx="59.3" cy="25" r="16"/>
	</g>
	<g>
		<circle fill="#FFFFFF" cx="59.3" cy="79" r="16"/>
	</g>
</g>
</svg>
